<svg width="71" height="54" viewBox="0 0 71 54" fill="none" xmlns="http://www.w3.org/2000/svg">
<path d="M58.4002 36.5999C55.753 36.5999 53.6002 38.7527 53.6002 41.3999C53.6002 44.0471 55.753 46.1999 58.4002 46.1999C61.0474 46.1999 63.2002 44.0471 63.2002 41.3999C63.2002 38.7527 61.0474 36.5999 58.4002 36.5999Z" fill="#575757"/>
<path d="M48.7998 41.3999C48.7998 38.7527 46.647 36.5999 43.9998 36.5999C41.3526 36.5999 39.1998 38.7527 39.1998 41.3999C39.1998 44.0471 41.3526 46.1999 43.9998 46.1999C46.647 46.1999 48.7998 44.0471 48.7998 41.3999Z" fill="#575757"/>
<path d="M34.3999 41.3999C34.3999 38.7527 32.2471 36.5999 29.5999 36.5999C26.9527 36.5999 24.7999 38.7527 24.7999 41.3999C24.7999 44.0471 26.9527 46.1999 29.5999 46.1999C32.2471 46.1999 34.3999 44.0471 34.3999 41.3999Z" fill="#575757"/>
<path d="M20 41.3999C20 38.7527 17.8472 36.5999 15.2 36.5999C12.5528 36.5999 10.4 38.7527 10.4 41.3999C10.4 44.0471 12.5528 46.1999 15.2 46.1999C17.8472 46.1999 20 44.0471 20 41.3999Z" fill="#575757"/>
<path d="M3.1999 12.6001H27.1999C27.1999 5.9833 32.5831 0.600098 39.1999 0.600098H48.7999C55.4167 0.600098 60.7999 5.9833 60.7999 12.6001V29.6425C66.2703 30.7577 70.3999 35.6057 70.3999 41.4001C70.3999 48.0169 65.0167 53.4001 58.3999 53.4001H15.1999C8.5831 53.4001 3.1999 48.0169 3.1999 41.4001C3.1999 34.7833 8.5831 29.4001 15.1999 29.4001H27.1999V24.6001H3.1999C1.8743 24.6001 0.799904 23.5257 0.799904 22.2001V15.0001C0.799904 13.6745 1.8743 12.6001 3.1999 12.6001ZM7.9999 41.4001C7.9999 45.3705 11.2295 48.6001 15.1999 48.6001H58.3999C62.3703 48.6001 65.5999 45.3705 65.5999 41.4001C65.5999 37.4297 62.3703 34.2001 58.3999 34.2001H15.1999C11.2295 34.2001 7.9999 37.4297 7.9999 41.4001ZM55.9999 29.4001V12.6001C55.9999 8.6297 52.7703 5.4001 48.7999 5.4001H39.1999C35.2295 5.4001 31.9999 8.6297 31.9999 12.6001V29.4001H55.9999ZM5.5999 19.8001H27.1999V17.4001H5.5999V19.8001Z" fill="#575757"/>
</svg>
