<svg width="72" height="56" viewBox="0 0 72 56" fill="none" xmlns="http://www.w3.org/2000/svg">
<path d="M71.0389 47.1403H65.3504C65.2301 47.1403 65.1126 47.0915 65.0275 47.0062C64.942 46.9224 64.8934 46.8036 64.8934 46.6832C64.8934 44.6723 64.1102 42.7819 62.6888 41.3588C61.2659 39.9375 59.377 39.1544 57.3675 39.153C54.738 39.153 52.3416 40.4891 50.9553 42.727C50.9553 42.7285 50.9553 42.7285 50.9538 42.7301C50.8699 42.8641 50.7253 42.9434 50.5668 42.9434C50.4814 42.9434 50.3991 42.9205 50.3261 42.8763C50.189 42.791 50.1081 42.6434 50.1098 42.4833C50.1098 42.3995 50.1342 42.3189 50.1767 42.2471C50.1782 42.2471 50.1782 42.2471 50.1782 42.2456L50.186 42.235C50.9294 41.0377 51.9699 40.0353 53.1963 39.3389C54.4623 38.6198 55.9034 38.2405 57.3675 38.2405C59.5429 38.2405 61.6087 39.0662 63.1855 40.5669C64.7531 42.0599 65.6809 44.0692 65.7951 46.2264H70.5819V19.7338C70.5819 19.4809 70.7861 19.2767 71.0389 19.2767C71.2902 19.2767 71.4944 19.4809 71.4944 19.7338V46.6834C71.4944 46.8053 71.4471 46.9212 71.3619 47.0064C71.2751 47.093 71.1608 47.1403 71.0389 47.1403ZM47.7028 47.1403H25.6816C25.5613 47.1403 25.4425 47.0915 25.3587 47.0062C25.2734 46.9224 25.2246 46.8036 25.2246 46.6832V15.3857C25.2246 15.1344 25.4288 14.9287 25.6816 14.9287C25.933 14.9287 26.1387 15.1344 26.1387 15.3857V46.2262H47.7028C47.9557 46.2262 48.1598 46.432 48.1598 46.6832C48.1598 46.9361 47.9557 47.1403 47.7028 47.1403ZM49.4945 45.7753C49.4669 45.7753 49.441 45.7722 49.4151 45.7677C49.2948 45.7478 49.1898 45.6808 49.1197 45.5818C49.0496 45.4812 49.0221 45.3609 49.0436 45.2405C49.0861 44.9937 49.3239 44.8246 49.5707 44.8673C49.819 44.91 49.9864 45.1476 49.9439 45.3959C49.9058 45.6153 49.7169 45.7753 49.4945 45.7753ZM71.0389 17.1438C70.7861 17.1438 70.5819 16.9381 70.5819 16.6868C70.5819 16.4339 70.7861 16.2297 71.0389 16.2297C71.2902 16.2297 71.4944 16.4339 71.4944 16.6868C71.4944 16.9381 71.2902 17.1438 71.0389 17.1438ZM71.0389 14.0969C70.7861 14.0969 70.5819 13.8912 70.5819 13.6384L70.5804 1.78601H26.1387V9.29199C26.1387 9.54335 25.933 9.74902 25.6816 9.74902C25.4288 9.74902 25.2246 9.54335 25.2246 9.29199V1.32898C25.2246 1.20863 25.2734 1.09132 25.3571 1.00601C25.4425 0.920698 25.5613 0.871948 25.6816 0.871948H71.0389C71.1578 0.871948 71.2766 0.920698 71.3619 1.00601C71.4472 1.09132 71.4944 1.20863 71.4944 1.32898V13.6368C71.496 13.6368 71.496 13.6384 71.496 13.6384C71.496 13.8912 71.2902 14.0969 71.0389 14.0969ZM25.6816 12.7959C25.4288 12.7959 25.2246 12.5902 25.2246 12.3389C25.2246 12.086 25.4288 11.8818 25.6816 11.8818C25.933 11.8818 26.1387 12.086 26.1387 12.3389C26.1387 12.5902 25.933 12.7959 25.6816 12.7959Z" fill="#575757"/>
<path d="M25.6815 47.1405H22.8784C22.758 47.1405 22.6407 47.0918 22.5554 47.0065C22.4701 46.9227 22.4214 46.8038 22.4214 46.6835C22.4214 45.5089 22.1578 44.3817 21.6398 43.3365C21.585 43.2283 21.5758 43.1034 21.6155 42.9876C21.6535 42.8718 21.7358 42.7789 21.8455 42.7241C21.9095 42.6921 21.978 42.6768 22.0481 42.6768C22.2233 42.6768 22.3802 42.7743 22.4579 42.9297C22.9713 43.9611 23.2623 45.0702 23.3232 46.2265H25.2245V25.0217H1.41772V46.2265H6.4603C6.57456 44.0693 7.50233 42.0599 9.07147 40.567C10.6482 39.0663 12.7155 38.2406 14.8956 38.2392C15.8828 38.2392 16.8501 38.4082 17.7703 38.742C17.9485 38.8075 18.0704 38.9796 18.0704 39.17C18.0704 39.2249 18.0613 39.2767 18.043 39.3285C17.9775 39.5084 17.8053 39.6288 17.6134 39.6288C17.5601 39.6288 17.5083 39.6195 17.458 39.6012C16.6384 39.3043 15.7761 39.1534 14.8956 39.1534C12.8831 39.155 10.991 39.9379 9.56812 41.3592C8.14522 42.7823 7.36218 44.6727 7.36218 46.6836C7.36218 46.8072 7.31343 46.9214 7.22812 47.0066C7.14128 47.0934 7.02702 47.1407 6.90515 47.1407H0.960693C0.841865 47.1407 0.723037 47.0919 0.637724 47.0066C0.552412 46.9228 0.503662 46.804 0.503662 46.6836V24.5647C0.503662 24.4443 0.552412 24.3255 0.637724 24.2417C0.723037 24.1564 0.840342 24.1077 0.960693 24.1077H25.6815C25.8019 24.1077 25.9192 24.1564 26.0045 24.2417C26.0898 24.327 26.1385 24.4443 26.1385 24.5647V46.6835C26.1385 46.8054 26.0898 46.9213 26.0045 47.0065C25.9176 47.0933 25.8034 47.1405 25.6815 47.1405ZM20.2124 41.1824C20.0996 41.1824 19.9915 41.1411 19.9077 41.0664C19.7203 40.8988 19.7035 40.6094 19.8711 40.4206C20.0326 40.2407 20.3358 40.2241 20.5171 40.3856C20.6085 40.4663 20.6618 40.5791 20.6679 40.7009C20.6755 40.8228 20.6344 40.94 20.5536 41.03C20.4668 41.1275 20.3419 41.1824 20.2124 41.1824Z" fill="#575757"/>
<path d="M25.6816 25.0215H0.960766C0.802328 25.0215 0.656079 24.9408 0.572289 24.8052C0.4885 24.6681 0.480883 24.502 0.552485 24.3604L7.12155 11.2222C7.21143 11.0425 7.41557 10.9404 7.61362 10.9785C7.61666 10.9785 7.61819 10.9785 7.61971 10.98C7.62123 10.98 7.62428 10.98 7.62733 10.98C7.62733 10.9815 7.62885 10.9815 7.62885 10.9815H7.63342C7.63495 10.9831 7.63799 10.9831 7.63952 10.9831C7.65627 10.9876 7.67303 10.9937 7.68979 10.9998L7.70198 11.0044V11.012L7.70502 11.0044C7.71416 11.009 7.72483 11.0135 7.73397 11.0181C7.88784 11.0958 7.98534 11.2512 7.98686 11.4233C7.98686 11.4965 7.97163 11.5665 7.93811 11.632L1.70116 24.1075H25.223V9.77954H12.3226C12.0697 9.77954 11.8655 9.57388 11.8655 9.32251C11.8655 9.06962 12.0697 8.86548 12.3226 8.86548H25.6816C25.8019 8.86548 25.9192 8.91423 26.0046 8.99954C26.0899 9.08485 26.1386 9.20216 26.1386 9.32251V24.5645C26.1386 24.6849 26.0899 24.8022 26.0046 24.8875C25.9192 24.9728 25.8019 25.0215 25.6816 25.0215ZM9.27569 9.77954C9.0228 9.77954 8.81866 9.57388 8.81866 9.32251C8.81866 9.06962 9.0228 8.86548 9.27569 8.86548C9.52706 8.86548 9.73272 9.06962 9.73272 9.32251C9.73272 9.57388 9.52706 9.77954 9.27569 9.77954Z" fill="#575757"/>
<path d="M57.3674 55.1275C56.2263 55.1275 55.1203 54.9036 54.0783 54.4635C53.0727 54.0384 52.1694 53.4306 51.394 52.6552C50.6186 51.8797 50.0092 50.9762 49.5841 49.9709C49.1439 48.9303 48.9199 47.8243 48.9199 46.6833C48.9199 45.5439 49.144 44.4377 49.5841 43.3957C50.0092 42.3902 50.6186 41.4884 51.394 40.7131C52.1694 39.9375 53.0728 39.3281 54.0783 38.9031C55.1203 38.4628 56.2263 38.239 57.3674 38.239C58.5069 38.239 59.6114 38.463 60.6519 38.9031C61.6575 39.3281 62.5594 39.9375 63.3347 40.7131C64.1101 41.4885 64.7195 42.3919 65.1445 43.3957C65.585 44.4377 65.8074 45.5439 65.8074 46.6833C65.8074 47.8243 65.585 48.9288 65.1445 49.9709C64.7195 50.9763 64.1101 51.8797 63.3347 52.6552C62.5593 53.4306 61.6574 54.0384 60.6519 54.4635C59.6114 54.9037 58.5069 55.1275 57.3674 55.1275ZM57.3674 39.1529C55.3549 39.1544 53.4628 39.9373 52.0399 41.3587C50.617 42.7818 49.834 44.6722 49.834 46.6831C49.834 48.6941 50.6172 50.5862 52.0399 52.0075C53.4628 53.4304 55.3549 54.2133 57.3674 54.2133C59.3768 54.2133 61.2659 53.4303 62.6888 52.0075C64.1101 50.5862 64.8933 48.6941 64.8933 46.6831C64.8933 44.6722 64.1101 42.7818 62.6888 41.3587C61.2659 39.9373 59.3768 39.1544 57.3674 39.1529Z" fill="#575757"/>
<path d="M14.8939 55.1276C13.7544 55.1276 12.6469 54.9037 11.6064 54.4636C10.5994 54.0385 9.69597 53.4307 8.92054 52.6552C8.14511 51.8798 7.53726 50.9763 7.11069 49.9709C6.67042 48.9304 6.448 47.8244 6.448 46.6834C6.448 45.544 6.67042 44.4378 7.11069 43.3973C7.53726 42.3918 8.14511 41.4886 8.92054 40.7132C9.69597 39.9376 10.5994 39.3282 11.6064 38.9032C12.6469 38.4629 13.7544 38.2405 14.8939 38.2405C16.0335 38.2405 17.1395 38.4629 18.18 38.9032C19.1855 39.3282 20.0873 39.9376 20.8628 40.7132C21.6382 41.4886 22.2476 42.392 22.6726 43.3973C23.1129 44.4378 23.3353 45.544 23.3353 46.6834C23.3353 47.8244 23.1129 48.9289 22.6726 49.9709C22.2476 50.9764 21.6382 51.8798 20.8628 52.6552C20.0873 53.4307 19.1855 54.0385 18.18 54.4636C17.1395 54.9038 16.0335 55.1276 14.8939 55.1276ZM14.8939 39.153C12.8815 39.1545 10.9909 39.9374 9.568 41.3588C8.14511 42.7818 7.36206 44.6723 7.36206 46.6832C7.36206 48.6942 8.14511 50.5847 9.568 52.0076C10.9909 53.4305 12.883 54.2134 14.8939 54.2134C16.9049 54.2134 18.7939 53.4304 20.2168 52.0076C21.6382 50.5847 22.4212 48.6942 22.4212 46.6832C22.4212 44.6723 21.6382 42.7818 20.2168 41.3588C18.7939 39.9374 16.9049 39.1545 14.8939 39.153Z" fill="#575757"/>
<path d="M71.0389 5.92383H25.6816C25.4288 5.92383 25.2246 5.71969 25.2246 5.4668C25.2246 5.21543 25.4288 5.00977 25.6816 5.00977H71.0389C71.2902 5.00977 71.496 5.21543 71.496 5.4668C71.496 5.71969 71.2902 5.92383 71.0389 5.92383Z" fill="#575757"/>
<path d="M71.0389 43.5618H64.5963C64.3434 43.5618 64.1393 43.3576 64.1393 43.1047C64.1393 42.8535 64.3434 42.6477 64.5963 42.6477H71.0389C71.2902 42.6477 71.496 42.8535 71.496 43.1047C71.496 43.3578 71.2902 43.5618 71.0389 43.5618ZM49.8997 43.5618H25.6816C25.4288 43.5618 25.2246 43.3576 25.2246 43.1047C25.2246 42.8535 25.4288 42.6477 25.6816 42.6477H49.8997C50.1525 42.6477 50.3568 42.8535 50.3568 43.1047C50.3568 43.3578 50.1525 43.5618 49.8997 43.5618Z" fill="#575757"/>
<path d="M15.1392 20.2289C15.0097 20.2289 14.8848 20.174 14.798 20.0765L10.5141 15.2883C10.4333 15.1969 10.3922 15.0796 10.3983 14.9578C10.4059 14.8359 10.4592 14.7232 10.5506 14.6424C10.7304 14.4794 11.0336 14.4977 11.1951 14.679L15.479 19.4671C15.6481 19.6545 15.6313 19.944 15.4439 20.1131C15.3601 20.1877 15.252 20.2289 15.1392 20.2289Z" fill="#575757"/>
<path d="M20.0587 21.6715C19.9292 21.6715 19.8043 21.6166 19.7174 21.5191L15.435 16.731C15.3528 16.6396 15.3116 16.5223 15.3193 16.4004C15.3253 16.2785 15.3802 16.1658 15.4716 16.085C15.6514 15.9235 15.9545 15.9403 16.116 16.1216L20.3999 20.9098C20.5675 21.0987 20.5507 21.3881 20.3634 21.5557C20.2796 21.6303 20.1714 21.6715 20.0587 21.6715Z" fill="#575757"/>
<path d="M20.0951 9.78272H14.728C14.6077 9.78272 14.4904 9.73397 14.4051 9.64866C14.3197 9.56334 14.271 9.44452 14.271 9.32569V6.18436C14.2725 4.45374 15.6817 3.04608 17.4108 3.04456C19.1414 3.04608 20.5491 4.45374 20.5521 6.18436V9.32569C20.5521 9.44604 20.5034 9.56334 20.4181 9.64866C20.3328 9.73397 20.2155 9.78272 20.0951 9.78272ZM15.1851 8.86866H19.6381V6.18436C19.635 4.95799 18.6356 3.96014 17.4108 3.95709C16.186 3.96014 15.1866 4.95799 15.1851 6.18436V8.86866Z" fill="#575757"/>
<path d="M14.8958 51.0285C13.7334 51.0285 12.6426 50.5758 11.8215 49.7562C10.9988 48.9351 10.5464 47.8443 10.5464 46.6835C10.5464 45.5226 10.9988 44.4318 11.8215 43.6107C12.6426 42.7911 13.7334 42.3386 14.8958 42.3386C16.0551 42.3386 17.1459 42.7911 17.9655 43.6121C18.7851 44.4317 19.2361 45.5225 19.2361 46.6833C19.2361 47.8442 18.7851 48.935 17.9655 49.7561C17.1459 50.5759 16.0551 51.0285 14.8958 51.0285ZM14.8958 43.2528C13.0052 43.2559 11.465 44.7961 11.4604 46.6836C11.465 48.5727 13.0052 50.1114 14.8958 50.1146C16.7818 50.1114 18.319 48.5728 18.3235 46.6836C18.319 44.7961 16.7818 43.2559 14.8958 43.2528Z" fill="#575757"/>
<path d="M57.3674 51.0285C56.2066 51.0285 55.1143 50.5758 54.2931 49.7562C53.4718 48.9351 53.0195 47.8443 53.0195 46.6835C53.0195 45.5226 53.472 44.4318 54.2931 43.6107C55.1143 42.7911 56.2066 42.3386 57.3674 42.3386C58.5283 42.3386 59.6177 42.7911 60.4387 43.6121C61.2583 44.4317 61.7092 45.5225 61.7092 46.6833C61.7092 47.8442 61.2583 48.935 60.4387 49.7561C59.6175 50.5759 58.5268 51.0285 57.3674 51.0285ZM57.3674 43.2528C55.4768 43.2559 53.9366 44.7961 53.9336 46.6836C53.9368 48.5727 55.4768 50.1114 57.3674 50.1146C59.2534 50.1114 60.7921 48.5728 60.7952 46.6836C60.7921 44.7961 59.2534 43.2559 57.3674 43.2528Z" fill="#575757"/>
<path d="M20.1118 29.5873H0.960693C0.709326 29.5873 0.503662 29.3815 0.503662 29.1302C0.503662 28.8789 0.709326 28.6732 0.960693 28.6732H20.1118C20.3647 28.6732 20.5689 28.8789 20.5689 29.1302C20.5689 29.3815 20.3647 29.5873 20.1118 29.5873Z" fill="#575757"/>
<path d="M49.5735 29.2293H47.1467C47.0263 29.2293 46.9075 29.1821 46.8237 29.0969C46.7384 29.0114 46.6896 28.8943 46.6896 28.7739V25.3035H43.2192C43.0989 25.3035 42.9816 25.2548 42.8963 25.1695C42.811 25.0857 42.7622 24.9669 42.7622 24.8465V22.4197C42.7622 22.2993 42.811 22.182 42.8963 22.0967C42.9817 22.0114 43.0989 21.9626 43.2192 21.9626H46.6896V18.4938C46.6896 18.3719 46.7369 18.2546 46.8222 18.1693C46.9075 18.0855 47.0263 18.0367 47.1467 18.0367H49.5735C49.6938 18.0367 49.8113 18.0855 49.8965 18.1693C49.9819 18.2546 50.0305 18.3719 50.0305 18.4938V21.9626H53.4995C53.6199 21.9626 53.7386 22.0114 53.8225 22.0967C53.9078 22.182 53.9566 22.2993 53.9566 22.4197V24.8465C53.9566 24.9684 53.9092 25.0842 53.8225 25.1695C53.737 25.2563 53.6214 25.3035 53.4995 25.3035H50.0305V28.7739C50.0305 28.8958 49.9833 29.0101 49.8965 29.0969C49.8095 29.1822 49.6952 29.2293 49.5735 29.2293ZM47.6022 28.3169H49.1163V24.8465C49.1163 24.7262 49.1651 24.6089 49.2504 24.5235C49.3358 24.4382 49.453 24.3895 49.5733 24.3895H53.0424V22.8767H49.5735C49.4531 22.8767 49.3358 22.828 49.2505 22.7426C49.1652 22.6573 49.1165 22.54 49.1165 22.4197V18.9493H47.6023V22.4197C47.6023 22.5415 47.5549 22.6558 47.4698 22.7426C47.3829 22.8295 47.2687 22.8767 47.1468 22.8767H43.6764V24.3895H47.1468C47.2672 24.3895 47.3845 24.4382 47.4698 24.5235C47.5551 24.6089 47.6023 24.7262 47.6023 24.8465V28.3169H47.6022Z" fill="#575757"/>
<path d="M65.3687 26.3714C65.1173 26.3714 64.9116 26.1673 64.9116 25.9144V5.4668C64.9116 5.21543 65.1173 5.00977 65.3687 5.00977C65.6214 5.00977 65.8257 5.21543 65.8257 5.4668V25.9144C65.8257 26.1673 65.6214 26.3714 65.3687 26.3714Z" fill="#575757"/>
<path d="M31.2441 26.3714C30.9928 26.3714 30.7871 26.1673 30.7871 25.9144V5.4668C30.7871 5.21543 30.9928 5.00977 31.2441 5.00977C31.4955 5.00977 31.7012 5.21543 31.7012 5.4668V25.9144C31.7012 26.1673 31.4955 26.3714 31.2441 26.3714Z" fill="#575757"/>
<path d="M48.3596 33.0819C47.0845 33.0819 45.8459 32.8321 44.6805 32.3402C43.5547 31.8648 42.5447 31.1822 41.6763 30.3155C40.8079 29.4472 40.127 28.4371 39.6501 27.3113C39.158 26.1459 38.9082 24.9088 38.9082 23.6322C38.9082 22.3571 39.158 21.1185 39.6501 19.9546C40.127 18.8288 40.8079 17.8172 41.6763 16.9489C42.5447 16.082 43.5547 15.3995 44.6805 14.9242C45.8459 14.4306 47.0845 14.1808 48.3596 14.1808C48.3901 14.1808 48.4205 14.1838 48.4495 14.1899C48.4769 14.1854 48.5043 14.1823 48.5318 14.1823H48.5394C48.7923 14.1869 48.9934 14.3956 48.9888 14.6485C48.9842 14.8953 48.7786 15.0964 48.5318 15.0964H48.5226H48.5209C48.495 15.0949 48.4676 15.0933 48.4417 15.0872C48.4143 15.0918 48.3869 15.0948 48.3595 15.0948C46.0804 15.0948 43.9354 15.983 42.3221 17.5963C40.7103 19.2081 39.8221 21.3531 39.8221 23.6322C39.8221 25.9128 40.7103 28.0563 42.3221 29.6696C43.9354 31.2799 46.0789 32.1679 48.3595 32.1679C50.64 32.1679 52.785 31.2799 54.3968 29.6696C56.0102 28.0563 56.8983 25.9128 56.8983 23.6322C56.8983 20.0887 54.6695 16.8742 51.35 15.6326C51.1138 15.5443 50.9935 15.2807 51.0818 15.0446C51.1473 14.8663 51.3195 14.7475 51.5099 14.7475C51.5648 14.7475 51.6181 14.7566 51.6699 14.7765C52.5581 15.1086 53.3898 15.5732 54.1439 16.1552C54.8891 16.7341 55.5426 17.4166 56.0863 18.1874C57.2152 19.7855 57.8124 21.6685 57.8124 23.6322C57.8124 24.9088 57.5625 26.1459 57.069 27.3113C56.5936 28.4371 55.9111 29.4472 55.0443 30.3155C54.1759 31.1822 53.1644 31.8648 52.0387 32.3402C50.8733 32.8322 49.6363 33.0819 48.3596 33.0819Z" fill="#575757"/>
<path d="M68.5998 55.1248H63.7551C63.5024 55.1248 63.2981 54.9191 63.2981 54.6677C63.2981 54.4164 63.5024 54.2107 63.7551 54.2107H68.5998C68.851 54.2107 69.0568 54.4164 69.0568 54.6677C69.0568 54.9191 68.8512 55.1248 68.5998 55.1248ZM60.7083 55.1248C60.4555 55.1248 60.2512 54.9191 60.2512 54.6677C60.2512 54.4164 60.4555 54.2107 60.7083 54.2107C60.9596 54.2107 61.1653 54.4164 61.1653 54.6677C61.1653 54.9191 60.9598 55.1248 60.7083 55.1248ZM57.6614 55.1248H4.34106C4.08817 55.1248 3.88403 54.9191 3.88403 54.6677C3.88403 54.4164 4.08817 54.2107 4.34106 54.2107H57.6614C57.9128 54.2107 58.1184 54.4164 58.1184 54.6677C58.1184 54.9191 57.9129 55.1248 57.6614 55.1248Z" fill="#575757"/>
</svg>
