<svg width="57" height="57" viewBox="0 0 57 57" fill="none" xmlns="http://www.w3.org/2000/svg">
<path d="M28.081 36.1894L20.7233 28.8318L13.9557 35.5994C13.8515 35.7035 13.6954 35.7382 13.5566 35.7035C10.1727 34.94 6.47654 35.8597 3.83886 38.48C-0.221677 42.5406 -0.221677 49.1346 3.83886 53.2127C7.8995 57.2732 14.4936 57.2732 18.5716 53.2127C21.2787 50.523 22.1809 46.7053 21.296 43.2693C21.2613 43.1306 21.296 42.9744 21.4001 42.8703L28.081 36.1894ZM13.6607 48.3018C12.7757 49.1868 11.7346 49.3083 11.1966 49.3083C10.6587 49.3083 9.63481 49.1868 8.74979 48.3018C7.39632 46.9482 7.39632 44.7444 8.74979 43.3908C9.63481 42.5058 10.6587 42.3671 11.1966 42.3671C11.7345 42.3671 12.7757 42.5058 13.6607 43.3908C15.0142 44.7444 15.0142 46.9482 13.6607 48.3018Z" fill="#575757"/>
<path d="M28.8271 20.7105L36.2021 28.0682L42.9177 21.3525C43.0219 21.2484 43.1607 21.2137 43.2996 21.2484C46.718 22.0988 50.501 21.179 53.156 18.5067C55.6895 15.9905 56.644 12.4852 56.0192 9.2228C55.9672 8.89309 55.5333 8.7716 55.2904 9.01456L50.7613 13.5437C50.0845 14.2204 48.9912 14.2204 48.3145 13.5437L43.3863 8.63285C42.7095 7.95607 42.7095 6.86281 43.3863 6.18603L47.9328 1.65693C48.1757 1.41397 48.0542 0.980149 47.7072 0.910772C44.4622 0.303454 40.9742 1.25785 38.4406 3.77404C35.7857 6.42899 34.8659 10.1599 35.6816 13.561C35.7163 13.7172 35.6816 13.8561 35.5775 13.9602L28.8271 20.7105Z" fill="#575757"/>
<path d="M41.2935 28.4569C41.0679 28.2313 40.7208 28.2313 40.4952 28.4569L38.5344 30.4178L36.0877 32.8819C34.249 31.0432 19.9838 16.778 11.8384 8.63267L12.9489 7.50469C13.1919 7.24447 13.1573 6.82791 12.8622 6.61967C12.6867 6.50223 3.63161 0.441349 4.20308 0.82386C3.97749 0.685002 3.68251 0.702372 3.49166 0.910607L0.906088 3.49618C0.715119 3.68704 0.6805 3.98211 0.836607 4.2077C0.954069 4.38317 7.01505 13.4383 6.63254 12.8668C6.82341 13.1618 7.25723 13.1965 7.50019 12.9535L8.62806 11.8429C13.7234 16.9383 23.8922 27.1071 32.8773 36.0921L30.4306 38.5389L28.4523 40.4998C28.2267 40.7254 28.2267 41.0724 28.4523 41.298L40.7484 53.6115C44.3057 57.1514 50.0495 57.1514 53.607 53.6115C55.3595 51.8414 56.2445 49.5162 56.2619 47.1735C56.2445 44.8482 55.3595 42.5229 53.607 40.753L41.2935 28.4569ZM50.4487 50.4185C49.5637 51.3035 48.1234 51.3035 47.2384 50.4185L36.9134 40.0936C36.1845 39.3647 36.0631 38.2542 36.5316 37.3865C36.6357 37.1956 36.7572 37.0394 36.9134 36.8832C37.0522 36.7445 37.2084 36.623 37.3819 36.5535C38.2495 36.0156 39.3775 36.1371 40.1237 36.8832L50.4487 47.2082C51.3337 48.0933 51.3337 49.5336 50.4487 50.4185Z" fill="#575757"/>
</svg>
