<svg width="79" height="49" viewBox="0 0 79 49" fill="none" xmlns="http://www.w3.org/2000/svg">
<path d="M9.79245 41.1904C12.0038 42.3617 13.6869 42.3746 15.9242 41.1904C20.823 38.5644 25.9665 38.4461 31.0857 41.1904C33.3084 42.3665 35.0078 42.3698 37.2336 41.1904C42.2411 38.5061 47.3603 38.5012 52.379 41.1904C54.6551 42.3779 56.3367 42.3584 58.5431 41.1904C63.408 38.5822 68.464 38.7086 72.3779 40.5116L78.333 23.4093H0.666992L6.33051 39.7195C7.81929 40.1228 8.90307 40.7044 9.79245 41.1904ZM68.4624 29.4924C70.4048 29.4924 71.9891 31.0622 71.9891 33.0191C71.9891 34.9615 70.4031 36.5459 68.4624 36.5459C66.5038 36.5459 64.9356 34.9599 64.9356 33.0191C64.9356 31.0622 66.5054 29.4924 68.4624 29.4924ZM56.8778 29.4924C58.8201 29.4924 60.4045 31.0622 60.4045 33.0191C60.4045 34.9615 58.8185 36.5459 56.8778 36.5459C54.9192 36.5459 53.351 34.9599 53.351 33.0191C53.351 31.0622 54.9208 29.4924 56.8778 29.4924ZM45.2931 29.4924C47.2355 29.4924 48.8199 31.0622 48.8199 33.0191C48.8199 34.9615 47.2339 36.5459 45.2931 36.5459C43.3346 36.5459 41.7502 34.9599 41.7502 33.0191C41.7486 31.0622 43.3346 29.4924 45.2931 29.4924ZM33.7069 29.4924C35.6493 29.4924 37.2336 31.0622 37.2336 33.0191C37.2336 34.9615 35.6477 36.5459 33.7069 36.5459C31.7483 36.5459 30.164 34.9599 30.164 33.0191C30.164 31.0622 31.7499 29.4924 33.7069 29.4924ZM22.1223 29.4924C24.0647 29.4924 25.649 31.0622 25.649 33.0191C25.649 34.9615 24.063 36.5459 22.1223 36.5459C20.1637 36.5459 18.5793 34.9599 18.5793 33.0191C18.5777 31.0622 20.1637 29.4924 22.1223 29.4924ZM10.536 29.4924C12.4784 29.4924 14.0628 31.0622 14.0628 33.0191C14.0628 34.9615 12.4768 36.5459 10.536 36.5459C8.57745 36.5459 6.99309 34.9599 6.99309 33.0191C6.99309 31.0622 8.57907 29.4924 10.536 29.4924Z" fill="#575757"/>
<path d="M41.3456 11.3694C41.3456 8.97506 39.387 7.01648 36.9764 7.01648H11.8324C9.42187 7.01648 7.47949 8.97506 7.47949 11.3694V20.1709H41.3456V11.3694Z" fill="#575757"/>
<path d="M67.6867 3.40871C67.6867 2.03333 66.5705 0.93335 65.1951 0.93335H53.6737C52.2983 0.93335 51.1821 2.03333 51.1821 3.40871V20.1725H67.6867V3.40871Z" fill="#575757"/>
<path d="M76.7909 45.2824C74.51 45.2824 73.4327 44.709 72.1853 44.0431C68.1126 41.8756 64.1452 41.874 60.0709 44.0431C56.9071 45.7296 54.0186 45.7279 50.8612 44.0431C46.8533 41.908 42.8779 41.8448 38.7582 44.0448C35.6008 45.7279 32.7156 45.7296 29.5598 44.0431C25.552 41.9064 21.5765 41.8448 17.4568 44.0448C14.3221 45.7166 11.4369 45.7393 8.25847 44.0448C6.85069 43.2931 5.25499 42.4426 2.20777 42.4426C1.35565 42.4426 0.665527 43.1327 0.665527 43.9848C0.665527 44.8369 1.35565 45.5271 2.20777 45.5271C4.48387 45.5271 5.56117 46.1005 6.80695 46.7647C10.8505 48.9242 14.8259 48.9453 18.9083 46.7647C22.0657 45.0816 24.9509 45.0799 28.1067 46.7664C32.113 48.9015 36.0917 48.9647 40.2081 46.7647C43.3671 45.0799 46.2523 45.0816 49.4065 46.7664C53.4759 48.9339 57.4417 48.9355 61.5192 46.7664C64.6766 45.0799 67.5699 45.0799 70.7321 46.7664C72.1399 47.5164 73.7372 48.3669 76.7877 48.3669C77.6398 48.3669 78.3299 47.6768 78.3299 46.8247C78.3332 45.9726 77.6431 45.2824 76.7909 45.2824Z" fill="#575757"/>
</svg>
