<svg width="48" height="62" viewBox="0 0 48 62" fill="none" xmlns="http://www.w3.org/2000/svg">
<path d="M3.5 39C3.224 39 3 38.776 3 38.5V27.5C3 27.224 3.224 27 3.5 27C3.776 27 4 27.224 4 27.5V38.5C4 38.776 3.776 39 3.5 39Z" fill="black"/>
<path d="M3.5 25C3.224 25 3 24.776 3 24.5V13.5C3 13.224 3.224 13 3.5 13C3.776 13 4 13.224 4 13.5V24.5C4 24.776 3.776 25 3.5 25Z" fill="black"/>
<path d="M3.5 11C3.224 11 3 10.776 3 10.5V0.5C3 0.224 3.224 0 3.5 0H47.5C47.776 0 48 0.224 48 0.5V7.5C48 7.776 47.776 8 47.5 8C47.224 8 47 7.776 47 7.5V1H4V10.5C4 10.776 3.776 11 3.5 11Z" fill="black"/>
<path d="M47.5 52H3.5C3.224 52 3 51.776 3 51.5V41.5C3 41.224 3.224 41 3.5 41C3.776 41 4 41.224 4 41.5V51H47V20.5C47 20.224 47.224 20 47.5 20C47.776 20 48 20.224 48 20.5V51.5C48 51.776 47.776 52 47.5 52Z" fill="black"/>
<path d="M5 42H2C0.897 42 0 41.103 0 40C0 38.897 0.897 38 2 38H5C6.103 38 7 38.897 7 40C7 41.103 6.103 42 5 42ZM2 39C1.449 39 1 39.449 1 40C1 40.551 1.449 41 2 41H5C5.551 41 6 40.551 6 40C6 39.449 5.551 39 5 39H2Z" fill="black"/>
<path d="M5 28H2C0.897 28 0 27.103 0 26C0 24.897 0.897 24 2 24H5C6.103 24 7 24.897 7 26C7 27.103 6.103 28 5 28ZM2 25C1.449 25 1 25.449 1 26C1 26.551 1.449 27 2 27H5C5.551 27 6 26.551 6 26C6 25.449 5.551 25 5 25H2Z" fill="black"/>
<path d="M5 14H2C0.897 14 0 13.103 0 12C0 10.897 0.897 10 2 10H5C6.103 10 7 10.897 7 12C7 13.103 6.103 14 5 14ZM2 11C1.449 11 1 11.449 1 12C1 12.551 1.449 13 2 13H5C5.551 13 6 12.551 6 12C6 11.449 5.551 11 5 11H2Z" fill="black"/>
<path d="M42.4999 58C42.4749 58 42.4489 57.998 42.4239 57.994L3.42389 51.994C3.15089 51.952 2.96389 51.697 3.00589 51.424C3.04789 51.151 3.30189 50.964 3.57589 51.006L41.9999 56.917V51.5C41.9999 51.224 42.2239 51 42.4999 51C42.7759 51 42.9999 51.224 42.9999 51.5V57.5C42.9999 57.646 42.9369 57.785 42.8259 57.879C42.7339 57.958 42.6189 58 42.4999 58Z" fill="black"/>
<path d="M35.5002 62.0001C35.4502 62.0001 35.4002 61.9931 35.3512 61.9771L3.35118 51.9771C3.08718 51.8951 2.94018 51.6141 3.02318 51.3511C3.10518 51.0871 3.38718 50.9391 3.64918 51.0231L35.0002 60.8201V56.4231C35.0002 56.1471 35.2242 55.9231 35.5002 55.9231C35.7762 55.9231 36.0002 56.1471 36.0002 56.4231V61.5001C36.0002 61.6591 35.9242 61.8091 35.7962 61.9031C35.7092 61.9671 35.6052 62.0001 35.5002 62.0001Z" fill="black"/>
<path d="M32.502 25H18.498C16.569 25 15 23.431 15 21.502V13.497C15 11.569 16.569 10 18.498 10H32.503C34.431 10 36 11.569 36 13.498V21.503C36 23.431 34.431 25 32.502 25ZM18.498 11C17.121 11 16 12.121 16 13.498V21.503C16 22.879 17.121 24 18.498 24H32.503C33.879 24 35 22.879 35 21.502V13.497C35 12.121 33.879 11 32.502 11H18.498Z" fill="black"/>
<path d="M35.5 31H15.5C15.224 31 15 30.776 15 30.5C15 30.224 15.224 30 15.5 30H35.5C35.776 30 36 30.224 36 30.5C36 30.776 35.776 31 35.5 31Z" fill="black"/>
<path d="M35.5 35H15.5C15.224 35 15 34.776 15 34.5C15 34.224 15.224 34 15.5 34H35.5C35.776 34 36 34.224 36 34.5C36 34.776 35.776 35 35.5 35Z" fill="black"/>
<path d="M40.5 46H36.5C35.673 46 35 45.327 35 44.5C35 43.673 35.673 43 36.5 43H40.5C41.327 43 42 43.673 42 44.5C42 45.327 41.327 46 40.5 46ZM36.5 44C36.224 44 36 44.224 36 44.5C36 44.776 36.224 45 36.5 45H40.5C40.776 45 41 44.776 41 44.5C41 44.224 40.776 44 40.5 44H36.5Z" fill="black"/>
<path d="M47.5 16C47.224 16 47 15.776 47 15.5V10.5C47 10.224 47.224 10 47.5 10C47.776 10 48 10.224 48 10.5V15.5C48 15.776 47.776 16 47.5 16Z" fill="black"/>
</svg>
