<svg width="86" height="59" viewBox="0 0 86 59" fill="none" xmlns="http://www.w3.org/2000/svg">
<path d="M34.7436 25.981H26.9745C25.7222 26.0463 25.0218 26.8179 24.9269 27.6072L24.918 34.6967C24.918 36.2072 26.0131 37.3023 27.5235 37.3023H34.1886C35.699 37.3023 36.7941 36.2072 36.7941 34.6967V28.0317C36.7941 26.8238 35.714 25.981 34.7436 25.981ZM34.1887 34.8688L27.3516 34.6967V28.4144H34.3521L34.1887 34.8688Z" fill="#575757"/>
<path d="M32.8021 28.8639H30.0239V30.5309H32.8021V28.8639Z" fill="#575757"/>
<path d="M70.5032 49.5343C70.5032 44.3411 66.2744 40.1123 61.0812 40.1123C55.888 40.1123 51.6592 44.3411 51.6592 49.5343C51.6592 54.7275 55.888 58.9533 61.0812 58.9533C66.2744 58.9533 70.5032 54.7275 70.5032 49.5343ZM61.0812 56.5199C57.2263 56.5199 54.0926 53.3862 54.0926 49.5343C54.0926 45.6794 57.2263 42.5457 61.0812 42.5457C64.936 42.5457 68.0697 45.6794 68.0697 49.5343C68.0699 53.3862 64.936 56.5199 61.0812 56.5199Z" fill="#575757"/>
<path d="M24.0102 49.5343C24.0102 44.3411 19.7815 40.1123 14.5882 40.1123C9.39505 40.1123 5.16626 44.3411 5.16626 49.5343C5.16626 54.7275 9.39505 58.9533 14.5882 58.9533C19.7815 58.9533 24.0102 54.7275 24.0102 49.5343ZM7.5997 49.5343C7.5997 45.6794 10.7334 42.5457 14.5882 42.5457C18.4431 42.5457 21.5768 45.6794 21.5768 49.5343C21.5768 53.3862 18.4431 56.5199 14.5882 56.5199C10.7334 56.5199 7.5997 53.3862 7.5997 49.5343Z" fill="#575757"/>
<path d="M61.0812 45.2788C58.7368 45.2788 56.8257 47.1899 56.8257 49.5343C56.8257 51.8787 58.7368 53.7898 61.0812 53.7898C63.4256 53.7898 65.3366 51.8787 65.3366 49.5343C65.3366 47.1899 63.4256 45.2788 61.0812 45.2788ZM61.0812 51.3563C60.0751 51.3563 59.2591 50.5403 59.2591 49.5343C59.2591 48.5282 60.0751 47.7122 61.0812 47.7122C62.0872 47.7122 62.9032 48.5282 62.9032 49.5343C62.9034 50.5403 62.0872 51.3563 61.0812 51.3563Z" fill="#575757"/>
<path d="M18.844 49.5343C18.844 47.1899 16.9329 45.2788 14.5885 45.2788C12.2441 45.2788 10.333 47.1899 10.333 49.5343C10.333 51.8787 12.2441 53.7898 14.5885 53.7898C16.9329 53.7898 18.844 51.8787 18.844 49.5343ZM12.7664 49.5343C12.7664 48.5282 13.5824 47.7122 14.5885 47.7122C15.5945 47.7122 16.4105 48.5282 16.4105 49.5343C16.4105 50.5403 15.5945 51.3563 14.5885 51.3563C13.5826 51.3563 12.7664 50.5403 12.7664 49.5343Z" fill="#575757"/>
<path d="M84.774 0L39.4981 0.302615C38.8303 0.308589 38.2902 0.851655 38.2902 1.51924V8.76C37.912 8.6073 37.5089 8.50779 37.0736 8.50779H26.7436C25.1737 8.50779 23.8443 9.61166 23.4674 11.1548L19.8827 21.6422C19.7283 21.9508 19.4851 22.1586 19.4257 22.1823L3.35342 22.5265C1.475 22.9955 0 25.1112 0 27.3488V44.6703C0 45.3409 0.546053 45.887 1.21663 45.887H3.64708C3.64745 45.887 3.64801 45.8868 3.64838 45.8868C3.64894 45.8868 3.6495 45.887 3.65006 45.887C3.65174 45.887 3.65305 45.8855 3.65473 45.8855C3.89667 45.8838 4.10912 45.7947 4.29805 45.6712C4.33837 45.6454 4.37328 45.6258 4.41025 45.5954C4.58442 45.4516 4.71379 45.2679 4.78698 45.0493C4.79332 45.0305 4.81367 45.0222 4.81927 45.0028L6.03291 40.7533C6.5196 39.05 7.93206 38.2902 9.11919 38.2902H20.9686C22.2416 38.2902 23.313 39.1359 23.7641 40.4981L24.3697 42.3146L24.957 44.6616C24.9618 44.681 24.9818 44.6896 24.9874 44.7084C25.0565 44.9395 25.1838 45.1363 25.3641 45.2875C25.3972 45.3155 25.43 45.332 25.4657 45.3562C25.6604 45.4888 25.8822 45.5845 26.1351 45.5845H39.5068H49.6203C50.1634 45.5845 50.6411 45.2226 50.7895 44.7002L51.9023 40.8039C52.306 39.5873 53.3327 38.2904 55.0034 38.2904H66.8558C68.0397 38.2904 69.393 39.047 69.6512 40.4983L70.227 42.2016L70.8324 44.9347C70.9571 45.4897 71.4496 45.8873 72.0193 45.8873H84.7828C85.4534 45.8873 85.9994 45.3413 85.9994 44.6707V25.5267C85.9994 25.4733 85.9755 25.4274 85.9688 25.3757C85.9757 25.3238 85.9994 25.2777 85.9994 25.2239V16.713C85.9994 16.0424 85.4534 15.4963 84.7828 15.4963C84.112 15.4963 83.5662 16.0424 83.5662 16.713V24.0161L71.4141 24.0977V2.52062L83.5662 2.43904V9.42161C83.5662 10.0922 84.1122 10.6382 84.7828 10.6382C85.4534 10.6382 85.9994 10.0922 85.9994 9.42161V1.21644C85.9994 0.892914 85.8689 0.581337 85.6404 0.352834C85.4091 0.124519 85.0916 0.0177351 84.774 0ZM38.2904 25.5267V43.1509H27.0824L26.7051 41.6434C26.7017 41.6298 26.6917 41.6205 26.6881 41.6072C26.6829 41.5886 26.6875 41.5699 26.6814 41.5514L26.073 39.7294C25.2895 37.376 23.2865 35.8568 20.9688 35.8568H9.11937C6.59689 35.8568 4.41883 37.5571 3.69468 40.0855L2.73344 43.4537H2.43362V27.3488C2.43362 26.0549 3.31198 25.04 3.67116 24.9213L19.4496 24.6157C20.6782 24.6157 21.6219 23.5979 22.1175 22.5799L25.7943 11.8433C25.9367 11.2765 26.2899 10.9412 26.7439 10.9412H37.074C37.8722 10.9412 38.2906 12.0096 38.2906 13.0689V25.5267H38.2904ZM55.9176 2.62516L68.9806 2.53723V24.1143L55.9176 24.2022V2.62516ZM40.7238 13.0691V2.72709L53.4843 2.6414V24.2185L40.7238 24.3041V13.0691ZM83.5663 26.7436V43.4537H72.9929L72.5685 41.5516L72.0048 39.9106C71.6161 37.6019 69.4022 35.8569 66.856 35.8569H55.0035C52.5641 35.8569 50.4395 37.4979 49.5789 40.0857L48.7035 43.1513H40.7238V26.7436H83.5663Z" fill="#575757"/>
<path d="M84.7829 11.5464C84.112 11.5464 83.5659 12.0926 83.5659 12.7634V13.372C83.5659 14.0427 84.1121 14.589 84.7829 14.589C85.4537 14.589 85.9999 14.0427 85.9999 13.372V12.7634C85.9999 12.0926 85.4537 11.5464 84.7829 11.5464Z" fill="#575757"/>
<path d="M26.6513 22.0933H34.1325C35.3106 22.0933 36.2721 21.0518 36.2721 19.7726V15.9949C36.2721 14.7159 35.3106 13.6742 34.1325 13.6742H29.2835C27.9541 13.6742 26.8027 14.6743 26.4791 16.1046L25.4643 20.6094C25.3842 20.9683 25.4703 21.3483 25.7018 21.6361C25.9331 21.9242 26.2833 22.0933 26.6513 22.0933ZM28.8532 16.6389C28.9245 16.3096 29.1321 16.1078 29.2835 16.1078H33.8386L33.8356 19.6601H28.1705L28.8532 16.6389Z" fill="#575757"/>
</svg>
