<svg width="76" height="68" viewBox="0 0 76 68" fill="none" xmlns="http://www.w3.org/2000/svg">
<path d="M13.0833 28.3343L0.600098 44.2767V57.9631C0.600098 59.9183 2.2545 61.5727 4.2097 61.5727H8.1201C8.1201 57.3615 11.4289 54.0527 15.6401 54.0527C19.8513 54.0527 23.1601 57.3615 23.1601 61.5727H51.7361C51.7361 57.3615 55.0449 54.0527 59.2561 54.0527C63.4673 54.0527 66.7761 57.3615 66.7761 61.5727H72.1905C74.1457 61.5727 75.8001 59.9183 75.8001 57.9631V30.4399C75.8001 28.4847 74.1457 26.8303 72.1905 26.8303H15.9409C14.7377 26.9807 13.6849 27.4319 13.0833 28.3343ZM72.7921 30.4399V57.8127C72.7921 58.1135 72.4913 58.4143 72.1905 58.4143H69.3329C67.9793 54.0527 64.0689 50.8943 59.2561 50.8943C54.4433 50.8943 50.5329 54.0527 49.1793 58.4143H25.7169C24.3633 54.0527 20.4529 50.8943 15.6401 50.8943C10.8273 50.8943 6.9169 54.0527 5.5633 58.4143H4.2097C3.9089 58.4143 3.6081 58.1135 3.6081 57.8127V45.1791L15.4897 30.1391C15.6401 29.9887 15.7905 29.9887 15.9409 29.9887H72.3409C72.4913 29.9887 72.7921 30.1391 72.7921 30.4399Z" fill="#575757"/>
<path d="M12.7822 48.0367H32.1838V31.4927H18.6478L10.075 42.4719C8.27019 44.7279 9.92459 48.0367 12.7822 48.0367ZM12.4814 44.2767L20.1518 34.5007H29.1758V45.0287H12.7822C12.6318 45.0287 12.4814 45.0287 12.331 44.7279C12.331 44.4271 12.331 44.2767 12.4814 44.2767Z" fill="#575757"/>
<path d="M15.64 55.5566C12.3312 55.5566 9.62402 58.2638 9.62402 61.5726C9.62402 64.8814 12.3312 67.5886 15.64 67.5886C18.9488 67.5886 21.656 64.8814 21.656 61.5726C21.656 58.2638 18.9488 55.5566 15.64 55.5566ZM15.64 63.0766C14.7376 63.0766 14.136 62.475 14.136 61.5726C14.136 60.6702 14.7376 60.0686 15.64 60.0686C16.5424 60.0686 17.144 60.6702 17.144 61.5726C17.144 62.475 16.5424 63.0766 15.64 63.0766Z" fill="#575757"/>
<path d="M59.256 55.5566C55.9472 55.5566 53.24 58.2638 53.24 61.5726C53.24 64.8814 55.9472 67.5886 59.256 67.5886C62.5648 67.5886 65.272 64.8814 65.272 61.5726C65.272 58.2638 62.5648 55.5566 59.256 55.5566ZM59.256 63.0766C58.3536 63.0766 57.752 62.475 57.752 61.5726C57.752 60.6702 58.3536 60.0686 59.256 60.0686C60.1584 60.0686 60.76 60.6702 60.76 61.5726C60.76 62.475 60.1584 63.0766 59.256 63.0766Z" fill="#575757"/>
<path d="M49.3297 2.01452C48.2769 0.811324 46.3217 0.510522 45.1185 1.56332C43.9153 2.61612 43.6145 4.57132 44.6673 5.77452C45.4193 6.67692 46.4721 6.97772 47.5249 6.82732L53.5409 14.0465L54.1425 13.5953L44.8177 21.2657C49.3297 26.6801 57.4513 27.4321 62.8657 22.9201C68.2801 18.4081 69.0321 10.2865 64.5201 4.87212L55.1953 12.5425L55.7969 12.0913L49.7809 4.87212C50.2321 3.96972 50.0817 2.76652 49.3297 2.01452ZM57.1505 14.9489L63.7681 9.53452C65.2721 13.2945 64.2193 17.9569 60.9105 20.6641C57.6017 23.3713 52.9393 23.6721 49.4801 21.4161L54.8945 16.9041L57.1505 14.9489Z" fill="#575757"/>
</svg>
