<svg width="436" height="435" viewBox="0 0 436 435" fill="none" xmlns="http://www.w3.org/2000/svg">
<path d="M217.564 434.688C155.064 434.688 92.5639 434.688 30.0639 434.688C12.1639 434.688 0.463863 423.488 0.163863 405.688C-0.0361374 392.988 -0.136137 380.388 0.363863 367.688C0.963863 352.688 8.26386 341.188 21.2639 334.088C63.9639 310.788 106.864 287.988 149.564 264.788C152.664 263.088 154.564 264.688 156.864 265.888C193.364 284.988 230.564 286.588 268.564 270.688C269.664 270.288 270.864 269.988 271.764 269.188C279.664 262.488 286.764 265.188 294.964 269.688C333.264 290.788 371.864 311.488 410.464 332.088C427.164 340.988 435.364 354.388 435.064 373.288C434.864 383.988 435.064 394.588 435.064 405.288C434.964 422.988 423.164 434.688 405.564 434.688C342.864 434.688 280.164 434.688 217.564 434.688Z" fill="black"/>
<path d="M214.464 255.788C179.264 254.588 150.064 237.188 128.564 206.288C93.3638 155.588 97.5638 83.5883 137.864 37.3883C181.664 -12.7117 254.264 -12.4117 297.664 37.9883C343.764 91.5883 340.864 176.188 290.964 224.788C270.564 244.688 246.164 255.388 214.464 255.788Z" fill="black"/>
</svg>
