<svg width="488" height="226" viewBox="0 0 488 226" fill="none" xmlns="http://www.w3.org/2000/svg">
<path d="M310.25 152C294.625 152 279 166.757 279 166.757H404C404 166.757 388.375 152 372.75 152C357.125 152 357.125 158.076 341.5 158.076C325.875 158.076 325.875 152 310.25 152Z" fill="#FFC0BC"/>
<g filter="url(#filter0_d)">
<rect x="30" y="28" width="428" height="166" rx="8" fill="white"/>
</g>
<rect width="110.4" height="69" transform="matrix(-1 0 0 1 180.4 94)" fill="white"/>
<path d="M178.619 162.747H178.794V163.233H178.866V162.747H179.041V162.688H178.619V162.747ZM178.418 163.241C178.473 163.241 178.518 163.223 178.552 163.187C178.587 163.151 178.604 163.102 178.604 163.042V163.029C178.604 162.989 178.596 162.953 178.581 162.922C178.566 162.89 178.544 162.865 178.517 162.848C178.489 162.83 178.459 162.821 178.427 162.821C178.374 162.821 178.333 162.838 178.304 162.873C178.275 162.908 178.26 162.957 178.26 163.022V163.051H178.535C178.534 163.091 178.522 163.123 178.5 163.148C178.478 163.172 178.449 163.184 178.415 163.184C178.39 163.184 178.369 163.179 178.352 163.169C178.336 163.159 178.321 163.146 178.308 163.13L178.266 163.163C178.3 163.215 178.35 163.241 178.418 163.241ZM178.427 162.878C178.455 162.878 178.478 162.888 178.497 162.908C178.516 162.929 178.528 162.957 178.533 162.994H178.33V162.989C178.332 162.953 178.341 162.926 178.358 162.907C178.375 162.887 178.398 162.878 178.427 162.878ZM178.044 162.976L177.954 162.828H177.873L178.006 163.029L177.869 163.233H177.949L178.043 163.082L178.136 163.233H178.217L178.08 163.029L178.213 162.828H178.133L178.044 162.976ZM177.706 162.73V162.828H177.63V162.882H177.706V163.133C177.706 163.149 177.702 163.161 177.695 163.17C177.689 163.178 177.677 163.182 177.661 163.182C177.653 163.182 177.642 163.18 177.628 163.177V163.233C177.646 163.238 177.664 163.241 177.681 163.241C177.712 163.241 177.736 163.231 177.751 163.213C177.767 163.194 177.775 163.167 177.775 163.133V162.882H177.849V162.828H177.775V162.73H177.706Z" fill="#A3A3A3"/>
<path d="M151.786 162.747H151.961V163.233H152.032V162.747H152.207V162.688H151.786V162.747ZM151.585 163.241C151.64 163.241 151.684 163.223 151.719 163.187C151.753 163.151 151.771 163.102 151.771 163.042V163.029C151.771 162.989 151.763 162.953 151.748 162.922C151.732 162.89 151.711 162.865 151.683 162.848C151.656 162.83 151.626 162.821 151.593 162.821C151.541 162.821 151.5 162.838 151.471 162.873C151.441 162.908 151.427 162.957 151.427 163.022V163.051H151.701C151.7 163.091 151.689 163.123 151.666 163.148C151.644 163.172 151.616 163.184 151.581 163.184C151.557 163.184 151.536 163.179 151.519 163.169C151.502 163.159 151.487 163.146 151.474 163.13L151.432 163.163C151.466 163.215 151.517 163.241 151.585 163.241ZM151.593 162.878C151.621 162.878 151.645 162.888 151.664 162.908C151.683 162.929 151.695 162.957 151.699 162.994H151.496V162.989C151.498 162.953 151.508 162.926 151.525 162.907C151.542 162.887 151.565 162.878 151.593 162.878ZM151.211 162.976L151.121 162.828H151.04L151.172 163.029L151.036 163.233H151.116L151.209 163.082L151.303 163.233H151.383L151.247 163.029L151.379 162.828H151.299L151.211 162.976ZM150.872 162.73V162.828H150.796V162.882H150.872V163.133C150.872 163.149 150.869 163.161 150.862 163.17C150.855 163.178 150.844 163.182 150.828 163.182C150.82 163.182 150.809 163.18 150.795 163.177V163.233C150.813 163.238 150.831 163.241 150.848 163.241C150.879 163.241 150.902 163.231 150.918 163.213C150.933 163.194 150.941 163.167 150.941 163.133V162.882H151.015V162.828H150.941V162.73H150.872Z" fill="#A3A3A3"/>
<path d="M124.875 162.747H125.051V163.233H125.122V162.747H125.297V162.688H124.875V162.747ZM124.675 163.241C124.73 163.241 124.774 163.223 124.809 163.187C124.843 163.151 124.86 163.102 124.86 163.042V163.029C124.86 162.989 124.853 162.953 124.838 162.922C124.822 162.89 124.801 162.865 124.773 162.848C124.745 162.83 124.716 162.821 124.683 162.821C124.631 162.821 124.59 162.838 124.561 162.873C124.531 162.908 124.517 162.957 124.517 163.022V163.051H124.791C124.79 163.091 124.779 163.123 124.756 163.148C124.734 163.172 124.705 163.184 124.671 163.184C124.647 163.184 124.626 163.179 124.609 163.169C124.592 163.159 124.577 163.146 124.564 163.13L124.522 163.163C124.556 163.215 124.607 163.241 124.675 163.241ZM124.683 162.878C124.711 162.878 124.735 162.888 124.754 162.908C124.773 162.929 124.784 162.957 124.789 162.994H124.586V162.989C124.588 162.953 124.597 162.926 124.614 162.907C124.631 162.887 124.654 162.878 124.683 162.878ZM124.3 162.976L124.211 162.828H124.13L124.262 163.029L124.126 163.233H124.206L124.299 163.082L124.393 163.233H124.473L124.337 163.029L124.469 162.828H124.389L124.3 162.976ZM123.962 162.73V162.828H123.886V162.882H123.962V163.133C123.962 163.149 123.959 163.161 123.952 163.17C123.945 163.178 123.934 163.182 123.917 163.182C123.909 163.182 123.898 163.18 123.884 163.177V163.233C123.903 163.238 123.92 163.241 123.938 163.241C123.969 163.241 123.992 163.231 124.008 163.213C124.023 163.194 124.031 163.167 124.031 163.133V162.882H124.105V162.828H124.031V162.73H123.962Z" fill="#A3A3A3"/>
<path d="M97.9657 162.747H98.1409V163.233H98.2124V162.747H98.3872V162.688H97.9657V162.747ZM97.765 163.241C97.8199 163.241 97.8646 163.223 97.8991 163.187C97.9335 163.151 97.9507 163.102 97.9507 163.042V163.029C97.9507 162.989 97.9431 162.953 97.9279 162.922C97.9124 162.89 97.8909 162.865 97.8635 162.848C97.8358 162.83 97.8058 162.821 97.7736 162.821C97.721 162.821 97.6801 162.838 97.6509 162.873C97.6217 162.908 97.6071 162.957 97.6071 163.022V163.051H97.8815C97.8805 163.091 97.8689 163.123 97.8466 163.148C97.8242 163.172 97.7957 163.184 97.7613 163.184C97.7368 163.184 97.7161 163.179 97.6992 163.169C97.6822 163.159 97.6673 163.146 97.6546 163.13L97.6123 163.163C97.6462 163.215 97.6972 163.241 97.765 163.241ZM97.7736 162.878C97.8016 162.878 97.8251 162.888 97.844 162.908C97.863 162.929 97.8747 162.957 97.8792 162.994H97.6763V162.989C97.6783 162.953 97.6878 162.926 97.7048 162.907C97.7217 162.887 97.7447 162.878 97.7736 162.878ZM97.3907 162.976L97.3008 162.828H97.22L97.3525 163.029L97.2159 163.233H97.296L97.3896 163.082L97.4832 163.233H97.5636L97.427 163.029L97.5595 162.828H97.4794L97.3907 162.976ZM97.0523 162.73V162.828H96.9767V162.882H97.0523V163.133C97.0523 163.149 97.0489 163.161 97.0422 163.17C97.0354 163.178 97.024 163.182 97.0077 163.182C96.9997 163.182 96.9888 163.18 96.9748 163.177V163.233C96.993 163.238 97.0107 163.241 97.0279 163.241C97.0589 163.241 97.0822 163.231 97.0979 163.213C97.1137 163.194 97.1215 163.167 97.1215 163.133V162.882H97.1953V162.828H97.1215V162.73H97.0523Z" fill="#A3A3A3"/>
<path d="M71.0555 162.747H71.2307V163.233H71.3022V162.747H71.4771V162.688H71.0555V162.747ZM70.8549 163.241C70.9098 163.241 70.9545 163.223 70.9889 163.187C71.0233 163.151 71.0406 163.102 71.0406 163.042V163.029C71.0406 162.989 71.0329 162.953 71.0177 162.922C71.0023 162.89 70.9808 162.865 70.9533 162.848C70.9256 162.83 70.8957 162.821 70.8635 162.821C70.8108 162.821 70.7699 162.838 70.7407 162.873C70.7115 162.908 70.6969 162.957 70.6969 163.022V163.051H70.9713C70.9703 163.091 70.9587 163.123 70.9365 163.148C70.914 163.172 70.8856 163.184 70.8511 163.184C70.8267 163.184 70.806 163.179 70.789 163.169C70.772 163.159 70.7572 163.146 70.7444 163.13L70.7021 163.163C70.7361 163.215 70.787 163.241 70.8549 163.241ZM70.8635 162.878C70.8914 162.878 70.9149 162.888 70.9339 162.908C70.9528 162.929 70.9646 162.957 70.9691 162.994H70.7662V162.989C70.7682 162.953 70.7776 162.926 70.7946 162.907C70.8116 162.887 70.8345 162.878 70.8635 162.878ZM70.4805 162.976L70.3907 162.828H70.3098L70.4424 163.029L70.3057 163.233H70.3858L70.4794 163.082L70.573 163.233H70.6535L70.5168 163.029L70.6494 162.828H70.5693L70.4805 162.976ZM70.1421 162.73V162.828H70.0665V162.882H70.1421V163.133C70.1421 163.149 70.1388 163.161 70.132 163.17C70.1253 163.178 70.1138 163.182 70.0976 163.182C70.0896 163.182 70.0786 163.18 70.0646 163.177V163.233C70.0829 163.238 70.1006 163.241 70.1178 163.241C70.1487 163.241 70.1721 163.231 70.1878 163.213C70.2035 163.194 70.2114 163.167 70.2114 163.133V162.882H70.2851V162.828H70.2114V162.73H70.1421Z" fill="#A3A3A3"/>
<path d="M179.14 161.851C179.14 161.932 179.154 161.992 179.182 162.032C179.209 162.071 179.253 162.091 179.311 162.091C179.37 162.091 179.413 162.072 179.441 162.033C179.469 161.995 179.483 161.937 179.484 161.86V161.768C179.484 161.688 179.47 161.628 179.442 161.589C179.415 161.55 179.371 161.531 179.312 161.531C179.254 161.531 179.21 161.55 179.183 161.587C179.155 161.625 179.141 161.683 179.14 161.761V161.851ZM179.209 161.756C179.209 161.698 179.217 161.655 179.234 161.628C179.25 161.601 179.277 161.588 179.312 161.588C179.348 161.588 179.373 161.601 179.39 161.628C179.406 161.654 179.414 161.696 179.415 161.751V161.862C179.415 161.921 179.406 161.964 179.389 161.992C179.372 162.02 179.346 162.034 179.311 162.034C179.277 162.034 179.252 162.021 179.235 161.995C179.219 161.968 179.21 161.927 179.209 161.87V161.756Z" fill="#A3A3A3"/>
<path d="M179.45 158.437L179.422 158.165H179.143V158.229H179.363L179.38 158.378C179.353 158.362 179.323 158.354 179.289 158.354C179.239 158.354 179.2 158.37 179.171 158.403C179.141 158.436 179.127 158.48 179.127 158.536C179.127 158.592 179.142 158.637 179.173 158.669C179.203 158.701 179.245 158.718 179.299 158.718C179.348 158.718 179.387 158.704 179.417 158.677C179.448 158.651 179.465 158.614 179.469 158.567H179.404C179.4 158.598 179.389 158.621 179.371 158.637C179.353 158.653 179.329 158.661 179.299 158.661C179.267 158.661 179.242 158.65 179.224 158.628C179.205 158.606 179.196 158.576 179.196 158.537C179.196 158.501 179.206 158.471 179.226 158.449C179.246 158.427 179.272 158.416 179.305 158.416C179.335 158.416 179.359 158.423 179.376 158.436L179.395 158.451L179.45 158.437Z" fill="#A3A3A3"/>
<path d="M179.685 155.337H179.754V154.875L179.894 154.926V154.863L179.696 154.789H179.685V155.337ZM179.14 155.104C179.14 155.185 179.154 155.246 179.182 155.285C179.209 155.324 179.253 155.344 179.311 155.344C179.37 155.344 179.413 155.325 179.441 155.287C179.469 155.248 179.483 155.19 179.484 155.114V155.021C179.484 154.941 179.47 154.881 179.442 154.843C179.415 154.804 179.371 154.784 179.312 154.784C179.254 154.784 179.21 154.803 179.183 154.841C179.155 154.878 179.141 154.936 179.14 155.014V155.104ZM179.209 155.009C179.209 154.951 179.217 154.908 179.234 154.881C179.25 154.855 179.277 154.841 179.312 154.841C179.348 154.841 179.373 154.854 179.39 154.881C179.406 154.908 179.414 154.949 179.415 155.004V155.115C179.415 155.174 179.406 155.218 179.389 155.246C179.372 155.274 179.346 155.288 179.311 155.288C179.277 155.288 179.252 155.274 179.235 155.248C179.219 155.221 179.21 155.18 179.209 155.123V155.009Z" fill="#A3A3A3"/>
<path d="M179.685 151.963H179.754V151.502L179.894 151.553V151.49L179.696 151.416H179.685V151.963ZM179.45 151.69L179.422 151.418H179.143V151.482H179.363L179.38 151.631C179.353 151.615 179.323 151.607 179.289 151.607C179.239 151.607 179.2 151.624 179.171 151.657C179.141 151.689 179.127 151.734 179.127 151.79C179.127 151.846 179.142 151.89 179.173 151.923C179.203 151.955 179.245 151.971 179.299 151.971C179.348 151.971 179.387 151.958 179.417 151.931C179.448 151.904 179.465 151.867 179.469 151.82H179.404C179.4 151.851 179.389 151.875 179.371 151.891C179.353 151.906 179.329 151.914 179.299 151.914C179.267 151.914 179.242 151.903 179.224 151.881C179.205 151.859 179.196 151.829 179.196 151.79C179.196 151.754 179.206 151.725 179.226 151.703C179.246 151.681 179.272 151.67 179.305 151.67C179.335 151.67 179.359 151.676 179.376 151.689L179.395 151.704L179.45 151.69Z" fill="#A3A3A3"/>
<path d="M179.555 148.667H179.912V148.617L179.724 148.407C179.696 148.376 179.676 148.35 179.666 148.33C179.655 148.31 179.65 148.29 179.65 148.268C179.65 148.24 179.658 148.217 179.676 148.198C179.693 148.18 179.716 148.171 179.745 148.171C179.779 148.171 179.806 148.181 179.825 148.201C179.844 148.22 179.854 148.247 179.854 148.282H179.923C179.923 148.232 179.907 148.191 179.874 148.161C179.842 148.13 179.799 148.114 179.745 148.114C179.694 148.114 179.654 148.127 179.624 148.154C179.595 148.181 179.58 148.216 179.58 148.26C179.58 148.314 179.614 148.378 179.683 148.452L179.829 148.61H179.555V148.667ZM179.14 148.434C179.14 148.515 179.154 148.576 179.182 148.615C179.209 148.654 179.253 148.674 179.311 148.674C179.37 148.674 179.413 148.655 179.441 148.616C179.469 148.578 179.483 148.52 179.484 148.444V148.351C179.484 148.271 179.47 148.211 179.442 148.172C179.415 148.134 179.371 148.114 179.312 148.114C179.254 148.114 179.21 148.133 179.183 148.171C179.155 148.208 179.141 148.266 179.14 148.344V148.434ZM179.209 148.339C179.209 148.281 179.217 148.238 179.234 148.211C179.25 148.184 179.277 148.171 179.312 148.171C179.348 148.171 179.373 148.184 179.39 148.211C179.406 148.238 179.414 148.279 179.415 148.334V148.445C179.415 148.504 179.406 148.547 179.389 148.576C179.372 148.604 179.346 148.618 179.311 148.618C179.277 148.618 179.252 148.604 179.235 148.578C179.219 148.551 179.21 148.51 179.209 148.453V148.339Z" fill="#A3A3A3"/>
<path d="M179.555 145.293H179.912V145.244L179.724 145.034C179.696 145.002 179.676 144.977 179.666 144.957C179.655 144.937 179.65 144.916 179.65 144.895C179.65 144.867 179.658 144.843 179.676 144.825C179.693 144.807 179.716 144.798 179.745 144.798C179.779 144.798 179.806 144.808 179.825 144.827C179.844 144.847 179.854 144.874 179.854 144.909H179.923C179.923 144.859 179.907 144.818 179.874 144.787C179.842 144.756 179.799 144.741 179.745 144.741C179.694 144.741 179.654 144.754 179.624 144.781C179.595 144.807 179.58 144.843 179.58 144.887C179.58 144.94 179.614 145.004 179.683 145.078L179.829 145.237H179.555V145.293ZM179.45 145.02L179.422 144.748H179.143V144.812H179.363L179.38 144.961C179.353 144.945 179.323 144.937 179.289 144.937C179.239 144.937 179.2 144.954 179.171 144.987C179.141 145.019 179.127 145.064 179.127 145.12C179.127 145.176 179.142 145.22 179.173 145.253C179.203 145.285 179.245 145.301 179.299 145.301C179.348 145.301 179.387 145.287 179.417 145.261C179.448 145.234 179.465 145.197 179.469 145.15H179.404C179.4 145.181 179.389 145.205 179.371 145.221C179.353 145.236 179.329 145.244 179.299 145.244C179.267 145.244 179.242 145.233 179.224 145.211C179.205 145.189 179.196 145.159 179.196 145.12C179.196 145.084 179.206 145.055 179.226 145.033C179.246 145.011 179.272 144.999 179.305 144.999C179.335 144.999 179.359 145.006 179.376 145.019L179.395 145.034L179.45 145.02Z" fill="#A3A3A3"/>
<path d="M179.812 141.614H179.76C179.727 141.613 179.701 141.605 179.682 141.588C179.664 141.571 179.654 141.549 179.654 141.52C179.654 141.456 179.686 141.424 179.75 141.424C179.78 141.424 179.804 141.433 179.822 141.45C179.839 141.467 179.848 141.49 179.848 141.518H179.918C179.918 141.475 179.902 141.439 179.87 141.41C179.839 141.382 179.798 141.367 179.75 141.367C179.698 141.367 179.658 141.381 179.629 141.408C179.6 141.435 179.585 141.473 179.585 141.522C179.585 141.545 179.593 141.568 179.608 141.591C179.624 141.613 179.644 141.629 179.671 141.64C179.641 141.65 179.618 141.666 179.602 141.688C179.585 141.709 179.577 141.736 179.577 141.768C179.577 141.817 179.593 141.856 179.625 141.884C179.657 141.913 179.698 141.927 179.749 141.927C179.801 141.927 179.842 141.914 179.874 141.886C179.906 141.858 179.922 141.822 179.922 141.776H179.853C179.853 141.805 179.843 141.828 179.825 141.845C179.806 141.862 179.781 141.871 179.749 141.871C179.716 141.871 179.69 141.862 179.673 141.845C179.655 141.827 179.646 141.802 179.646 141.769C179.646 141.738 179.656 141.713 179.675 141.696C179.695 141.68 179.723 141.671 179.76 141.67H179.812V141.614ZM179.14 141.688C179.14 141.769 179.154 141.829 179.182 141.868C179.209 141.908 179.253 141.927 179.311 141.927C179.37 141.927 179.413 141.908 179.441 141.87C179.469 141.831 179.483 141.773 179.484 141.697V141.604C179.484 141.524 179.47 141.465 179.442 141.426C179.415 141.387 179.371 141.367 179.312 141.367C179.254 141.367 179.21 141.386 179.183 141.424C179.155 141.461 179.141 141.519 179.14 141.598V141.688ZM179.209 141.593C179.209 141.534 179.217 141.491 179.234 141.465C179.25 141.438 179.277 141.424 179.312 141.424C179.348 141.424 179.373 141.438 179.39 141.464C179.406 141.491 179.414 141.532 179.415 141.588V141.698C179.415 141.757 179.406 141.801 179.389 141.829C179.372 141.857 179.346 141.871 179.311 141.871C179.277 141.871 179.252 141.858 179.235 141.831C179.219 141.805 179.21 141.763 179.209 141.706V141.593Z" fill="#A3A3A3"/>
<path d="M179.812 138.24H179.76C179.727 138.24 179.701 138.231 179.682 138.215C179.664 138.198 179.654 138.175 179.654 138.147C179.654 138.083 179.686 138.051 179.75 138.051C179.78 138.051 179.804 138.06 179.822 138.077C179.839 138.094 179.848 138.116 179.848 138.145H179.918C179.918 138.101 179.902 138.066 179.87 138.037C179.839 138.009 179.798 137.994 179.75 137.994C179.698 137.994 179.658 138.008 179.629 138.035C179.6 138.062 179.585 138.1 179.585 138.148C179.585 138.172 179.593 138.195 179.608 138.217C179.624 138.239 179.644 138.256 179.671 138.267C179.641 138.277 179.618 138.292 179.602 138.314C179.585 138.336 179.577 138.363 179.577 138.395C179.577 138.444 179.593 138.482 179.625 138.511C179.657 138.54 179.698 138.554 179.749 138.554C179.801 138.554 179.842 138.54 179.874 138.513C179.906 138.485 179.922 138.448 179.922 138.403H179.853C179.853 138.432 179.843 138.455 179.825 138.472C179.806 138.489 179.781 138.498 179.749 138.498C179.716 138.498 179.69 138.489 179.673 138.471C179.655 138.454 179.646 138.429 179.646 138.396C179.646 138.365 179.656 138.34 179.675 138.323C179.695 138.306 179.723 138.298 179.76 138.297H179.812V138.24ZM179.45 138.273L179.422 138.002H179.143V138.066H179.363L179.38 138.214C179.353 138.199 179.323 138.191 179.289 138.191C179.239 138.191 179.2 138.207 179.171 138.24C179.141 138.273 179.127 138.317 179.127 138.373C179.127 138.429 179.142 138.473 179.173 138.506C179.203 138.538 179.245 138.554 179.299 138.554C179.348 138.554 179.387 138.541 179.417 138.514C179.448 138.487 179.465 138.45 179.469 138.403H179.404C179.4 138.435 179.389 138.458 179.371 138.474C179.353 138.49 179.329 138.498 179.299 138.498C179.267 138.498 179.242 138.487 179.224 138.465C179.205 138.443 179.196 138.412 179.196 138.374C179.196 138.337 179.206 138.308 179.226 138.286C179.246 138.264 179.272 138.253 179.305 138.253C179.335 138.253 179.359 138.259 179.376 138.273L179.395 138.288L179.45 138.273Z" fill="#A3A3A3"/>
<path d="M179.62 135.067H179.544V135.123H179.62V135.25H179.69V135.123H179.938V135.083L179.694 134.705H179.62V135.067ZM179.859 135.067H179.69V134.8L179.698 134.815L179.859 135.067ZM179.14 135.018C179.14 135.099 179.154 135.159 179.182 135.198C179.209 135.238 179.253 135.257 179.311 135.257C179.37 135.257 179.413 135.238 179.441 135.2C179.469 135.161 179.483 135.104 179.484 135.027V134.934C179.484 134.854 179.47 134.795 179.442 134.756C179.415 134.717 179.371 134.697 179.312 134.697C179.254 134.697 179.21 134.716 179.183 134.754C179.155 134.791 179.141 134.849 179.14 134.928V135.018ZM179.209 134.923C179.209 134.864 179.217 134.821 179.234 134.795C179.25 134.768 179.277 134.754 179.312 134.754C179.348 134.754 179.373 134.768 179.39 134.794C179.406 134.821 179.414 134.862 179.415 134.918V135.028C179.415 135.087 179.406 135.131 179.389 135.159C179.372 135.187 179.346 135.201 179.311 135.201C179.277 135.201 179.252 135.188 179.235 135.161C179.219 135.135 179.21 135.093 179.209 135.036V134.923Z" fill="#A3A3A3"/>
<path d="M179.62 131.694H179.544V131.75H179.62V131.877H179.69V131.75H179.938V131.709L179.694 131.332H179.62V131.694ZM179.859 131.694H179.69V131.426L179.698 131.441L179.859 131.694ZM179.45 131.603L179.422 131.332H179.143V131.396H179.363L179.38 131.544C179.353 131.529 179.323 131.521 179.289 131.521C179.239 131.521 179.2 131.537 179.171 131.57C179.141 131.603 179.127 131.647 179.127 131.703C179.127 131.759 179.142 131.803 179.173 131.836C179.203 131.868 179.245 131.884 179.299 131.884C179.348 131.884 179.387 131.871 179.417 131.844C179.448 131.817 179.465 131.781 179.469 131.733H179.404C179.4 131.765 179.389 131.788 179.371 131.804C179.353 131.82 179.329 131.828 179.299 131.828C179.267 131.828 179.242 131.817 179.224 131.795C179.205 131.773 179.196 131.742 179.196 131.704C179.196 131.667 179.206 131.638 179.226 131.616C179.246 131.594 179.272 131.583 179.305 131.583C179.335 131.583 179.359 131.589 179.376 131.603L179.395 131.618L179.45 131.603Z" fill="#A3A3A3"/>
<path d="M179.88 128.23L179.853 127.958H179.573V128.022H179.794L179.81 128.171C179.784 128.155 179.753 128.147 179.719 128.147C179.67 128.147 179.63 128.164 179.601 128.197C179.572 128.229 179.557 128.274 179.557 128.33C179.557 128.386 179.573 128.43 179.603 128.462C179.633 128.495 179.676 128.511 179.73 128.511C179.778 128.511 179.817 128.497 179.848 128.471C179.878 128.444 179.896 128.407 179.9 128.36H179.834C179.83 128.391 179.819 128.415 179.801 128.431C179.783 128.446 179.759 128.454 179.73 128.454C179.698 128.454 179.673 128.443 179.654 128.421C179.636 128.399 179.627 128.369 179.627 128.33C179.627 128.294 179.637 128.265 179.657 128.243C179.676 128.221 179.703 128.209 179.736 128.209C179.766 128.209 179.789 128.216 179.807 128.229L179.825 128.244L179.88 128.23ZM179.14 128.271C179.14 128.352 179.154 128.412 179.182 128.452C179.209 128.491 179.253 128.511 179.311 128.511C179.37 128.511 179.413 128.492 179.441 128.453C179.469 128.414 179.483 128.357 179.484 128.28V128.188C179.484 128.108 179.47 128.048 179.442 128.009C179.415 127.97 179.371 127.951 179.312 127.951C179.254 127.951 179.21 127.97 179.183 128.007C179.155 128.045 179.141 128.103 179.14 128.181V128.271ZM179.209 128.176C179.209 128.117 179.217 128.075 179.234 128.048C179.25 128.021 179.277 128.008 179.312 128.008C179.348 128.008 179.373 128.021 179.39 128.048C179.406 128.074 179.414 128.115 179.415 128.171V128.282C179.415 128.341 179.406 128.384 179.389 128.412C179.372 128.44 179.346 128.454 179.311 128.454C179.277 128.454 179.252 128.441 179.235 128.415C179.219 128.388 179.21 128.346 179.209 128.29V128.176Z" fill="#A3A3A3"/>
<path d="M179.88 124.857L179.853 124.585H179.573V124.649H179.794L179.81 124.798C179.784 124.782 179.753 124.774 179.719 124.774C179.67 124.774 179.63 124.79 179.601 124.823C179.572 124.856 179.557 124.9 179.557 124.956C179.557 125.012 179.573 125.057 179.603 125.089C179.633 125.121 179.676 125.137 179.73 125.137C179.778 125.137 179.817 125.124 179.848 125.097C179.878 125.071 179.896 125.034 179.9 124.987H179.834C179.83 125.018 179.819 125.041 179.801 125.057C179.783 125.073 179.759 125.081 179.73 125.081C179.698 125.081 179.673 125.07 179.654 125.048C179.636 125.026 179.627 124.996 179.627 124.957C179.627 124.921 179.637 124.891 179.657 124.869C179.676 124.847 179.703 124.836 179.736 124.836C179.766 124.836 179.789 124.843 179.807 124.856L179.825 124.871L179.88 124.857ZM179.45 124.857L179.422 124.585H179.143V124.649H179.363L179.38 124.798C179.353 124.782 179.323 124.774 179.289 124.774C179.239 124.774 179.2 124.79 179.171 124.823C179.141 124.856 179.127 124.9 179.127 124.956C179.127 125.012 179.142 125.057 179.173 125.089C179.203 125.121 179.245 125.137 179.299 125.137C179.348 125.137 179.387 125.124 179.417 125.097C179.448 125.071 179.465 125.034 179.469 124.987H179.404C179.4 125.018 179.389 125.041 179.371 125.057C179.353 125.073 179.329 125.081 179.299 125.081C179.267 125.081 179.242 125.07 179.224 125.048C179.205 125.026 179.196 124.996 179.196 124.957C179.196 124.921 179.206 124.891 179.226 124.869C179.246 124.847 179.272 124.836 179.305 124.836C179.335 124.836 179.359 124.843 179.376 124.856L179.395 124.871L179.45 124.857Z" fill="#A3A3A3"/>
<path d="M179.64 121.288V121.347H179.653C179.707 121.348 179.75 121.364 179.782 121.395C179.814 121.426 179.832 121.469 179.837 121.525C179.809 121.492 179.77 121.476 179.72 121.476C179.672 121.476 179.635 121.493 179.606 121.526C179.578 121.559 179.564 121.603 179.564 121.655C179.564 121.712 179.579 121.757 179.61 121.79C179.64 121.824 179.681 121.841 179.733 121.841C179.785 121.841 179.827 121.821 179.859 121.781C179.892 121.741 179.908 121.689 179.908 121.626V121.599C179.908 121.499 179.887 121.422 179.844 121.369C179.801 121.316 179.737 121.289 179.653 121.288H179.64ZM179.731 121.533C179.755 121.533 179.777 121.541 179.797 121.555C179.817 121.569 179.831 121.587 179.839 121.608V121.634C179.839 121.679 179.828 121.715 179.808 121.742C179.788 121.77 179.763 121.784 179.733 121.784C179.701 121.784 179.677 121.772 179.659 121.749C179.641 121.726 179.632 121.696 179.632 121.659C179.632 121.621 179.641 121.591 179.66 121.568C179.678 121.545 179.702 121.533 179.731 121.533ZM179.14 121.601C179.14 121.682 179.154 121.742 179.182 121.782C179.209 121.821 179.253 121.841 179.311 121.841C179.37 121.841 179.413 121.822 179.441 121.783C179.469 121.744 179.483 121.687 179.484 121.61V121.518C179.484 121.438 179.47 121.378 179.442 121.339C179.415 121.3 179.371 121.281 179.312 121.281C179.254 121.281 179.21 121.3 179.183 121.337C179.155 121.375 179.141 121.433 179.14 121.511V121.601ZM179.209 121.506C179.209 121.447 179.217 121.405 179.234 121.378C179.25 121.351 179.277 121.338 179.312 121.338C179.348 121.338 179.373 121.351 179.39 121.378C179.406 121.404 179.414 121.445 179.415 121.501V121.612C179.415 121.671 179.406 121.714 179.389 121.742C179.372 121.77 179.346 121.784 179.311 121.784C179.277 121.784 179.252 121.771 179.235 121.745C179.219 121.718 179.21 121.676 179.209 121.62V121.506Z" fill="#A3A3A3"/>
<path d="M179.64 117.915V117.973H179.653C179.707 117.974 179.75 117.99 179.782 118.021C179.814 118.052 179.832 118.096 179.837 118.152C179.809 118.119 179.77 118.103 179.72 118.103C179.672 118.103 179.635 118.119 179.606 118.153C179.578 118.186 179.564 118.229 179.564 118.282C179.564 118.338 179.579 118.383 179.61 118.417C179.64 118.451 179.681 118.468 179.733 118.468C179.785 118.468 179.827 118.448 179.859 118.408C179.892 118.367 179.908 118.316 179.908 118.253V118.226C179.908 118.126 179.887 118.049 179.844 117.996C179.801 117.943 179.737 117.916 179.653 117.915H179.64ZM179.731 118.16C179.755 118.16 179.777 118.167 179.797 118.182C179.817 118.196 179.831 118.214 179.839 118.235V118.26C179.839 118.305 179.828 118.342 179.808 118.369C179.788 118.397 179.763 118.41 179.733 118.41C179.701 118.41 179.677 118.399 179.659 118.376C179.641 118.353 179.632 118.323 179.632 118.286C179.632 118.248 179.641 118.218 179.66 118.195C179.678 118.172 179.702 118.16 179.731 118.16ZM179.45 118.187L179.422 117.915H179.143V117.979H179.363L179.38 118.128C179.353 118.112 179.323 118.104 179.289 118.104C179.239 118.104 179.2 118.12 179.171 118.153C179.141 118.186 179.127 118.23 179.127 118.286C179.127 118.342 179.142 118.387 179.173 118.419C179.203 118.451 179.245 118.468 179.299 118.468C179.348 118.468 179.387 118.454 179.417 118.427C179.448 118.401 179.465 118.364 179.469 118.317H179.404C179.4 118.348 179.389 118.371 179.371 118.387C179.353 118.403 179.329 118.411 179.299 118.411C179.267 118.411 179.242 118.4 179.224 118.378C179.205 118.356 179.196 118.326 179.196 118.287C179.196 118.251 179.206 118.221 179.226 118.199C179.246 118.177 179.272 118.166 179.305 118.166C179.335 118.166 179.359 118.173 179.376 118.186L179.395 118.201L179.45 118.187Z" fill="#A3A3A3"/>
<path d="M179.56 114.581L179.786 115.087H179.859L179.634 114.599H179.929V114.542H179.56V114.581ZM179.14 114.854C179.14 114.935 179.154 114.996 179.182 115.035C179.209 115.074 179.253 115.094 179.311 115.094C179.37 115.094 179.413 115.075 179.441 115.037C179.469 114.998 179.483 114.94 179.484 114.864V114.771C179.484 114.691 179.47 114.631 179.442 114.593C179.415 114.554 179.371 114.534 179.312 114.534C179.254 114.534 179.21 114.553 179.183 114.591C179.155 114.628 179.141 114.686 179.14 114.764V114.854ZM179.209 114.759C179.209 114.701 179.217 114.658 179.234 114.631C179.25 114.605 179.277 114.591 179.312 114.591C179.348 114.591 179.373 114.604 179.39 114.631C179.406 114.658 179.414 114.699 179.415 114.754V114.865C179.415 114.924 179.406 114.968 179.389 114.996C179.372 115.024 179.346 115.038 179.311 115.038C179.277 115.038 179.252 115.024 179.235 114.998C179.219 114.971 179.21 114.93 179.209 114.873V114.759Z" fill="#A3A3A3"/>
<path d="M179.56 111.207L179.786 111.713H179.859L179.634 111.225H179.929V111.168H179.56V111.207ZM179.45 111.44L179.422 111.168H179.143V111.232H179.363L179.38 111.381C179.353 111.365 179.323 111.357 179.289 111.357C179.239 111.357 179.2 111.374 179.171 111.407C179.141 111.439 179.127 111.484 179.127 111.54C179.127 111.596 179.142 111.64 179.173 111.673C179.203 111.705 179.245 111.721 179.299 111.721C179.348 111.721 179.387 111.707 179.417 111.681C179.448 111.654 179.465 111.617 179.469 111.57H179.404C179.4 111.601 179.389 111.625 179.371 111.641C179.353 111.656 179.329 111.664 179.299 111.664C179.267 111.664 179.242 111.653 179.224 111.631C179.205 111.609 179.196 111.579 179.196 111.54C179.196 111.504 179.206 111.475 179.226 111.453C179.246 111.431 179.272 111.419 179.305 111.419C179.335 111.419 179.359 111.426 179.376 111.439L179.395 111.454L179.45 111.44Z" fill="#A3A3A3"/>
<path d="M179.582 108.014C179.582 108.041 179.589 108.065 179.603 108.087C179.618 108.108 179.637 108.124 179.661 108.136C179.633 108.149 179.611 108.166 179.594 108.19C179.577 108.213 179.569 108.24 179.569 108.27C179.569 108.317 179.585 108.354 179.617 108.382C179.649 108.41 179.69 108.424 179.742 108.424C179.795 108.424 179.837 108.41 179.868 108.382C179.9 108.354 179.916 108.316 179.916 108.27C179.916 108.24 179.908 108.214 179.892 108.19C179.875 108.166 179.853 108.148 179.825 108.136C179.849 108.124 179.868 108.107 179.882 108.086C179.896 108.065 179.903 108.041 179.903 108.014C179.903 107.968 179.888 107.932 179.859 107.905C179.829 107.878 179.79 107.864 179.742 107.864C179.694 107.864 179.656 107.878 179.626 107.905C179.597 107.932 179.582 107.968 179.582 108.014ZM179.638 108.268C179.638 108.238 179.648 108.213 179.667 108.194C179.687 108.174 179.712 108.165 179.743 108.165C179.774 108.165 179.799 108.174 179.818 108.193C179.837 108.212 179.846 108.237 179.846 108.268C179.846 108.299 179.837 108.323 179.819 108.341C179.801 108.359 179.775 108.368 179.742 108.368C179.71 108.368 179.684 108.359 179.666 108.341C179.647 108.323 179.638 108.299 179.638 108.268ZM179.742 107.921C179.77 107.921 179.792 107.93 179.809 107.947C179.825 107.963 179.834 107.986 179.834 108.015C179.834 108.043 179.825 108.065 179.809 108.082C179.792 108.099 179.77 108.108 179.742 108.108C179.715 108.108 179.693 108.099 179.676 108.082C179.659 108.065 179.651 108.043 179.651 108.015C179.651 107.987 179.66 107.965 179.677 107.947C179.694 107.93 179.716 107.921 179.742 107.921ZM179.14 108.184C179.14 108.265 179.154 108.326 179.182 108.365C179.209 108.404 179.253 108.424 179.311 108.424C179.37 108.424 179.413 108.405 179.441 108.367C179.469 108.328 179.483 108.27 179.484 108.194V108.101C179.484 108.021 179.47 107.961 179.442 107.923C179.415 107.884 179.371 107.864 179.312 107.864C179.254 107.864 179.21 107.883 179.183 107.921C179.155 107.958 179.141 108.016 179.14 108.094V108.184ZM179.209 108.09C179.209 108.031 179.217 107.988 179.234 107.961C179.25 107.935 179.277 107.921 179.312 107.921C179.348 107.921 179.373 107.934 179.39 107.961C179.406 107.988 179.414 108.029 179.415 108.084V108.195C179.415 108.254 179.406 108.298 179.389 108.326C179.372 108.354 179.346 108.368 179.311 108.368C179.277 108.368 179.252 108.354 179.235 108.328C179.219 108.302 179.21 108.26 179.209 108.203V108.09Z" fill="#A3A3A3"/>
<path d="M179.582 104.641C179.582 104.668 179.589 104.692 179.603 104.713C179.618 104.734 179.637 104.751 179.661 104.763C179.633 104.775 179.611 104.793 179.594 104.816C179.577 104.84 179.569 104.867 179.569 104.896C179.569 104.943 179.585 104.981 179.617 105.009C179.649 105.037 179.69 105.051 179.742 105.051C179.795 105.051 179.837 105.037 179.868 105.009C179.9 104.981 179.916 104.943 179.916 104.896C179.916 104.867 179.908 104.84 179.892 104.816C179.875 104.793 179.853 104.775 179.825 104.763C179.849 104.751 179.868 104.734 179.882 104.713C179.896 104.692 179.903 104.667 179.903 104.641C179.903 104.595 179.888 104.558 179.859 104.531C179.829 104.504 179.79 104.491 179.742 104.491C179.694 104.491 179.656 104.504 179.626 104.531C179.597 104.558 179.582 104.595 179.582 104.641ZM179.638 104.895C179.638 104.864 179.648 104.839 179.667 104.82C179.687 104.801 179.712 104.791 179.743 104.791C179.774 104.791 179.799 104.801 179.818 104.82C179.837 104.839 179.846 104.864 179.846 104.895C179.846 104.926 179.837 104.95 179.819 104.968C179.801 104.985 179.775 104.994 179.742 104.994C179.71 104.994 179.684 104.985 179.666 104.968C179.647 104.95 179.638 104.925 179.638 104.895ZM179.742 104.548C179.77 104.548 179.792 104.556 179.809 104.573C179.825 104.59 179.834 104.613 179.834 104.642C179.834 104.669 179.825 104.692 179.809 104.709C179.792 104.726 179.77 104.734 179.742 104.734C179.715 104.734 179.693 104.726 179.676 104.709C179.659 104.692 179.651 104.669 179.651 104.642C179.651 104.614 179.66 104.591 179.677 104.574C179.694 104.556 179.716 104.548 179.742 104.548ZM179.45 104.77L179.422 104.498H179.143V104.562H179.363L179.38 104.711C179.353 104.695 179.323 104.687 179.289 104.687C179.239 104.687 179.2 104.704 179.171 104.737C179.141 104.769 179.127 104.814 179.127 104.87C179.127 104.926 179.142 104.97 179.173 105.003C179.203 105.035 179.245 105.051 179.299 105.051C179.348 105.051 179.387 105.037 179.417 105.011C179.448 104.984 179.465 104.947 179.469 104.9H179.404C179.4 104.931 179.389 104.955 179.371 104.971C179.353 104.986 179.329 104.994 179.299 104.994C179.267 104.994 179.242 104.983 179.224 104.961C179.205 104.939 179.196 104.909 179.196 104.87C179.196 104.834 179.206 104.805 179.226 104.783C179.246 104.761 179.272 104.749 179.305 104.749C179.335 104.749 179.359 104.756 179.376 104.769L179.395 104.784L179.45 104.77Z" fill="#A3A3A3"/>
<path d="M179.647 101.43C179.661 101.448 179.679 101.461 179.699 101.472C179.719 101.482 179.741 101.488 179.765 101.488C179.796 101.488 179.824 101.48 179.847 101.464C179.87 101.449 179.888 101.427 179.901 101.399C179.914 101.371 179.92 101.34 179.92 101.306C179.92 101.27 179.913 101.237 179.9 101.208C179.886 101.178 179.866 101.156 179.84 101.141C179.815 101.125 179.785 101.117 179.751 101.117C179.697 101.117 179.655 101.138 179.624 101.178C179.593 101.218 179.577 101.273 179.577 101.343V101.363C179.577 101.469 179.598 101.547 179.64 101.595C179.682 101.644 179.745 101.669 179.83 101.67H179.843V101.612H179.829C179.772 101.611 179.728 101.596 179.697 101.567C179.666 101.538 179.65 101.493 179.647 101.43ZM179.754 101.43C179.73 101.43 179.709 101.423 179.69 101.409C179.67 101.395 179.655 101.377 179.646 101.356V101.329C179.646 101.283 179.656 101.246 179.676 101.218C179.696 101.189 179.721 101.175 179.751 101.175C179.781 101.175 179.806 101.187 179.824 101.21C179.843 101.233 179.852 101.264 179.852 101.302C179.852 101.34 179.843 101.37 179.825 101.394C179.807 101.418 179.783 101.43 179.754 101.43ZM179.14 101.438C179.14 101.519 179.154 101.579 179.182 101.618C179.209 101.658 179.253 101.677 179.311 101.677C179.37 101.677 179.413 101.658 179.441 101.62C179.469 101.581 179.483 101.523 179.484 101.447V101.354C179.484 101.274 179.47 101.215 179.442 101.176C179.415 101.137 179.371 101.117 179.312 101.117C179.254 101.117 179.21 101.136 179.183 101.174C179.155 101.211 179.141 101.269 179.14 101.348V101.438ZM179.209 101.343C179.209 101.284 179.217 101.241 179.234 101.215C179.25 101.188 179.277 101.174 179.312 101.174C179.348 101.174 179.373 101.188 179.39 101.214C179.406 101.241 179.414 101.282 179.415 101.338V101.448C179.415 101.507 179.406 101.551 179.389 101.579C179.372 101.607 179.346 101.621 179.311 101.621C179.277 101.621 179.252 101.608 179.235 101.581C179.219 101.555 179.21 101.513 179.209 101.456V101.343Z" fill="#A3A3A3"/>
<path d="M179.647 98.057C179.661 98.0743 179.679 98.0881 179.699 98.0986C179.719 98.1091 179.741 98.1143 179.765 98.1143C179.796 98.1143 179.824 98.1066 179.847 98.0911C179.87 98.0756 179.888 98.0539 179.901 98.026C179.914 97.9978 179.92 97.9667 179.92 97.9328C179.92 97.8963 179.913 97.8635 179.9 97.8343C179.886 97.8051 179.866 97.7828 179.84 97.7673C179.815 97.7518 179.785 97.7441 179.751 97.7441C179.697 97.7441 179.655 97.7643 179.624 97.8047C179.593 97.8449 179.577 97.8998 179.577 97.9694V97.9897C179.577 98.0957 179.598 98.1732 179.64 98.2221C179.682 98.2708 179.745 98.2958 179.83 98.297H179.843V98.2386H179.829C179.772 98.2376 179.728 98.2228 179.697 98.1941C179.666 98.1651 179.65 98.1194 179.647 98.057ZM179.754 98.057C179.73 98.057 179.709 98.0499 179.69 98.0357C179.67 98.0215 179.655 98.0039 179.646 97.9829V97.9552C179.646 97.9098 179.656 97.8729 179.676 97.8444C179.696 97.816 179.721 97.8017 179.751 97.8017C179.781 97.8017 179.806 97.8135 179.824 97.8369C179.843 97.8601 179.852 97.8908 179.852 97.929C179.852 97.9662 179.843 97.9969 179.825 98.0211C179.807 98.0451 179.783 98.057 179.754 98.057ZM179.45 98.0234L179.422 97.7516H179.143V97.8156H179.363L179.38 97.9642C179.353 97.9485 179.323 97.9406 179.289 97.9406C179.239 97.9406 179.2 97.9571 179.171 97.99C179.141 98.0227 179.127 98.067 179.127 98.1229C179.127 98.1791 179.142 98.2234 179.173 98.2558C179.203 98.288 179.245 98.3041 179.299 98.3041C179.348 98.3041 179.387 98.2908 179.417 98.2641C179.448 98.2374 179.465 98.2004 179.469 98.1533H179.404C179.4 98.1845 179.389 98.208 179.371 98.224C179.353 98.2397 179.329 98.2476 179.299 98.2476C179.267 98.2476 179.242 98.2366 179.224 98.2146C179.205 98.1927 179.196 98.1624 179.196 98.1237C179.196 98.0872 179.206 98.058 179.226 98.0361C179.246 98.0139 179.272 98.0028 179.305 98.0028C179.335 98.0028 179.359 98.0094 179.376 98.0226L179.395 98.0376L179.45 98.0234Z" fill="#A3A3A3"/>
<path d="M180.115 95H180.185V94.5384L180.324 94.5897V94.5268L180.126 94.4523H180.115V95ZM179.57 94.7675C179.57 94.8486 179.584 94.9089 179.612 94.9483C179.64 94.9878 179.683 95.0075 179.742 95.0075C179.8 95.0075 179.843 94.9883 179.871 94.9498C179.899 94.9112 179.914 94.8535 179.915 94.7769V94.6844C179.915 94.6043 179.901 94.5448 179.873 94.5059C179.845 94.4669 179.802 94.4475 179.743 94.4475C179.684 94.4475 179.641 94.4663 179.613 94.504C179.585 94.5414 179.571 94.5993 179.57 94.6777V94.7675ZM179.64 94.6728C179.64 94.6142 179.648 94.5715 179.664 94.5448C179.681 94.5178 179.707 94.5044 179.743 94.5044C179.778 94.5044 179.804 94.5177 179.82 94.5444C179.836 94.5711 179.845 94.6122 179.845 94.6676V94.7784C179.845 94.8373 179.837 94.8808 179.82 94.909C179.803 94.937 179.777 94.951 179.742 94.951C179.708 94.951 179.682 94.9377 179.666 94.9113C179.649 94.8848 179.64 94.8431 179.64 94.7862V94.6728ZM179.14 94.7675C179.14 94.8486 179.154 94.9089 179.182 94.9483C179.209 94.9878 179.253 95.0075 179.311 95.0075C179.37 95.0075 179.413 94.9883 179.441 94.9498C179.469 94.9112 179.483 94.8535 179.484 94.7769V94.6844C179.484 94.6043 179.47 94.5448 179.442 94.5059C179.415 94.4669 179.371 94.4475 179.312 94.4475C179.254 94.4475 179.21 94.4663 179.183 94.504C179.155 94.5414 179.141 94.5993 179.14 94.6777V94.7675ZM179.209 94.6728C179.209 94.6142 179.217 94.5715 179.234 94.5448C179.25 94.5178 179.277 94.5044 179.312 94.5044C179.348 94.5044 179.373 94.5177 179.39 94.5444C179.406 94.5711 179.414 94.6122 179.415 94.6676V94.7784C179.415 94.8373 179.406 94.8808 179.389 94.909C179.372 94.937 179.346 94.951 179.311 94.951C179.277 94.951 179.252 94.9377 179.235 94.9113C179.219 94.8848 179.21 94.8431 179.209 94.7862V94.6728Z" fill="#A3A3A3"/>
<path d="M178.33 94.3834V161.467" stroke="white" stroke-width="0.0766667"/>
<path d="M151.497 94.3834V161.467" stroke="white" stroke-width="0.0766667"/>
<path d="M124.586 94.3834V161.467" stroke="white" stroke-width="0.0766667"/>
<path d="M97.6763 94.3834V161.467" stroke="white" stroke-width="0.0766667"/>
<path d="M70.7666 94.3834V161.467" stroke="white" stroke-width="0.0766667"/>
<path d="M178.33 161.467H70.8434" stroke="white" stroke-width="0.0766667"/>
<path d="M178.33 158.093H70.8434" stroke="white" stroke-width="0.0766667"/>
<path d="M178.33 154.72H70.8434" stroke="white" stroke-width="0.0766667"/>
<path d="M178.33 151.347H70.8434" stroke="white" stroke-width="0.0766667"/>
<path d="M178.33 148.05H70.8434" stroke="white" stroke-width="0.0766667"/>
<path d="M178.33 144.677H70.8434" stroke="white" stroke-width="0.0766667"/>
<path d="M178.33 141.303H70.8434" stroke="white" stroke-width="0.0766667"/>
<path d="M178.33 137.93H70.8434" stroke="white" stroke-width="0.0766667"/>
<path d="M178.33 134.633H70.8434" stroke="white" stroke-width="0.0766667"/>
<path d="M178.33 131.26H70.8434" stroke="white" stroke-width="0.0766667"/>
<path d="M178.33 127.887H70.8434" stroke="white" stroke-width="0.0766667"/>
<path d="M178.33 124.513H70.8434" stroke="white" stroke-width="0.0766667"/>
<path d="M178.33 121.217H70.8434" stroke="white" stroke-width="0.0766667"/>
<path d="M178.33 117.843H70.8434" stroke="white" stroke-width="0.0766667"/>
<path d="M178.33 114.47H70.8434" stroke="white" stroke-width="0.0766667"/>
<path d="M178.33 111.097H70.8434" stroke="white" stroke-width="0.0766667"/>
<path d="M178.33 107.8H70.8434" stroke="white" stroke-width="0.0766667"/>
<path d="M178.33 104.427H70.8434" stroke="white" stroke-width="0.0766667"/>
<path d="M178.33 101.053H70.8434" stroke="white" stroke-width="0.0766667"/>
<path d="M178.33 97.68H70.8434" stroke="white" stroke-width="0.0766667"/>
<path d="M178.33 94.3834H70.8434" stroke="white" stroke-width="0.0766667"/>
<path d="M151.497 95.6866C164.913 95.6866 178.33 149.353 178.33 149.353V161.467H70.8434V137.93C70.8434 137.93 84.3367 139.31 97.7534 139.31C111.17 139.31 111.17 119.837 124.587 119.837C138.08 119.837 138.08 95.6866 151.497 95.6866Z" fill="#BCF9E3"/>
<circle cx="65" cy="95" r="5" fill="#19BC81"/>
<circle cx="252" cy="95" r="5" fill="#FB7A72"/>
<path d="M61.7373 71.6621H59.4521V78H58.5195V71.6621H56.2393V70.8906H61.7373V71.6621ZM61.9229 75.3096C61.9229 74.792 62.0238 74.3265 62.2256 73.9131C62.4307 73.4997 62.7139 73.1807 63.0752 72.9561C63.4398 72.7314 63.8548 72.6191 64.3203 72.6191C65.0397 72.6191 65.6208 72.8682 66.0635 73.3662C66.5094 73.8643 66.7324 74.5267 66.7324 75.3535V75.417C66.7324 75.9313 66.6331 76.3936 66.4346 76.8037C66.2393 77.2106 65.9577 77.528 65.5898 77.7559C65.2253 77.9837 64.8053 78.0977 64.3301 78.0977C63.6139 78.0977 63.0329 77.8486 62.5869 77.3506C62.1442 76.8525 61.9229 76.1934 61.9229 75.373V75.3096ZM62.8311 75.417C62.8311 76.0029 62.9661 76.4733 63.2363 76.8281C63.5098 77.1829 63.8743 77.3604 64.3301 77.3604C64.7891 77.3604 65.1536 77.1813 65.4238 76.8232C65.694 76.4619 65.8291 75.9574 65.8291 75.3096C65.8291 74.7301 65.6908 74.2614 65.4141 73.9033C65.1406 73.542 64.776 73.3613 64.3203 73.3613C63.8743 73.3613 63.5146 73.5387 63.2412 73.8936C62.9678 74.2484 62.8311 74.7562 62.8311 75.417ZM67.6455 75.3145C67.6455 74.5039 67.8376 73.8529 68.2217 73.3613C68.6058 72.8665 69.1087 72.6191 69.7305 72.6191C70.349 72.6191 70.8389 72.8307 71.2002 73.2539V70.5H72.1035V78H71.2734L71.2295 77.4336C70.8682 77.8763 70.3652 78.0977 69.7207 78.0977C69.1087 78.0977 68.609 77.847 68.2217 77.3457C67.8376 76.8444 67.6455 76.1901 67.6455 75.3828V75.3145ZM68.5488 75.417C68.5488 76.016 68.6725 76.4847 68.9199 76.8232C69.1673 77.1618 69.5091 77.3311 69.9453 77.3311C70.5182 77.3311 70.9365 77.0739 71.2002 76.5596V74.1328C70.93 73.6348 70.515 73.3857 69.9551 73.3857C69.5124 73.3857 69.1673 73.5566 68.9199 73.8984C68.6725 74.2402 68.5488 74.7464 68.5488 75.417ZM76.7715 78C76.7194 77.8958 76.6771 77.7103 76.6445 77.4434C76.2246 77.8796 75.7233 78.0977 75.1406 78.0977C74.6198 78.0977 74.1917 77.9512 73.8564 77.6582C73.5244 77.362 73.3584 76.9876 73.3584 76.5352C73.3584 75.985 73.5667 75.5586 73.9834 75.2559C74.4033 74.9499 74.9925 74.7969 75.751 74.7969H76.6299V74.3818C76.6299 74.0661 76.5355 73.8154 76.3467 73.6299C76.1579 73.4411 75.8796 73.3467 75.5117 73.3467C75.1895 73.3467 74.9193 73.4281 74.7012 73.5908C74.4831 73.7536 74.374 73.9505 74.374 74.1816H73.4658C73.4658 73.918 73.5586 73.6641 73.7441 73.4199C73.9329 73.1725 74.1868 72.9772 74.5059 72.834C74.8281 72.6908 75.1813 72.6191 75.5654 72.6191C76.1742 72.6191 76.651 72.7721 76.9961 73.0781C77.3411 73.3809 77.5202 73.7992 77.5332 74.333V76.7646C77.5332 77.2497 77.5951 77.6354 77.7188 77.9219V78H76.7715ZM75.2725 77.3115C75.5557 77.3115 75.8242 77.2383 76.0781 77.0918C76.332 76.9453 76.516 76.7549 76.6299 76.5205V75.4365H75.9219C74.8151 75.4365 74.2617 75.7604 74.2617 76.4082C74.2617 76.6914 74.3561 76.9128 74.5449 77.0723C74.7337 77.2318 74.9762 77.3115 75.2725 77.3115ZM80.5996 76.6768L81.8301 72.7168H82.7969L80.6729 78.8154C80.3441 79.6943 79.8216 80.1338 79.1055 80.1338L78.9346 80.1191L78.5977 80.0557V79.3232L78.8418 79.3428C79.1478 79.3428 79.3854 79.2809 79.5547 79.1572C79.7272 79.0335 79.8688 78.8073 79.9795 78.4785L80.1797 77.9414L78.2949 72.7168H79.2812L80.5996 76.6768ZM83.0508 79.416L82.5381 79.0645C82.8441 78.638 83.0036 78.1986 83.0166 77.7461V76.9307H83.9004V77.6387C83.9004 77.9674 83.819 78.2962 83.6562 78.625C83.4967 78.9538 83.2949 79.2174 83.0508 79.416ZM90.3994 78H89.4912V71.9795L87.6699 72.6484V71.8281L90.2578 70.8564H90.3994V78ZM96.8594 75.6123H97.8457V76.3496H96.8594V78H95.9512V76.3496H92.7139V75.8174L95.8975 70.8906H96.8594V75.6123ZM93.7393 75.6123H95.9512V72.126L95.8438 72.3213L93.7393 75.6123ZM104.354 70.8906H105.297V75.9248C105.297 76.6051 105.092 77.1374 104.682 77.5215C104.275 77.9056 103.731 78.0977 103.051 78.0977C102.344 78.0977 101.794 77.917 101.4 77.5557C101.007 77.1943 100.81 76.6882 100.81 76.0371H101.747C101.747 76.444 101.858 76.7614 102.079 76.9893C102.304 77.2171 102.628 77.3311 103.051 77.3311C103.438 77.3311 103.751 77.209 103.988 76.9648C104.229 76.7207 104.351 76.3789 104.354 75.9395V70.8906ZM110.014 77.4775C109.662 77.891 109.146 78.0977 108.466 78.0977C107.903 78.0977 107.473 77.9349 107.177 77.6094C106.884 77.2806 106.736 76.7956 106.732 76.1543V72.7168H107.636V76.1299C107.636 76.9307 107.961 77.3311 108.612 77.3311C109.302 77.3311 109.761 77.0739 109.989 76.5596V72.7168H110.893V78H110.033L110.014 77.4775ZM113.124 72.7168L113.153 73.3809C113.557 72.873 114.084 72.6191 114.735 72.6191C115.852 72.6191 116.415 73.249 116.425 74.5088V78H115.521V74.5039C115.518 74.123 115.43 73.8415 115.258 73.6592C115.089 73.4769 114.823 73.3857 114.462 73.3857C114.169 73.3857 113.912 73.4639 113.69 73.6201C113.469 73.7764 113.297 73.9814 113.173 74.2354V78H112.27V72.7168H113.124ZM119.979 78.0977C119.263 78.0977 118.681 77.8633 118.231 77.3945C117.782 76.9225 117.558 76.2926 117.558 75.5049V75.3389C117.558 74.8148 117.657 74.3477 117.855 73.9375C118.057 73.5241 118.337 73.2018 118.695 72.9707C119.057 72.7363 119.447 72.6191 119.867 72.6191C120.554 72.6191 121.088 72.8454 121.469 73.2979C121.85 73.7503 122.04 74.3981 122.04 75.2412V75.6172H118.461C118.474 76.138 118.625 76.5596 118.915 76.8818C119.208 77.2008 119.579 77.3604 120.028 77.3604C120.347 77.3604 120.618 77.2952 120.839 77.165C121.06 77.0348 121.254 76.8623 121.42 76.6475L121.972 77.0771C121.529 77.7575 120.865 78.0977 119.979 78.0977ZM119.867 73.3613C119.503 73.3613 119.197 73.4948 118.949 73.7617C118.702 74.0254 118.549 74.3965 118.49 74.875H121.137V74.8066C121.111 74.3477 120.987 73.9928 120.766 73.7422C120.544 73.4883 120.245 73.3613 119.867 73.3613ZM123.061 79.416L122.548 79.0645C122.854 78.638 123.013 78.1986 123.026 77.7461V76.9307H123.91V77.6387C123.91 77.9674 123.829 78.2962 123.666 78.625C123.507 78.9538 123.305 79.2174 123.061 79.416ZM132.099 78H127.44V77.3506L129.901 74.6162C130.266 74.2028 130.517 73.8675 130.653 73.6104C130.793 73.3499 130.863 73.0814 130.863 72.8047C130.863 72.4336 130.751 72.1292 130.526 71.8916C130.302 71.654 130.002 71.5352 129.628 71.5352C129.179 71.5352 128.829 71.6637 128.578 71.9209C128.331 72.1748 128.207 72.5296 128.207 72.9854H127.304C127.304 72.3311 127.514 71.8021 127.934 71.3984C128.357 70.9948 128.922 70.793 129.628 70.793C130.289 70.793 130.811 70.9671 131.195 71.3154C131.579 71.6605 131.771 72.1211 131.771 72.6973C131.771 73.3971 131.326 74.2305 130.434 75.1973L128.529 77.2627H132.099V78ZM137.514 74.9678C137.514 76.0257 137.333 76.8118 136.972 77.3262C136.61 77.8405 136.046 78.0977 135.277 78.0977C134.519 78.0977 133.957 77.847 133.593 77.3457C133.228 76.8411 133.039 76.0892 133.026 75.0898V73.8838C133.026 72.8389 133.207 72.0625 133.568 71.5547C133.93 71.0469 134.496 70.793 135.268 70.793C136.033 70.793 136.596 71.0387 136.957 71.5303C137.318 72.0186 137.504 72.7738 137.514 73.7959V74.9678ZM136.61 73.7324C136.61 72.9674 136.503 72.4108 136.288 72.0625C136.073 71.7109 135.733 71.5352 135.268 71.5352C134.805 71.5352 134.468 71.7093 134.257 72.0576C134.045 72.4059 133.936 72.9414 133.93 73.6641V75.1094C133.93 75.8776 134.04 76.4456 134.262 76.8135C134.486 77.1781 134.825 77.3604 135.277 77.3604C135.723 77.3604 136.054 77.1878 136.269 76.8428C136.487 76.4977 136.601 75.9541 136.61 75.2119V73.7324ZM143.329 78H138.671V77.3506L141.132 74.6162C141.496 74.2028 141.747 73.8675 141.884 73.6104C142.024 73.3499 142.094 73.0814 142.094 72.8047C142.094 72.4336 141.981 72.1292 141.757 71.8916C141.532 71.654 141.233 71.5352 140.858 71.5352C140.409 71.5352 140.059 71.6637 139.809 71.9209C139.561 72.1748 139.438 72.5296 139.438 72.9854H138.534C138.534 72.3311 138.744 71.8021 139.164 71.3984C139.587 70.9948 140.152 70.793 140.858 70.793C141.519 70.793 142.042 70.9671 142.426 71.3154C142.81 71.6605 143.002 72.1211 143.002 72.6973C143.002 73.3971 142.556 74.2305 141.664 75.1973L139.76 77.2627H143.329V78ZM147.255 78H146.347V71.9795L144.525 72.6484V71.8281L147.113 70.8564H147.255V78ZM150.014 77.5264C150.014 77.3701 150.059 77.2399 150.15 77.1357C150.245 77.0316 150.385 76.9795 150.57 76.9795C150.756 76.9795 150.896 77.0316 150.99 77.1357C151.088 77.2399 151.137 77.3701 151.137 77.5264C151.137 77.6761 151.088 77.8014 150.99 77.9023C150.896 78.0033 150.756 78.0537 150.57 78.0537C150.385 78.0537 150.245 78.0033 150.15 77.9023C150.059 77.8014 150.014 77.6761 150.014 77.5264Z" fill="#575757"/>
<path d="M73.9199 176.831C73.1159 176.6 72.5299 176.317 72.1621 175.981C71.7975 175.643 71.6152 175.226 71.6152 174.731C71.6152 174.172 71.8382 173.709 72.2842 173.345C72.7334 172.977 73.3161 172.793 74.0322 172.793C74.5205 172.793 74.9551 172.887 75.3359 173.076C75.7201 173.265 76.0163 173.525 76.2246 173.857C76.4362 174.189 76.542 174.552 76.542 174.946H75.5996C75.5996 174.517 75.4629 174.18 75.1895 173.936C74.916 173.688 74.5303 173.564 74.0322 173.564C73.57 173.564 73.2087 173.667 72.9482 173.872C72.6911 174.074 72.5625 174.355 72.5625 174.717C72.5625 175.007 72.6846 175.252 72.9287 175.454C73.1761 175.653 73.5944 175.835 74.1836 176.001C74.776 176.167 75.2383 176.351 75.5703 176.553C75.9056 176.751 76.153 176.984 76.3125 177.251C76.4753 177.518 76.5566 177.832 76.5566 178.193C76.5566 178.77 76.332 179.232 75.8828 179.58C75.4336 179.925 74.833 180.098 74.0811 180.098C73.5928 180.098 73.137 180.005 72.7139 179.819C72.2907 179.631 71.9635 179.373 71.7324 179.048C71.5046 178.722 71.3906 178.353 71.3906 177.939H72.333C72.333 178.369 72.4909 178.709 72.8066 178.96C73.1257 179.207 73.5505 179.331 74.0811 179.331C74.5758 179.331 74.9551 179.23 75.2188 179.028C75.4824 178.826 75.6143 178.551 75.6143 178.203C75.6143 177.855 75.4922 177.586 75.248 177.397C75.0039 177.205 74.5612 177.017 73.9199 176.831ZM79.8135 180.098C79.0973 180.098 78.5146 179.863 78.0654 179.395C77.6162 178.923 77.3916 178.293 77.3916 177.505V177.339C77.3916 176.815 77.4909 176.348 77.6895 175.938C77.8913 175.524 78.1712 175.202 78.5293 174.971C78.8906 174.736 79.2812 174.619 79.7012 174.619C80.388 174.619 80.9219 174.845 81.3027 175.298C81.6836 175.75 81.874 176.398 81.874 177.241V177.617H78.2949C78.3079 178.138 78.4593 178.56 78.749 178.882C79.042 179.201 79.4131 179.36 79.8623 179.36C80.1813 179.36 80.4515 179.295 80.6729 179.165C80.8942 179.035 81.0879 178.862 81.2539 178.647L81.8057 179.077C81.363 179.757 80.6989 180.098 79.8135 180.098ZM79.7012 175.361C79.3366 175.361 79.0306 175.495 78.7832 175.762C78.5358 176.025 78.3828 176.396 78.3242 176.875H80.9707V176.807C80.9447 176.348 80.821 175.993 80.5996 175.742C80.3783 175.488 80.0788 175.361 79.7012 175.361ZM85.1162 180.098C84.4001 180.098 83.8174 179.863 83.3682 179.395C82.9189 178.923 82.6943 178.293 82.6943 177.505V177.339C82.6943 176.815 82.7936 176.348 82.9922 175.938C83.194 175.524 83.474 175.202 83.832 174.971C84.1934 174.736 84.584 174.619 85.0039 174.619C85.6908 174.619 86.2246 174.845 86.6055 175.298C86.9863 175.75 87.1768 176.398 87.1768 177.241V177.617H83.5977C83.6107 178.138 83.762 178.56 84.0518 178.882C84.3447 179.201 84.7158 179.36 85.165 179.36C85.484 179.36 85.7542 179.295 85.9756 179.165C86.1969 179.035 86.3906 178.862 86.5566 178.647L87.1084 179.077C86.6657 179.757 86.0016 180.098 85.1162 180.098ZM85.0039 175.361C84.6393 175.361 84.3333 175.495 84.0859 175.762C83.8385 176.025 83.6855 176.396 83.627 176.875H86.2734V176.807C86.2474 176.348 86.1237 175.993 85.9023 175.742C85.681 175.488 85.3815 175.361 85.0039 175.361ZM90.8486 180V172.891H92.8555C93.474 172.891 94.0208 173.027 94.4961 173.301C94.9714 173.574 95.3376 173.963 95.5947 174.468C95.8551 174.972 95.987 175.552 95.9902 176.206V176.66C95.9902 177.331 95.86 177.918 95.5996 178.423C95.3424 178.927 94.973 179.315 94.4912 179.585C94.0127 179.855 93.4544 179.993 92.8164 180H90.8486ZM91.7861 173.662V179.233H92.7725C93.4951 179.233 94.0566 179.009 94.457 178.56C94.8607 178.11 95.0625 177.471 95.0625 176.641V176.226C95.0625 175.418 94.8721 174.792 94.4912 174.346C94.1136 173.896 93.5765 173.669 92.8799 173.662H91.7861ZM99.4619 180.098C98.7458 180.098 98.1631 179.863 97.7139 179.395C97.2646 178.923 97.04 178.293 97.04 177.505V177.339C97.04 176.815 97.1393 176.348 97.3379 175.938C97.5397 175.524 97.8197 175.202 98.1777 174.971C98.5391 174.736 98.9297 174.619 99.3496 174.619C100.036 174.619 100.57 174.845 100.951 175.298C101.332 175.75 101.522 176.398 101.522 177.241V177.617H97.9434C97.9564 178.138 98.1077 178.56 98.3975 178.882C98.6904 179.201 99.0615 179.36 99.5107 179.36C99.8298 179.36 100.1 179.295 100.321 179.165C100.543 179.035 100.736 178.862 100.902 178.647L101.454 179.077C101.011 179.757 100.347 180.098 99.4619 180.098ZM99.3496 175.361C98.985 175.361 98.679 175.495 98.4316 175.762C98.1842 176.025 98.0312 176.396 97.9727 176.875H100.619V176.807C100.593 176.348 100.469 175.993 100.248 175.742C100.027 175.488 99.7272 175.361 99.3496 175.361ZM103.798 173.438V174.717H104.784V175.415H103.798V178.691C103.798 178.903 103.842 179.062 103.93 179.17C104.018 179.274 104.167 179.326 104.379 179.326C104.483 179.326 104.626 179.307 104.809 179.268V180C104.571 180.065 104.34 180.098 104.115 180.098C103.712 180.098 103.407 179.976 103.202 179.731C102.997 179.487 102.895 179.141 102.895 178.691V175.415H101.933V174.717H102.895V173.438H103.798ZM109.105 180C109.053 179.896 109.011 179.71 108.979 179.443C108.559 179.88 108.057 180.098 107.475 180.098C106.954 180.098 106.526 179.951 106.19 179.658C105.858 179.362 105.692 178.988 105.692 178.535C105.692 177.985 105.901 177.559 106.317 177.256C106.737 176.95 107.326 176.797 108.085 176.797H108.964V176.382C108.964 176.066 108.869 175.815 108.681 175.63C108.492 175.441 108.214 175.347 107.846 175.347C107.523 175.347 107.253 175.428 107.035 175.591C106.817 175.754 106.708 175.951 106.708 176.182H105.8C105.8 175.918 105.893 175.664 106.078 175.42C106.267 175.173 106.521 174.977 106.84 174.834C107.162 174.691 107.515 174.619 107.899 174.619C108.508 174.619 108.985 174.772 109.33 175.078C109.675 175.381 109.854 175.799 109.867 176.333V178.765C109.867 179.25 109.929 179.635 110.053 179.922V180H109.105ZM107.606 179.312C107.89 179.312 108.158 179.238 108.412 179.092C108.666 178.945 108.85 178.755 108.964 178.521V177.437H108.256C107.149 177.437 106.596 177.76 106.596 178.408C106.596 178.691 106.69 178.913 106.879 179.072C107.068 179.232 107.31 179.312 107.606 179.312ZM112.265 180H111.361V174.717H112.265V180ZM111.288 173.315C111.288 173.169 111.332 173.045 111.42 172.944C111.511 172.843 111.645 172.793 111.82 172.793C111.996 172.793 112.13 172.843 112.221 172.944C112.312 173.045 112.357 173.169 112.357 173.315C112.357 173.462 112.312 173.584 112.221 173.682C112.13 173.779 111.996 173.828 111.82 173.828C111.645 173.828 111.511 173.779 111.42 173.682C111.332 173.584 111.288 173.462 111.288 173.315ZM114.696 180H113.793V172.5H114.696V180ZM119.223 178.599C119.223 178.354 119.13 178.166 118.944 178.032C118.762 177.896 118.441 177.778 117.982 177.681C117.527 177.583 117.164 177.466 116.894 177.329C116.627 177.192 116.428 177.03 116.298 176.841C116.171 176.652 116.107 176.427 116.107 176.167C116.107 175.734 116.29 175.368 116.654 175.068C117.022 174.769 117.491 174.619 118.061 174.619C118.66 174.619 119.145 174.774 119.516 175.083C119.89 175.392 120.077 175.788 120.077 176.27H119.169C119.169 176.022 119.063 175.809 118.852 175.63C118.643 175.451 118.38 175.361 118.061 175.361C117.732 175.361 117.475 175.433 117.289 175.576C117.104 175.719 117.011 175.907 117.011 176.138C117.011 176.356 117.097 176.52 117.27 176.631C117.442 176.742 117.753 176.847 118.202 176.948C118.655 177.049 119.021 177.17 119.301 177.31C119.581 177.45 119.787 177.619 119.921 177.817C120.058 178.013 120.126 178.252 120.126 178.535C120.126 179.007 119.937 179.386 119.56 179.673C119.182 179.956 118.692 180.098 118.09 180.098C117.667 180.098 117.292 180.023 116.967 179.873C116.641 179.723 116.386 179.515 116.2 179.248C116.018 178.978 115.927 178.687 115.927 178.374H116.83C116.846 178.677 116.967 178.918 117.191 179.097C117.419 179.272 117.719 179.36 118.09 179.36C118.432 179.36 118.705 179.292 118.91 179.155C119.118 179.015 119.223 178.83 119.223 178.599Z" fill="#19BC81"/>
<path d="M274.92 176.831C274.116 176.6 273.53 176.317 273.162 175.981C272.798 175.643 272.615 175.226 272.615 174.731C272.615 174.172 272.838 173.709 273.284 173.345C273.733 172.977 274.316 172.793 275.032 172.793C275.521 172.793 275.955 172.887 276.336 173.076C276.72 173.265 277.016 173.525 277.225 173.857C277.436 174.189 277.542 174.552 277.542 174.946H276.6C276.6 174.517 276.463 174.18 276.189 173.936C275.916 173.688 275.53 173.564 275.032 173.564C274.57 173.564 274.209 173.667 273.948 173.872C273.691 174.074 273.562 174.355 273.562 174.717C273.562 175.007 273.685 175.252 273.929 175.454C274.176 175.653 274.594 175.835 275.184 176.001C275.776 176.167 276.238 176.351 276.57 176.553C276.906 176.751 277.153 176.984 277.312 177.251C277.475 177.518 277.557 177.832 277.557 178.193C277.557 178.77 277.332 179.232 276.883 179.58C276.434 179.925 275.833 180.098 275.081 180.098C274.593 180.098 274.137 180.005 273.714 179.819C273.291 179.631 272.964 179.373 272.732 179.048C272.505 178.722 272.391 178.353 272.391 177.939H273.333C273.333 178.369 273.491 178.709 273.807 178.96C274.126 179.207 274.55 179.331 275.081 179.331C275.576 179.331 275.955 179.23 276.219 179.028C276.482 178.826 276.614 178.551 276.614 178.203C276.614 177.855 276.492 177.586 276.248 177.397C276.004 177.205 275.561 177.017 274.92 176.831ZM280.813 180.098C280.097 180.098 279.515 179.863 279.065 179.395C278.616 178.923 278.392 178.293 278.392 177.505V177.339C278.392 176.815 278.491 176.348 278.689 175.938C278.891 175.524 279.171 175.202 279.529 174.971C279.891 174.736 280.281 174.619 280.701 174.619C281.388 174.619 281.922 174.845 282.303 175.298C282.684 175.75 282.874 176.398 282.874 177.241V177.617H279.295C279.308 178.138 279.459 178.56 279.749 178.882C280.042 179.201 280.413 179.36 280.862 179.36C281.181 179.36 281.451 179.295 281.673 179.165C281.894 179.035 282.088 178.862 282.254 178.647L282.806 179.077C282.363 179.757 281.699 180.098 280.813 180.098ZM280.701 175.361C280.337 175.361 280.031 175.495 279.783 175.762C279.536 176.025 279.383 176.396 279.324 176.875H281.971V176.807C281.945 176.348 281.821 175.993 281.6 175.742C281.378 175.488 281.079 175.361 280.701 175.361ZM286.116 180.098C285.4 180.098 284.817 179.863 284.368 179.395C283.919 178.923 283.694 178.293 283.694 177.505V177.339C283.694 176.815 283.794 176.348 283.992 175.938C284.194 175.524 284.474 175.202 284.832 174.971C285.193 174.736 285.584 174.619 286.004 174.619C286.691 174.619 287.225 174.845 287.605 175.298C287.986 175.75 288.177 176.398 288.177 177.241V177.617H284.598C284.611 178.138 284.762 178.56 285.052 178.882C285.345 179.201 285.716 179.36 286.165 179.36C286.484 179.36 286.754 179.295 286.976 179.165C287.197 179.035 287.391 178.862 287.557 178.647L288.108 179.077C287.666 179.757 287.002 180.098 286.116 180.098ZM286.004 175.361C285.639 175.361 285.333 175.495 285.086 175.762C284.839 176.025 284.686 176.396 284.627 176.875H287.273V176.807C287.247 176.348 287.124 175.993 286.902 175.742C286.681 175.488 286.382 175.361 286.004 175.361ZM291.849 180V172.891H293.855C294.474 172.891 295.021 173.027 295.496 173.301C295.971 173.574 296.338 173.963 296.595 174.468C296.855 174.972 296.987 175.552 296.99 176.206V176.66C296.99 177.331 296.86 177.918 296.6 178.423C296.342 178.927 295.973 179.315 295.491 179.585C295.013 179.855 294.454 179.993 293.816 180H291.849ZM292.786 173.662V179.233H293.772C294.495 179.233 295.057 179.009 295.457 178.56C295.861 178.11 296.062 177.471 296.062 176.641V176.226C296.062 175.418 295.872 174.792 295.491 174.346C295.114 173.896 294.576 173.669 293.88 173.662H292.786ZM300.462 180.098C299.746 180.098 299.163 179.863 298.714 179.395C298.265 178.923 298.04 178.293 298.04 177.505V177.339C298.04 176.815 298.139 176.348 298.338 175.938C298.54 175.524 298.82 175.202 299.178 174.971C299.539 174.736 299.93 174.619 300.35 174.619C301.036 174.619 301.57 174.845 301.951 175.298C302.332 175.75 302.522 176.398 302.522 177.241V177.617H298.943C298.956 178.138 299.108 178.56 299.397 178.882C299.69 179.201 300.062 179.36 300.511 179.36C300.83 179.36 301.1 179.295 301.321 179.165C301.543 179.035 301.736 178.862 301.902 178.647L302.454 179.077C302.011 179.757 301.347 180.098 300.462 180.098ZM300.35 175.361C299.985 175.361 299.679 175.495 299.432 175.762C299.184 176.025 299.031 176.396 298.973 176.875H301.619V176.807C301.593 176.348 301.469 175.993 301.248 175.742C301.027 175.488 300.727 175.361 300.35 175.361ZM304.798 173.438V174.717H305.784V175.415H304.798V178.691C304.798 178.903 304.842 179.062 304.93 179.17C305.018 179.274 305.167 179.326 305.379 179.326C305.483 179.326 305.626 179.307 305.809 179.268V180C305.571 180.065 305.34 180.098 305.115 180.098C304.712 180.098 304.407 179.976 304.202 179.731C303.997 179.487 303.895 179.141 303.895 178.691V175.415H302.933V174.717H303.895V173.438H304.798ZM310.105 180C310.053 179.896 310.011 179.71 309.979 179.443C309.559 179.88 309.057 180.098 308.475 180.098C307.954 180.098 307.526 179.951 307.19 179.658C306.858 179.362 306.692 178.988 306.692 178.535C306.692 177.985 306.901 177.559 307.317 177.256C307.737 176.95 308.326 176.797 309.085 176.797H309.964V176.382C309.964 176.066 309.869 175.815 309.681 175.63C309.492 175.441 309.214 175.347 308.846 175.347C308.523 175.347 308.253 175.428 308.035 175.591C307.817 175.754 307.708 175.951 307.708 176.182H306.8C306.8 175.918 306.893 175.664 307.078 175.42C307.267 175.173 307.521 174.977 307.84 174.834C308.162 174.691 308.515 174.619 308.899 174.619C309.508 174.619 309.985 174.772 310.33 175.078C310.675 175.381 310.854 175.799 310.867 176.333V178.765C310.867 179.25 310.929 179.635 311.053 179.922V180H310.105ZM308.606 179.312C308.89 179.312 309.158 179.238 309.412 179.092C309.666 178.945 309.85 178.755 309.964 178.521V177.437H309.256C308.149 177.437 307.596 177.76 307.596 178.408C307.596 178.691 307.69 178.913 307.879 179.072C308.068 179.232 308.31 179.312 308.606 179.312ZM313.265 180H312.361V174.717H313.265V180ZM312.288 173.315C312.288 173.169 312.332 173.045 312.42 172.944C312.511 172.843 312.645 172.793 312.82 172.793C312.996 172.793 313.13 172.843 313.221 172.944C313.312 173.045 313.357 173.169 313.357 173.315C313.357 173.462 313.312 173.584 313.221 173.682C313.13 173.779 312.996 173.828 312.82 173.828C312.645 173.828 312.511 173.779 312.42 173.682C312.332 173.584 312.288 173.462 312.288 173.315ZM315.696 180H314.793V172.5H315.696V180ZM320.223 178.599C320.223 178.354 320.13 178.166 319.944 178.032C319.762 177.896 319.441 177.778 318.982 177.681C318.527 177.583 318.164 177.466 317.894 177.329C317.627 177.192 317.428 177.03 317.298 176.841C317.171 176.652 317.107 176.427 317.107 176.167C317.107 175.734 317.29 175.368 317.654 175.068C318.022 174.769 318.491 174.619 319.061 174.619C319.66 174.619 320.145 174.774 320.516 175.083C320.89 175.392 321.077 175.788 321.077 176.27H320.169C320.169 176.022 320.063 175.809 319.852 175.63C319.643 175.451 319.38 175.361 319.061 175.361C318.732 175.361 318.475 175.433 318.289 175.576C318.104 175.719 318.011 175.907 318.011 176.138C318.011 176.356 318.097 176.52 318.27 176.631C318.442 176.742 318.753 176.847 319.202 176.948C319.655 177.049 320.021 177.17 320.301 177.31C320.581 177.45 320.787 177.619 320.921 177.817C321.058 178.013 321.126 178.252 321.126 178.535C321.126 179.007 320.937 179.386 320.56 179.673C320.182 179.956 319.692 180.098 319.09 180.098C318.667 180.098 318.292 180.023 317.967 179.873C317.641 179.723 317.386 179.515 317.2 179.248C317.018 178.978 316.927 178.687 316.927 178.374H317.83C317.846 178.677 317.967 178.918 318.191 179.097C318.419 179.272 318.719 179.36 319.09 179.36C319.432 179.36 319.705 179.292 319.91 179.155C320.118 179.015 320.223 178.83 320.223 178.599Z" fill="#FB7A72"/>
<path d="M63.1836 53.8926H60.5703V61H58.8125V53.8926H56.2344V52.4688H63.1836V53.8926ZM66.7695 61C66.6914 60.8477 66.6348 60.6582 66.5996 60.4316C66.1895 60.8887 65.6562 61.1172 65 61.1172C64.3789 61.1172 63.8633 60.9375 63.4531 60.5781C63.0469 60.2188 62.8438 59.7656 62.8438 59.2188C62.8438 58.5469 63.0918 58.0312 63.5879 57.6719C64.0879 57.3125 64.8086 57.1309 65.75 57.127H66.5293V56.7637C66.5293 56.4707 66.4531 56.2363 66.3008 56.0605C66.1523 55.8848 65.916 55.7969 65.5918 55.7969C65.3066 55.7969 65.082 55.8652 64.918 56.002C64.7578 56.1387 64.6777 56.3262 64.6777 56.5645H62.9844C62.9844 56.1973 63.0977 55.8574 63.3242 55.5449C63.5508 55.2324 63.8711 54.9883 64.2852 54.8125C64.6992 54.6328 65.1641 54.543 65.6797 54.543C66.4609 54.543 67.0801 54.7402 67.5371 55.1348C67.998 55.5254 68.2285 56.0762 68.2285 56.7871V59.5352C68.2324 60.1367 68.3164 60.5918 68.4805 60.9004V61H66.7695ZM65.3691 59.8223C65.6191 59.8223 65.8496 59.7676 66.0605 59.6582C66.2715 59.5449 66.4277 59.3945 66.5293 59.207V58.1172H65.8965C65.0488 58.1172 64.5977 58.4102 64.543 58.9961L64.5371 59.0957C64.5371 59.3066 64.6113 59.4805 64.7598 59.6172C64.9082 59.7539 65.1113 59.8223 65.3691 59.8223ZM72.9629 59.248C72.9629 59.041 72.8594 58.8789 72.6523 58.7617C72.4492 58.6406 72.1211 58.5332 71.668 58.4395C70.1602 58.123 69.4062 57.4824 69.4062 56.5176C69.4062 55.9551 69.6387 55.4863 70.1035 55.1113C70.5723 54.7324 71.1836 54.543 71.9375 54.543C72.7422 54.543 73.3848 54.7324 73.8652 55.1113C74.3496 55.4902 74.5918 55.9824 74.5918 56.5879H72.8984C72.8984 56.3457 72.8203 56.1465 72.6641 55.9902C72.5078 55.8301 72.2637 55.75 71.9316 55.75C71.6465 55.75 71.4258 55.8145 71.2695 55.9434C71.1133 56.0723 71.0352 56.2363 71.0352 56.4355C71.0352 56.623 71.123 56.7754 71.2988 56.8926C71.4785 57.0059 71.7793 57.1055 72.2012 57.1914C72.623 57.2734 72.9785 57.3672 73.2676 57.4727C74.1621 57.8008 74.6094 58.3691 74.6094 59.1777C74.6094 59.7559 74.3613 60.2246 73.8652 60.584C73.3691 60.9395 72.7285 61.1172 71.9434 61.1172C71.4121 61.1172 70.9395 61.0234 70.5254 60.8359C70.1152 60.6445 69.793 60.3848 69.5586 60.0566C69.3242 59.7246 69.207 59.3672 69.207 58.9844H70.8125C70.8281 59.2852 70.9395 59.5156 71.1465 59.6758C71.3535 59.8359 71.6309 59.916 71.9785 59.916C72.3027 59.916 72.5469 59.8555 72.7109 59.7344C72.8789 59.6094 72.9629 59.4473 72.9629 59.248ZM78.0078 58.457L77.3984 59.0664V61H75.7051V52H77.3984V56.9863L77.7266 56.5645L79.3496 54.6602H81.3828L79.0918 57.3027L81.582 61H79.6367L78.0078 58.457ZM86.9727 57.9941V61H85.2148V52.4688H88.543C89.1836 52.4688 89.7461 52.5859 90.2305 52.8203C90.7188 53.0547 91.0938 53.3887 91.3555 53.8223C91.6172 54.252 91.748 54.7422 91.748 55.293C91.748 56.1289 91.4609 56.7891 90.8867 57.2734C90.3164 57.7539 89.5254 57.9941 88.5137 57.9941H86.9727ZM86.9727 56.5703H88.543C89.0078 56.5703 89.3613 56.4609 89.6035 56.2422C89.8496 56.0234 89.9727 55.7109 89.9727 55.3047C89.9727 54.8867 89.8496 54.5488 89.6035 54.291C89.3574 54.0332 89.0176 53.9004 88.584 53.8926H86.9727V56.5703ZM96.4121 56.248C96.1816 56.2168 95.9785 56.2012 95.8027 56.2012C95.1621 56.2012 94.7422 56.418 94.543 56.8516V61H92.8496V54.6602H94.4492L94.4961 55.416C94.8359 54.834 95.3066 54.543 95.9082 54.543C96.0957 54.543 96.2715 54.5684 96.4355 54.6191L96.4121 56.248ZM96.7578 57.7715C96.7578 57.1426 96.8789 56.582 97.1211 56.0898C97.3633 55.5977 97.7109 55.2168 98.1641 54.9473C98.6211 54.6777 99.1504 54.543 99.752 54.543C100.607 54.543 101.305 54.8047 101.844 55.3281C102.387 55.8516 102.689 56.5625 102.752 57.4609L102.764 57.8945C102.764 58.8672 102.492 59.6484 101.949 60.2383C101.406 60.8242 100.678 61.1172 99.7637 61.1172C98.8496 61.1172 98.1191 60.8242 97.5723 60.2383C97.0293 59.6523 96.7578 58.8555 96.7578 57.8477V57.7715ZM98.4512 57.8945C98.4512 58.4961 98.5645 58.957 98.791 59.2773C99.0176 59.5938 99.3418 59.752 99.7637 59.752C100.174 59.752 100.494 59.5957 100.725 59.2832C100.955 58.9668 101.07 58.4629 101.07 57.7715C101.07 57.1816 100.955 56.7246 100.725 56.4004C100.494 56.0762 100.17 55.9141 99.752 55.9141C99.3379 55.9141 99.0176 56.0762 98.791 56.4004C98.5645 56.7207 98.4512 57.2188 98.4512 57.8945ZM103.561 57.7832C103.561 56.8105 103.791 56.0273 104.252 55.4336C104.717 54.8398 105.342 54.543 106.127 54.543C106.822 54.543 107.363 54.7812 107.75 55.2578L107.82 54.6602H109.355V60.7891C109.355 61.3438 109.229 61.8262 108.975 62.2363C108.725 62.6465 108.371 62.959 107.914 63.1738C107.457 63.3887 106.922 63.4961 106.309 63.4961C105.844 63.4961 105.391 63.4023 104.949 63.2148C104.508 63.0312 104.174 62.793 103.947 62.5L104.697 61.4688C105.119 61.9414 105.631 62.1777 106.232 62.1777C106.682 62.1777 107.031 62.0566 107.281 61.8145C107.531 61.5762 107.656 61.2363 107.656 60.7949V60.4551C107.266 60.8965 106.752 61.1172 106.115 61.1172C105.354 61.1172 104.736 60.8203 104.264 60.2266C103.795 59.6289 103.561 58.8379 103.561 57.8535V57.7832ZM105.254 57.9062C105.254 58.4805 105.369 58.9316 105.6 59.2598C105.83 59.584 106.146 59.7461 106.549 59.7461C107.064 59.7461 107.434 59.5527 107.656 59.166V56.5C107.43 56.1133 107.064 55.9199 106.561 55.9199C106.154 55.9199 105.834 56.0859 105.6 56.418C105.369 56.75 105.254 57.2461 105.254 57.9062ZM114.225 56.248C113.994 56.2168 113.791 56.2012 113.615 56.2012C112.975 56.2012 112.555 56.418 112.355 56.8516V61H110.662V54.6602H112.262L112.309 55.416C112.648 54.834 113.119 54.543 113.721 54.543C113.908 54.543 114.084 54.5684 114.248 54.6191L114.225 56.248ZM117.846 61.1172C116.916 61.1172 116.158 60.832 115.572 60.2617C114.99 59.6914 114.699 58.9316 114.699 57.9824V57.8184C114.699 57.1816 114.822 56.6133 115.068 56.1133C115.314 55.6094 115.662 55.2227 116.111 54.9531C116.564 54.6797 117.08 54.543 117.658 54.543C118.525 54.543 119.207 54.8164 119.703 55.3633C120.203 55.9102 120.453 56.6855 120.453 57.6895V58.3809H116.416C116.471 58.7949 116.635 59.127 116.908 59.377C117.186 59.627 117.535 59.752 117.957 59.752C118.609 59.752 119.119 59.5156 119.486 59.043L120.318 59.9746C120.064 60.334 119.721 60.6152 119.287 60.8184C118.854 61.0176 118.373 61.1172 117.846 61.1172ZM117.652 55.9141C117.316 55.9141 117.043 56.0273 116.832 56.2539C116.625 56.4805 116.492 56.8047 116.434 57.2266H118.789V57.0918C118.781 56.7168 118.68 56.4277 118.484 56.2246C118.289 56.0176 118.012 55.9141 117.652 55.9141ZM124.854 59.248C124.854 59.041 124.75 58.8789 124.543 58.7617C124.34 58.6406 124.012 58.5332 123.559 58.4395C122.051 58.123 121.297 57.4824 121.297 56.5176C121.297 55.9551 121.529 55.4863 121.994 55.1113C122.463 54.7324 123.074 54.543 123.828 54.543C124.633 54.543 125.275 54.7324 125.756 55.1113C126.24 55.4902 126.482 55.9824 126.482 56.5879H124.789C124.789 56.3457 124.711 56.1465 124.555 55.9902C124.398 55.8301 124.154 55.75 123.822 55.75C123.537 55.75 123.316 55.8145 123.16 55.9434C123.004 56.0723 122.926 56.2363 122.926 56.4355C122.926 56.623 123.014 56.7754 123.189 56.8926C123.369 57.0059 123.67 57.1055 124.092 57.1914C124.514 57.2734 124.869 57.3672 125.158 57.4727C126.053 57.8008 126.5 58.3691 126.5 59.1777C126.5 59.7559 126.252 60.2246 125.756 60.584C125.26 60.9395 124.619 61.1172 123.834 61.1172C123.303 61.1172 122.83 61.0234 122.416 60.8359C122.006 60.6445 121.684 60.3848 121.449 60.0566C121.215 59.7246 121.098 59.3672 121.098 58.9844H122.703C122.719 59.2852 122.83 59.5156 123.037 59.6758C123.244 59.8359 123.521 59.916 123.869 59.916C124.193 59.916 124.438 59.8555 124.602 59.7344C124.77 59.6094 124.854 59.4473 124.854 59.248ZM131.029 59.248C131.029 59.041 130.926 58.8789 130.719 58.7617C130.516 58.6406 130.188 58.5332 129.734 58.4395C128.227 58.123 127.473 57.4824 127.473 56.5176C127.473 55.9551 127.705 55.4863 128.17 55.1113C128.639 54.7324 129.25 54.543 130.004 54.543C130.809 54.543 131.451 54.7324 131.932 55.1113C132.416 55.4902 132.658 55.9824 132.658 56.5879H130.965C130.965 56.3457 130.887 56.1465 130.73 55.9902C130.574 55.8301 130.33 55.75 129.998 55.75C129.713 55.75 129.492 55.8145 129.336 55.9434C129.18 56.0723 129.102 56.2363 129.102 56.4355C129.102 56.623 129.189 56.7754 129.365 56.8926C129.545 57.0059 129.846 57.1055 130.268 57.1914C130.689 57.2734 131.045 57.3672 131.334 57.4727C132.229 57.8008 132.676 58.3691 132.676 59.1777C132.676 59.7559 132.428 60.2246 131.932 60.584C131.436 60.9395 130.795 61.1172 130.01 61.1172C129.479 61.1172 129.006 61.0234 128.592 60.8359C128.182 60.6445 127.859 60.3848 127.625 60.0566C127.391 59.7246 127.273 59.3672 127.273 58.9844H128.879C128.895 59.2852 129.006 59.5156 129.213 59.6758C129.42 59.8359 129.697 59.916 130.045 59.916C130.369 59.916 130.613 59.8555 130.777 59.7344C130.945 59.6094 131.029 59.4473 131.029 59.248Z" fill="#575757"/>
<path d="M303.25 133.479C287.625 133.479 272 143.896 272 143.896V162.125H397V84C397 84 381.375 98.7569 365.75 98.7569C350.125 98.7569 350.125 119.59 334.5 119.59C318.875 119.59 318.875 133.479 303.25 133.479Z" fill="#FFC0BC"/>
<path d="M303.25 114.382C287.625 114.382 272 162.125 272 162.125H397C397 162.125 381.375 122.194 365.75 122.194C350.125 122.194 350.125 153.444 334.5 153.444C318.875 153.444 318.875 114.382 303.25 114.382Z" fill="#FFC0BC"/>
<defs>
<filter id="filter0_d" x="0" y="0" width="488" height="226" filterUnits="userSpaceOnUse" color-interpolation-filters="sRGB">
<feFlood flood-opacity="0" result="BackgroundImageFix"/>
<feColorMatrix in="SourceAlpha" type="matrix" values="0 0 0 0 0 0 0 0 0 0 0 0 0 0 0 0 0 0 127 0"/>
<feOffset dy="2"/>
<feGaussianBlur stdDeviation="15"/>
<feColorMatrix type="matrix" values="0 0 0 0 0 0 0 0 0 0 0 0 0 0 0 0 0 0 0.1 0"/>
<feBlend mode="normal" in2="BackgroundImageFix" result="effect1_dropShadow"/>
<feBlend mode="normal" in="SourceGraphic" in2="effect1_dropShadow" result="shape"/>
</filter>
</defs>
</svg>
