<svg width="29" height="20" viewBox="0 0 29 20" fill="none" xmlns="http://www.w3.org/2000/svg">
<path d="M11.7159 8.76093H9.09606C8.67378 8.78296 8.43759 9.04314 8.40561 9.3093L8.40259 11.7C8.40259 12.2093 8.77186 12.5786 9.28121 12.5786H11.5287C12.0381 12.5786 12.4073 12.2093 12.4073 11.7V9.45245C12.4073 9.04515 12.0431 8.76093 11.7159 8.76093ZM11.5288 11.758L9.22323 11.7V9.5815H11.5839L11.5288 11.758Z" fill="#575757"/>
<path d="M11.0611 9.73322H10.1243V10.2954H11.0611V9.73322Z" fill="#575757"/>
<path d="M23.7743 16.7034C23.7743 14.9522 22.3483 13.5262 20.5971 13.5262C18.8459 13.5262 17.4199 14.9522 17.4199 16.7034C17.4199 18.4546 18.8459 19.8796 20.5971 19.8796C22.3483 19.8796 23.7743 18.4546 23.7743 16.7034ZM20.5971 19.059C19.2972 19.059 18.2405 18.0023 18.2405 16.7034C18.2405 15.4035 19.2972 14.3468 20.5971 14.3468C21.897 14.3468 22.9537 15.4035 22.9537 16.7034C22.9538 18.0023 21.897 19.059 20.5971 19.059Z" fill="#575757"/>
<path d="M8.09654 16.7034C8.09654 14.9522 6.67056 13.5262 4.91937 13.5262C3.16817 13.5262 1.74219 14.9522 1.74219 16.7034C1.74219 18.4546 3.16817 19.8796 4.91937 19.8796C6.67056 19.8796 8.09654 18.4546 8.09654 16.7034ZM2.56276 16.7034C2.56276 15.4035 3.61947 14.3468 4.91937 14.3468C6.21926 14.3468 7.27597 15.4035 7.27597 16.7034C7.27597 18.0023 6.21926 19.059 4.91937 19.059C3.61947 19.059 2.56276 18.0023 2.56276 16.7034Z" fill="#575757"/>
<path d="M20.5971 15.2684C19.8065 15.2684 19.1621 15.9128 19.1621 16.7034C19.1621 17.4939 19.8065 18.1384 20.5971 18.1384C21.3876 18.1384 22.0321 17.4939 22.0321 16.7034C22.0321 15.9128 21.3876 15.2684 20.5971 15.2684ZM20.5971 17.3178C20.2578 17.3178 19.9827 17.0426 19.9827 16.7034C19.9827 16.3641 20.2578 16.089 20.5971 16.089C20.9363 16.089 21.2115 16.3641 21.2115 16.7034C21.2116 17.0426 20.9363 17.3178 20.5971 17.3178Z" fill="#575757"/>
<path d="M6.35435 16.7034C6.35435 15.9128 5.70991 15.2684 4.91936 15.2684C4.12881 15.2684 3.48438 15.9128 3.48438 16.7034C3.48438 17.4939 4.12881 18.1384 4.91936 18.1384C5.70991 18.1384 6.35435 17.4939 6.35435 16.7034ZM4.30495 16.7034C4.30495 16.3641 4.58011 16.089 4.91936 16.089C5.25861 16.089 5.53377 16.3641 5.53377 16.7034C5.53377 17.0426 5.25861 17.3178 4.91936 17.3178C4.58018 17.3178 4.30495 17.0426 4.30495 16.7034Z" fill="#575757"/>
<path d="M28.5865 0L13.3191 0.102045C13.0939 0.104059 12.9118 0.287186 12.9118 0.512301V2.95395C12.7843 2.90246 12.6483 2.8689 12.5015 2.8689H9.01816C8.4888 2.8689 8.04052 3.24114 7.91342 3.7615L6.70462 7.29794C6.65256 7.402 6.57053 7.47206 6.55051 7.48006L1.1308 7.59614C0.497382 7.75428 0 8.46771 0 9.22225V15.0632C0 15.2894 0.184134 15.4735 0.410257 15.4735H1.22983C1.22995 15.4735 1.23014 15.4734 1.23027 15.4734C1.23046 15.4734 1.23064 15.4735 1.23083 15.4735C1.2314 15.4735 1.23184 15.473 1.23241 15.473C1.31399 15.4724 1.38563 15.4424 1.44934 15.4007C1.46294 15.392 1.47471 15.3854 1.48717 15.3752C1.54591 15.3267 1.58953 15.2647 1.61421 15.191C1.61635 15.1847 1.62321 15.1819 1.6251 15.1754L2.03435 13.7424C2.19847 13.168 2.67476 12.9118 3.07507 12.9118H7.07081C7.50008 12.9118 7.86136 13.197 8.01345 13.6563L8.21767 14.2688L8.41571 15.0603C8.41735 15.0668 8.42409 15.0697 8.42598 15.0761C8.44927 15.154 8.4922 15.2204 8.55301 15.2714C8.56415 15.2808 8.57523 15.2863 8.58726 15.2945C8.65292 15.3392 8.7277 15.3715 8.813 15.3715H13.3221H16.7324C16.9155 15.3715 17.0766 15.2494 17.1267 15.0733L17.5019 13.7594C17.638 13.3492 17.9843 12.9119 18.5476 12.9119H22.5444C22.9436 12.9119 23.3999 13.167 23.487 13.6564L23.6812 14.2308L23.8853 15.1524C23.9274 15.3395 24.0934 15.4736 24.2856 15.4736H28.5895C28.8156 15.4736 28.9998 15.2895 28.9998 15.0634V8.60784C28.9998 8.58984 28.9917 8.57435 28.9894 8.55691C28.9918 8.53941 28.9998 8.52386 28.9998 8.50573V5.63576C28.9998 5.40964 28.8156 5.2255 28.5895 5.2255C28.3633 5.2255 28.1792 5.40964 28.1792 5.63576V8.09844L24.0815 8.12595V0.849975L28.1792 0.822465V3.17705C28.1792 3.40317 28.3634 3.58731 28.5895 3.58731C28.8156 3.58731 28.9998 3.40317 28.9998 3.17705V0.410194C28.9998 0.301098 28.9558 0.196032 28.8787 0.118979C28.8007 0.0419888 28.6936 0.00598042 28.5865 0ZM12.9119 8.60784V14.5509H9.13242L9.00519 14.0425C9.00406 14.0379 9.00066 14.0348 8.99947 14.0303C8.9977 14.024 8.99928 14.0177 8.9972 14.0115L8.79204 13.3971C8.52783 12.6035 7.85242 12.0912 7.07087 12.0912H3.07513C2.22453 12.0912 1.49007 12.6646 1.24588 13.5172L0.92174 14.653H0.82064V9.22225C0.82064 8.78593 1.11683 8.44373 1.23795 8.40369L6.55857 8.30064C6.97286 8.30064 7.29108 7.95742 7.45822 7.61415L8.69805 3.99366C8.74609 3.80254 8.86519 3.68948 9.01829 3.68948H12.5017C12.7708 3.68948 12.9119 4.04975 12.9119 4.40694V8.60784H12.9119ZM18.8559 0.885228L23.2609 0.855578V8.13155L18.8559 8.1612V0.885228ZM13.7324 4.407V0.9196L18.0354 0.890705V8.16668L13.7324 8.19557V4.407ZM28.1793 9.01816V14.653H24.6138L24.4708 14.0116L24.2806 13.4582C24.1496 12.6797 23.403 12.0913 22.5444 12.0913H18.5477C17.7251 12.0913 17.0086 12.6446 16.7184 13.5173L16.4232 14.551H13.7324V9.01816H28.1793Z" fill="#575757"/>
<path d="M28.5896 3.89362C28.3633 3.89362 28.1792 4.07781 28.1792 4.304V4.50922C28.1792 4.73541 28.3634 4.9196 28.5896 4.9196C28.8158 4.9196 29 4.73541 29 4.50922V4.304C29 4.07781 28.8158 3.89362 28.5896 3.89362Z" fill="#575757"/>
<path d="M8.98702 7.45012H11.5097C11.907 7.45012 12.2312 7.09891 12.2312 6.66756V5.39367C12.2312 4.96239 11.907 4.61111 11.5097 4.61111H9.87464C9.42636 4.61111 9.03807 4.94835 8.92897 5.43068L8.58677 6.94971C8.55976 7.07077 8.58878 7.19887 8.66684 7.29595C8.74484 7.39308 8.86294 7.45012 8.98702 7.45012ZM9.72953 5.61085C9.75358 5.49981 9.82358 5.43176 9.87464 5.43176H11.4107L11.4097 6.6296H9.49932L9.72953 5.61085Z" fill="#575757"/>
</svg>
