<svg width="91" height="53" viewBox="0 0 91 53" fill="none" xmlns="http://www.w3.org/2000/svg">
<path d="M21.8073 35.5857C19.7008 35.5857 17.9873 37.3048 17.9873 39.4181C17.9873 41.5246 19.7008 43.2382 21.8073 43.2382C23.9206 43.2382 25.6411 41.5246 25.6411 39.4181C25.6411 37.3048 23.9206 35.5857 21.8073 35.5857ZM21.8073 41.8412C20.4717 41.8412 19.3844 40.7537 19.3844 39.4181C19.3844 38.0757 20.4717 36.9828 21.8073 36.9828C23.1513 36.9828 24.244 38.0757 24.244 39.4181C24.244 40.7537 23.1513 41.8412 21.8073 41.8412Z" fill="#575757"/>
<path d="M68.366 35.5857C66.2595 35.5857 64.5459 37.3048 64.5459 39.4181C64.5459 41.5246 66.2595 43.2382 68.366 43.2382C70.4793 43.2382 72.1998 41.5246 72.1998 39.4181C72.1998 37.3048 70.4793 35.5857 68.366 35.5857ZM68.366 41.8412C67.0304 41.8412 65.943 40.7537 65.943 39.4181C65.943 38.0757 67.0304 36.9828 68.366 36.9828C69.7098 36.9828 70.8028 38.0757 70.8028 39.4181C70.8028 40.7537 69.7098 41.8412 68.366 41.8412Z" fill="#575757"/>
<path d="M42.1097 31.0766H49.3636C49.5766 31.0766 49.777 30.9796 49.9094 30.8132C50.0432 30.6468 50.0922 30.4299 50.0446 30.2225L46.4168 14.4006C46.3444 14.0826 46.0621 13.8575 45.736 13.8575H38.4833C38.2704 13.8575 38.0699 13.9544 37.9375 14.1209C37.8038 14.2873 37.7548 14.5042 37.8025 14.7116L41.4289 30.5335C41.5011 30.8515 41.7836 31.0766 42.1097 31.0766ZM45.1793 15.2546L48.4864 29.6795H42.6663L39.3605 15.2546H45.1793Z" fill="#575757"/>
<path d="M53.5973 30.5335C53.6697 30.8515 53.952 31.0766 54.2781 31.0766H56.8663C57.0805 31.0766 57.2823 30.9784 57.4146 30.8118C58.442 29.5117 59.6849 28.4079 61.1107 27.5293C61.3644 27.3724 61.4912 27.0695 61.4245 26.7789L58.5852 14.4006C58.513 14.0826 58.2305 13.8575 57.9044 13.8575H50.6518C50.439 13.8575 50.2384 13.9544 50.1061 14.1209C49.9724 14.2873 49.9232 14.5042 49.971 14.7116L53.5973 30.5335ZM57.3479 15.2546L59.9524 26.6112C58.6602 27.4652 57.513 28.494 56.5334 29.6795H54.8348L51.5291 15.2546H57.3479Z" fill="#575757"/>
<path d="M64.5568 25.2768C64.6306 25.6002 64.9184 25.8199 65.2378 25.8199C65.2868 25.8199 65.336 25.8144 65.3864 25.8035C66.9363 25.4651 68.5925 25.4065 69.9091 25.5648C70.0755 25.5893 70.2392 25.547 70.3757 25.4555L72.5054 24.0626C72.751 23.903 72.8696 23.6069 72.8043 23.3218L70.7536 14.3992C70.6812 14.0826 70.3989 13.8575 70.0728 13.8575H62.8187C62.606 13.8575 62.4054 13.9544 62.2731 14.1209C62.1394 14.2873 62.0902 14.5042 62.138 14.7116L64.5568 25.2768ZM69.5162 15.2546L71.3334 23.1608L69.8218 24.15C68.6034 24.0272 67.1531 24.0653 65.7671 24.3068L63.6947 15.2546H69.5162Z" fill="#575757"/>
<path d="M76.1194 21.3149C76.2026 21.349 76.2913 21.3653 76.3799 21.3653C76.5136 21.3653 76.6473 21.3272 76.7634 21.2508L83.0705 17.1114C83.3134 16.9517 83.4321 16.6571 83.368 16.3734L82.9219 14.4018C82.8509 14.084 82.5672 13.8575 82.2411 13.8575H74.987C74.7741 13.8575 74.5736 13.9544 74.4412 14.1209C74.3089 14.2873 74.2585 14.5042 74.3062 14.7116L75.6991 20.8223C75.7497 21.0447 75.9066 21.229 76.1194 21.3149ZM81.683 15.2546L81.8986 16.2096L76.837 19.5303L75.8628 15.2546H81.683Z" fill="#575757"/>
<path d="M34.4598 52.952C34.8458 52.952 35.1583 52.6396 35.1583 52.2535C35.1583 51.8673 34.8458 51.5549 34.4598 51.5549H7.3958C7.00965 51.5549 6.69727 51.8673 6.69727 52.2535C6.69727 52.6396 7.00965 52.952 7.3958 52.952H34.4598Z" fill="#575757"/>
<path d="M58.9617 52.952C59.3477 52.952 59.6602 52.6396 59.6602 52.2535C59.6602 51.8673 59.3477 51.5549 58.9617 51.5549H40.055C39.6688 51.5549 39.3564 51.8673 39.3564 52.2535C39.3564 52.6396 39.6688 52.952 40.055 52.952H58.9617Z" fill="#575757"/>
<path d="M83.604 52.952C83.9901 52.952 84.3025 52.6396 84.3025 52.2535C84.3025 51.8673 83.9901 51.5549 83.604 51.5549H64.6946C64.3085 51.5549 63.9961 51.8673 63.9961 52.2535C63.9961 52.6396 64.3085 52.952 64.6946 52.952H83.604Z" fill="#575757"/>
<path d="M89.5072 45.9668H72.8627C74.2059 45.0443 75.2457 43.7193 75.8214 42.1699C75.9621 42.1699 84.4364 42.1669 83.8957 42.1672C85.0062 42.1672 85.9095 41.264 85.9095 40.1547V38.6691C85.9095 37.5598 85.0062 36.6566 83.8957 36.6566H83.7187L77.879 25.2418L89.8919 17.3352C90.0502 17.2303 90.1593 17.0651 90.1948 16.8782C90.2289 16.6899 90.1853 16.4975 90.0734 16.342L85.6449 10.2053C85.5138 10.0238 85.3024 9.9161 85.0786 9.9161H46.8614L40.1368 0.345408C40.0057 0.158481 39.793 0.0479736 39.5651 0.0479736H10.748C10.4588 0.0479736 10.1995 0.226797 10.0958 0.495452C9.99218 0.765643 10.0658 1.07258 10.2801 1.26495L16.0839 6.49442C16.2121 6.61038 16.3785 6.6745 16.5518 6.6745H32.0627L38.2743 34.4723C38.3467 34.7917 38.6292 35.0182 38.9565 35.0182H40.3467V36.6566H36.1124L30.0844 9.76466C30.0121 9.44543 29.7297 9.21897 29.4023 9.21897H15.4604C15.1507 9.21897 14.8778 9.42364 14.7905 9.72107C14.6874 10.0727 10.8054 23.3266 10.853 23.1636L4.41901 27.6221C4.23071 27.7532 4.11878 27.9674 4.11878 28.1966V35.9868H2.87051C1.72578 35.9868 0.793945 36.9186 0.793945 38.0633V40.6377C0.793945 41.7825 1.72578 42.7143 2.87051 42.7143H8.47637C8.86249 42.7143 9.1749 42.4018 9.1749 42.0158V41.8643H10.7016C10.8279 42.0445 11.0267 42.1699 11.2638 42.1699H14.3641C14.9389 43.7193 15.9767 45.0443 17.3175 45.9668H1.49247C1.10644 45.9668 0.793945 46.2792 0.793945 46.6653C0.793945 47.0515 1.10644 47.3638 1.49247 47.3638H89.5072C89.8933 47.3638 90.2057 47.0515 90.2057 46.6653C90.2057 46.2792 89.8933 45.9668 89.5072 45.9668ZM68.3657 45.9668C64.7557 45.9668 61.8198 43.0293 61.8198 39.4181C61.8198 35.8012 64.7557 32.8585 68.3657 32.8585C71.984 32.8585 74.9268 35.8012 74.9268 39.4181C74.9268 43.0293 71.984 45.9668 68.3657 45.9668ZM68.3657 31.4614C63.9862 31.4614 60.4228 35.0305 60.4228 39.4181C60.4228 39.8808 60.4707 40.3316 60.547 40.7728H58.482C58.4218 40.3264 58.3804 39.875 58.3804 39.4181C58.3804 33.854 62.8995 29.4203 68.3643 29.4203C69.1502 29.4203 69.9334 29.5159 70.6932 29.7028C70.6949 29.7031 70.6965 29.7026 70.698 29.7029C70.698 29.7029 70.6992 29.7039 70.7001 29.7042C75.2848 30.791 78.3621 34.9047 78.3621 39.4181C78.3621 39.875 78.3208 40.3264 78.2604 40.7728H76.1993C76.2757 40.3316 76.3238 39.8808 76.3238 39.4181C76.3238 35.0305 72.7533 31.4614 68.3657 31.4614ZM57.0651 38.0537C57.0106 38.4931 56.9833 38.9446 56.9833 39.4181C56.9833 39.8724 57.0092 40.3239 57.0624 40.7701H33.1227C33.1759 40.3239 33.2019 39.8724 33.2019 39.4181C33.2019 38.9446 33.1747 38.4931 33.12 38.0537C38.6975 38.0537 52.0943 38.0537 57.0651 38.0537ZM84.5124 38.6691V40.1547C84.5124 40.4945 84.2355 40.7701 83.8957 40.7701H79.68C79.7332 40.3239 79.7592 39.8724 79.7592 39.4181C79.7592 38.9446 79.732 38.4931 79.6773 38.0537C79.8814 38.0537 84.1222 38.0537 83.8957 38.0537C84.2355 38.0537 84.5124 38.3293 84.5124 38.6691ZM76.7045 26.015L82.1494 36.6566H79.4126C78.5245 33.051 75.9146 30.119 72.4797 28.7957C72.8777 28.5337 76.9363 25.8624 76.7045 26.015ZM33.3042 5.82313C33.2319 5.50391 32.9495 5.27744 32.6221 5.27744H16.8206L12.5667 1.44503H39.2021L45.9269 11.0157C46.0578 11.2027 46.2707 11.3132 46.4986 11.3132H84.7211L88.514 16.5685C86.9811 17.5776 94.3672 12.7157 70.7266 28.2769C69.952 28.108 69.1582 28.0232 68.3643 28.0232C64.3369 28.0232 60.6192 30.1571 58.5617 33.6211C52.9119 33.6211 48.189 33.6211 39.5159 33.6211L33.3042 5.82313ZM41.7438 35.0182H57.8632C57.6395 35.557 57.4595 36.1055 57.3258 36.6566H41.7438V35.0182ZM15.0014 13.9667H24.3679V19.5481H13.3703C13.4122 19.4046 15.1071 13.6056 15.0014 13.9667ZM7.77784 41.3172H2.87051C2.49526 41.3172 2.191 41.013 2.191 40.6377V38.0633C2.191 37.6881 2.49526 37.3838 2.87051 37.3838C3.40055 37.3838 7.95133 37.3838 7.77784 37.3838V41.1658V41.3172ZM9.1749 40.4673V36.6853C9.1749 36.2993 8.86249 35.9868 8.47637 35.9868H5.51584V28.5622L11.8518 24.1718C11.9827 24.0805 12.0782 23.948 12.1232 23.7939L12.9576 20.9452H25.0664C25.4526 20.9452 25.765 20.6328 25.765 20.2466V13.2682C25.765 12.8821 25.4526 12.5697 25.0664 12.5697H15.4106L15.9829 10.616H28.8429L34.6808 36.6566H32.8553C31.6165 31.6209 27.0597 28.0232 21.8071 28.0232C15.5314 28.0232 10.4261 33.1354 10.4261 39.4181C10.4261 39.7619 10.4424 40.1098 10.4765 40.4673H9.1749ZM11.9359 40.7728C11.8736 40.3055 11.8231 39.8512 11.8231 39.4181C11.8231 33.9049 16.3021 29.4203 21.8071 29.4203C27.4263 29.4203 31.8048 34.0052 31.8048 39.4181C31.8048 39.875 31.7635 40.3264 31.7031 40.7728H29.6407C29.7171 40.3316 29.7651 39.8808 29.7651 39.4181C29.7651 35.0305 26.1948 31.4614 21.8071 31.4614C17.4263 31.4614 13.8627 35.0305 13.8627 39.4181C13.8627 39.8808 13.9108 40.3316 13.9869 40.7728H11.9359ZM15.2598 39.4181C15.2598 35.8012 18.1972 32.8585 21.8071 32.8585C25.4253 32.8585 28.3681 35.8012 28.3681 39.4181C28.3681 43.0293 25.4253 45.9668 21.8071 45.9668C18.1972 45.9668 15.2598 43.0293 15.2598 39.4181ZM26.3042 45.9668C27.6472 45.0443 28.6872 43.7193 29.2629 42.1699H60.9242C61.4988 43.7193 62.5367 45.0443 63.8771 45.9668H26.3042Z" fill="#575757"/>
</svg>
