<svg width="56" height="56" viewBox="0 0 56 56" fill="none" xmlns="http://www.w3.org/2000/svg">
<path d="M23.1868 21.3465H32.8146C33.2017 21.3465 33.5146 21.0329 33.5146 20.6465C33.5146 20.2601 33.2017 19.9465 32.8146 19.9465H23.1868C22.7997 19.9465 22.4868 20.2601 22.4868 20.6465C22.4868 21.0329 22.7997 21.3465 23.1868 21.3465Z" fill="#575757"/>
<path d="M33.5146 32.5535C33.5146 32.1671 33.2017 31.8535 32.8146 31.8535H23.1868C22.7997 31.8535 22.4868 32.1671 22.4868 32.5535C22.4868 32.9399 22.7997 33.2535 23.1868 33.2535H32.8146C33.2017 33.2535 33.5146 32.9406 33.5146 32.5535Z" fill="#575757"/>
<path d="M21.0843 25.5487H34.9177C35.3048 25.5487 35.6177 25.2351 35.6177 24.8487C35.6177 24.4623 35.3048 24.1487 34.9177 24.1487H21.0843C20.6972 24.1487 20.3843 24.4623 20.3843 24.8487C20.3843 25.2351 20.6972 25.5487 21.0843 25.5487Z" fill="#575757"/>
<path d="M21.0843 29.4007H34.9177C35.3048 29.4007 35.6177 29.0871 35.6177 28.7007C35.6177 28.3143 35.3048 28.0007 34.9177 28.0007H21.0843C20.6972 28.0007 20.3843 28.3143 20.3843 28.7007C20.3843 29.0871 20.6972 29.4007 21.0843 29.4007Z" fill="#575757"/>
<path d="M16.5228 56.0001H39.4793C40.9276 56.0001 42.1064 54.8213 42.1064 53.373V13.4331C42.1064 11.9841 40.9276 10.806 39.4793 10.806H34.8516V7.54117C34.8516 6.00047 33.6035 4.74747 32.0684 4.74747C30.5347 4.74747 29.2859 6.00117 29.2859 7.54117V10.806H26.7155V2.83017C26.7155 1.28947 25.4674 0.0357666 23.933 0.0357666C22.3986 0.0357666 21.1498 1.28947 21.1498 2.83017V10.8053H16.5221C15.0738 10.8053 13.895 11.9841 13.895 13.4324V53.3723C13.8957 54.8213 15.0738 56.0001 16.5228 56.0001ZM30.6859 7.54047C30.6859 6.77187 31.3061 6.14677 32.0684 6.14677C32.8307 6.14677 33.4516 6.77187 33.4516 7.54047V10.8053H30.6866V7.54047H30.6859ZM22.5505 2.83017C22.5505 2.06157 23.1714 1.43577 23.9337 1.43577C24.696 1.43577 25.3162 2.06157 25.3162 2.83017V10.8053H22.5512V2.83017H22.5505ZM15.2957 13.4331C15.2957 12.7562 15.8459 12.206 16.5228 12.206H39.4793C40.1562 12.206 40.7064 12.7569 40.7064 13.4331V53.373C40.7064 54.0499 40.1562 54.6001 39.4793 54.6001H16.5228C15.8459 54.6001 15.2957 54.0492 15.2957 53.373V13.4331Z" fill="#575757"/>
<path d="M20.7815 47.9017H25.5163C25.9034 47.9017 26.2163 47.5881 26.2163 47.2017V40.5223C26.2163 40.1359 25.9034 39.8223 25.5163 39.8223H20.7815C20.3944 39.8223 20.0815 40.1359 20.0815 40.5223V47.2017C20.0815 47.5881 20.3951 47.9017 20.7815 47.9017ZM21.4815 41.2223H24.8163V46.5017H21.4815V41.2223Z" fill="#575757"/>
<path d="M30.4847 39.8223C30.0976 39.8223 29.7847 40.1359 29.7847 40.5223V47.2017C29.7847 47.5881 30.0976 47.9017 30.4847 47.9017H35.2195C35.6066 47.9017 35.9195 47.5881 35.9195 47.2017V40.5223C35.9195 40.1359 35.6066 39.8223 35.2195 39.8223H30.4847ZM34.5188 46.5017H31.1847V41.2223H34.5195V46.5017H34.5188Z" fill="#575757"/>
<path d="M0.7 27.3H8.2614C8.6485 27.3 8.9614 26.9864 8.9614 26.6C8.9614 26.2136 8.6485 25.9 8.2614 25.9H0.7C0.3129 25.9 0 26.2136 0 26.6C0 26.9864 0.3129 27.3 0.7 27.3Z" fill="#575757"/>
<path d="M9.05116 21.0203C9.18766 21.1568 9.36686 21.2254 9.54606 21.2254C9.72526 21.2254 9.90446 21.1568 10.041 21.0203C10.3147 20.7466 10.3147 20.3042 10.041 20.0305L6.94556 16.9351C6.67186 16.6614 6.22946 16.6614 5.95576 16.9351C5.68206 17.2088 5.68206 17.6512 5.95576 17.9249L9.05116 21.0203Z" fill="#575757"/>
<path d="M9.05116 32.1796L5.95576 35.275C5.68206 35.5487 5.68206 35.9911 5.95576 36.2648C6.09226 36.4013 6.27146 36.4699 6.45066 36.4699C6.62986 36.4699 6.80906 36.4013 6.94556 36.2648L10.041 33.1694C10.3147 32.8957 10.3147 32.4533 10.041 32.1796C9.76726 31.9059 9.32416 31.9059 9.05116 32.1796Z" fill="#575757"/>
<path d="M47.0386 26.6C47.0386 26.9864 47.3515 27.3 47.7386 27.3H55.3C55.6871 27.3 56 26.9864 56 26.6C56 26.2136 55.6871 25.9 55.3 25.9H47.7386C47.3522 25.9 47.0386 26.2136 47.0386 26.6Z" fill="#575757"/>
<path d="M49.0546 36.2648C49.1911 36.4013 49.3703 36.4699 49.5495 36.4699C49.7287 36.4699 49.9079 36.4013 50.0444 36.2648C50.3181 35.9911 50.3181 35.5487 50.0444 35.275L46.949 32.1796C46.6753 31.9059 46.2329 31.9059 45.9592 32.1796C45.6855 32.4533 45.6855 32.8957 45.9592 33.1694L49.0546 36.2648Z" fill="#575757"/>
<path d="M46.4541 21.2254C46.6333 21.2254 46.8125 21.1568 46.949 21.0203L50.0444 17.9249C50.3181 17.6512 50.3181 17.2088 50.0444 16.9351C49.7707 16.6614 49.3283 16.6614 49.0546 16.9351L45.9592 20.0305C45.6855 20.3042 45.6855 20.7466 45.9592 21.0203C46.0964 21.1575 46.2749 21.2254 46.4541 21.2254Z" fill="#575757"/>
</svg>
