<svg width="88" height="53" viewBox="0 0 88 53" fill="none" xmlns="http://www.w3.org/2000/svg">
<path d="M58.4355 41.2051H38.382L26.8475 18.4815L22.6598 26.4709C26.4252 29.0784 28.8944 33.423 28.8944 38.351C28.8944 46.331 22.4267 52.7971 14.4455 52.8C6.46601 52.7971 -0.000595093 46.331 -0.000595093 38.351C-0.000595093 30.3698 6.46601 23.9038 14.4455 23.9014C15.97 23.9014 17.4372 24.141 18.8159 24.5785L26.4029 10.109L31.704 0H41.3814V4.28081H34.2933L32.1415 8.38357H50.4783L53.6891 15.8751H80.803L84.0138 21.5833L66.3095 21.284C62.8399 23.4956 56.655 28.3673 55.3759 35.4969H58.4361C59.7598 28.8845 65.5938 23.9038 72.5981 23.9014C80.5781 23.9044 87.0459 30.3704 87.0459 38.351C87.0459 44.0843 83.6998 49.0205 78.8603 51.3557C76.965 52.2699 74.8442 52.7982 72.5975 52.7994C65.5932 52.7971 59.7598 47.8164 58.4355 41.2051ZM19.9761 31.588L15.6297 39.8797L11.838 37.8924L16.0954 29.7718C15.5618 29.6687 15.0112 29.6102 14.4466 29.609C9.6223 29.619 5.71457 33.522 5.7093 38.3504C5.71457 43.1753 9.6223 47.0813 14.4466 47.0883C19.2739 47.0813 23.1793 43.1753 23.1886 38.3504C23.1828 35.6229 21.9323 33.1911 19.9761 31.588ZM64.3475 41.2051C65.5347 44.6249 68.7735 47.0831 72.5975 47.0889C77.4248 47.0819 81.3296 43.1759 81.3395 38.351C81.3296 33.522 77.4248 29.619 72.5975 29.6096C68.7735 29.6178 65.5335 32.0748 64.3475 35.4975H72.9542V41.2057H64.3475V41.2051Z" fill="#575757"/>
<path d="M24.4183 8.81048C23.883 10.6209 22.2273 11.9515 20.243 11.9515V3.21069C22.6566 3.21069 24.6128 5.16749 24.6128 7.58112C24.6134 8.01043 24.5325 8.4169 24.4183 8.81048Z" fill="#575757"/>
</svg>
