<svg width="81" height="55" viewBox="0 0 81 55" fill="none" xmlns="http://www.w3.org/2000/svg">
<path d="M13.8533 29.0176C6.74895 29.0176 0.98877 34.7778 0.98877 41.8808C0.98877 48.9852 6.74895 54.7454 13.8533 54.7454C20.9577 54.7454 26.7179 48.9852 26.7179 41.8808C26.7179 34.7778 20.9577 29.0176 13.8533 29.0176ZM13.8533 48.0582C10.4426 48.0582 7.67856 45.2929 7.67856 41.8821C7.67856 38.4727 10.4426 35.7087 13.8533 35.7087C17.2628 35.7087 20.0281 38.4727 20.0281 41.8821C20.0268 45.2929 17.2628 48.0582 13.8533 48.0582Z" fill="#575757"/>
<path d="M55.7181 29.0176C48.6137 29.0176 42.8535 34.7778 42.8535 41.8808C42.8535 48.9852 48.6137 54.7454 55.7181 54.7454C62.8212 54.7454 68.5814 48.9852 68.5814 41.8808C68.5814 34.7778 62.8225 29.0176 55.7181 29.0176ZM55.7181 48.0582C52.3087 48.0582 49.5433 45.2929 49.5433 41.8821C49.5433 38.4727 52.3074 35.7087 55.7181 35.7087C59.1288 35.7087 61.8916 38.4727 61.8916 41.8821C61.8929 45.2929 59.1288 48.0582 55.7181 48.0582Z" fill="#575757"/>
<path d="M40.5612 41.8821C40.5612 33.5261 47.3605 26.7268 55.7178 26.7268H70.9527V44.8352C70.9527 45.2811 71.3125 45.6423 71.7597 45.6423C72.2056 45.6423 72.5681 45.2811 72.5681 44.8352V42.6918H78.1353V44.8365C78.1353 45.2824 78.4964 45.6436 78.9436 45.6436C79.3895 45.6436 79.752 45.2824 79.752 44.8365V28.6173V24.4725H80.5317V20.9992H79.7507V7.56488C79.7507 7.11768 79.3882 6.75653 78.9423 6.75653C78.4951 6.75653 78.134 7.11768 78.134 7.56488V20.9979H72.5876V7.71221C72.5876 7.52577 72.5224 7.35888 72.4168 7.22199C72.2812 6.97035 72.0166 6.79825 71.7102 6.79825H45.5482V0.429199H26.0825L24.4097 15.5285C25.0251 16.9587 25.3654 18.5337 25.3654 20.1856C25.3654 22.6029 24.6353 24.8519 23.3862 26.7281H28.5558V45.9409H40.5612V41.8821ZM35.6576 18.8153H30.7266C30.6601 18.2078 30.2938 17.6915 29.7761 17.4216L30.2924 16.08C30.578 16.093 30.8518 15.9274 30.96 15.6458C31.0956 15.2951 30.9209 14.9014 30.5689 14.7645C30.2155 14.6289 29.8231 14.8036 29.6862 15.1556C29.5897 15.4072 29.6549 15.6797 29.8257 15.8662L29.2911 17.2534C29.1803 17.2312 29.0669 17.2208 28.9495 17.2208C28.0278 17.2208 27.2781 17.9196 27.1803 18.8167H26.3524L28.1347 2.71997H35.6576V18.8153ZM40.9679 18.8153H37.127V2.71997H40.9679V18.8153ZM57.444 20.9979H45.5482V15.5963H57.444V20.9979ZM57.444 13.9809H45.5482V8.41235H57.444V13.9809ZM70.9722 20.9979H59.0607V15.5963H70.9722V20.9979ZM70.9722 13.9809H59.0607V8.41235H70.9722V13.9809ZM78.1353 41.0751H72.5681V38.1637H78.1353V41.0751ZM78.1353 36.5457H72.5681V33.6343H78.1353V36.5457ZM78.1353 32.0176H72.5681V29.1049H78.1353V32.0176ZM78.1353 27.4895H72.5681V24.4725H78.1353V27.4895Z" fill="#575757"/>
<path d="M15.9326 11.2545L15.2586 12.4358L12.2651 10.7265L9.73569 9.2832C9.72526 9.18541 9.70571 9.09154 9.68224 8.99637C9.42148 7.91682 8.43711 7.0863 7.33279 7.0863C6.10331 7.0863 5.01725 8.11369 4.91947 9.37056L4.68869 12.3302L4.35883 16.5793C4.35362 16.6405 4.35362 16.7005 4.35362 16.7605H2.20366H0.993731C-1.15362 16.7605 -3.21232 17.6145 -4.72863 19.1347L-15.9048 34.0945C-14.3481 36.9928 -13.6649 40.3527 -13.6649 42.8247C-13.6649 43.208 -13.6844 43.5874 -13.7131 43.9655L0.107148 35.5169C1.33663 32.8741 3.30928 30.6446 5.74999 29.0905C6.45143 28.6446 7.19198 28.2587 7.96514 27.9301C9.77741 27.1622 11.7657 26.728 13.8544 26.728H20.4738C22.0866 25.0174 23.0788 22.7162 23.0788 20.1856C23.0788 17.8152 22.2078 15.6444 20.771 13.973L15.9326 11.2545ZM8.0564 9.69781C7.91038 9.95335 7.63919 10.1281 7.32367 10.1281C7.31715 10.1281 7.31193 10.1268 7.30541 10.1268C6.84648 10.1163 6.4775 9.74344 6.4775 9.2832C6.4775 8.81644 6.85691 8.43704 7.32367 8.43704C7.79043 8.43704 8.16983 8.81644 8.16983 9.2832C8.16853 9.43444 8.1255 9.57395 8.0564 9.69781ZM10.312 16.7592C10.312 16.6992 10.312 16.6392 10.3081 16.5779L9.88954 11.2363L14.4463 13.8569L13.7709 15.0382L16.8284 16.7579H10.312V16.7592ZM19.0318 22.7358C18.5103 22.7358 18.0878 22.3134 18.0878 21.7905C18.0878 21.2703 18.5103 20.8466 19.0318 20.8466C19.5533 20.8466 19.9757 21.269 19.9757 21.7905C19.9757 22.3134 19.5533 22.7358 19.0318 22.7358Z" fill="#575757"/>
</svg>
