<svg width="21" height="26" viewBox="0 0 21 26" fill="none" xmlns="http://www.w3.org/2000/svg">
<path d="M10.511 0.000116622C9.79475 0.00372454 9.07028 0.0952677 8.35358 0.279309C6.4424 0.769599 4.92094 1.84028 4.03879 3.22352C3.15663 4.60668 2.89179 6.30237 3.50578 7.91904C3.53073 7.96775 3.56526 8.01091 3.60731 8.04595C3.36853 8.36951 3.20121 8.75955 3.20121 9.1881C3.20121 10.1471 3.92764 10.9281 4.85098 11.0917C4.95932 13.0461 5.86745 14.6918 7.31296 15.6603C7.29485 15.709 7.28624 15.7607 7.28757 15.8126V16.6502C6.93407 16.7855 6.48846 17.039 6.12004 17.437C5.97142 17.5975 5.86722 17.7806 5.76471 17.9954C5.74721 18.0026 5.73025 18.0111 5.71394 18.0207C5.64106 18.053 5.57927 18.1059 5.53627 18.173C5.08671 18.3853 4.65186 18.6178 4.24184 18.8837C4.04353 18.7508 3.81344 18.6807 3.55654 18.6807C2.92253 18.6807 2.38923 19.1378 2.31287 19.7467C2.26279 19.7405 2.2123 19.7213 2.16058 19.7213C1.47551 19.7213 0.891522 20.2604 0.891522 20.9396C0.891522 21.2922 1.05389 21.6251 1.29762 21.8533C0.607781 22.9521 0.141321 24.1734 0.00318126 25.5082C-0.00404934 25.5656 0.00107938 25.6239 0.0182236 25.6792C0.0353679 25.7345 0.0641317 25.7855 0.102587 25.8287C0.141042 25.872 0.188301 25.9065 0.241196 25.9301C0.29409 25.9536 0.351399 25.9655 0.40928 25.965H5.91699C6.01469 26.0045 6.12387 26.0045 6.22157 25.965H14.8258C14.8777 25.9881 14.9339 26 14.9908 26C15.0476 26 15.1038 25.9881 15.1557 25.965H20.5873C20.6452 25.9655 20.7025 25.9536 20.7554 25.9301C20.8083 25.9065 20.8555 25.872 20.894 25.8287C20.9325 25.7855 20.9612 25.7345 20.9784 25.6792C20.9955 25.6239 21.0006 25.5656 20.9934 25.5082C20.8607 24.2355 20.4459 23.0497 19.8005 21.9802C19.9845 21.7632 20.1051 21.4687 20.1051 21.168C20.1051 20.4889 19.5211 19.9497 18.836 19.9497C18.7758 19.9497 18.7163 19.9668 18.6583 19.9751C18.5811 19.3672 18.0734 18.9091 17.44 18.9091C17.2607 18.9091 17.0865 18.9171 16.9324 18.9852C16.5098 18.698 16.0568 18.4529 15.5872 18.2238C15.5791 18.215 15.5707 18.2065 15.5618 18.1984C15.5516 18.1935 15.5467 18.178 15.5365 18.173C15.5201 18.1634 15.5032 18.1549 15.4857 18.1476C15.4105 18.112 15.3334 18.0801 15.2573 18.0461C15.2492 18.0373 15.2407 18.0288 15.2319 18.0207C15.1321 17.7958 15.0054 17.6036 14.8512 17.437C14.5256 17.0852 14.14 16.8433 13.8105 16.7009V15.5841C15.1949 14.6116 16.0581 13.0131 16.171 11.1171C17.0759 10.9447 17.77 10.1591 17.77 9.21348C17.77 8.78652 17.6266 8.39301 17.3893 8.07133C17.4221 8.03398 17.4479 7.99098 17.4654 7.94442C17.9246 6.74774 17.9204 5.46205 17.4654 4.26415C16.5444 1.83915 14.0405 0.248593 11.2217 0.0254978C10.9868 0.00698784 10.7497 -0.00108602 10.511 0.000116622ZM9.85107 0.837695C9.61061 1.12645 9.30398 1.31439 9.06426 1.39608C8.98385 1.42253 8.91372 1.47345 8.86366 1.5417C8.8136 1.60996 8.78612 1.69216 8.78506 1.7768C8.79149 2.40931 8.86955 2.93905 9.11502 3.40119C9.24989 3.6551 9.43181 3.86628 9.64802 4.08648C7.67919 4.21235 5.83713 4.80229 5.02865 5.83778C5.01982 5.84587 5.01135 5.85433 5.00327 5.86316C4.92979 5.95156 4.87692 6.05061 4.8256 6.14236C4.82006 6.15267 4.80557 6.15734 4.80022 6.16774C4.75654 6.24962 4.72719 6.33901 4.6987 6.42155C4.67 6.50539 4.63918 6.58706 4.62255 6.67536C4.6128 6.72839 4.62744 6.77567 4.62255 6.82765C4.61802 6.86997 4.59891 6.91126 4.59717 6.95456C4.59677 6.97276 4.59716 6.98737 4.59717 7.00532C4.59566 7.1041 4.60909 7.20614 4.62255 7.30989C4.48051 7.35271 4.34323 7.41574 4.21645 7.48756C3.76709 6.16126 3.99313 4.82653 4.72408 3.68038C5.48378 2.48924 6.82537 1.51028 8.55663 1.06613C8.98945 0.955066 9.41777 0.873122 9.85107 0.837695ZM11.1455 0.837695C13.6827 1.04686 15.9194 2.47745 16.704 4.54334C17.0746 5.51909 17.0729 6.53405 16.7294 7.51294C16.6248 7.45767 16.514 7.39664 16.3994 7.36065C16.3947 7.1272 16.3672 6.86376 16.2979 6.59922C16.274 6.49559 16.2371 6.3919 16.1964 6.29464C16.1855 6.26978 16.1831 6.2434 16.171 6.2185C16.1578 6.19028 16.1348 6.17003 16.1202 6.14236C16.0768 6.06284 16.0263 5.96763 15.9679 5.88855C15.9613 5.87947 15.9493 5.87217 15.9426 5.86316C15.9207 5.83452 15.8951 5.80891 15.8664 5.78702C15.0522 4.79863 13.2822 4.22115 11.3739 4.08648C11.6149 3.83491 11.8188 3.59155 11.9577 3.32505C12.1958 2.86828 12.2623 2.38051 12.2623 1.7768C12.2653 1.69801 12.2453 1.62007 12.2047 1.55246C12.1641 1.48486 12.1048 1.43052 12.0339 1.39608C11.7624 1.27413 11.3896 1.10304 11.1455 0.837695ZM10.511 1.16765C10.8094 1.57528 11.0985 1.86659 11.3993 2.00523C11.38 2.37925 11.376 2.69699 11.247 2.94433C11.1276 3.17353 10.8184 3.46745 10.511 3.75653C10.2289 3.49967 9.97523 3.25415 9.85107 3.02047C9.70974 2.75434 9.67212 2.39691 9.64802 1.97985C9.96682 1.83022 10.2335 1.54558 10.511 1.16765ZM10.5364 4.84792C12.1148 4.84919 13.6772 5.12606 14.6227 5.71088H6.34847C7.31877 5.12019 8.93091 4.84663 10.5364 4.84792ZM5.58704 6.52308H15.3334C15.4662 6.75156 15.5012 7.01225 15.5111 7.28451H5.46013C5.42669 7.09339 5.44162 6.92048 5.48551 6.75151C5.51858 6.67623 5.54311 6.59752 5.58704 6.52308ZM4.80022 8.19823V9.1881V10.1526C4.37661 9.98229 4.03879 9.67212 4.03879 9.1881C4.03879 8.70407 4.37661 8.3686 4.80022 8.19823ZM5.6378 8.22361L15.3842 8.24899V9.21348V10.6856V10.7871C15.3839 10.7956 15.3839 10.804 15.3842 10.8125C15.3311 13.7331 13.4454 15.7872 10.511 15.7872C7.53441 15.7872 5.6378 13.6753 5.6378 10.6856V8.22361ZM16.2217 8.24899C16.6281 8.42352 16.9578 8.74288 16.9578 9.21348C16.9578 9.68408 16.6281 10.0288 16.2217 10.2033V9.21348V8.24899ZM12.9983 16.041V16.8024C12.9767 16.859 12.9681 16.9197 12.973 16.9801C12.9761 18.0109 12.7056 18.7887 12.2623 19.3152C11.8244 19.8352 11.2283 20.1308 10.511 20.1781C9.78182 20.1366 9.17765 19.8417 8.7343 19.3152C8.50837 19.0469 8.30552 18.7 8.17592 18.2999C8.14314 18.1426 8.12515 17.9846 8.12515 17.8177V16.0918C8.83523 16.4058 9.63374 16.5994 10.511 16.5994C11.4304 16.5994 12.2609 16.3842 12.9983 16.041ZM7.26219 17.6146C7.26725 17.6587 7.28181 17.6981 7.28757 17.7415V17.8177C7.28757 19.1731 8.16623 20.3344 9.36883 20.8127C8.70579 21.2368 8.0867 21.6971 7.51601 22.2086L6.37385 18.6807C6.4114 18.3888 6.52082 18.1676 6.70381 17.97C6.87051 17.7898 7.06007 17.722 7.26219 17.6146ZM13.8105 17.6654C13.9749 17.7426 14.1297 17.8212 14.2674 17.97C14.5602 18.2862 14.7399 18.6629 14.572 19.2898C14.296 20.3198 13.9005 21.2485 13.506 22.234C12.9421 21.7262 12.3329 21.2605 11.6785 20.838C12.9221 20.3848 13.8105 19.2047 13.8105 17.8177V17.6654ZM5.56166 19.0614C5.57253 19.1978 5.57337 19.3471 5.61242 19.4928C5.95825 20.7836 6.44472 21.8924 6.90686 23.0716C6.91412 23.0891 6.92261 23.106 6.93224 23.1224L7.56677 25.1528H6.45V23.9092C6.44999 23.8015 6.4072 23.6982 6.33104 23.622C6.25489 23.5459 6.1516 23.5031 6.0439 23.5031H4.8256V19.4675C5.06183 19.3182 5.31054 19.1918 5.56166 19.0614ZM15.5365 19.0868C15.7623 19.2083 15.9832 19.3309 16.1964 19.4675V23.5285L14.9781 23.5031C14.8704 23.5031 14.7671 23.5459 14.6909 23.622C14.6148 23.6982 14.572 23.8015 14.572 23.9092V25.1528H13.506L15.5365 19.0868ZM3.55654 19.4675C3.80076 19.4675 3.98802 19.6569 3.98802 19.8989C3.98802 20.1411 3.80076 20.3304 3.55654 20.3304C3.31232 20.3304 3.12506 20.1411 3.12506 19.8989C3.12506 19.6569 3.31232 19.4675 3.55654 19.4675ZM17.44 19.6959C17.6843 19.6959 17.8715 19.8853 17.8715 20.1274C17.8715 20.3695 17.6843 20.5589 17.44 20.5589C17.1958 20.5589 17.0086 20.3695 17.0086 20.1274C17.0086 19.9832 17.0821 19.8731 17.1862 19.7974C17.1951 19.7893 17.2035 19.7809 17.2116 19.772C17.2764 19.7337 17.3556 19.6959 17.44 19.6959ZM2.16058 20.5335C2.4048 20.5335 2.59206 20.6975 2.59206 20.9396C2.59206 21.1817 2.4048 21.3964 2.16058 21.3964C1.91636 21.3964 1.70372 21.1817 1.70372 20.9396C1.70372 20.6975 1.91636 20.5335 2.16058 20.5335ZM18.836 20.7619C19.0802 20.7619 19.2929 20.926 19.2929 21.168C19.2929 21.4101 19.0802 21.6249 18.836 21.6249C18.5918 21.6249 18.4045 21.4101 18.4045 21.168C18.4045 20.926 18.5918 20.7619 18.836 20.7619ZM4.0134 21.0411V23.9092C4.01342 24.0169 4.0562 24.1202 4.13236 24.1963C4.20852 24.2725 4.3118 24.3153 4.4195 24.3153H5.6378V25.1528H0.916903C1.09528 24.0839 1.48141 23.0806 2.05906 22.1833C2.09235 22.186 2.12667 22.1833 2.16058 22.1833C2.78545 22.1833 3.29257 21.7154 3.37888 21.1172C3.437 21.1257 3.49635 21.1426 3.55654 21.1426C3.71925 21.1426 3.87087 21.0989 4.0134 21.0411ZM10.1556 21.2188V25.1528H8.45511L7.76982 23.0462C8.54413 22.3539 9.33808 21.6747 10.1556 21.2188ZM10.9425 21.2695C11.7618 21.7483 12.5508 22.4538 13.3283 23.1477L12.6684 25.1528H10.9425V21.2695ZM17.0086 21.2949C17.1428 21.3452 17.2888 21.3711 17.44 21.3711C17.5002 21.3711 17.5596 21.3541 17.6177 21.3457C17.704 21.9438 18.2111 22.4371 18.836 22.4371C18.9216 22.4371 19.0086 22.4285 19.0898 22.4117C19.5938 23.2568 19.9437 24.174 20.1051 25.1528H15.3842V24.3153L16.5771 24.3406C16.6325 24.3441 16.6881 24.3362 16.7403 24.3173C16.7925 24.2985 16.8403 24.2691 16.8808 24.2311C16.9212 24.193 16.9534 24.147 16.9754 24.096C16.9974 24.045 17.0087 23.9901 17.0086 23.9346V21.2949ZM11.9577 23.5031C11.7235 23.5031 11.5262 23.7003 11.5262 23.9346C11.5262 24.1688 11.7235 24.366 11.9577 24.366C12.1919 24.366 12.3892 24.1688 12.3892 23.9346C12.3892 23.7003 12.1919 23.5031 11.9577 23.5031ZM11.9577 23.5538C12.1624 23.5538 12.3384 23.7299 12.3384 23.9346C12.3384 24.1393 12.1624 24.3153 11.9577 24.3153C11.753 24.3153 11.577 24.1393 11.577 23.9346C11.577 23.7299 11.753 23.5538 11.9577 23.5538Z" fill="black"/>
</svg>
