<svg width="95" height="50" viewBox="0 0 95 50" fill="none" xmlns="http://www.w3.org/2000/svg">
<g clip-path="url(#clip0)">
<path d="M19.8828 11.3304H20.3296L20.448 10.8996L22.7653 2.46917L22.2001 2.31381L22.7653 2.46917C22.9644 1.74487 23.3958 1.10597 23.9932 0.650609C24.5906 0.19525 25.321 -0.0513727 26.0721 -0.0513736H46.9574C47.6876 -0.0513732 48.3954 0.200184 48.9619 0.660963C49.5284 1.12175 49.9188 1.76362 50.0675 2.47851L51.8111 10.8636L51.9082 11.3304H52.385H77.0919C78.2885 11.3304 79.4458 11.7579 80.355 12.5359L84.6986 16.2521C85.022 16.5288 85.2322 16.9149 85.2891 17.3367C85.3459 17.7586 85.2455 18.1866 85.0069 18.539L83.4771 20.7988H4.27394L1.52829 18.4992C1.40523 18.3961 1.30693 18.2667 1.24068 18.1205C1.17444 17.9743 1.14193 17.8151 1.14555 17.6546C1.14918 17.4941 1.18884 17.3365 1.26161 17.1935C1.33438 17.0505 1.43841 16.9256 1.566 16.8282L1.21707 16.3712L1.566 16.8282L7.27821 12.4668C8.24358 11.7297 9.42453 11.3304 10.6391 11.3304H19.8828Z" stroke="#575757" stroke-width="1.1724"/>
<path d="M5.82615 19.3306L6.01803 19.3161C6.08931 19.3166 6.16271 19.3197 6.24769 19.3236L6.26086 19.3241H6.27404H6.30123H6.30234L40.0155 19.4522L40.0175 19.4522L80.6349 19.467H80.6351H80.6352H80.6353H80.6353H80.6354H80.6354H80.6355H80.6356H80.6356H80.6357H80.6357H80.6358H80.6359H80.6359H80.636H80.636H80.6361H80.6362H80.6362H80.6363H80.6364H80.6364H80.6365H80.6365H80.6366H80.6367H80.6367H80.6368H80.6368H80.6369H80.637H80.637H80.6371H80.6372H80.6372H80.6373H80.6373L80.6374 19.467L80.6375 19.467H80.6375H80.6376H80.6376H80.6377H80.6378H80.6378H80.6379H80.6379H80.638H80.6381H80.6381H80.6382H80.6383H80.6383H80.6384H80.6384H80.6385H80.6386H80.6386H80.6387H80.6387H80.6388H80.6389H80.6389H80.639H80.6391H80.6391H80.6392H80.6392L81.5027 19.4699L81.5135 19.4697C81.52 19.4696 81.5264 19.4696 81.5328 19.4697C84.3656 19.5652 86.6634 21.8651 86.7573 24.6986C86.7577 24.7129 86.7577 24.7271 86.7573 24.7414L86.7572 24.7438C86.7332 25.7807 86.5631 26.6574 86.1421 27.4072C85.7206 28.1576 85.0662 28.7525 84.211 29.3115L84.2109 29.3114L84.2022 29.3174L84.2017 29.3177L84.1981 29.32L84.1911 29.3247L84.1908 29.3249L84.1702 29.3376L84.0873 29.3886C84.0139 29.4335 83.9048 29.4998 83.7636 29.5844C83.481 29.7535 83.0697 29.9958 82.5572 30.2867C81.5318 30.869 80.1038 31.6448 78.4928 32.4197C75.2361 33.9862 71.3992 35.5547 68.1585 35.5547H40.8587H38.9772H19.1847C16.1399 35.5547 12.5896 34.1761 9.47228 32.7213C6.40496 31.2899 3.95244 29.8095 3.3965 29.4692L3.38578 29.4627L3.37478 29.4566C1.65685 28.504 0.58615 26.6903 0.5862 24.7263V24.7263C0.5862 21.8118 2.93115 19.4105 5.82476 19.3188L5.82615 19.3306Z" stroke="#575757" stroke-width="1.1724"/>
<path d="M23.2876 4.3022H1.14162V2.73586H23.2876V4.3022Z" stroke="#575757" stroke-width="1.1724"/>
<path d="M2.36976 5.01567L2.81842 5.20151L2.36976 5.01567C2.35424 5.05314 2.3315 5.08718 2.30283 5.11584C2.27416 5.14451 2.24013 5.16725 2.20266 5.18277L2.41448 5.69416L2.20266 5.18277C2.16519 5.19829 2.12504 5.20627 2.0845 5.20627H1.13571C1.09515 5.20627 1.05498 5.19828 1.01753 5.18277L1.01752 5.18277C0.980054 5.16725 0.946021 5.14451 0.917355 5.11584C0.88869 5.08718 0.865949 5.05314 0.850428 5.01567C0.834913 4.97822 0.826922 4.93804 0.826922 4.89749V2.14045V2.14045C0.826922 2.09991 0.834908 2.05976 0.850428 2.02229C0.865949 1.98481 0.88869 1.95078 0.917355 1.92212C0.946021 1.89345 0.980053 1.87071 1.01752 1.85519C1.05498 1.83967 1.09515 1.83168 1.13571 1.83168H1.13571H2.0845C2.12504 1.83168 2.16519 1.83967 2.20266 1.85519C2.24013 1.87071 2.27417 1.89345 2.30283 1.92212C2.3315 1.95078 2.35424 1.98481 2.36976 2.02229L2.91134 1.79796L2.36976 2.02229C2.38531 2.05982 2.39329 2.09998 2.39328 2.14045V4.89749H2.97948L2.39329 4.89749C2.39329 4.93797 2.3853 4.97815 2.36976 5.01567Z" stroke="#575757" stroke-width="1.1724"/>
</g>
<defs>
<clipPath id="clip0">
<rect width="94.9943" height="50" fill="white"/>
</clipPath>
</defs>
</svg>
