<svg width="170" height="174" viewBox="0 0 170 174" fill="none" xmlns="http://www.w3.org/2000/svg">
<g clip-path="url(#clip0)">
<rect width="1440" height="900" transform="translate(-1228 -613)" fill="white"/>
<g filter="url(#filter0_d)">
<rect x="-11" y="-137" width="191" height="320" rx="8" fill="white"/>
</g>
<rect x="25" y="65" width="84" height="9" fill="#FB7A72"/>
<rect x="25" y="114" width="129" height="9" fill="#19BC81"/>
<path d="M31.3952 56.33L31.0852 57.33H33.0552L32.7452 56.33C32.6252 55.9633 32.5119 55.6 32.4052 55.24C32.2986 54.8733 32.1919 54.5 32.0852 54.12H32.0452C31.9452 54.5 31.8419 54.8733 31.7352 55.24C31.6286 55.6 31.5152 55.9633 31.3952 56.33ZM29.3952 60L31.6152 53.44H32.5552L34.7752 60H33.8852L33.2652 58H30.8752L30.2452 60H29.3952ZM35.7047 60V53.44H39.4847V54.14H36.5347V56.36H39.0347V57.06H36.5347V60H35.7047ZM40.6461 60V53.44H42.2861C43.2994 53.44 44.0694 53.72 44.5961 54.28C45.1228 54.84 45.3861 55.6433 45.3861 56.69C45.3861 57.21 45.3194 57.6767 45.1861 58.09C45.0528 58.4967 44.8561 58.8433 44.5961 59.13C44.3361 59.41 44.0161 59.6267 43.6361 59.78C43.2561 59.9267 42.8194 60 42.3261 60H40.6461ZM41.4761 59.32H42.2261C42.9928 59.32 43.5661 59.09 43.9461 58.63C44.3328 58.17 44.5261 57.5233 44.5261 56.69C44.5261 55.8567 44.3328 55.22 43.9461 54.78C43.5661 54.34 42.9928 54.12 42.2261 54.12H41.4761V59.32ZM48.3984 60.12C48.0984 60.12 47.8184 60.0767 47.5584 59.99C47.3051 59.9033 47.0851 59.7833 46.8984 59.63C46.7184 59.47 46.5751 59.2833 46.4684 59.07C46.3618 58.8567 46.3084 58.6233 46.3084 58.37C46.3084 58.1633 46.3418 57.9733 46.4084 57.8C46.4818 57.62 46.5718 57.46 46.6784 57.32C46.7918 57.1733 46.9184 57.0467 47.0584 56.94C47.2051 56.8267 47.3551 56.73 47.5084 56.65V56.61C47.2751 56.4433 47.0684 56.2433 46.8884 56.01C46.7084 55.77 46.6184 55.48 46.6184 55.14C46.6184 54.8933 46.6651 54.67 46.7584 54.47C46.8518 54.27 46.9784 54.1 47.1384 53.96C47.2984 53.8133 47.4884 53.7 47.7084 53.62C47.9284 53.54 48.1684 53.5 48.4284 53.5C48.7084 53.5 48.9584 53.5433 49.1784 53.63C49.3984 53.71 49.5851 53.8267 49.7384 53.98C49.8984 54.1267 50.0184 54.3067 50.0984 54.52C50.1851 54.7267 50.2284 54.9533 50.2284 55.2C50.2284 55.3667 50.1984 55.5267 50.1384 55.68C50.0851 55.8333 50.0151 55.9767 49.9284 56.11C49.8484 56.2433 49.7551 56.3633 49.6484 56.47C49.5484 56.5767 49.4484 56.6667 49.3484 56.74V56.78C49.4884 56.86 49.6251 56.9533 49.7584 57.06C49.8918 57.16 50.0084 57.2767 50.1084 57.41C50.2151 57.5367 50.2984 57.6833 50.3584 57.85C50.4251 58.0167 50.4584 58.2067 50.4584 58.42C50.4584 58.66 50.4084 58.8833 50.3084 59.09C50.2084 59.2967 50.0684 59.4767 49.8884 59.63C49.7084 59.7833 49.4918 59.9033 49.2384 59.99C48.9851 60.0767 48.7051 60.12 48.3984 60.12ZM48.8484 56.52C49.0618 56.3267 49.2251 56.1233 49.3384 55.91C49.4584 55.6967 49.5184 55.4733 49.5184 55.24C49.5184 54.92 49.4218 54.6533 49.2284 54.44C49.0351 54.22 48.7618 54.11 48.4084 54.11C48.1084 54.11 47.8618 54.2033 47.6684 54.39C47.4751 54.5767 47.3784 54.8267 47.3784 55.14C47.3784 55.3333 47.4184 55.5 47.4984 55.64C47.5784 55.7733 47.6851 55.8933 47.8184 56C47.9584 56.1067 48.1151 56.2033 48.2884 56.29C48.4684 56.37 48.6551 56.4467 48.8484 56.52ZM48.4184 59.51C48.7918 59.51 49.0918 59.4067 49.3184 59.2C49.5518 58.9933 49.6684 58.7233 49.6684 58.39C49.6684 58.1833 49.6218 58.0067 49.5284 57.86C49.4351 57.7133 49.3084 57.5867 49.1484 57.48C48.9884 57.3667 48.8018 57.2667 48.5884 57.18C48.3818 57.0867 48.1651 56.9933 47.9384 56.9C47.6851 57.0733 47.4718 57.2767 47.2984 57.51C47.1318 57.7367 47.0484 57.9967 47.0484 58.29C47.0484 58.47 47.0818 58.6333 47.1484 58.78C47.2218 58.9267 47.3184 59.0567 47.4384 59.17C47.5651 59.2767 47.7118 59.36 47.8784 59.42C48.0451 59.48 48.2251 59.51 48.4184 59.51ZM53.5491 60.12C53.2358 60.12 52.9458 60.0567 52.6791 59.93C52.4125 59.8033 52.1791 59.6133 51.9791 59.36C51.7858 59.1 51.6325 58.78 51.5191 58.4C51.4058 58.0133 51.3491 57.5633 51.3491 57.05C51.3491 56.41 51.4158 55.8667 51.5491 55.42C51.6825 54.9667 51.8625 54.6 52.0891 54.32C52.3158 54.0333 52.5725 53.8267 52.8591 53.7C53.1525 53.5667 53.4591 53.5 53.7791 53.5C54.1258 53.5 54.4225 53.5667 54.6691 53.7C54.9225 53.8267 55.1391 53.9867 55.3191 54.18L54.8591 54.69C54.7258 54.5367 54.5658 54.4167 54.3791 54.33C54.1991 54.2367 54.0091 54.19 53.8091 54.19C53.5891 54.19 53.3791 54.2367 53.1791 54.33C52.9791 54.4233 52.8025 54.5767 52.6491 54.79C52.4958 55.0033 52.3725 55.2833 52.2791 55.63C52.1858 55.97 52.1358 56.3933 52.1291 56.9C52.3291 56.6533 52.5625 56.46 52.8291 56.32C53.0958 56.1733 53.3591 56.1 53.6191 56.1C54.1725 56.1 54.6125 56.2633 54.9391 56.59C55.2725 56.9167 55.4391 57.41 55.4391 58.07C55.4391 58.3767 55.3891 58.6567 55.2891 58.91C55.1891 59.1567 55.0525 59.37 54.8791 59.55C54.7058 59.73 54.5058 59.87 54.2791 59.97C54.0525 60.07 53.8091 60.12 53.5491 60.12ZM53.5491 59.47C53.7091 59.47 53.8558 59.4367 53.9891 59.37C54.1225 59.3033 54.2391 59.21 54.3391 59.09C54.4391 58.9633 54.5158 58.8167 54.5691 58.65C54.6291 58.4767 54.6591 58.2833 54.6591 58.07C54.6591 57.65 54.5625 57.32 54.3691 57.08C54.1758 56.84 53.8791 56.72 53.4791 56.72C53.2725 56.72 53.0491 56.7867 52.8091 56.92C52.5691 57.0467 52.3491 57.26 52.1491 57.56C52.2025 58.1867 52.3458 58.6633 52.5791 58.99C52.8191 59.31 53.1425 59.47 53.5491 59.47ZM58.3298 60.12C57.6832 60.12 57.1798 59.8333 56.8198 59.26C56.4598 58.6867 56.2798 57.8633 56.2798 56.79C56.2798 55.7167 56.4598 54.9 56.8198 54.34C57.1798 53.78 57.6832 53.5 58.3298 53.5C58.9698 53.5 59.4698 53.78 59.8298 54.34C60.1898 54.9 60.3698 55.7167 60.3698 56.79C60.3698 57.8633 60.1898 58.6867 59.8298 59.26C59.4698 59.8333 58.9698 60.12 58.3298 60.12ZM58.3298 59.46C58.5165 59.46 58.6832 59.41 58.8298 59.31C58.9832 59.2033 59.1132 59.0433 59.2198 58.83C59.3332 58.61 59.4198 58.3333 59.4798 58C59.5398 57.66 59.5698 57.2567 59.5698 56.79C59.5698 56.3233 59.5398 55.9233 59.4798 55.59C59.4198 55.2567 59.3332 54.9867 59.2198 54.78C59.1132 54.5667 58.9832 54.41 58.8298 54.31C58.6832 54.21 58.5165 54.16 58.3298 54.16C58.1432 54.16 57.9732 54.21 57.8198 54.31C57.6665 54.41 57.5332 54.5667 57.4198 54.78C57.3132 54.9867 57.2298 55.2567 57.1698 55.59C57.1098 55.9233 57.0798 56.3233 57.0798 56.79C57.0798 57.7233 57.1932 58.4033 57.4198 58.83C57.6532 59.25 57.9565 59.46 58.3298 59.46ZM63.3005 60.12C62.6539 60.12 62.1505 59.8333 61.7905 59.26C61.4305 58.6867 61.2505 57.8633 61.2505 56.79C61.2505 55.7167 61.4305 54.9 61.7905 54.34C62.1505 53.78 62.6539 53.5 63.3005 53.5C63.9405 53.5 64.4405 53.78 64.8005 54.34C65.1605 54.9 65.3405 55.7167 65.3405 56.79C65.3405 57.8633 65.1605 58.6867 64.8005 59.26C64.4405 59.8333 63.9405 60.12 63.3005 60.12ZM63.3005 59.46C63.4872 59.46 63.6539 59.41 63.8005 59.31C63.9539 59.2033 64.0839 59.0433 64.1905 58.83C64.3039 58.61 64.3905 58.3333 64.4505 58C64.5105 57.66 64.5405 57.2567 64.5405 56.79C64.5405 56.3233 64.5105 55.9233 64.4505 55.59C64.3905 55.2567 64.3039 54.9867 64.1905 54.78C64.0839 54.5667 63.9539 54.41 63.8005 54.31C63.6539 54.21 63.4872 54.16 63.3005 54.16C63.1139 54.16 62.9439 54.21 62.7905 54.31C62.6372 54.41 62.5039 54.5667 62.3905 54.78C62.2839 54.9867 62.2005 55.2567 62.1405 55.59C62.0805 55.9233 62.0505 56.3233 62.0505 56.79C62.0505 57.7233 62.1639 58.4033 62.3905 58.83C62.6239 59.25 62.9272 59.46 63.3005 59.46ZM68.2713 60.12C67.6246 60.12 67.1213 59.8333 66.7613 59.26C66.4013 58.6867 66.2213 57.8633 66.2213 56.79C66.2213 55.7167 66.4013 54.9 66.7613 54.34C67.1213 53.78 67.6246 53.5 68.2713 53.5C68.9113 53.5 69.4113 53.78 69.7713 54.34C70.1313 54.9 70.3113 55.7167 70.3113 56.79C70.3113 57.8633 70.1313 58.6867 69.7713 59.26C69.4113 59.8333 68.9113 60.12 68.2713 60.12ZM68.2713 59.46C68.4579 59.46 68.6246 59.41 68.7713 59.31C68.9246 59.2033 69.0546 59.0433 69.1613 58.83C69.2746 58.61 69.3613 58.3333 69.4213 58C69.4813 57.66 69.5113 57.2567 69.5113 56.79C69.5113 56.3233 69.4813 55.9233 69.4213 55.59C69.3613 55.2567 69.2746 54.9867 69.1613 54.78C69.0546 54.5667 68.9246 54.41 68.7713 54.31C68.6246 54.21 68.4579 54.16 68.2713 54.16C68.0846 54.16 67.9146 54.21 67.7613 54.31C67.6079 54.41 67.4746 54.5667 67.3613 54.78C67.2546 54.9867 67.1713 55.2567 67.1113 55.59C67.0513 55.9233 67.0213 56.3233 67.0213 56.79C67.0213 57.7233 67.1346 58.4033 67.3613 58.83C67.5946 59.25 67.8979 59.46 68.2713 59.46ZM73.112 60.12C72.8586 60.12 72.6253 60.0933 72.412 60.04C72.2053 59.9933 72.0153 59.93 71.842 59.85C71.6686 59.7633 71.512 59.6667 71.372 59.56C71.2386 59.4533 71.1186 59.34 71.012 59.22L71.432 58.68C71.6253 58.88 71.8486 59.0567 72.102 59.21C72.362 59.3633 72.682 59.44 73.062 59.44C73.4486 59.44 73.7653 59.3367 74.012 59.13C74.2586 58.9167 74.382 58.63 74.382 58.27C74.382 58.0833 74.3453 57.9133 74.272 57.76C74.2053 57.6 74.092 57.4633 73.932 57.35C73.772 57.2367 73.562 57.15 73.302 57.09C73.042 57.03 72.722 57 72.342 57V56.37C72.682 56.37 72.9653 56.34 73.192 56.28C73.4253 56.22 73.612 56.1367 73.752 56.03C73.8986 55.9233 74.002 55.7967 74.062 55.65C74.122 55.5033 74.152 55.3467 74.152 55.18C74.152 54.8667 74.052 54.62 73.852 54.44C73.6586 54.26 73.392 54.17 73.052 54.17C72.7853 54.17 72.5386 54.23 72.312 54.35C72.092 54.47 71.8853 54.6267 71.692 54.82L71.252 54.3C71.4986 54.0667 71.7686 53.8767 72.062 53.73C72.362 53.5767 72.702 53.5 73.082 53.5C73.362 53.5 73.6186 53.5367 73.852 53.61C74.0853 53.6833 74.2853 53.79 74.452 53.93C74.6253 54.0633 74.7586 54.23 74.852 54.43C74.9453 54.63 74.992 54.86 74.992 55.12C74.992 55.5067 74.8853 55.8233 74.672 56.07C74.4586 56.3167 74.1786 56.5067 73.832 56.64V56.68C74.0253 56.7267 74.2053 56.7967 74.372 56.89C74.5386 56.9767 74.6853 57.09 74.812 57.23C74.9386 57.3633 75.0353 57.52 75.102 57.7C75.1753 57.88 75.212 58.08 75.212 58.3C75.212 58.58 75.1553 58.8333 75.042 59.06C74.9353 59.2867 74.7853 59.48 74.592 59.64C74.4053 59.7933 74.1853 59.9133 73.932 60C73.6786 60.08 73.4053 60.12 73.112 60.12ZM76.1227 60V59.51C76.6027 59.03 77.0293 58.5967 77.4027 58.21C77.776 57.8233 78.0893 57.4667 78.3427 57.14C78.596 56.8067 78.7893 56.5033 78.9227 56.23C79.056 55.95 79.1227 55.68 79.1227 55.42C79.1227 55.0533 79.0227 54.7533 78.8227 54.52C78.6227 54.2867 78.3193 54.17 77.9127 54.17C77.646 54.17 77.3993 54.2467 77.1727 54.4C76.946 54.5467 76.7393 54.7267 76.5527 54.94L76.0827 54.47C76.3493 54.1767 76.6327 53.9433 76.9327 53.77C77.2327 53.59 77.5927 53.5 78.0127 53.5C78.606 53.5 79.0727 53.6733 79.4127 54.02C79.7527 54.36 79.9227 54.8133 79.9227 55.38C79.9227 55.68 79.856 55.9833 79.7227 56.29C79.596 56.59 79.416 56.9033 79.1827 57.23C78.956 57.55 78.6827 57.8867 78.3627 58.24C78.0493 58.5867 77.7027 58.9567 77.3227 59.35C77.496 59.3367 77.676 59.3233 77.8627 59.31C78.0493 59.2967 78.226 59.29 78.3927 59.29H80.2427V60H76.1227ZM83.0534 60.12C82.8 60.12 82.5667 60.0933 82.3534 60.04C82.1467 59.9933 81.9567 59.93 81.7834 59.85C81.61 59.7633 81.4534 59.6667 81.3134 59.56C81.18 59.4533 81.06 59.34 80.9534 59.22L81.3734 58.68C81.5667 58.88 81.79 59.0567 82.0434 59.21C82.3034 59.3633 82.6234 59.44 83.0034 59.44C83.39 59.44 83.7067 59.3367 83.9534 59.13C84.2 58.9167 84.3234 58.63 84.3234 58.27C84.3234 58.0833 84.2867 57.9133 84.2134 57.76C84.1467 57.6 84.0334 57.4633 83.8734 57.35C83.7134 57.2367 83.5034 57.15 83.2434 57.09C82.9834 57.03 82.6634 57 82.2834 57V56.37C82.6234 56.37 82.9067 56.34 83.1334 56.28C83.3667 56.22 83.5534 56.1367 83.6934 56.03C83.84 55.9233 83.9434 55.7967 84.0034 55.65C84.0634 55.5033 84.0934 55.3467 84.0934 55.18C84.0934 54.8667 83.9934 54.62 83.7934 54.44C83.6 54.26 83.3334 54.17 82.9934 54.17C82.7267 54.17 82.48 54.23 82.2534 54.35C82.0334 54.47 81.8267 54.6267 81.6334 54.82L81.1934 54.3C81.44 54.0667 81.71 53.8767 82.0034 53.73C82.3034 53.5767 82.6434 53.5 83.0234 53.5C83.3034 53.5 83.56 53.5367 83.7934 53.61C84.0267 53.6833 84.2267 53.79 84.3934 53.93C84.5667 54.0633 84.7 54.23 84.7934 54.43C84.8867 54.63 84.9334 54.86 84.9334 55.12C84.9334 55.5067 84.8267 55.8233 84.6134 56.07C84.4 56.3167 84.12 56.5067 83.7734 56.64V56.68C83.9667 56.7267 84.1467 56.7967 84.3134 56.89C84.48 56.9767 84.6267 57.09 84.7534 57.23C84.88 57.3633 84.9767 57.52 85.0434 57.7C85.1167 57.88 85.1534 58.08 85.1534 58.3C85.1534 58.58 85.0967 58.8333 84.9834 59.06C84.8767 59.2867 84.7267 59.48 84.5334 59.64C84.3467 59.7933 84.1267 59.9133 83.8734 60C83.62 60.08 83.3467 60.12 83.0534 60.12ZM88.1541 60.12C87.5074 60.12 87.0041 59.8333 86.6441 59.26C86.2841 58.6867 86.1041 57.8633 86.1041 56.79C86.1041 55.7167 86.2841 54.9 86.6441 54.34C87.0041 53.78 87.5074 53.5 88.1541 53.5C88.7941 53.5 89.2941 53.78 89.6541 54.34C90.0141 54.9 90.1941 55.7167 90.1941 56.79C90.1941 57.8633 90.0141 58.6867 89.6541 59.26C89.2941 59.8333 88.7941 60.12 88.1541 60.12ZM88.1541 59.46C88.3407 59.46 88.5074 59.41 88.6541 59.31C88.8074 59.2033 88.9374 59.0433 89.0441 58.83C89.1574 58.61 89.2441 58.3333 89.3041 58C89.3641 57.66 89.3941 57.2567 89.3941 56.79C89.3941 56.3233 89.3641 55.9233 89.3041 55.59C89.2441 55.2567 89.1574 54.9867 89.0441 54.78C88.9374 54.5667 88.8074 54.41 88.6541 54.31C88.5074 54.21 88.3407 54.16 88.1541 54.16C87.9674 54.16 87.7974 54.21 87.6441 54.31C87.4907 54.41 87.3574 54.5667 87.2441 54.78C87.1374 54.9867 87.0541 55.2567 86.9941 55.59C86.9341 55.9233 86.9041 56.3233 86.9041 56.79C86.9041 57.7233 87.0174 58.4033 87.2441 58.83C87.4774 59.25 87.7807 59.46 88.1541 59.46Z" fill="#858484"/>
<path d="M31.3952 105.33L31.0852 106.33H33.0552L32.7452 105.33C32.6252 104.963 32.5119 104.6 32.4052 104.24C32.2986 103.873 32.1919 103.5 32.0852 103.12H32.0452C31.9452 103.5 31.8419 103.873 31.7352 104.24C31.6286 104.6 31.5152 104.963 31.3952 105.33ZM29.3952 109L31.6152 102.44H32.5552L34.7752 109H33.8852L33.2652 107H30.8752L30.2452 109H29.3952ZM35.7047 109V102.44H39.4847V103.14H36.5347V105.36H39.0347V106.06H36.5347V109H35.7047ZM40.6461 109V102.44H42.2861C43.2994 102.44 44.0694 102.72 44.5961 103.28C45.1228 103.84 45.3861 104.643 45.3861 105.69C45.3861 106.21 45.3194 106.677 45.1861 107.09C45.0528 107.497 44.8561 107.843 44.5961 108.13C44.3361 108.41 44.0161 108.627 43.6361 108.78C43.2561 108.927 42.8194 109 42.3261 109H40.6461ZM41.4761 108.32H42.2261C42.9928 108.32 43.5661 108.09 43.9461 107.63C44.3328 107.17 44.5261 106.523 44.5261 105.69C44.5261 104.857 44.3328 104.22 43.9461 103.78C43.5661 103.34 42.9928 103.12 42.2261 103.12H41.4761V108.32ZM48.3984 109.12C48.0984 109.12 47.8184 109.077 47.5584 108.99C47.3051 108.903 47.0851 108.783 46.8984 108.63C46.7184 108.47 46.5751 108.283 46.4684 108.07C46.3618 107.857 46.3084 107.623 46.3084 107.37C46.3084 107.163 46.3418 106.973 46.4084 106.8C46.4818 106.62 46.5718 106.46 46.6784 106.32C46.7918 106.173 46.9184 106.047 47.0584 105.94C47.2051 105.827 47.3551 105.73 47.5084 105.65V105.61C47.2751 105.443 47.0684 105.243 46.8884 105.01C46.7084 104.77 46.6184 104.48 46.6184 104.14C46.6184 103.893 46.6651 103.67 46.7584 103.47C46.8518 103.27 46.9784 103.1 47.1384 102.96C47.2984 102.813 47.4884 102.7 47.7084 102.62C47.9284 102.54 48.1684 102.5 48.4284 102.5C48.7084 102.5 48.9584 102.543 49.1784 102.63C49.3984 102.71 49.5851 102.827 49.7384 102.98C49.8984 103.127 50.0184 103.307 50.0984 103.52C50.1851 103.727 50.2284 103.953 50.2284 104.2C50.2284 104.367 50.1984 104.527 50.1384 104.68C50.0851 104.833 50.0151 104.977 49.9284 105.11C49.8484 105.243 49.7551 105.363 49.6484 105.47C49.5484 105.577 49.4484 105.667 49.3484 105.74V105.78C49.4884 105.86 49.6251 105.953 49.7584 106.06C49.8918 106.16 50.0084 106.277 50.1084 106.41C50.2151 106.537 50.2984 106.683 50.3584 106.85C50.4251 107.017 50.4584 107.207 50.4584 107.42C50.4584 107.66 50.4084 107.883 50.3084 108.09C50.2084 108.297 50.0684 108.477 49.8884 108.63C49.7084 108.783 49.4918 108.903 49.2384 108.99C48.9851 109.077 48.7051 109.12 48.3984 109.12ZM48.8484 105.52C49.0618 105.327 49.2251 105.123 49.3384 104.91C49.4584 104.697 49.5184 104.473 49.5184 104.24C49.5184 103.92 49.4218 103.653 49.2284 103.44C49.0351 103.22 48.7618 103.11 48.4084 103.11C48.1084 103.11 47.8618 103.203 47.6684 103.39C47.4751 103.577 47.3784 103.827 47.3784 104.14C47.3784 104.333 47.4184 104.5 47.4984 104.64C47.5784 104.773 47.6851 104.893 47.8184 105C47.9584 105.107 48.1151 105.203 48.2884 105.29C48.4684 105.37 48.6551 105.447 48.8484 105.52ZM48.4184 108.51C48.7918 108.51 49.0918 108.407 49.3184 108.2C49.5518 107.993 49.6684 107.723 49.6684 107.39C49.6684 107.183 49.6218 107.007 49.5284 106.86C49.4351 106.713 49.3084 106.587 49.1484 106.48C48.9884 106.367 48.8018 106.267 48.5884 106.18C48.3818 106.087 48.1651 105.993 47.9384 105.9C47.6851 106.073 47.4718 106.277 47.2984 106.51C47.1318 106.737 47.0484 106.997 47.0484 107.29C47.0484 107.47 47.0818 107.633 47.1484 107.78C47.2218 107.927 47.3184 108.057 47.4384 108.17C47.5651 108.277 47.7118 108.36 47.8784 108.42C48.0451 108.48 48.2251 108.51 48.4184 108.51ZM53.5491 109.12C53.2358 109.12 52.9458 109.057 52.6791 108.93C52.4125 108.803 52.1791 108.613 51.9791 108.36C51.7858 108.1 51.6325 107.78 51.5191 107.4C51.4058 107.013 51.3491 106.563 51.3491 106.05C51.3491 105.41 51.4158 104.867 51.5491 104.42C51.6825 103.967 51.8625 103.6 52.0891 103.32C52.3158 103.033 52.5725 102.827 52.8591 102.7C53.1525 102.567 53.4591 102.5 53.7791 102.5C54.1258 102.5 54.4225 102.567 54.6691 102.7C54.9225 102.827 55.1391 102.987 55.3191 103.18L54.8591 103.69C54.7258 103.537 54.5658 103.417 54.3791 103.33C54.1991 103.237 54.0091 103.19 53.8091 103.19C53.5891 103.19 53.3791 103.237 53.1791 103.33C52.9791 103.423 52.8025 103.577 52.6491 103.79C52.4958 104.003 52.3725 104.283 52.2791 104.63C52.1858 104.97 52.1358 105.393 52.1291 105.9C52.3291 105.653 52.5625 105.46 52.8291 105.32C53.0958 105.173 53.3591 105.1 53.6191 105.1C54.1725 105.1 54.6125 105.263 54.9391 105.59C55.2725 105.917 55.4391 106.41 55.4391 107.07C55.4391 107.377 55.3891 107.657 55.2891 107.91C55.1891 108.157 55.0525 108.37 54.8791 108.55C54.7058 108.73 54.5058 108.87 54.2791 108.97C54.0525 109.07 53.8091 109.12 53.5491 109.12ZM53.5491 108.47C53.7091 108.47 53.8558 108.437 53.9891 108.37C54.1225 108.303 54.2391 108.21 54.3391 108.09C54.4391 107.963 54.5158 107.817 54.5691 107.65C54.6291 107.477 54.6591 107.283 54.6591 107.07C54.6591 106.65 54.5625 106.32 54.3691 106.08C54.1758 105.84 53.8791 105.72 53.4791 105.72C53.2725 105.72 53.0491 105.787 52.8091 105.92C52.5691 106.047 52.3491 106.26 52.1491 106.56C52.2025 107.187 52.3458 107.663 52.5791 107.99C52.8191 108.31 53.1425 108.47 53.5491 108.47ZM58.3298 109.12C57.6832 109.12 57.1798 108.833 56.8198 108.26C56.4598 107.687 56.2798 106.863 56.2798 105.79C56.2798 104.717 56.4598 103.9 56.8198 103.34C57.1798 102.78 57.6832 102.5 58.3298 102.5C58.9698 102.5 59.4698 102.78 59.8298 103.34C60.1898 103.9 60.3698 104.717 60.3698 105.79C60.3698 106.863 60.1898 107.687 59.8298 108.26C59.4698 108.833 58.9698 109.12 58.3298 109.12ZM58.3298 108.46C58.5165 108.46 58.6832 108.41 58.8298 108.31C58.9832 108.203 59.1132 108.043 59.2198 107.83C59.3332 107.61 59.4198 107.333 59.4798 107C59.5398 106.66 59.5698 106.257 59.5698 105.79C59.5698 105.323 59.5398 104.923 59.4798 104.59C59.4198 104.257 59.3332 103.987 59.2198 103.78C59.1132 103.567 58.9832 103.41 58.8298 103.31C58.6832 103.21 58.5165 103.16 58.3298 103.16C58.1432 103.16 57.9732 103.21 57.8198 103.31C57.6665 103.41 57.5332 103.567 57.4198 103.78C57.3132 103.987 57.2298 104.257 57.1698 104.59C57.1098 104.923 57.0798 105.323 57.0798 105.79C57.0798 106.723 57.1932 107.403 57.4198 107.83C57.6532 108.25 57.9565 108.46 58.3298 108.46ZM63.3005 109.12C62.6539 109.12 62.1505 108.833 61.7905 108.26C61.4305 107.687 61.2505 106.863 61.2505 105.79C61.2505 104.717 61.4305 103.9 61.7905 103.34C62.1505 102.78 62.6539 102.5 63.3005 102.5C63.9405 102.5 64.4405 102.78 64.8005 103.34C65.1605 103.9 65.3405 104.717 65.3405 105.79C65.3405 106.863 65.1605 107.687 64.8005 108.26C64.4405 108.833 63.9405 109.12 63.3005 109.12ZM63.3005 108.46C63.4872 108.46 63.6539 108.41 63.8005 108.31C63.9539 108.203 64.0839 108.043 64.1905 107.83C64.3039 107.61 64.3905 107.333 64.4505 107C64.5105 106.66 64.5405 106.257 64.5405 105.79C64.5405 105.323 64.5105 104.923 64.4505 104.59C64.3905 104.257 64.3039 103.987 64.1905 103.78C64.0839 103.567 63.9539 103.41 63.8005 103.31C63.6539 103.21 63.4872 103.16 63.3005 103.16C63.1139 103.16 62.9439 103.21 62.7905 103.31C62.6372 103.41 62.5039 103.567 62.3905 103.78C62.2839 103.987 62.2005 104.257 62.1405 104.59C62.0805 104.923 62.0505 105.323 62.0505 105.79C62.0505 106.723 62.1639 107.403 62.3905 107.83C62.6239 108.25 62.9272 108.46 63.3005 108.46ZM68.2713 109.12C67.6246 109.12 67.1213 108.833 66.7613 108.26C66.4013 107.687 66.2213 106.863 66.2213 105.79C66.2213 104.717 66.4013 103.9 66.7613 103.34C67.1213 102.78 67.6246 102.5 68.2713 102.5C68.9113 102.5 69.4113 102.78 69.7713 103.34C70.1313 103.9 70.3113 104.717 70.3113 105.79C70.3113 106.863 70.1313 107.687 69.7713 108.26C69.4113 108.833 68.9113 109.12 68.2713 109.12ZM68.2713 108.46C68.4579 108.46 68.6246 108.41 68.7713 108.31C68.9246 108.203 69.0546 108.043 69.1613 107.83C69.2746 107.61 69.3613 107.333 69.4213 107C69.4813 106.66 69.5113 106.257 69.5113 105.79C69.5113 105.323 69.4813 104.923 69.4213 104.59C69.3613 104.257 69.2746 103.987 69.1613 103.78C69.0546 103.567 68.9246 103.41 68.7713 103.31C68.6246 103.21 68.4579 103.16 68.2713 103.16C68.0846 103.16 67.9146 103.21 67.7613 103.31C67.6079 103.41 67.4746 103.567 67.3613 103.78C67.2546 103.987 67.1713 104.257 67.1113 104.59C67.0513 104.923 67.0213 105.323 67.0213 105.79C67.0213 106.723 67.1346 107.403 67.3613 107.83C67.5946 108.25 67.8979 108.46 68.2713 108.46ZM73.112 109.12C72.8586 109.12 72.6253 109.093 72.412 109.04C72.2053 108.993 72.0153 108.93 71.842 108.85C71.6686 108.763 71.512 108.667 71.372 108.56C71.2386 108.453 71.1186 108.34 71.012 108.22L71.432 107.68C71.6253 107.88 71.8486 108.057 72.102 108.21C72.362 108.363 72.682 108.44 73.062 108.44C73.4486 108.44 73.7653 108.337 74.012 108.13C74.2586 107.917 74.382 107.63 74.382 107.27C74.382 107.083 74.3453 106.913 74.272 106.76C74.2053 106.6 74.092 106.463 73.932 106.35C73.772 106.237 73.562 106.15 73.302 106.09C73.042 106.03 72.722 106 72.342 106V105.37C72.682 105.37 72.9653 105.34 73.192 105.28C73.4253 105.22 73.612 105.137 73.752 105.03C73.8986 104.923 74.002 104.797 74.062 104.65C74.122 104.503 74.152 104.347 74.152 104.18C74.152 103.867 74.052 103.62 73.852 103.44C73.6586 103.26 73.392 103.17 73.052 103.17C72.7853 103.17 72.5386 103.23 72.312 103.35C72.092 103.47 71.8853 103.627 71.692 103.82L71.252 103.3C71.4986 103.067 71.7686 102.877 72.062 102.73C72.362 102.577 72.702 102.5 73.082 102.5C73.362 102.5 73.6186 102.537 73.852 102.61C74.0853 102.683 74.2853 102.79 74.452 102.93C74.6253 103.063 74.7586 103.23 74.852 103.43C74.9453 103.63 74.992 103.86 74.992 104.12C74.992 104.507 74.8853 104.823 74.672 105.07C74.4586 105.317 74.1786 105.507 73.832 105.64V105.68C74.0253 105.727 74.2053 105.797 74.372 105.89C74.5386 105.977 74.6853 106.09 74.812 106.23C74.9386 106.363 75.0353 106.52 75.102 106.7C75.1753 106.88 75.212 107.08 75.212 107.3C75.212 107.58 75.1553 107.833 75.042 108.06C74.9353 108.287 74.7853 108.48 74.592 108.64C74.4053 108.793 74.1853 108.913 73.932 109C73.6786 109.08 73.4053 109.12 73.112 109.12ZM76.1227 109V108.51C76.6027 108.03 77.0293 107.597 77.4027 107.21C77.776 106.823 78.0893 106.467 78.3427 106.14C78.596 105.807 78.7893 105.503 78.9227 105.23C79.056 104.95 79.1227 104.68 79.1227 104.42C79.1227 104.053 79.0227 103.753 78.8227 103.52C78.6227 103.287 78.3193 103.17 77.9127 103.17C77.646 103.17 77.3993 103.247 77.1727 103.4C76.946 103.547 76.7393 103.727 76.5527 103.94L76.0827 103.47C76.3493 103.177 76.6327 102.943 76.9327 102.77C77.2327 102.59 77.5927 102.5 78.0127 102.5C78.606 102.5 79.0727 102.673 79.4127 103.02C79.7527 103.36 79.9227 103.813 79.9227 104.38C79.9227 104.68 79.856 104.983 79.7227 105.29C79.596 105.59 79.416 105.903 79.1827 106.23C78.956 106.55 78.6827 106.887 78.3627 107.24C78.0493 107.587 77.7027 107.957 77.3227 108.35C77.496 108.337 77.676 108.323 77.8627 108.31C78.0493 108.297 78.226 108.29 78.3927 108.29H80.2427V109H76.1227ZM83.0534 109.12C82.8 109.12 82.5667 109.093 82.3534 109.04C82.1467 108.993 81.9567 108.93 81.7834 108.85C81.61 108.763 81.4534 108.667 81.3134 108.56C81.18 108.453 81.06 108.34 80.9534 108.22L81.3734 107.68C81.5667 107.88 81.79 108.057 82.0434 108.21C82.3034 108.363 82.6234 108.44 83.0034 108.44C83.39 108.44 83.7067 108.337 83.9534 108.13C84.2 107.917 84.3234 107.63 84.3234 107.27C84.3234 107.083 84.2867 106.913 84.2134 106.76C84.1467 106.6 84.0334 106.463 83.8734 106.35C83.7134 106.237 83.5034 106.15 83.2434 106.09C82.9834 106.03 82.6634 106 82.2834 106V105.37C82.6234 105.37 82.9067 105.34 83.1334 105.28C83.3667 105.22 83.5534 105.137 83.6934 105.03C83.84 104.923 83.9434 104.797 84.0034 104.65C84.0634 104.503 84.0934 104.347 84.0934 104.18C84.0934 103.867 83.9934 103.62 83.7934 103.44C83.6 103.26 83.3334 103.17 82.9934 103.17C82.7267 103.17 82.48 103.23 82.2534 103.35C82.0334 103.47 81.8267 103.627 81.6334 103.82L81.1934 103.3C81.44 103.067 81.71 102.877 82.0034 102.73C82.3034 102.577 82.6434 102.5 83.0234 102.5C83.3034 102.5 83.56 102.537 83.7934 102.61C84.0267 102.683 84.2267 102.79 84.3934 102.93C84.5667 103.063 84.7 103.23 84.7934 103.43C84.8867 103.63 84.9334 103.86 84.9334 104.12C84.9334 104.507 84.8267 104.823 84.6134 105.07C84.4 105.317 84.12 105.507 83.7734 105.64V105.68C83.9667 105.727 84.1467 105.797 84.3134 105.89C84.48 105.977 84.6267 106.09 84.7534 106.23C84.88 106.363 84.9767 106.52 85.0434 106.7C85.1167 106.88 85.1534 107.08 85.1534 107.3C85.1534 107.58 85.0967 107.833 84.9834 108.06C84.8767 108.287 84.7267 108.48 84.5334 108.64C84.3467 108.793 84.1267 108.913 83.8734 109C83.62 109.08 83.3467 109.12 83.0534 109.12ZM88.1541 109.12C87.5074 109.12 87.0041 108.833 86.6441 108.26C86.2841 107.687 86.1041 106.863 86.1041 105.79C86.1041 104.717 86.2841 103.9 86.6441 103.34C87.0041 102.78 87.5074 102.5 88.1541 102.5C88.7941 102.5 89.2941 102.78 89.6541 103.34C90.0141 103.9 90.1941 104.717 90.1941 105.79C90.1941 106.863 90.0141 107.687 89.6541 108.26C89.2941 108.833 88.7941 109.12 88.1541 109.12ZM88.1541 108.46C88.3407 108.46 88.5074 108.41 88.6541 108.31C88.8074 108.203 88.9374 108.043 89.0441 107.83C89.1574 107.61 89.2441 107.333 89.3041 107C89.3641 106.66 89.3941 106.257 89.3941 105.79C89.3941 105.323 89.3641 104.923 89.3041 104.59C89.2441 104.257 89.1574 103.987 89.0441 103.78C88.9374 103.567 88.8074 103.41 88.6541 103.31C88.5074 103.21 88.3407 103.16 88.1541 103.16C87.9674 103.16 87.7974 103.21 87.6441 103.31C87.4907 103.41 87.3574 103.567 87.2441 103.78C87.1374 103.987 87.0541 104.257 86.9941 104.59C86.9341 104.923 86.9041 105.323 86.9041 105.79C86.9041 106.723 87.0174 107.403 87.2441 107.83C87.4774 108.25 87.7807 108.46 88.1541 108.46Z" fill="#858484"/>
<path d="M31.6336 45.144C31.1056 45.144 30.6136 45.056 30.1576 44.88C29.7096 44.704 29.3176 44.444 28.9816 44.1C28.6536 43.756 28.3976 43.332 28.2136 42.828C28.0296 42.324 27.9376 41.748 27.9376 41.1C27.9376 40.46 28.0336 39.888 28.2256 39.384C28.4176 38.872 28.6776 38.44 29.0056 38.088C29.3416 37.736 29.7336 37.468 30.1816 37.284C30.6376 37.1 31.1256 37.008 31.6456 37.008C32.2056 37.008 32.6776 37.112 33.0616 37.32C33.4536 37.52 33.7736 37.748 34.0216 38.004L33.2776 38.904C33.0776 38.712 32.8536 38.552 32.6056 38.424C32.3656 38.288 32.0616 38.22 31.6936 38.22C31.3416 38.22 31.0216 38.288 30.7336 38.424C30.4536 38.552 30.2096 38.74 30.0016 38.988C29.8016 39.228 29.6456 39.524 29.5336 39.876C29.4216 40.228 29.3656 40.624 29.3656 41.064C29.3656 41.96 29.5656 42.664 29.9656 43.176C30.3736 43.68 30.9736 43.932 31.7656 43.932C31.9896 43.932 32.2016 43.904 32.4016 43.848C32.6016 43.784 32.7656 43.696 32.8936 43.584V41.892H31.4056V40.752H34.1416V44.208C33.8776 44.472 33.5256 44.696 33.0856 44.88C32.6536 45.056 32.1696 45.144 31.6336 45.144ZM37.5128 45.144C36.8808 45.144 36.4208 44.944 36.1328 44.544C35.8448 44.136 35.7008 43.556 35.7008 42.804V39.108H37.0808V42.624C37.0808 43.112 37.1528 43.456 37.2968 43.656C37.4408 43.856 37.6728 43.956 37.9928 43.956C38.2488 43.956 38.4728 43.892 38.6648 43.764C38.8648 43.636 39.0768 43.428 39.3008 43.14V39.108H40.6808V45H39.5528L39.4448 44.136H39.4088C39.1528 44.44 38.8728 44.684 38.5688 44.868C38.2728 45.052 37.9208 45.144 37.5128 45.144ZM42.4287 45V39.108H43.5687L43.6647 39.9H43.7127C43.9767 39.644 44.2607 39.424 44.5647 39.24C44.8767 39.056 45.2367 38.964 45.6447 38.964C46.2767 38.964 46.7367 39.168 47.0247 39.576C47.3127 39.976 47.4567 40.552 47.4567 41.304V45H46.0767V41.484C46.0767 40.996 46.0047 40.652 45.8607 40.452C45.7167 40.252 45.4807 40.152 45.1527 40.152C44.8967 40.152 44.6687 40.216 44.4687 40.344C44.2767 40.464 44.0567 40.644 43.8087 40.884V45H42.4287ZM53.2499 45V38.328H50.9819V37.152H56.9099V38.328H54.6419V45H53.2499ZM57.5694 45V39.108H58.7094L58.8054 40.152H58.8534C59.0614 39.768 59.3134 39.476 59.6094 39.276C59.9054 39.068 60.2094 38.964 60.5214 38.964C60.8014 38.964 61.0254 39.004 61.1934 39.084L60.9534 40.284C60.8494 40.252 60.7534 40.228 60.6654 40.212C60.5774 40.196 60.4694 40.188 60.3414 40.188C60.1094 40.188 59.8654 40.28 59.6094 40.464C59.3534 40.64 59.1334 40.952 58.9494 41.4V45H57.5694ZM63.7979 45.144C63.1659 45.144 62.7059 44.944 62.4179 44.544C62.1299 44.136 61.9859 43.556 61.9859 42.804V39.108H63.3659V42.624C63.3659 43.112 63.4379 43.456 63.5819 43.656C63.7259 43.856 63.9579 43.956 64.2779 43.956C64.5339 43.956 64.7579 43.892 64.9499 43.764C65.1499 43.636 65.3619 43.428 65.5859 43.14V39.108H66.9659V45H65.8379L65.7299 44.136H65.6939C65.4379 44.44 65.1579 44.684 64.8539 44.868C64.5579 45.052 64.2059 45.144 63.7979 45.144ZM71.1739 45.144C70.7739 45.144 70.3979 45.076 70.0459 44.94C69.7019 44.804 69.4019 44.604 69.1459 44.34C68.8899 44.076 68.6899 43.752 68.5459 43.368C68.4019 42.984 68.3299 42.548 68.3299 42.06C68.3299 41.572 68.4099 41.136 68.5699 40.752C68.7299 40.368 68.9459 40.044 69.2179 39.78C69.4899 39.516 69.8019 39.316 70.1539 39.18C70.5139 39.036 70.8899 38.964 71.2819 38.964C71.6659 38.964 71.9939 39.028 72.2659 39.156C72.5459 39.284 72.7939 39.44 73.0099 39.624L72.3379 40.524C72.1779 40.388 72.0179 40.284 71.8579 40.212C71.7059 40.132 71.5379 40.092 71.3539 40.092C70.8739 40.092 70.4859 40.272 70.1899 40.632C69.8939 40.984 69.7459 41.46 69.7459 42.06C69.7459 42.652 69.8899 43.128 70.1779 43.488C70.4739 43.84 70.8539 44.016 71.3179 44.016C71.5499 44.016 71.7659 43.968 71.9659 43.872C72.1739 43.768 72.3619 43.648 72.5299 43.512L73.0939 44.424C72.8139 44.664 72.5059 44.844 72.1699 44.964C71.8419 45.084 71.5099 45.144 71.1739 45.144ZM74.2569 45V36.528H75.6129V41.82H75.6489L77.8329 39.108H79.3449L77.3289 41.508L79.5489 45H78.0489L76.5369 42.444L75.6129 43.5V45H74.2569Z" fill="black"/>
<path d="M30.7235 94.144C30.1955 94.144 29.6835 94.044 29.1875 93.844C28.6995 93.644 28.2675 93.36 27.8915 92.992L28.7075 92.044C28.9875 92.308 29.3075 92.524 29.6675 92.692C30.0275 92.852 30.3875 92.932 30.7475 92.932C31.1955 92.932 31.5355 92.84 31.7675 92.656C31.9995 92.472 32.1155 92.228 32.1155 91.924C32.1155 91.764 32.0835 91.628 32.0195 91.516C31.9635 91.404 31.8795 91.308 31.7675 91.228C31.6635 91.14 31.5355 91.06 31.3835 90.988C31.2395 90.916 31.0795 90.844 30.9035 90.772L29.8235 90.304C29.6315 90.224 29.4395 90.124 29.2475 90.004C29.0635 89.884 28.8955 89.74 28.7435 89.572C28.5915 89.404 28.4675 89.208 28.3715 88.984C28.2835 88.76 28.2395 88.504 28.2395 88.216C28.2395 87.904 28.3035 87.616 28.4315 87.352C28.5675 87.08 28.7515 86.844 28.9835 86.644C29.2155 86.444 29.4915 86.288 29.8115 86.176C30.1395 86.064 30.4955 86.008 30.8795 86.008C31.3355 86.008 31.7755 86.1 32.1995 86.284C32.6235 86.46 32.9875 86.7 33.2915 87.004L32.5835 87.892C32.3275 87.684 32.0635 87.52 31.7915 87.4C31.5195 87.28 31.2155 87.22 30.8795 87.22C30.5035 87.22 30.2035 87.304 29.9795 87.472C29.7555 87.632 29.6435 87.856 29.6435 88.144C29.6435 88.296 29.6755 88.428 29.7395 88.54C29.8115 88.644 29.9035 88.74 30.0155 88.828C30.1355 88.908 30.2715 88.984 30.4235 89.056C30.5755 89.12 30.7315 89.184 30.8915 89.248L31.9595 89.692C32.1915 89.788 32.4035 89.9 32.5955 90.028C32.7875 90.156 32.9515 90.304 33.0875 90.472C33.2315 90.64 33.3435 90.836 33.4235 91.06C33.5035 91.276 33.5435 91.528 33.5435 91.816C33.5435 92.136 33.4795 92.436 33.3515 92.716C33.2235 92.996 33.0355 93.244 32.7875 93.46C32.5475 93.668 32.2515 93.836 31.8995 93.964C31.5555 94.084 31.1635 94.144 30.7235 94.144ZM36.5786 89.824L36.3026 90.784H38.3066L38.0306 89.824C37.9026 89.408 37.7786 88.98 37.6586 88.54C37.5466 88.1 37.4346 87.664 37.3226 87.232H37.2746C37.1626 87.672 37.0506 88.112 36.9386 88.552C36.8266 88.984 36.7066 89.408 36.5786 89.824ZM33.9506 94L36.5066 86.152H38.1386L40.6946 94H39.2306L38.6186 91.876H35.9786L35.3666 94H33.9506ZM42.4726 94V87.328H40.2046V86.152H46.1326V87.328H43.8646V94H42.4726ZM49.8417 94V86.152H52.4937C52.9017 86.152 53.2817 86.192 53.6337 86.272C53.9857 86.352 54.2897 86.484 54.5457 86.668C54.8017 86.844 55.0017 87.08 55.1457 87.376C55.2977 87.672 55.3737 88.04 55.3737 88.48C55.3737 89.08 55.2297 89.564 54.9417 89.932C54.6617 90.3 54.2857 90.564 53.8137 90.724L55.6857 94H54.1257L52.4337 90.928H51.2337V94H49.8417ZM51.2337 89.824H52.3497C52.8857 89.824 53.2937 89.712 53.5737 89.488C53.8617 89.264 54.0057 88.928 54.0057 88.48C54.0057 88.024 53.8617 87.708 53.5737 87.532C53.2937 87.356 52.8857 87.268 52.3497 87.268H51.2337V89.824ZM58.181 94.144C57.661 94.144 57.241 93.988 56.921 93.676C56.601 93.356 56.441 92.936 56.441 92.416C56.441 92.104 56.505 91.828 56.633 91.588C56.769 91.34 56.977 91.128 57.257 90.952C57.545 90.776 57.905 90.628 58.337 90.508C58.777 90.388 59.301 90.296 59.909 90.232C59.901 90.08 59.877 89.936 59.837 89.8C59.805 89.656 59.745 89.532 59.657 89.428C59.577 89.316 59.469 89.232 59.333 89.176C59.197 89.112 59.029 89.08 58.829 89.08C58.541 89.08 58.257 89.136 57.977 89.248C57.705 89.36 57.437 89.496 57.173 89.656L56.669 88.732C56.997 88.524 57.365 88.344 57.773 88.192C58.181 88.04 58.621 87.964 59.093 87.964C59.829 87.964 60.377 88.184 60.737 88.624C61.105 89.056 61.289 89.684 61.289 90.508V94H60.149L60.053 93.352H60.005C59.741 93.576 59.457 93.764 59.153 93.916C58.857 94.068 58.533 94.144 58.181 94.144ZM58.625 93.064C58.865 93.064 59.081 93.008 59.273 92.896C59.473 92.784 59.685 92.624 59.909 92.416V91.096C59.509 91.144 59.173 91.208 58.901 91.288C58.629 91.368 58.409 91.46 58.241 91.564C58.073 91.66 57.953 91.772 57.881 91.9C57.809 92.028 57.773 92.164 57.773 92.308C57.773 92.572 57.853 92.764 58.013 92.884C58.173 93.004 58.377 93.064 58.625 93.064ZM65.0045 94.144C64.2605 94.144 63.6685 93.876 63.2285 93.34C62.7965 92.796 62.5805 92.036 62.5805 91.06C62.5805 90.58 62.6485 90.148 62.7845 89.764C62.9285 89.38 63.1165 89.056 63.3485 88.792C63.5805 88.528 63.8445 88.324 64.1405 88.18C64.4445 88.036 64.7565 87.964 65.0765 87.964C65.4125 87.964 65.6965 88.024 65.9285 88.144C66.1605 88.256 66.3925 88.412 66.6245 88.612L66.5765 87.664V85.528H67.9565V94H66.8165L66.7205 93.364H66.6725C66.4565 93.58 66.2045 93.764 65.9165 93.916C65.6285 94.068 65.3245 94.144 65.0045 94.144ZM65.3405 93.004C65.7805 93.004 66.1925 92.784 66.5765 92.344V89.596C66.3685 89.412 66.1645 89.284 65.9645 89.212C65.7725 89.14 65.5765 89.104 65.3765 89.104C64.9925 89.104 64.6685 89.272 64.4045 89.608C64.1405 89.944 64.0085 90.424 64.0085 91.048C64.0085 91.688 64.1205 92.176 64.3445 92.512C64.5765 92.84 64.9085 93.004 65.3405 93.004ZM69.7139 94V88.108H71.0939V94H69.7139ZM70.4099 87.076C70.1619 87.076 69.9579 87.004 69.7979 86.86C69.6379 86.716 69.5579 86.528 69.5579 86.296C69.5579 86.064 69.6379 85.876 69.7979 85.732C69.9579 85.58 70.1619 85.504 70.4099 85.504C70.6579 85.504 70.8619 85.58 71.0219 85.732C71.1819 85.876 71.2619 86.064 71.2619 86.296C71.2619 86.528 71.1819 86.716 71.0219 86.86C70.8619 87.004 70.6579 87.076 70.4099 87.076ZM75.2665 94.144C74.8985 94.144 74.5465 94.076 74.2105 93.94C73.8745 93.804 73.5745 93.604 73.3105 93.34C73.0545 93.076 72.8505 92.752 72.6985 92.368C72.5465 91.984 72.4705 91.548 72.4705 91.06C72.4705 90.572 72.5465 90.136 72.6985 89.752C72.8505 89.368 73.0545 89.044 73.3105 88.78C73.5745 88.516 73.8745 88.316 74.2105 88.18C74.5465 88.036 74.8985 87.964 75.2665 87.964C75.6345 87.964 75.9865 88.036 76.3225 88.18C76.6665 88.316 76.9665 88.516 77.2225 88.78C77.4785 89.044 77.6825 89.368 77.8345 89.752C77.9945 90.136 78.0745 90.572 78.0745 91.06C78.0745 91.548 77.9945 91.984 77.8345 92.368C77.6825 92.752 77.4785 93.076 77.2225 93.34C76.9665 93.604 76.6665 93.804 76.3225 93.94C75.9865 94.076 75.6345 94.144 75.2665 94.144ZM75.2665 93.016C75.6985 93.016 76.0385 92.84 76.2865 92.488C76.5345 92.128 76.6585 91.652 76.6585 91.06C76.6585 90.46 76.5345 89.984 76.2865 89.632C76.0385 89.272 75.6985 89.092 75.2665 89.092C74.8345 89.092 74.4945 89.272 74.2465 89.632C74.0065 89.984 73.8865 90.46 73.8865 91.06C73.8865 91.652 74.0065 92.128 74.2465 92.488C74.4945 92.84 74.8345 93.016 75.2665 93.016Z" fill="black"/>
<circle cx="9.5" cy="17.5" r="7.5" fill="#19BC81"/>
<path d="M29.6394 22L27.2754 14.176H29.1474L30.0834 17.824C30.2034 18.256 30.3074 18.676 30.3954 19.084C30.4914 19.484 30.5994 19.9 30.7194 20.332H30.7674C30.8794 19.9 30.9834 19.484 31.0794 19.084C31.1754 18.676 31.2794 18.256 31.3914 17.824L32.3154 14.176H34.1154L31.7634 22H29.6394ZM37.2487 22.144C36.8247 22.144 36.4287 22.076 36.0607 21.94C35.6927 21.796 35.3727 21.592 35.1007 21.328C34.8287 21.056 34.6167 20.728 34.4647 20.344C34.3127 19.96 34.2367 19.52 34.2367 19.024C34.2367 18.544 34.3167 18.112 34.4767 17.728C34.6367 17.336 34.8447 17.008 35.1007 16.744C35.3647 16.472 35.6647 16.264 36.0007 16.12C36.3367 15.976 36.6847 15.904 37.0447 15.904C37.4687 15.904 37.8367 15.976 38.1487 16.12C38.4687 16.264 38.7327 16.464 38.9407 16.72C39.1567 16.976 39.3167 17.28 39.4207 17.632C39.5247 17.976 39.5767 18.352 39.5767 18.76C39.5767 18.92 39.5687 19.072 39.5527 19.216C39.5367 19.36 39.5207 19.468 39.5047 19.54H35.9407C36.0207 19.972 36.1967 20.292 36.4687 20.5C36.7487 20.7 37.0887 20.8 37.4887 20.8C37.9127 20.8 38.3407 20.668 38.7727 20.404L39.3607 21.472C39.0567 21.68 38.7167 21.844 38.3407 21.964C37.9727 22.084 37.6087 22.144 37.2487 22.144ZM35.9287 18.376H38.0767C38.0767 18.04 38.0007 17.768 37.8487 17.56C37.6967 17.352 37.4407 17.248 37.0807 17.248C36.8007 17.248 36.5527 17.34 36.3367 17.524C36.1287 17.708 35.9927 17.992 35.9287 18.376ZM40.7956 22V13.588H42.5596V15.652L42.4756 16.72C42.6996 16.52 42.9596 16.336 43.2556 16.168C43.5516 15.992 43.9036 15.904 44.3116 15.904C44.9596 15.904 45.4276 16.116 45.7156 16.54C46.0116 16.964 46.1596 17.552 46.1596 18.304V22H44.3956V18.532C44.3956 18.1 44.3356 17.804 44.2156 17.644C44.1036 17.484 43.9196 17.404 43.6636 17.404C43.4396 17.404 43.2476 17.456 43.0876 17.56C42.9276 17.656 42.7516 17.796 42.5596 17.98V22H40.7956ZM47.0271 23.92L49.4391 13.48H50.5911L48.1791 23.92H47.0271ZM51.8615 22V14.176H56.7575V15.664H53.6255V17.236H56.2895V18.712H53.6255V20.512H56.8775V22H51.8615ZM61.7265 24.208V22.396L61.7985 21.484C61.5985 21.676 61.3665 21.836 61.1025 21.964C60.8385 22.084 60.5705 22.144 60.2985 22.144C59.9305 22.144 59.5945 22.072 59.2905 21.928C58.9945 21.784 58.7385 21.58 58.5225 21.316C58.3145 21.044 58.1505 20.716 58.0305 20.332C57.9185 19.948 57.8625 19.512 57.8625 19.024C57.8625 18.536 57.9305 18.1 58.0665 17.716C58.2105 17.332 58.3945 17.008 58.6185 16.744C58.8505 16.472 59.1145 16.264 59.4105 16.12C59.7145 15.976 60.0225 15.904 60.3345 15.904C60.6625 15.904 60.9505 15.964 61.1985 16.084C61.4465 16.196 61.6865 16.38 61.9185 16.636H61.9665L62.1105 16.048H63.4905V24.208H61.7265ZM60.7545 20.704C60.9465 20.704 61.1185 20.664 61.2705 20.584C61.4305 20.504 61.5825 20.364 61.7265 20.164V17.728C61.5665 17.584 61.4025 17.484 61.2345 17.428C61.0665 17.372 60.9025 17.344 60.7425 17.344C60.4625 17.344 60.2145 17.48 59.9985 17.752C59.7825 18.016 59.6745 18.432 59.6745 19C59.6745 19.592 59.7665 20.024 59.9505 20.296C60.1425 20.568 60.4105 20.704 60.7545 20.704ZM65.0534 24.208V16.048H66.4934L66.6134 16.636H66.6614C66.8934 16.428 67.1534 16.256 67.4414 16.12C67.7374 15.976 68.0414 15.904 68.3534 15.904C68.7134 15.904 69.0374 15.976 69.3254 16.12C69.6134 16.264 69.8574 16.468 70.0574 16.732C70.2574 16.996 70.4094 17.316 70.5134 17.692C70.6254 18.06 70.6814 18.472 70.6814 18.928C70.6814 19.44 70.6094 19.896 70.4654 20.296C70.3294 20.688 70.1414 21.024 69.9014 21.304C69.6694 21.576 69.4014 21.784 69.0974 21.928C68.8014 22.072 68.4934 22.144 68.1734 22.144C67.9174 22.144 67.6694 22.092 67.4294 21.988C67.1894 21.876 66.9654 21.72 66.7574 21.52L66.8174 22.468V24.208H65.0534ZM67.7654 20.704C68.0694 20.704 68.3294 20.568 68.5454 20.296C68.7614 20.016 68.8694 19.568 68.8694 18.952C68.8694 17.88 68.5254 17.344 67.8374 17.344C67.4934 17.344 67.1534 17.524 66.8174 17.884V20.32C66.9774 20.464 67.1374 20.564 67.2974 20.62C67.4574 20.676 67.6134 20.704 67.7654 20.704ZM73.9079 22.144C73.5399 22.144 73.2239 22.088 72.9599 21.976C72.7039 21.864 72.4919 21.708 72.3239 21.508C72.1639 21.308 72.0439 21.068 71.9639 20.788C71.8919 20.5 71.8559 20.184 71.8559 19.84V17.428H71.0399V16.12L71.9519 16.048L72.1559 14.464H73.6199V16.048H75.0479V17.428H73.6199V19.816C73.6199 20.152 73.6879 20.396 73.8239 20.548C73.9679 20.692 74.1559 20.764 74.3879 20.764C74.4839 20.764 74.5799 20.752 74.6759 20.728C74.7799 20.704 74.8719 20.676 74.9519 20.644L75.2279 21.928C75.0679 21.976 74.8799 22.024 74.6639 22.072C74.4479 22.12 74.1959 22.144 73.9079 22.144ZM77.0773 22.144C76.7733 22.144 76.5173 22.04 76.3093 21.832C76.1093 21.616 76.0093 21.352 76.0093 21.04C76.0093 20.72 76.1093 20.456 76.3093 20.248C76.5173 20.032 76.7733 19.924 77.0773 19.924C77.3813 19.924 77.6333 20.032 77.8333 20.248C78.0413 20.456 78.1453 20.72 78.1453 21.04C78.1453 21.352 78.0413 21.616 77.8333 21.832C77.6333 22.04 77.3813 22.144 77.0773 22.144ZM82.2013 22V14.176H85.0213C85.4373 14.176 85.8253 14.216 86.1853 14.296C86.5533 14.376 86.8733 14.512 87.1453 14.704C87.4173 14.888 87.6333 15.136 87.7933 15.448C87.9533 15.76 88.0333 16.148 88.0333 16.612C88.0333 17.188 87.9053 17.664 87.6493 18.04C87.4013 18.408 87.0653 18.684 86.6413 18.868L88.4173 22H86.4373L84.9373 19.18H83.9653V22H82.2013ZM83.9653 17.776H84.8773C85.3413 17.776 85.6933 17.68 85.9333 17.488C86.1813 17.288 86.3053 16.996 86.3053 16.612C86.3053 16.228 86.1813 15.96 85.9333 15.808C85.6933 15.656 85.3413 15.58 84.8773 15.58H83.9653V17.776ZM91.9635 22.144C91.5395 22.144 91.1435 22.076 90.7755 21.94C90.4075 21.796 90.0875 21.592 89.8155 21.328C89.5435 21.056 89.3315 20.728 89.1795 20.344C89.0275 19.96 88.9515 19.52 88.9515 19.024C88.9515 18.544 89.0315 18.112 89.1915 17.728C89.3515 17.336 89.5595 17.008 89.8155 16.744C90.0795 16.472 90.3795 16.264 90.7155 16.12C91.0515 15.976 91.3995 15.904 91.7595 15.904C92.1835 15.904 92.5515 15.976 92.8635 16.12C93.1835 16.264 93.4475 16.464 93.6555 16.72C93.8715 16.976 94.0315 17.28 94.1355 17.632C94.2395 17.976 94.2915 18.352 94.2915 18.76C94.2915 18.92 94.2835 19.072 94.2675 19.216C94.2515 19.36 94.2355 19.468 94.2195 19.54H90.6555C90.7355 19.972 90.9115 20.292 91.1835 20.5C91.4635 20.7 91.8035 20.8 92.2035 20.8C92.6275 20.8 93.0555 20.668 93.4875 20.404L94.0755 21.472C93.7715 21.68 93.4315 21.844 93.0555 21.964C92.6875 22.084 92.3235 22.144 91.9635 22.144ZM90.6435 18.376H92.7915C92.7915 18.04 92.7155 17.768 92.5635 17.56C92.4115 17.352 92.1555 17.248 91.7955 17.248C91.5155 17.248 91.2675 17.34 91.0515 17.524C90.8435 17.708 90.7075 17.992 90.6435 18.376ZM95.5105 24.208V16.048H96.9505L97.0705 16.636H97.1185C97.3505 16.428 97.6105 16.256 97.8985 16.12C98.1945 15.976 98.4985 15.904 98.8105 15.904C99.1705 15.904 99.4945 15.976 99.7825 16.12C100.07 16.264 100.314 16.468 100.514 16.732C100.714 16.996 100.866 17.316 100.97 17.692C101.082 18.06 101.138 18.472 101.138 18.928C101.138 19.44 101.066 19.896 100.922 20.296C100.786 20.688 100.598 21.024 100.358 21.304C100.126 21.576 99.8585 21.784 99.5545 21.928C99.2585 22.072 98.9505 22.144 98.6305 22.144C98.3745 22.144 98.1265 22.092 97.8865 21.988C97.6465 21.876 97.4225 21.72 97.2145 21.52L97.2745 22.468V24.208H95.5105ZM98.2225 20.704C98.5265 20.704 98.7865 20.568 99.0025 20.296C99.2185 20.016 99.3265 19.568 99.3265 18.952C99.3265 17.88 98.9825 17.344 98.2945 17.344C97.9505 17.344 97.6105 17.524 97.2745 17.884V20.32C97.4345 20.464 97.5945 20.564 97.7545 20.62C97.9145 20.676 98.0705 20.704 98.2225 20.704ZM104.945 22.144C104.569 22.144 104.205 22.076 103.853 21.94C103.501 21.796 103.189 21.592 102.917 21.328C102.653 21.064 102.441 20.74 102.281 20.356C102.121 19.964 102.041 19.52 102.041 19.024C102.041 18.528 102.121 18.088 102.281 17.704C102.441 17.312 102.653 16.984 102.917 16.72C103.189 16.456 103.501 16.256 103.853 16.12C104.205 15.976 104.569 15.904 104.945 15.904C105.321 15.904 105.681 15.976 106.025 16.12C106.377 16.256 106.685 16.456 106.949 16.72C107.221 16.984 107.437 17.312 107.597 17.704C107.757 18.088 107.837 18.528 107.837 19.024C107.837 19.52 107.757 19.964 107.597 20.356C107.437 20.74 107.221 21.064 106.949 21.328C106.685 21.592 106.377 21.796 106.025 21.94C105.681 22.076 105.321 22.144 104.945 22.144ZM104.945 20.716C105.305 20.716 105.577 20.564 105.761 20.26C105.945 19.956 106.037 19.544 106.037 19.024C106.037 18.504 105.945 18.092 105.761 17.788C105.577 17.484 105.305 17.332 104.945 17.332C104.577 17.332 104.301 17.484 104.117 17.788C103.941 18.092 103.853 18.504 103.853 19.024C103.853 19.544 103.941 19.956 104.117 20.26C104.301 20.564 104.577 20.716 104.945 20.716ZM109.046 22V16.048H110.486L110.606 17.092H110.654C110.87 16.684 111.13 16.384 111.434 16.192C111.738 16 112.042 15.904 112.346 15.904C112.514 15.904 112.65 15.916 112.754 15.94C112.866 15.956 112.966 15.984 113.054 16.024L112.766 17.548C112.654 17.516 112.55 17.492 112.454 17.476C112.358 17.46 112.246 17.452 112.118 17.452C111.894 17.452 111.658 17.532 111.41 17.692C111.17 17.852 110.97 18.136 110.81 18.544V22H109.046ZM116.119 22.144C115.751 22.144 115.435 22.088 115.171 21.976C114.915 21.864 114.703 21.708 114.535 21.508C114.375 21.308 114.255 21.068 114.175 20.788C114.103 20.5 114.067 20.184 114.067 19.84V17.428H113.251V16.12L114.163 16.048L114.367 14.464H115.831V16.048H117.259V17.428H115.831V19.816C115.831 20.152 115.899 20.396 116.035 20.548C116.179 20.692 116.367 20.764 116.599 20.764C116.695 20.764 116.791 20.752 116.887 20.728C116.991 20.704 117.083 20.676 117.163 20.644L117.439 21.928C117.279 21.976 117.091 22.024 116.875 22.072C116.659 22.12 116.407 22.144 116.119 22.144Z" fill="#575757"/>
<path d="M28.7509 151.144C28.2229 151.144 27.7109 151.044 27.2149 150.844C26.7269 150.644 26.2949 150.36 25.9189 149.992L26.7349 149.044C27.0149 149.308 27.3349 149.524 27.6949 149.692C28.0549 149.852 28.4149 149.932 28.7749 149.932C29.2229 149.932 29.5629 149.84 29.7949 149.656C30.0269 149.472 30.1429 149.228 30.1429 148.924C30.1429 148.764 30.1109 148.628 30.0469 148.516C29.9909 148.404 29.9069 148.308 29.7949 148.228C29.6909 148.14 29.5629 148.06 29.4109 147.988C29.2669 147.916 29.1069 147.844 28.9309 147.772L27.8509 147.304C27.6589 147.224 27.4669 147.124 27.2749 147.004C27.0909 146.884 26.9229 146.74 26.7709 146.572C26.6189 146.404 26.4949 146.208 26.3989 145.984C26.3109 145.76 26.2669 145.504 26.2669 145.216C26.2669 144.904 26.3309 144.616 26.4589 144.352C26.5949 144.08 26.7789 143.844 27.0109 143.644C27.2429 143.444 27.5189 143.288 27.8389 143.176C28.1669 143.064 28.5229 143.008 28.9069 143.008C29.3629 143.008 29.8029 143.1 30.2269 143.284C30.6509 143.46 31.0149 143.7 31.3189 144.004L30.6109 144.892C30.3549 144.684 30.0909 144.52 29.8189 144.4C29.5469 144.28 29.2429 144.22 28.9069 144.22C28.5309 144.22 28.2309 144.304 28.0069 144.472C27.7829 144.632 27.6709 144.856 27.6709 145.144C27.6709 145.296 27.7029 145.428 27.7669 145.54C27.8389 145.644 27.9309 145.74 28.0429 145.828C28.1629 145.908 28.2989 145.984 28.4509 146.056C28.6029 146.12 28.7589 146.184 28.9189 146.248L29.9869 146.692C30.2189 146.788 30.4309 146.9 30.6229 147.028C30.8149 147.156 30.9789 147.304 31.1149 147.472C31.2589 147.64 31.3709 147.836 31.4509 148.06C31.5309 148.276 31.5709 148.528 31.5709 148.816C31.5709 149.136 31.5069 149.436 31.3789 149.716C31.2509 149.996 31.0629 150.244 30.8149 150.46C30.5749 150.668 30.2789 150.836 29.9269 150.964C29.5829 151.084 29.1909 151.144 28.7509 151.144ZM35.398 151.144C34.99 151.144 34.61 151.076 34.258 150.94C33.906 150.796 33.598 150.592 33.334 150.328C33.07 150.064 32.862 149.744 32.71 149.368C32.566 148.984 32.494 148.548 32.494 148.06C32.494 147.58 32.57 147.148 32.722 146.764C32.874 146.38 33.074 146.056 33.322 145.792C33.578 145.528 33.87 145.324 34.198 145.18C34.526 145.036 34.862 144.964 35.206 144.964C35.606 144.964 35.958 145.032 36.262 145.168C36.566 145.304 36.818 145.496 37.018 145.744C37.226 145.992 37.382 146.288 37.486 146.632C37.59 146.976 37.642 147.352 37.642 147.76C37.642 147.896 37.634 148.024 37.618 148.144C37.61 148.264 37.598 148.36 37.582 148.432H33.838C33.902 148.96 34.086 149.368 34.39 149.656C34.702 149.936 35.098 150.076 35.578 150.076C35.834 150.076 36.07 150.04 36.286 149.968C36.51 149.888 36.73 149.78 36.946 149.644L37.414 150.508C37.134 150.692 36.822 150.844 36.478 150.964C36.134 151.084 35.774 151.144 35.398 151.144ZM33.826 147.496H36.442C36.442 147.04 36.342 146.684 36.142 146.428C35.95 146.164 35.65 146.032 35.242 146.032C34.89 146.032 34.582 146.156 34.318 146.404C34.054 146.652 33.89 147.016 33.826 147.496ZM41.48 151.144C41.072 151.144 40.692 151.076 40.34 150.94C39.988 150.796 39.68 150.592 39.416 150.328C39.152 150.064 38.944 149.744 38.792 149.368C38.648 148.984 38.576 148.548 38.576 148.06C38.576 147.58 38.652 147.148 38.804 146.764C38.956 146.38 39.156 146.056 39.404 145.792C39.66 145.528 39.952 145.324 40.28 145.18C40.608 145.036 40.944 144.964 41.288 144.964C41.688 144.964 42.04 145.032 42.344 145.168C42.648 145.304 42.9 145.496 43.1 145.744C43.308 145.992 43.464 146.288 43.568 146.632C43.672 146.976 43.724 147.352 43.724 147.76C43.724 147.896 43.716 148.024 43.7 148.144C43.692 148.264 43.68 148.36 43.664 148.432H39.92C39.984 148.96 40.168 149.368 40.472 149.656C40.784 149.936 41.18 150.076 41.66 150.076C41.916 150.076 42.152 150.04 42.368 149.968C42.592 149.888 42.812 149.78 43.028 149.644L43.496 150.508C43.216 150.692 42.904 150.844 42.56 150.964C42.216 151.084 41.856 151.144 41.48 151.144ZM39.908 147.496H42.524C42.524 147.04 42.424 146.684 42.224 146.428C42.032 146.164 41.732 146.032 41.324 146.032C40.972 146.032 40.664 146.156 40.4 146.404C40.136 146.652 39.972 147.016 39.908 147.496ZM47.5644 151V143.152H49.1364L50.5284 146.992C50.6164 147.24 50.7004 147.496 50.7804 147.76C50.8604 148.016 50.9444 148.272 51.0324 148.528H51.0804C51.1684 148.272 51.2484 148.016 51.3204 147.76C51.4004 147.496 51.4844 147.24 51.5724 146.992L52.9284 143.152H54.5124V151H53.2284V147.412C53.2284 147.228 53.2324 147.028 53.2404 146.812C53.2564 146.596 53.2724 146.38 53.2884 146.164C53.3044 145.94 53.3244 145.724 53.3484 145.516C53.3724 145.3 53.3924 145.1 53.4084 144.916H53.3604L52.7244 146.74L51.4404 150.268H50.6124L49.3164 146.74L48.6924 144.916H48.6444C48.6604 145.1 48.6764 145.3 48.6924 145.516C48.7164 145.724 48.7364 145.94 48.7524 146.164C48.7764 146.38 48.7924 146.596 48.8004 146.812C48.8164 147.028 48.8244 147.228 48.8244 147.412V151H47.5644ZM58.7978 151.144C58.4298 151.144 58.0778 151.076 57.7418 150.94C57.4058 150.804 57.1058 150.604 56.8418 150.34C56.5858 150.076 56.3818 149.752 56.2298 149.368C56.0778 148.984 56.0018 148.548 56.0018 148.06C56.0018 147.572 56.0778 147.136 56.2298 146.752C56.3818 146.368 56.5858 146.044 56.8418 145.78C57.1058 145.516 57.4058 145.316 57.7418 145.18C58.0778 145.036 58.4298 144.964 58.7978 144.964C59.1658 144.964 59.5178 145.036 59.8538 145.18C60.1978 145.316 60.4978 145.516 60.7538 145.78C61.0098 146.044 61.2138 146.368 61.3658 146.752C61.5258 147.136 61.6058 147.572 61.6058 148.06C61.6058 148.548 61.5258 148.984 61.3658 149.368C61.2138 149.752 61.0098 150.076 60.7538 150.34C60.4978 150.604 60.1978 150.804 59.8538 150.94C59.5178 151.076 59.1658 151.144 58.7978 151.144ZM58.7978 150.016C59.2298 150.016 59.5698 149.84 59.8178 149.488C60.0658 149.128 60.1898 148.652 60.1898 148.06C60.1898 147.46 60.0658 146.984 59.8178 146.632C59.5698 146.272 59.2298 146.092 58.7978 146.092C58.3658 146.092 58.0258 146.272 57.7778 146.632C57.5378 146.984 57.4178 147.46 57.4178 148.06C57.4178 148.652 57.5378 149.128 57.7778 149.488C58.0258 149.84 58.3658 150.016 58.7978 150.016ZM62.9717 151V145.108H64.1117L64.2077 146.152H64.2557C64.4637 145.768 64.7157 145.476 65.0117 145.276C65.3077 145.068 65.6117 144.964 65.9237 144.964C66.2037 144.964 66.4277 145.004 66.5957 145.084L66.3557 146.284C66.2517 146.252 66.1557 146.228 66.0677 146.212C65.9797 146.196 65.8717 146.188 65.7437 146.188C65.5117 146.188 65.2677 146.28 65.0117 146.464C64.7557 146.64 64.5357 146.952 64.3517 147.4V151H62.9717ZM69.8511 151.144C69.4431 151.144 69.0631 151.076 68.7111 150.94C68.3591 150.796 68.0511 150.592 67.7871 150.328C67.5231 150.064 67.3151 149.744 67.1631 149.368C67.0191 148.984 66.9471 148.548 66.9471 148.06C66.9471 147.58 67.0231 147.148 67.1751 146.764C67.3271 146.38 67.5271 146.056 67.7751 145.792C68.0311 145.528 68.3231 145.324 68.6511 145.18C68.9791 145.036 69.3151 144.964 69.6591 144.964C70.0591 144.964 70.4111 145.032 70.7151 145.168C71.0191 145.304 71.2711 145.496 71.4711 145.744C71.6791 145.992 71.8351 146.288 71.9391 146.632C72.0431 146.976 72.0951 147.352 72.0951 147.76C72.0951 147.896 72.0871 148.024 72.0711 148.144C72.0631 148.264 72.0511 148.36 72.0351 148.432H68.2911C68.3551 148.96 68.5391 149.368 68.8431 149.656C69.1551 149.936 69.5511 150.076 70.0311 150.076C70.2871 150.076 70.5231 150.04 70.7391 149.968C70.9631 149.888 71.1831 149.78 71.3991 149.644L71.8671 150.508C71.5871 150.692 71.2751 150.844 70.9311 150.964C70.5871 151.084 70.2271 151.144 69.8511 151.144ZM68.2791 147.496H70.8951C70.8951 147.04 70.7951 146.684 70.5951 146.428C70.4031 146.164 70.1031 146.032 69.6951 146.032C69.3431 146.032 69.0351 146.156 68.7711 146.404C68.5071 146.652 68.3431 147.016 68.2791 147.496Z" fill="#19BC81"/>
</g>
<defs>
<filter id="filter0_d" x="-41" y="-165" width="251" height="380" filterUnits="userSpaceOnUse" color-interpolation-filters="sRGB">
<feFlood flood-opacity="0" result="BackgroundImageFix"/>
<feColorMatrix in="SourceAlpha" type="matrix" values="0 0 0 0 0 0 0 0 0 0 0 0 0 0 0 0 0 0 127 0"/>
<feOffset dy="2"/>
<feGaussianBlur stdDeviation="15"/>
<feColorMatrix type="matrix" values="0 0 0 0 0 0 0 0 0 0 0 0 0 0 0 0 0 0 0.1 0"/>
<feBlend mode="normal" in2="BackgroundImageFix" result="effect1_dropShadow"/>
<feBlend mode="normal" in="SourceGraphic" in2="effect1_dropShadow" result="shape"/>
</filter>
<clipPath id="clip0">
<rect width="1440" height="900" fill="white" transform="translate(-1228 -613)"/>
</clipPath>
</defs>
</svg>
