<svg width="201" height="159" viewBox="0 0 201 159" fill="none" xmlns="http://www.w3.org/2000/svg">
<g clip-path="url(#clip0)">
<rect width="1440" height="900" transform="translate(-1016 -108)" fill="white"/>
<g filter="url(#filter0_d)">
<rect x="-9" y="-5" width="218" height="166" rx="8" fill="white"/>
</g>
<rect width="143" height="69" transform="matrix(-1 0 0 1 174 56)" fill="white"/>
<path d="M171.607 124.747H171.783V125.233H171.854V124.747H172.029V124.688H171.607V124.747ZM171.407 125.241C171.462 125.241 171.506 125.223 171.541 125.187C171.575 125.151 171.592 125.102 171.592 125.042V125.029C171.592 124.989 171.585 124.953 171.57 124.922C171.554 124.89 171.533 124.865 171.505 124.848C171.478 124.83 171.448 124.821 171.415 124.821C171.363 124.821 171.322 124.838 171.293 124.873C171.263 124.908 171.249 124.957 171.249 125.022V125.051H171.523C171.522 125.091 171.511 125.123 171.488 125.148C171.466 125.172 171.438 125.184 171.403 125.184C171.379 125.184 171.358 125.179 171.341 125.169C171.324 125.159 171.309 125.146 171.296 125.13L171.254 125.163C171.288 125.215 171.339 125.241 171.407 125.241ZM171.415 124.878C171.443 124.878 171.467 124.888 171.486 124.908C171.505 124.929 171.517 124.957 171.521 124.994H171.318V124.989C171.32 124.953 171.33 124.926 171.347 124.907C171.364 124.887 171.386 124.878 171.415 124.878ZM171.032 124.976L170.943 124.828H170.862L170.994 125.029L170.858 125.233H170.938L171.031 125.082L171.125 125.233H171.205L171.069 125.029L171.201 124.828H171.121L171.032 124.976ZM170.694 124.73V124.828H170.618V124.882H170.694V125.133C170.694 125.149 170.691 125.161 170.684 125.17C170.677 125.178 170.666 125.182 170.65 125.182C170.642 125.182 170.631 125.18 170.617 125.177V125.233C170.635 125.238 170.653 125.241 170.67 125.241C170.701 125.241 170.724 125.231 170.74 125.213C170.755 125.194 170.763 125.167 170.763 125.133V124.882H170.837V124.828H170.763V124.73H170.694Z" fill="#A3A3A3"/>
<path d="M136.851 124.747H137.026V125.233H137.097V124.747H137.272V124.688H136.851V124.747ZM136.65 125.241C136.705 125.241 136.75 125.223 136.784 125.187C136.818 125.151 136.836 125.102 136.836 125.042V125.029C136.836 124.989 136.828 124.953 136.813 124.922C136.797 124.89 136.776 124.865 136.748 124.848C136.721 124.83 136.691 124.821 136.659 124.821C136.606 124.821 136.565 124.838 136.536 124.873C136.507 124.908 136.492 124.957 136.492 125.022V125.051H136.766C136.765 125.091 136.754 125.123 136.732 125.148C136.709 125.172 136.681 125.184 136.646 125.184C136.622 125.184 136.601 125.179 136.584 125.169C136.567 125.159 136.552 125.146 136.54 125.13L136.497 125.163C136.531 125.215 136.582 125.241 136.65 125.241ZM136.659 124.878C136.687 124.878 136.71 124.888 136.729 124.908C136.748 124.929 136.76 124.957 136.764 124.994H136.561V124.989C136.563 124.953 136.573 124.926 136.59 124.907C136.607 124.887 136.63 124.878 136.659 124.878ZM136.276 124.976L136.186 124.828H136.105L136.237 125.029L136.101 125.233H136.181L136.275 125.082L136.368 125.233H136.449L136.312 125.029L136.444 124.828H136.364L136.276 124.976ZM135.937 124.73V124.828H135.862V124.882H135.937V125.133C135.937 125.149 135.934 125.161 135.927 125.17C135.92 125.178 135.909 125.182 135.893 125.182C135.885 125.182 135.874 125.18 135.86 125.177V125.233C135.878 125.238 135.896 125.241 135.913 125.241C135.944 125.241 135.967 125.231 135.983 125.213C135.999 125.194 136.006 125.167 136.006 125.133V124.882H136.08V124.828H136.006V124.73H135.937Z" fill="#A3A3A3"/>
<path d="M101.994 124.747H102.169V125.233H102.241V124.747H102.416V124.688H101.994V124.747ZM101.794 125.241C101.848 125.241 101.893 125.223 101.928 125.187C101.962 125.151 101.979 125.102 101.979 125.042V125.029C101.979 124.989 101.972 124.953 101.956 124.922C101.941 124.89 101.919 124.865 101.892 124.848C101.864 124.83 101.834 124.821 101.802 124.821C101.749 124.821 101.709 124.838 101.679 124.873C101.65 124.908 101.636 124.957 101.636 125.022V125.051H101.91C101.909 125.091 101.897 125.123 101.875 125.148C101.853 125.172 101.824 125.184 101.79 125.184C101.765 125.184 101.745 125.179 101.728 125.169C101.711 125.159 101.696 125.146 101.683 125.13L101.641 125.163C101.675 125.215 101.726 125.241 101.794 125.241ZM101.802 124.878C101.83 124.878 101.854 124.888 101.873 124.908C101.891 124.929 101.903 124.957 101.908 124.994H101.705V124.989C101.707 124.953 101.716 124.926 101.733 124.907C101.75 124.887 101.773 124.878 101.802 124.878ZM101.419 124.976L101.329 124.828H101.248L101.381 125.029L101.244 125.233H101.324L101.418 125.082L101.512 125.233H101.592L101.455 125.029L101.588 124.828H101.508L101.419 124.976ZM101.081 124.73V124.828H101.005V124.882H101.081V125.133C101.081 125.149 101.077 125.161 101.071 125.17C101.064 125.178 101.052 125.182 101.036 125.182C101.028 125.182 101.017 125.18 101.003 125.177V125.233C101.022 125.238 101.039 125.241 101.056 125.241C101.087 125.241 101.111 125.231 101.126 125.213C101.142 125.194 101.15 125.167 101.15 125.133V124.882H101.224V124.828H101.15V124.73H101.081Z" fill="#A3A3A3"/>
<path d="M67.1387 124.747H67.3139V125.233H67.3854V124.747H67.5602V124.688H67.1387V124.747ZM66.9381 125.241C66.993 125.241 67.0376 125.223 67.0721 125.187C67.1065 125.151 67.1237 125.102 67.1237 125.042V125.029C67.1237 124.989 67.1161 124.953 67.1009 124.922C67.0854 124.89 67.064 124.865 67.0365 124.848C67.0088 124.83 66.9789 124.821 66.9467 124.821C66.894 124.821 66.8531 124.838 66.8239 124.873C66.7947 124.908 66.7801 124.957 66.7801 125.022V125.051H67.0545C67.0535 125.091 67.0419 125.123 67.0197 125.148C66.9972 125.172 66.9688 125.184 66.9343 125.184C66.9099 125.184 66.8892 125.179 66.8722 125.169C66.8552 125.159 66.8404 125.146 66.8276 125.13L66.7853 125.163C66.8193 125.215 66.8702 125.241 66.9381 125.241ZM66.9467 124.878C66.9746 124.878 66.9981 124.888 67.0171 124.908C67.036 124.929 67.0478 124.957 67.0522 124.994H66.8493V124.989C66.8513 124.953 66.8608 124.926 66.8778 124.907C66.8948 124.887 66.9177 124.878 66.9467 124.878ZM66.5637 124.976L66.4739 124.828H66.393L66.5255 125.029L66.3889 125.233H66.469L66.5626 125.082L66.6562 125.233H66.7367L66.6 125.029L66.7325 124.828H66.6524L66.5637 124.976ZM66.2253 124.73V124.828H66.1497V124.882H66.2253V125.133C66.2253 125.149 66.2219 125.161 66.2152 125.17C66.2085 125.178 66.197 125.182 66.1808 125.182C66.1728 125.182 66.1618 125.18 66.1478 125.177V125.233C66.166 125.238 66.1838 125.241 66.201 125.241C66.2319 125.241 66.2553 125.231 66.271 125.213C66.2867 125.194 66.2946 125.167 66.2946 125.133V124.882H66.3683V124.828H66.2946V124.73H66.2253Z" fill="#A3A3A3"/>
<path d="M32.2818 124.747H32.457V125.233H32.5285V124.747H32.7033V124.688H32.2818V124.747ZM32.0811 125.241C32.136 125.241 32.1807 125.223 32.2151 125.187C32.2496 125.151 32.2668 125.102 32.2668 125.042V125.029C32.2668 124.989 32.2592 124.953 32.244 124.922C32.2285 124.89 32.207 124.865 32.1796 124.848C32.1519 124.83 32.1219 124.821 32.0897 124.821C32.0371 124.821 31.9962 124.838 31.967 124.873C31.9378 124.908 31.9232 124.957 31.9232 125.022V125.051H32.1976C32.1966 125.091 32.185 125.123 32.1627 125.148C32.1403 125.172 32.1118 125.184 32.0774 125.184C32.0529 125.184 32.0322 125.179 32.0152 125.169C31.9983 125.159 31.9834 125.146 31.9707 125.13L31.9284 125.163C31.9623 125.215 32.0133 125.241 32.0811 125.241ZM32.0897 124.878C32.1177 124.878 32.1412 124.888 32.1601 124.908C32.1791 124.929 32.1908 124.957 32.1953 124.994H31.9924V124.989C31.9944 124.953 32.0039 124.926 32.0209 124.907C32.0378 124.887 32.0608 124.878 32.0897 124.878ZM31.7068 124.976L31.6169 124.828H31.5361L31.6686 125.029L31.532 125.233H31.6121L31.7057 125.082L31.7992 125.233H31.8797L31.7431 125.029L31.8756 124.828H31.7955L31.7068 124.976ZM31.3684 124.73V124.828H31.2928V124.882H31.3684V125.133C31.3684 125.149 31.365 125.161 31.3583 125.17C31.3515 125.178 31.34 125.182 31.3238 125.182C31.3158 125.182 31.3049 125.18 31.2909 125.177V125.233C31.3091 125.238 31.3268 125.241 31.344 125.241C31.375 125.241 31.3983 125.231 31.414 125.213C31.4298 125.194 31.4376 125.167 31.4376 125.133V124.882H31.5114V124.828H31.4376V124.73H31.3684Z" fill="#A3A3A3"/>
<path d="M172.355 123.851C172.355 123.932 172.369 123.992 172.397 124.032C172.424 124.071 172.468 124.091 172.527 124.091C172.585 124.091 172.628 124.072 172.656 124.033C172.684 123.994 172.698 123.937 172.699 123.86V123.768C172.699 123.688 172.685 123.628 172.658 123.589C172.63 123.55 172.587 123.531 172.527 123.531C172.469 123.531 172.426 123.55 172.398 123.587C172.37 123.625 172.356 123.683 172.355 123.761V123.851ZM172.424 123.756C172.424 123.698 172.433 123.655 172.449 123.628C172.466 123.601 172.492 123.588 172.527 123.588C172.563 123.588 172.589 123.601 172.605 123.628C172.621 123.654 172.63 123.696 172.63 123.751V123.862C172.63 123.921 172.622 123.964 172.605 123.992C172.587 124.02 172.561 124.034 172.527 124.034C172.492 124.034 172.467 124.021 172.451 123.995C172.434 123.968 172.425 123.926 172.424 123.87V123.756Z" fill="#A3A3A3"/>
<path d="M172.665 120.437L172.637 120.165H172.358V120.229H172.579L172.595 120.378C172.568 120.362 172.538 120.354 172.504 120.354C172.455 120.354 172.415 120.37 172.386 120.403C172.357 120.436 172.342 120.48 172.342 120.536C172.342 120.592 172.357 120.637 172.388 120.669C172.418 120.701 172.46 120.718 172.515 120.718C172.563 120.718 172.602 120.704 172.633 120.677C172.663 120.651 172.68 120.614 172.685 120.567H172.619C172.615 120.598 172.604 120.621 172.586 120.637C172.568 120.653 172.544 120.661 172.515 120.661C172.483 120.661 172.457 120.65 172.439 120.628C172.421 120.606 172.411 120.576 172.411 120.537C172.411 120.501 172.421 120.471 172.441 120.449C172.461 120.427 172.487 120.416 172.52 120.416C172.551 120.416 172.574 120.423 172.591 120.436L172.61 120.451L172.665 120.437Z" fill="#A3A3A3"/>
<path d="M172.9 117.337H172.97V116.875L173.109 116.926V116.863L172.911 116.789H172.9V117.337ZM172.355 117.104C172.355 117.185 172.369 117.246 172.397 117.285C172.424 117.324 172.468 117.344 172.527 117.344C172.585 117.344 172.628 117.325 172.656 117.287C172.684 117.248 172.698 117.19 172.699 117.114V117.021C172.699 116.941 172.685 116.881 172.658 116.843C172.63 116.804 172.587 116.784 172.527 116.784C172.469 116.784 172.426 116.803 172.398 116.841C172.37 116.878 172.356 116.936 172.355 117.014V117.104ZM172.424 117.009C172.424 116.951 172.433 116.908 172.449 116.881C172.466 116.855 172.492 116.841 172.527 116.841C172.563 116.841 172.589 116.854 172.605 116.881C172.621 116.908 172.63 116.949 172.63 117.004V117.115C172.63 117.174 172.622 117.218 172.605 117.246C172.587 117.274 172.561 117.288 172.527 117.288C172.492 117.288 172.467 117.274 172.451 117.248C172.434 117.221 172.425 117.18 172.424 117.123V117.009Z" fill="#A3A3A3"/>
<path d="M172.9 113.963H172.97V113.502L173.109 113.553V113.49L172.911 113.416H172.9V113.963ZM172.665 113.69L172.637 113.418H172.358V113.482H172.579L172.595 113.631C172.568 113.615 172.538 113.607 172.504 113.607C172.455 113.607 172.415 113.624 172.386 113.657C172.357 113.689 172.342 113.734 172.342 113.79C172.342 113.846 172.357 113.89 172.388 113.923C172.418 113.955 172.46 113.971 172.515 113.971C172.563 113.971 172.602 113.957 172.633 113.931C172.663 113.904 172.68 113.867 172.685 113.82H172.619C172.615 113.851 172.604 113.875 172.586 113.891C172.568 113.906 172.544 113.914 172.515 113.914C172.483 113.914 172.457 113.903 172.439 113.881C172.421 113.859 172.411 113.829 172.411 113.79C172.411 113.754 172.421 113.725 172.441 113.703C172.461 113.681 172.487 113.669 172.52 113.669C172.551 113.669 172.574 113.676 172.591 113.689L172.61 113.704L172.665 113.69Z" fill="#A3A3A3"/>
<path d="M172.77 110.667H173.128V110.617L172.939 110.407C172.911 110.376 172.892 110.35 172.881 110.33C172.87 110.31 172.865 110.29 172.865 110.268C172.865 110.24 172.874 110.217 172.891 110.198C172.908 110.18 172.931 110.171 172.96 110.171C172.994 110.171 173.021 110.181 173.04 110.201C173.059 110.22 173.069 110.247 173.069 110.282H173.138C173.138 110.232 173.122 110.191 173.09 110.161C173.057 110.13 173.014 110.114 172.96 110.114C172.909 110.114 172.869 110.127 172.84 110.154C172.81 110.181 172.795 110.216 172.795 110.26C172.795 110.314 172.83 110.378 172.898 110.452L173.044 110.61H172.77V110.667ZM172.355 110.434C172.355 110.515 172.369 110.576 172.397 110.615C172.424 110.654 172.468 110.674 172.527 110.674C172.585 110.674 172.628 110.655 172.656 110.616C172.684 110.578 172.698 110.52 172.699 110.444V110.351C172.699 110.271 172.685 110.211 172.658 110.173C172.63 110.134 172.587 110.114 172.527 110.114C172.469 110.114 172.426 110.133 172.398 110.171C172.37 110.208 172.356 110.266 172.355 110.344V110.434ZM172.424 110.339C172.424 110.281 172.433 110.238 172.449 110.211C172.466 110.184 172.492 110.171 172.527 110.171C172.563 110.171 172.589 110.184 172.605 110.211C172.621 110.238 172.63 110.279 172.63 110.334V110.445C172.63 110.504 172.622 110.547 172.605 110.576C172.587 110.604 172.561 110.618 172.527 110.618C172.492 110.618 172.467 110.604 172.451 110.578C172.434 110.551 172.425 110.51 172.424 110.453V110.339Z" fill="#A3A3A3"/>
<path d="M172.77 107.293H173.128V107.244L172.939 107.034C172.911 107.002 172.892 106.977 172.881 106.957C172.87 106.937 172.865 106.916 172.865 106.895C172.865 106.867 172.874 106.843 172.891 106.825C172.908 106.807 172.931 106.798 172.96 106.798C172.994 106.798 173.021 106.808 173.04 106.827C173.059 106.847 173.069 106.874 173.069 106.909H173.138C173.138 106.859 173.122 106.818 173.09 106.787C173.057 106.756 173.014 106.741 172.96 106.741C172.909 106.741 172.869 106.754 172.84 106.781C172.81 106.807 172.795 106.843 172.795 106.887C172.795 106.94 172.83 107.004 172.898 107.078L173.044 107.237H172.77V107.293ZM172.665 107.02L172.637 106.748H172.358V106.812H172.579L172.595 106.961C172.568 106.945 172.538 106.937 172.504 106.937C172.455 106.937 172.415 106.954 172.386 106.987C172.357 107.019 172.342 107.064 172.342 107.12C172.342 107.176 172.357 107.22 172.388 107.253C172.418 107.285 172.46 107.301 172.515 107.301C172.563 107.301 172.602 107.287 172.633 107.261C172.663 107.234 172.68 107.197 172.685 107.15H172.619C172.615 107.181 172.604 107.205 172.586 107.221C172.568 107.236 172.544 107.244 172.515 107.244C172.483 107.244 172.457 107.233 172.439 107.211C172.421 107.189 172.411 107.159 172.411 107.12C172.411 107.084 172.421 107.055 172.441 107.033C172.461 107.011 172.487 106.999 172.52 106.999C172.551 106.999 172.574 107.006 172.591 107.019L172.61 107.034L172.665 107.02Z" fill="#A3A3A3"/>
<path d="M173.027 103.614H172.975C172.942 103.613 172.916 103.605 172.898 103.588C172.879 103.571 172.87 103.549 172.87 103.52C172.87 103.456 172.901 103.424 172.965 103.424C172.995 103.424 173.019 103.433 173.037 103.45C173.055 103.467 173.064 103.49 173.064 103.518H173.133C173.133 103.475 173.117 103.439 173.086 103.41C173.054 103.382 173.014 103.367 172.965 103.367C172.914 103.367 172.873 103.381 172.844 103.408C172.815 103.435 172.8 103.473 172.8 103.522C172.8 103.545 172.808 103.568 172.824 103.591C172.839 103.613 172.86 103.629 172.886 103.64C172.856 103.65 172.833 103.666 172.817 103.688C172.8 103.709 172.792 103.736 172.792 103.768C172.792 103.817 172.808 103.856 172.84 103.884C172.872 103.913 172.914 103.927 172.965 103.927C173.016 103.927 173.058 103.914 173.09 103.886C173.122 103.858 173.138 103.822 173.138 103.776H173.068C173.068 103.805 173.059 103.828 173.04 103.845C173.021 103.862 172.996 103.871 172.965 103.871C172.931 103.871 172.906 103.862 172.888 103.845C172.87 103.827 172.861 103.802 172.861 103.769C172.861 103.738 172.871 103.713 172.891 103.696C172.91 103.68 172.938 103.671 172.975 103.67H173.027V103.614ZM172.355 103.688C172.355 103.769 172.369 103.829 172.397 103.868C172.424 103.908 172.468 103.927 172.527 103.927C172.585 103.927 172.628 103.908 172.656 103.87C172.684 103.831 172.698 103.773 172.699 103.697V103.604C172.699 103.524 172.685 103.465 172.658 103.426C172.63 103.387 172.587 103.367 172.527 103.367C172.469 103.367 172.426 103.386 172.398 103.424C172.37 103.461 172.356 103.519 172.355 103.598V103.688ZM172.424 103.593C172.424 103.534 172.433 103.491 172.449 103.465C172.466 103.438 172.492 103.424 172.527 103.424C172.563 103.424 172.589 103.438 172.605 103.464C172.621 103.491 172.63 103.532 172.63 103.588V103.698C172.63 103.757 172.622 103.801 172.605 103.829C172.587 103.857 172.561 103.871 172.527 103.871C172.492 103.871 172.467 103.858 172.451 103.831C172.434 103.805 172.425 103.763 172.424 103.706V103.593Z" fill="#A3A3A3"/>
<path d="M173.027 100.24H172.975C172.942 100.24 172.916 100.231 172.898 100.215C172.879 100.198 172.87 100.175 172.87 100.147C172.87 100.083 172.901 100.051 172.965 100.051C172.995 100.051 173.019 100.06 173.037 100.077C173.055 100.094 173.064 100.116 173.064 100.145H173.133C173.133 100.101 173.117 100.066 173.086 100.037C173.054 100.008 173.014 99.9941 172.965 99.9941C172.914 99.9941 172.873 100.008 172.844 100.035C172.815 100.062 172.8 100.1 172.8 100.148C172.8 100.172 172.808 100.195 172.824 100.217C172.839 100.239 172.86 100.256 172.886 100.267C172.856 100.277 172.833 100.292 172.817 100.314C172.8 100.336 172.792 100.363 172.792 100.395C172.792 100.444 172.808 100.482 172.84 100.511C172.872 100.54 172.914 100.554 172.965 100.554C173.016 100.554 173.058 100.54 173.09 100.513C173.122 100.485 173.138 100.448 173.138 100.403H173.068C173.068 100.432 173.059 100.455 173.04 100.472C173.021 100.489 172.996 100.498 172.965 100.498C172.931 100.498 172.906 100.489 172.888 100.471C172.87 100.454 172.861 100.429 172.861 100.396C172.861 100.364 172.871 100.34 172.891 100.323C172.91 100.306 172.938 100.297 172.975 100.297H173.027V100.24ZM172.665 100.273L172.637 100.002H172.358V100.066H172.579L172.595 100.214C172.568 100.199 172.538 100.191 172.504 100.191C172.455 100.191 172.415 100.207 172.386 100.24C172.357 100.273 172.342 100.317 172.342 100.373C172.342 100.429 172.357 100.473 172.388 100.506C172.418 100.538 172.46 100.554 172.515 100.554C172.563 100.554 172.602 100.541 172.633 100.514C172.663 100.487 172.68 100.45 172.685 100.403H172.619C172.615 100.434 172.604 100.458 172.586 100.474C172.568 100.49 172.544 100.498 172.515 100.498C172.483 100.498 172.457 100.487 172.439 100.465C172.421 100.443 172.411 100.412 172.411 100.374C172.411 100.337 172.421 100.308 172.441 100.286C172.461 100.264 172.487 100.253 172.52 100.253C172.551 100.253 172.574 100.259 172.591 100.273L172.61 100.288L172.665 100.273Z" fill="#A3A3A3"/>
<path d="M172.835 97.0669H172.76V97.1235H172.835V97.25H172.905V97.1235H173.153V97.0827L172.909 96.7049H172.835V97.0669ZM173.074 97.0669H172.905V96.7997L172.913 96.8146L173.074 97.0669ZM172.355 97.0175C172.355 97.0986 172.369 97.1589 172.397 97.1983C172.424 97.2378 172.468 97.2575 172.527 97.2575C172.585 97.2575 172.628 97.2383 172.656 97.1998C172.684 97.1612 172.698 97.1035 172.699 97.0269V96.9344C172.699 96.8543 172.685 96.7948 172.658 96.7559C172.63 96.7169 172.587 96.6975 172.527 96.6975C172.469 96.6975 172.426 96.7163 172.398 96.754C172.37 96.7914 172.356 96.8493 172.355 96.9277V97.0175ZM172.424 96.9228C172.424 96.8642 172.433 96.8215 172.449 96.7948C172.466 96.7678 172.492 96.7544 172.527 96.7544C172.563 96.7544 172.589 96.7677 172.605 96.7944C172.621 96.8211 172.63 96.8622 172.63 96.9176V97.0284C172.63 97.0873 172.622 97.1308 172.605 97.159C172.587 97.187 172.561 97.201 172.527 97.201C172.492 97.201 172.467 97.1877 172.451 97.1613C172.434 97.1348 172.425 97.0931 172.424 97.0362V96.9228Z" fill="#A3A3A3"/>
<path d="M172.835 93.6936H172.76V93.7501H172.835V93.8767H172.905V93.7501H173.153V93.7093L172.909 93.3316H172.835V93.6936ZM173.074 93.6936H172.905V93.4263L172.913 93.4413L173.074 93.6936ZM172.665 93.6034L172.637 93.3316H172.358V93.3956H172.579L172.595 93.5443C172.568 93.5285 172.538 93.5207 172.504 93.5207C172.455 93.5207 172.415 93.5371 172.386 93.5701C172.357 93.6028 172.342 93.6471 172.342 93.703C172.342 93.7591 172.357 93.8034 172.388 93.8359C172.418 93.8681 172.46 93.8842 172.515 93.8842C172.563 93.8842 172.602 93.8708 172.633 93.8441C172.663 93.8174 172.68 93.7805 172.685 93.7333H172.619C172.615 93.7645 172.604 93.7881 172.586 93.8041C172.568 93.8198 172.544 93.8276 172.515 93.8276C172.483 93.8276 172.457 93.8167 172.439 93.7947C172.421 93.7727 172.411 93.7424 172.411 93.7037C172.411 93.6673 172.421 93.6381 172.441 93.6161C172.461 93.5939 172.487 93.5828 172.52 93.5828C172.551 93.5828 172.574 93.5894 172.591 93.6027L172.61 93.6176L172.665 93.6034Z" fill="#A3A3A3"/>
<path d="M173.096 90.23L173.068 89.9582H172.789V90.0223H173.009L173.026 90.1709C172.999 90.1552 172.969 90.1473 172.935 90.1473C172.885 90.1473 172.846 90.1638 172.816 90.1967C172.787 90.2294 172.773 90.2737 172.773 90.3296C172.773 90.3858 172.788 90.43 172.818 90.4625C172.848 90.4947 172.891 90.5108 172.945 90.5108C172.993 90.5108 173.033 90.4974 173.063 90.4707C173.094 90.444 173.111 90.4071 173.115 90.3599H173.05C173.045 90.3911 173.034 90.4147 173.016 90.4307C172.998 90.4464 172.975 90.4543 172.945 90.4543C172.913 90.4543 172.888 90.4433 172.87 90.4213C172.851 90.3994 172.842 90.369 172.842 90.3303C172.842 90.2939 172.852 90.2647 172.872 90.2427C172.892 90.2205 172.918 90.2094 172.951 90.2094C172.981 90.2094 173.005 90.216 173.022 90.2293L173.04 90.2442L173.096 90.23ZM172.355 90.2708C172.355 90.3519 172.369 90.4122 172.397 90.4516C172.424 90.4911 172.468 90.5108 172.527 90.5108C172.585 90.5108 172.628 90.4916 172.656 90.4531C172.684 90.4145 172.698 90.3568 172.699 90.2802V90.1877C172.699 90.1076 172.685 90.0481 172.658 90.0092C172.63 89.9702 172.587 89.9508 172.527 89.9508C172.469 89.9508 172.426 89.9696 172.398 90.0073C172.37 90.0447 172.356 90.1026 172.355 90.181V90.2708ZM172.424 90.1761C172.424 90.1175 172.433 90.0748 172.449 90.0481C172.466 90.0211 172.492 90.0077 172.527 90.0077C172.563 90.0077 172.589 90.021 172.605 90.0477C172.621 90.0744 172.63 90.1155 172.63 90.1709V90.2817C172.63 90.3406 172.622 90.3841 172.605 90.4123C172.587 90.4403 172.561 90.4543 172.527 90.4543C172.492 90.4543 172.467 90.441 172.451 90.4146C172.434 90.3881 172.425 90.3464 172.424 90.2895V90.1761Z" fill="#A3A3A3"/>
<path d="M173.096 86.8567L173.068 86.5849H172.789V86.6489H173.009L173.026 86.7976C172.999 86.7818 172.969 86.774 172.935 86.774C172.885 86.774 172.846 86.7904 172.816 86.8234C172.787 86.8561 172.773 86.9004 172.773 86.9563C172.773 87.0124 172.788 87.0567 172.818 87.0892C172.848 87.1214 172.891 87.1375 172.945 87.1375C172.993 87.1375 173.033 87.1241 173.063 87.0974C173.094 87.0707 173.111 87.0338 173.115 86.9866H173.05C173.045 87.0178 173.034 87.0414 173.016 87.0574C172.998 87.0731 172.975 87.0809 172.945 87.0809C172.913 87.0809 172.888 87.07 172.87 87.048C172.851 87.026 172.842 86.9957 172.842 86.957C172.842 86.9206 172.852 86.8914 172.872 86.8694C172.892 86.8472 172.918 86.8361 172.951 86.8361C172.981 86.8361 173.005 86.8427 173.022 86.856L173.04 86.8709L173.096 86.8567ZM172.665 86.8567L172.637 86.5849H172.358V86.6489H172.579L172.595 86.7976C172.568 86.7818 172.538 86.774 172.504 86.774C172.455 86.774 172.415 86.7904 172.386 86.8234C172.357 86.8561 172.342 86.9004 172.342 86.9563C172.342 87.0124 172.357 87.0567 172.388 87.0892C172.418 87.1214 172.46 87.1375 172.515 87.1375C172.563 87.1375 172.602 87.1241 172.633 87.0974C172.663 87.0707 172.68 87.0338 172.685 86.9866H172.619C172.615 87.0178 172.604 87.0414 172.586 87.0574C172.568 87.0731 172.544 87.0809 172.515 87.0809C172.483 87.0809 172.457 87.07 172.439 87.048C172.421 87.026 172.411 86.9957 172.411 86.957C172.411 86.9206 172.421 86.8914 172.441 86.8694C172.461 86.8472 172.487 86.8361 172.52 86.8361C172.551 86.8361 172.574 86.8427 172.591 86.856L172.61 86.8709L172.665 86.8567Z" fill="#A3A3A3"/>
<path d="M172.856 83.2879V83.3467H172.868C172.922 83.3477 172.965 83.3636 172.997 83.3946C173.029 83.4255 173.048 83.4691 173.053 83.5252C173.024 83.4923 172.985 83.4758 172.935 83.4758C172.888 83.4758 172.85 83.4925 172.822 83.526C172.793 83.5594 172.779 83.6026 172.779 83.6555C172.779 83.7116 172.794 83.7566 172.825 83.7903C172.855 83.824 172.896 83.8408 172.948 83.8408C173 83.8408 173.042 83.8208 173.075 83.7809C173.107 83.7407 173.123 83.6891 173.123 83.6259V83.5993C173.123 83.499 173.102 83.4224 173.059 83.3695C173.016 83.3163 172.953 83.2891 172.868 83.2879H172.856ZM172.947 83.5335C172.97 83.5335 172.992 83.5406 173.012 83.5548C173.032 83.569 173.046 83.5869 173.054 83.6083V83.6338C173.054 83.6787 173.044 83.7149 173.023 83.7423C173.003 83.7698 172.978 83.7835 172.948 83.7835C172.917 83.7835 172.892 83.772 172.874 83.7491C172.856 83.7261 172.848 83.6961 172.848 83.6589C172.848 83.6214 172.857 83.5912 172.875 83.5683C172.893 83.5451 172.917 83.5335 172.947 83.5335ZM172.355 83.6008C172.355 83.682 172.369 83.7422 172.397 83.7817C172.424 83.8211 172.468 83.8408 172.527 83.8408C172.585 83.8408 172.628 83.8216 172.656 83.7832C172.684 83.7445 172.698 83.6868 172.699 83.6102V83.5177C172.699 83.4376 172.685 83.3781 172.658 83.3392C172.63 83.3002 172.587 83.2808 172.527 83.2808C172.469 83.2808 172.426 83.2996 172.398 83.3373C172.37 83.3747 172.356 83.4326 172.355 83.511V83.6008ZM172.424 83.5061C172.424 83.4475 172.433 83.4048 172.449 83.3781C172.466 83.3512 172.492 83.3377 172.527 83.3377C172.563 83.3377 172.589 83.351 172.605 83.3777C172.621 83.4044 172.63 83.4455 172.63 83.5009V83.6117C172.63 83.6706 172.622 83.7141 172.605 83.7423C172.587 83.7703 172.561 83.7843 172.527 83.7843C172.492 83.7843 172.467 83.771 172.451 83.7446C172.434 83.7181 172.425 83.6765 172.424 83.6196V83.5061Z" fill="#A3A3A3"/>
<path d="M172.856 79.9146V79.9733H172.868C172.922 79.9743 172.965 79.9903 172.997 80.0213C173.029 80.0522 173.048 80.0957 173.053 80.1519C173.024 80.119 172.985 80.1025 172.935 80.1025C172.888 80.1025 172.85 80.1192 172.822 80.1527C172.793 80.1861 172.779 80.2293 172.779 80.2822C172.779 80.3383 172.794 80.3832 172.825 80.4169C172.855 80.4506 172.896 80.4675 172.948 80.4675C173 80.4675 173.042 80.4475 173.075 80.4076C173.107 80.3674 173.123 80.3157 173.123 80.2526V80.226C173.123 80.1257 173.102 80.0491 173.059 79.9962C173.016 79.943 172.953 79.9158 172.868 79.9146H172.856ZM172.947 80.1601C172.97 80.1601 172.992 80.1673 173.012 80.1815C173.032 80.1957 173.046 80.2135 173.054 80.235V80.2605C173.054 80.3054 173.044 80.3416 173.023 80.369C173.003 80.3965 172.978 80.4102 172.948 80.4102C172.917 80.4102 172.892 80.3987 172.874 80.3758C172.856 80.3528 172.848 80.3227 172.848 80.2855C172.848 80.2481 172.857 80.2179 172.875 80.195C172.893 80.1717 172.917 80.1601 172.947 80.1601ZM172.665 80.1867L172.637 79.9149H172.358V79.979H172.579L172.595 80.1276C172.568 80.1118 172.538 80.104 172.504 80.104C172.455 80.104 172.415 80.1205 172.386 80.1534C172.357 80.1861 172.342 80.2304 172.342 80.2863C172.342 80.3424 172.357 80.3867 172.388 80.4192C172.418 80.4514 172.46 80.4675 172.515 80.4675C172.563 80.4675 172.602 80.4541 172.633 80.4274C172.663 80.4007 172.68 80.3638 172.685 80.3166H172.619C172.615 80.3478 172.604 80.3714 172.586 80.3874C172.568 80.4031 172.544 80.411 172.515 80.411C172.483 80.411 172.457 80.4 172.439 80.378C172.421 80.356 172.411 80.3257 172.411 80.287C172.411 80.2506 172.421 80.2214 172.441 80.1994C172.461 80.1772 172.487 80.1661 172.52 80.1661C172.551 80.1661 172.574 80.1727 172.591 80.186L172.61 80.2009L172.665 80.1867Z" fill="#A3A3A3"/>
<path d="M172.776 76.5806L173.001 77.0867H173.074L172.849 76.5985H173.144V76.5416H172.776V76.5806ZM172.355 76.8542C172.355 76.9353 172.369 76.9956 172.397 77.035C172.424 77.0744 172.468 77.0942 172.527 77.0942C172.585 77.0942 172.628 77.0749 172.656 77.0365C172.684 76.9978 172.698 76.9402 172.699 76.8636V76.7711C172.699 76.691 172.685 76.6315 172.658 76.5925C172.63 76.5536 172.587 76.5341 172.527 76.5341C172.469 76.5341 172.426 76.553 172.398 76.5907C172.37 76.6281 172.356 76.686 172.355 76.7644V76.8542ZM172.424 76.7595C172.424 76.7008 172.433 76.6582 172.449 76.6315C172.466 76.6045 172.492 76.591 172.527 76.591C172.563 76.591 172.589 76.6044 172.605 76.6311C172.621 76.6578 172.63 76.6988 172.63 76.7542V76.8651C172.63 76.924 172.622 76.9675 172.605 76.9957C172.587 77.0237 172.561 77.0376 172.527 77.0376C172.492 77.0376 172.467 77.0244 172.451 76.9979C172.434 76.9715 172.425 76.9298 172.424 76.8729V76.7595Z" fill="#A3A3A3"/>
<path d="M172.776 73.2072L173.001 73.7133H173.074L172.849 73.2252H173.144V73.1683H172.776V73.2072ZM172.665 73.4401L172.637 73.1683H172.358V73.2323H172.579L172.595 73.3809C172.568 73.3652 172.538 73.3573 172.504 73.3573C172.455 73.3573 172.415 73.3738 172.386 73.4068C172.357 73.4394 172.342 73.4837 172.342 73.5397C172.342 73.5958 172.357 73.6401 172.388 73.6725C172.418 73.7047 172.46 73.7208 172.515 73.7208C172.563 73.7208 172.602 73.7075 172.633 73.6808C172.663 73.6541 172.68 73.6171 172.685 73.57H172.619C172.615 73.6012 172.604 73.6248 172.586 73.6407C172.568 73.6564 172.544 73.6643 172.515 73.6643C172.483 73.6643 172.457 73.6533 172.439 73.6314C172.421 73.6094 172.411 73.5791 172.411 73.5404C172.411 73.504 172.421 73.4748 172.441 73.4528C172.461 73.4306 172.487 73.4195 172.52 73.4195C172.551 73.4195 172.574 73.4261 172.591 73.4393L172.61 73.4543L172.665 73.4401Z" fill="#A3A3A3"/>
<path d="M172.797 70.0139C172.797 70.0411 172.804 70.0653 172.819 70.0865C172.833 70.1077 172.852 70.1243 172.877 70.1363C172.848 70.1485 172.826 70.1664 172.809 70.1898C172.793 70.2133 172.784 70.2399 172.784 70.2696C172.784 70.3167 172.8 70.3543 172.832 70.3822C172.864 70.4102 172.906 70.4242 172.958 70.4242C173.01 70.4242 173.052 70.4102 173.084 70.3822C173.115 70.354 173.131 70.3165 173.131 70.2696C173.131 70.2401 173.123 70.2135 173.107 70.1898C173.091 70.1661 173.068 70.1482 173.04 70.1359C173.064 70.1239 173.083 70.1073 173.097 70.0861C173.111 70.0649 173.118 70.0408 173.118 70.0139C173.118 69.968 173.103 69.9315 173.074 69.9046C173.045 69.8776 173.006 69.8641 172.958 69.8641C172.91 69.8641 172.871 69.8776 172.842 69.9046C172.812 69.9315 172.797 69.968 172.797 70.0139ZM172.853 70.2681C172.853 70.2376 172.863 70.2128 172.883 70.1936C172.902 70.1744 172.927 70.1648 172.958 70.1648C172.99 70.1648 173.015 70.1742 173.034 70.1932C173.052 70.2122 173.062 70.2371 173.062 70.2681C173.062 70.299 173.053 70.3233 173.034 70.3411C173.016 70.3588 172.99 70.3676 172.958 70.3676C172.925 70.3676 172.9 70.3588 172.881 70.3411C172.863 70.3231 172.853 70.2988 172.853 70.2681ZM172.958 69.921C172.985 69.921 173.007 69.9295 173.024 69.9465C173.041 69.9632 173.049 69.9861 173.049 70.015C173.049 70.0427 173.041 70.0652 173.024 70.0824C173.007 70.0994 172.985 70.1078 172.958 70.1078C172.93 70.1078 172.908 70.0994 172.891 70.0824C172.875 70.0652 172.866 70.0427 172.866 70.015C172.866 69.9873 172.875 69.9647 172.892 69.9473C172.909 69.9298 172.931 69.921 172.958 69.921ZM172.355 70.1842C172.355 70.2653 172.369 70.3256 172.397 70.365C172.424 70.4045 172.468 70.4242 172.527 70.4242C172.585 70.4242 172.628 70.405 172.656 70.3665C172.684 70.3278 172.698 70.2702 172.699 70.1936V70.1011C172.699 70.021 172.685 69.9615 172.658 69.9225C172.63 69.8836 172.587 69.8641 172.527 69.8641C172.469 69.8641 172.426 69.883 172.398 69.9207C172.37 69.9581 172.356 70.016 172.355 70.0944V70.1842ZM172.424 70.0895C172.424 70.0309 172.433 69.9882 172.449 69.9615C172.466 69.9345 172.492 69.921 172.527 69.921C172.563 69.921 172.589 69.9344 172.605 69.9611C172.621 69.9878 172.63 70.0289 172.63 70.0843V70.1951C172.63 70.254 172.622 70.2975 172.605 70.3257C172.587 70.3537 172.561 70.3676 172.527 70.3676C172.492 70.3676 172.467 70.3544 172.451 70.328C172.434 70.3015 172.425 70.2598 172.424 70.2029V70.0895Z" fill="#A3A3A3"/>
<path d="M172.797 66.6405C172.797 66.6677 172.804 66.6919 172.819 66.7131C172.833 66.7343 172.852 66.7509 172.877 66.7629C172.848 66.7751 172.826 66.793 172.809 66.8164C172.793 66.8399 172.784 66.8665 172.784 66.8962C172.784 66.9434 172.8 66.9809 172.832 67.0089C172.864 67.0368 172.906 67.0508 172.958 67.0508C173.01 67.0508 173.052 67.0368 173.084 67.0089C173.115 66.9807 173.131 66.9431 173.131 66.8962C173.131 66.8667 173.123 66.8402 173.107 66.8164C173.091 66.7927 173.068 66.7748 173.04 66.7625C173.064 66.7506 173.083 66.734 173.097 66.7128C173.111 66.6915 173.118 66.6675 173.118 66.6405C173.118 66.5946 173.103 66.5581 173.074 66.5312C173.045 66.5042 173.006 66.4908 172.958 66.4908C172.91 66.4908 172.871 66.5042 172.842 66.5312C172.812 66.5581 172.797 66.5946 172.797 66.6405ZM172.853 66.8947C172.853 66.8642 172.863 66.8394 172.883 66.8202C172.902 66.801 172.927 66.7914 172.958 66.7914C172.99 66.7914 173.015 66.8009 173.034 66.8198C173.052 66.8388 173.062 66.8637 173.062 66.8947C173.062 66.9256 173.053 66.95 173.034 66.9677C173.016 66.9854 172.99 66.9943 172.958 66.9943C172.925 66.9943 172.9 66.9854 172.881 66.9677C172.863 66.9497 172.853 66.9254 172.853 66.8947ZM172.958 66.5477C172.985 66.5477 173.007 66.5562 173.024 66.5731C173.041 66.5898 173.049 66.6127 173.049 66.6416C173.049 66.6693 173.041 66.6918 173.024 66.709C173.007 66.726 172.985 66.7345 172.958 66.7345C172.93 66.7345 172.908 66.726 172.891 66.709C172.875 66.6918 172.866 66.6693 172.866 66.6416C172.866 66.6139 172.875 66.5913 172.892 66.5739C172.909 66.5564 172.931 66.5477 172.958 66.5477ZM172.665 66.77L172.637 66.4983H172.358V66.5623H172.579L172.595 66.7109C172.568 66.6952 172.538 66.6873 172.504 66.6873C172.455 66.6873 172.415 66.7038 172.386 66.7367C172.357 66.7694 172.342 66.8137 172.342 66.8696C172.342 66.9258 172.357 66.9701 172.388 67.0025C172.418 67.0347 172.46 67.0508 172.515 67.0508C172.563 67.0508 172.602 67.0374 172.633 67.0107C172.663 66.984 172.68 66.9471 172.685 66.8999H172.619C172.615 66.9311 172.604 66.9547 172.586 66.9707C172.568 66.9864 172.544 66.9943 172.515 66.9943C172.483 66.9943 172.457 66.9833 172.439 66.9613C172.421 66.9394 172.411 66.909 172.411 66.8704C172.411 66.8339 172.421 66.8047 172.441 66.7828C172.461 66.7605 172.487 66.7494 172.52 66.7494C172.551 66.7494 172.574 66.7561 172.591 66.7693L172.61 66.7843L172.665 66.77Z" fill="#A3A3A3"/>
<path d="M172.862 63.4304C172.877 63.4476 172.894 63.4615 172.914 63.472C172.934 63.4824 172.956 63.4877 172.98 63.4877C173.011 63.4877 173.039 63.4799 173.062 63.4645C173.086 63.449 173.104 63.4273 173.116 63.3993C173.129 63.3711 173.135 63.3401 173.135 63.3061C173.135 63.2697 173.129 63.2369 173.115 63.2077C173.101 63.1785 173.081 63.1561 173.056 63.1407C173.03 63.1252 173 63.1174 172.967 63.1174C172.913 63.1174 172.87 63.1377 172.839 63.1781C172.808 63.2183 172.792 63.2732 172.792 63.3428V63.363C172.792 63.4691 172.813 63.5466 172.855 63.5955C172.897 63.6442 172.961 63.6691 173.045 63.6704H173.059V63.612H173.044C172.987 63.611 172.943 63.5961 172.912 63.5674C172.882 63.5385 172.865 63.4928 172.862 63.4304ZM172.969 63.4304C172.946 63.4304 172.924 63.4233 172.905 63.4091C172.885 63.3948 172.871 63.3772 172.862 63.3563V63.3286C172.862 63.2832 172.872 63.2462 172.891 63.2178C172.911 63.1893 172.936 63.1751 172.966 63.1751C172.997 63.1751 173.021 63.1868 173.04 63.2103C173.058 63.2335 173.067 63.2642 173.067 63.3024C173.067 63.3396 173.058 63.3703 173.041 63.3945C173.023 63.4184 172.999 63.4304 172.969 63.4304ZM172.355 63.4375C172.355 63.5186 172.369 63.5789 172.397 63.6183C172.424 63.6578 172.468 63.6775 172.527 63.6775C172.585 63.6775 172.628 63.6583 172.656 63.6198C172.684 63.5811 172.698 63.5235 172.699 63.4469V63.3544C172.699 63.2743 172.685 63.2148 172.658 63.1758C172.63 63.1369 172.587 63.1174 172.527 63.1174C172.469 63.1174 172.426 63.1363 172.398 63.174C172.37 63.2114 172.356 63.2693 172.355 63.3477V63.4375ZM172.424 63.3428C172.424 63.2842 172.433 63.2415 172.449 63.2148C172.466 63.1878 172.492 63.1743 172.527 63.1743C172.563 63.1743 172.589 63.1877 172.605 63.2144C172.621 63.2411 172.63 63.2822 172.63 63.3376V63.4484C172.63 63.5073 172.622 63.5508 172.605 63.579C172.587 63.607 172.561 63.6209 172.527 63.6209C172.492 63.6209 172.467 63.6077 172.451 63.5813C172.434 63.5548 172.425 63.5131 172.424 63.4562V63.3428Z" fill="#A3A3A3"/>
<path d="M172.862 60.0571C172.877 60.0743 172.894 60.0881 172.914 60.0986C172.934 60.1091 172.956 60.1144 172.98 60.1144C173.011 60.1144 173.039 60.1066 173.062 60.0911C173.086 60.0757 173.104 60.054 173.116 60.026C173.129 59.9978 173.135 59.9667 173.135 59.9328C173.135 59.8964 173.129 59.8635 173.115 59.8343C173.101 59.8051 173.081 59.7828 173.056 59.7673C173.03 59.7519 173 59.7441 172.967 59.7441C172.913 59.7441 172.87 59.7643 172.839 59.8048C172.808 59.8449 172.792 59.8999 172.792 59.9695V59.9897C172.792 60.0958 172.813 60.1733 172.855 60.2222C172.897 60.2708 172.961 60.2958 173.045 60.297H173.059V60.2386H173.044C172.987 60.2376 172.943 60.2228 172.912 60.1941C172.882 60.1651 172.865 60.1195 172.862 60.0571ZM172.969 60.0571C172.946 60.0571 172.924 60.05 172.905 60.0357C172.885 60.0215 172.871 60.0039 172.862 59.983V59.9553C172.862 59.9098 172.872 59.8729 172.891 59.8444C172.911 59.816 172.936 59.8018 172.966 59.8018C172.997 59.8018 173.021 59.8135 173.04 59.837C173.058 59.8602 173.067 59.8909 173.067 59.9291C173.067 59.9662 173.058 59.9969 173.041 60.0211C173.023 60.0451 172.999 60.0571 172.969 60.0571ZM172.665 60.0234L172.637 59.7516H172.358V59.8156H172.579L172.595 59.9642C172.568 59.9485 172.538 59.9407 172.504 59.9407C172.455 59.9407 172.415 59.9571 172.386 59.9901C172.357 60.0228 172.342 60.0671 172.342 60.123C172.342 60.1791 172.357 60.2234 172.388 60.2559C172.418 60.2881 172.46 60.3041 172.515 60.3041C172.563 60.3041 172.602 60.2908 172.633 60.2641C172.663 60.2374 172.68 60.2005 172.685 60.1533H172.619C172.615 60.1845 172.604 60.2081 172.586 60.224C172.568 60.2398 172.544 60.2476 172.515 60.2476C172.483 60.2476 172.457 60.2366 172.439 60.2147C172.421 60.1927 172.411 60.1624 172.411 60.1237C172.411 60.0873 172.421 60.0581 172.441 60.0361C172.461 60.0139 172.487 60.0028 172.52 60.0028C172.551 60.0028 172.574 60.0094 172.591 60.0226L172.61 60.0376L172.665 60.0234Z" fill="#A3A3A3"/>
<path d="M173.33 57H173.4V56.5384L173.54 56.5897V56.5268L173.341 56.4523H173.33V57ZM172.786 56.7675C172.786 56.8486 172.8 56.9089 172.827 56.9483C172.855 56.9878 172.898 57.0075 172.957 57.0075C173.015 57.0075 173.058 56.9883 173.086 56.9498C173.114 56.9112 173.129 56.8535 173.13 56.7769V56.6844C173.13 56.6043 173.116 56.5448 173.088 56.5059C173.061 56.4669 173.017 56.4475 172.958 56.4475C172.899 56.4475 172.856 56.4663 172.828 56.504C172.801 56.5414 172.786 56.5993 172.786 56.6777V56.7675ZM172.855 56.6728C172.855 56.6142 172.863 56.5715 172.88 56.5448C172.896 56.5178 172.922 56.5044 172.958 56.5044C172.993 56.5044 173.019 56.5177 173.035 56.5444C173.052 56.5711 173.06 56.6122 173.061 56.6676V56.7784C173.061 56.8373 173.052 56.8808 173.035 56.909C173.018 56.937 172.992 56.951 172.957 56.951C172.923 56.951 172.898 56.9377 172.881 56.9113C172.864 56.8848 172.856 56.8431 172.855 56.7862V56.6728ZM172.355 56.7675C172.355 56.8486 172.369 56.9089 172.397 56.9483C172.424 56.9878 172.468 57.0075 172.527 57.0075C172.585 57.0075 172.628 56.9883 172.656 56.9498C172.684 56.9112 172.698 56.8535 172.699 56.7769V56.6844C172.699 56.6043 172.685 56.5448 172.658 56.5059C172.63 56.4669 172.587 56.4475 172.527 56.4475C172.469 56.4475 172.426 56.4663 172.398 56.504C172.37 56.5414 172.356 56.5993 172.355 56.6777V56.7675ZM172.424 56.6728C172.424 56.6142 172.433 56.5715 172.449 56.5448C172.466 56.5178 172.492 56.5044 172.527 56.5044C172.563 56.5044 172.589 56.5177 172.605 56.5444C172.621 56.5711 172.63 56.6122 172.63 56.6676V56.7784C172.63 56.8373 172.622 56.8808 172.605 56.909C172.587 56.937 172.561 56.951 172.527 56.951C172.492 56.951 172.467 56.9377 172.451 56.9113C172.434 56.8848 172.425 56.8431 172.424 56.7862V56.6728Z" fill="#A3A3A3"/>
<path d="M171.319 56.3834V123.467" stroke="white" stroke-width="0.0766667"/>
<path d="M136.562 56.3834V123.467" stroke="white" stroke-width="0.0766667"/>
<path d="M101.706 56.3834V123.467" stroke="white" stroke-width="0.0766667"/>
<path d="M66.8491 56.3834V123.467" stroke="white" stroke-width="0.0766667"/>
<path d="M31.9932 56.3834V123.467" stroke="white" stroke-width="0.0766667"/>
<path d="M171.319 123.467H32.0926" stroke="white" stroke-width="0.0766667"/>
<path d="M171.319 120.093H32.0926" stroke="white" stroke-width="0.0766667"/>
<path d="M171.319 116.72H32.0926" stroke="white" stroke-width="0.0766667"/>
<path d="M171.319 113.347H32.0926" stroke="white" stroke-width="0.0766667"/>
<path d="M171.319 110.05H32.0926" stroke="white" stroke-width="0.0766667"/>
<path d="M171.319 106.677H32.0926" stroke="white" stroke-width="0.0766667"/>
<path d="M171.319 103.303H32.0926" stroke="white" stroke-width="0.0766667"/>
<path d="M171.319 99.93H32.0926" stroke="white" stroke-width="0.0766667"/>
<path d="M171.319 96.6333H32.0926" stroke="white" stroke-width="0.0766667"/>
<path d="M171.319 93.26H32.0926" stroke="white" stroke-width="0.0766667"/>
<path d="M171.319 89.8867H32.0926" stroke="white" stroke-width="0.0766667"/>
<path d="M171.319 86.5133H32.0926" stroke="white" stroke-width="0.0766667"/>
<path d="M171.319 83.2167H32.0926" stroke="white" stroke-width="0.0766667"/>
<path d="M171.319 79.8434H32.0926" stroke="white" stroke-width="0.0766667"/>
<path d="M171.319 76.47H32.0926" stroke="white" stroke-width="0.0766667"/>
<path d="M171.319 73.0967H32.0926" stroke="white" stroke-width="0.0766667"/>
<path d="M171.319 69.8H32.0926" stroke="white" stroke-width="0.0766667"/>
<path d="M171.319 66.4267H32.0926" stroke="white" stroke-width="0.0766667"/>
<path d="M171.319 63.0533H32.0926" stroke="white" stroke-width="0.0766667"/>
<path d="M171.319 59.68H32.0926" stroke="white" stroke-width="0.0766667"/>
<path d="M171.319 56.3834H32.0926" stroke="white" stroke-width="0.0766667"/>
<path d="M136.562 57.6867C153.94 57.6867 171.319 111.353 171.319 111.353V123.467H32.0927V99.93C32.0927 99.93 49.5704 101.31 66.9489 101.31C84.3273 101.31 84.3273 81.8367 101.706 81.8367C119.184 81.8367 119.184 57.6867 136.562 57.6867Z" fill="#BCF9E3"/>
<circle cx="22" cy="57" r="5" fill="#19BC81"/>
<path d="M21.7373 33.6621H19.4521V40H18.5195V33.6621H16.2393V32.8906H21.7373V33.6621ZM21.9229 37.3096C21.9229 36.792 22.0238 36.3265 22.2256 35.9131C22.4307 35.4997 22.7139 35.1807 23.0752 34.9561C23.4398 34.7314 23.8548 34.6191 24.3203 34.6191C25.0397 34.6191 25.6208 34.8682 26.0635 35.3662C26.5094 35.8643 26.7324 36.5267 26.7324 37.3535V37.417C26.7324 37.9313 26.6331 38.3936 26.4346 38.8037C26.2393 39.2106 25.9577 39.528 25.5898 39.7559C25.2253 39.9837 24.8053 40.0977 24.3301 40.0977C23.6139 40.0977 23.0329 39.8486 22.5869 39.3506C22.1442 38.8525 21.9229 38.1934 21.9229 37.373V37.3096ZM22.8311 37.417C22.8311 38.0029 22.9661 38.4733 23.2363 38.8281C23.5098 39.1829 23.8743 39.3604 24.3301 39.3604C24.7891 39.3604 25.1536 39.1813 25.4238 38.8232C25.694 38.4619 25.8291 37.9574 25.8291 37.3096C25.8291 36.7301 25.6908 36.2614 25.4141 35.9033C25.1406 35.542 24.776 35.3613 24.3203 35.3613C23.8743 35.3613 23.5146 35.5387 23.2412 35.8936C22.9678 36.2484 22.8311 36.7562 22.8311 37.417ZM27.6455 37.3145C27.6455 36.5039 27.8376 35.8529 28.2217 35.3613C28.6058 34.8665 29.1087 34.6191 29.7305 34.6191C30.349 34.6191 30.8389 34.8307 31.2002 35.2539V32.5H32.1035V40H31.2734L31.2295 39.4336C30.8682 39.8763 30.3652 40.0977 29.7207 40.0977C29.1087 40.0977 28.609 39.847 28.2217 39.3457C27.8376 38.8444 27.6455 38.1901 27.6455 37.3828V37.3145ZM28.5488 37.417C28.5488 38.016 28.6725 38.4847 28.9199 38.8232C29.1673 39.1618 29.5091 39.3311 29.9453 39.3311C30.5182 39.3311 30.9365 39.0739 31.2002 38.5596V36.1328C30.93 35.6348 30.515 35.3857 29.9551 35.3857C29.5124 35.3857 29.1673 35.5566 28.9199 35.8984C28.6725 36.2402 28.5488 36.7464 28.5488 37.417ZM36.7715 40C36.7194 39.8958 36.6771 39.7103 36.6445 39.4434C36.2246 39.8796 35.7233 40.0977 35.1406 40.0977C34.6198 40.0977 34.1917 39.9512 33.8564 39.6582C33.5244 39.362 33.3584 38.9876 33.3584 38.5352C33.3584 37.985 33.5667 37.5586 33.9834 37.2559C34.4033 36.9499 34.9925 36.7969 35.751 36.7969H36.6299V36.3818C36.6299 36.0661 36.5355 35.8154 36.3467 35.6299C36.1579 35.4411 35.8796 35.3467 35.5117 35.3467C35.1895 35.3467 34.9193 35.4281 34.7012 35.5908C34.4831 35.7536 34.374 35.9505 34.374 36.1816H33.4658C33.4658 35.918 33.5586 35.6641 33.7441 35.4199C33.9329 35.1725 34.1868 34.9772 34.5059 34.834C34.8281 34.6908 35.1813 34.6191 35.5654 34.6191C36.1742 34.6191 36.651 34.7721 36.9961 35.0781C37.3411 35.3809 37.5202 35.7992 37.5332 36.333V38.7646C37.5332 39.2497 37.5951 39.6354 37.7188 39.9219V40H36.7715ZM35.2725 39.3115C35.5557 39.3115 35.8242 39.2383 36.0781 39.0918C36.332 38.9453 36.516 38.7549 36.6299 38.5205V37.4365H35.9219C34.8151 37.4365 34.2617 37.7604 34.2617 38.4082C34.2617 38.6914 34.3561 38.9128 34.5449 39.0723C34.7337 39.2318 34.9762 39.3115 35.2725 39.3115ZM40.5996 38.6768L41.8301 34.7168H42.7969L40.6729 40.8154C40.3441 41.6943 39.8216 42.1338 39.1055 42.1338L38.9346 42.1191L38.5977 42.0557V41.3232L38.8418 41.3428C39.1478 41.3428 39.3854 41.2809 39.5547 41.1572C39.7272 41.0335 39.8688 40.8073 39.9795 40.4785L40.1797 39.9414L38.2949 34.7168H39.2812L40.5996 38.6768ZM43.0508 41.416L42.5381 41.0645C42.8441 40.638 43.0036 40.1986 43.0166 39.7461V38.9307H43.9004V39.6387C43.9004 39.9674 43.819 40.2962 43.6562 40.625C43.4967 40.9538 43.2949 41.2174 43.0508 41.416ZM50.3994 40H49.4912V33.9795L47.6699 34.6484V33.8281L50.2578 32.8564H50.3994V40ZM56.8594 37.6123H57.8457V38.3496H56.8594V40H55.9512V38.3496H52.7139V37.8174L55.8975 32.8906H56.8594V37.6123ZM53.7393 37.6123H55.9512V34.126L55.8438 34.3213L53.7393 37.6123ZM64.3545 32.8906H65.2969V37.9248C65.2969 38.6051 65.0918 39.1374 64.6816 39.5215C64.2747 39.9056 63.7311 40.0977 63.0508 40.0977C62.3444 40.0977 61.7943 39.917 61.4004 39.5557C61.0065 39.1943 60.8096 38.6882 60.8096 38.0371H61.7471C61.7471 38.444 61.8577 38.7614 62.0791 38.9893C62.3037 39.2171 62.6276 39.3311 63.0508 39.3311C63.4382 39.3311 63.7507 39.209 63.9883 38.9648C64.2292 38.7207 64.3512 38.3789 64.3545 37.9395V32.8906ZM70.0137 39.4775C69.6621 39.891 69.1462 40.0977 68.4658 40.0977C67.9027 40.0977 67.473 39.9349 67.1768 39.6094C66.8838 39.2806 66.7357 38.7956 66.7324 38.1543V34.7168H67.6357V38.1299C67.6357 38.9307 67.9613 39.3311 68.6123 39.3311C69.3024 39.3311 69.7614 39.0739 69.9893 38.5596V34.7168H70.8926V40H70.0332L70.0137 39.4775ZM73.124 34.7168L73.1533 35.3809C73.557 34.873 74.0843 34.6191 74.7354 34.6191C75.8519 34.6191 76.415 35.249 76.4248 36.5088V40H75.5215V36.5039C75.5182 36.123 75.4303 35.8415 75.2578 35.6592C75.0885 35.4769 74.8232 35.3857 74.4619 35.3857C74.1689 35.3857 73.9118 35.4639 73.6904 35.6201C73.4691 35.7764 73.2965 35.9814 73.1729 36.2354V40H72.2695V34.7168H73.124ZM79.9795 40.0977C79.2633 40.0977 78.6807 39.8633 78.2314 39.3945C77.7822 38.9225 77.5576 38.2926 77.5576 37.5049V37.3389C77.5576 36.8148 77.6569 36.3477 77.8555 35.9375C78.0573 35.5241 78.3372 35.2018 78.6953 34.9707C79.0566 34.7363 79.4473 34.6191 79.8672 34.6191C80.554 34.6191 81.0879 34.8454 81.4688 35.2979C81.8496 35.7503 82.04 36.3981 82.04 37.2412V37.6172H78.4609C78.474 38.138 78.6253 38.5596 78.915 38.8818C79.208 39.2008 79.5791 39.3604 80.0283 39.3604C80.3473 39.3604 80.6175 39.2952 80.8389 39.165C81.0602 39.0348 81.2539 38.8623 81.4199 38.6475L81.9717 39.0771C81.529 39.7575 80.8649 40.0977 79.9795 40.0977ZM79.8672 35.3613C79.5026 35.3613 79.1966 35.4948 78.9492 35.7617C78.7018 36.0254 78.5488 36.3965 78.4902 36.875H81.1367V36.8066C81.1107 36.3477 80.987 35.9928 80.7656 35.7422C80.5443 35.4883 80.2448 35.3613 79.8672 35.3613ZM83.0605 41.416L82.5479 41.0645C82.8538 40.638 83.0133 40.1986 83.0264 39.7461V38.9307H83.9102V39.6387C83.9102 39.9674 83.8288 40.2962 83.666 40.625C83.5065 40.9538 83.3047 41.2174 83.0605 41.416ZM92.0986 40H87.4404V39.3506L89.9014 36.6162C90.266 36.2028 90.5166 35.8675 90.6533 35.6104C90.7933 35.3499 90.8633 35.0814 90.8633 34.8047C90.8633 34.4336 90.751 34.1292 90.5264 33.8916C90.3018 33.654 90.0023 33.5352 89.6279 33.5352C89.1787 33.5352 88.8288 33.6637 88.5781 33.9209C88.3307 34.1748 88.207 34.5296 88.207 34.9854H87.3037C87.3037 34.3311 87.5137 33.8021 87.9336 33.3984C88.3568 32.9948 88.9215 32.793 89.6279 32.793C90.2887 32.793 90.8112 32.9671 91.1953 33.3154C91.5794 33.6605 91.7715 34.1211 91.7715 34.6973C91.7715 35.3971 91.3255 36.2305 90.4336 37.1973L88.5293 39.2627H92.0986V40ZM97.5137 36.9678C97.5137 38.0257 97.333 38.8118 96.9717 39.3262C96.6104 39.8405 96.0456 40.0977 95.2773 40.0977C94.5189 40.0977 93.9574 39.847 93.5928 39.3457C93.2282 38.8411 93.0394 38.0892 93.0264 37.0898V35.8838C93.0264 34.8389 93.207 34.0625 93.5684 33.5547C93.9297 33.0469 94.4961 32.793 95.2676 32.793C96.0326 32.793 96.5957 33.0387 96.957 33.5303C97.3184 34.0186 97.5039 34.7738 97.5137 35.7959V36.9678ZM96.6104 35.7324C96.6104 34.9674 96.5029 34.4108 96.2881 34.0625C96.0732 33.7109 95.7331 33.5352 95.2676 33.5352C94.8053 33.5352 94.4684 33.7093 94.2568 34.0576C94.0452 34.4059 93.9362 34.9414 93.9297 35.6641V37.1094C93.9297 37.8776 94.0404 38.4456 94.2617 38.8135C94.4863 39.1781 94.8249 39.3604 95.2773 39.3604C95.7233 39.3604 96.0537 39.1878 96.2686 38.8428C96.4867 38.4977 96.6006 37.9541 96.6104 37.2119V35.7324ZM103.329 40H98.6709V39.3506L101.132 36.6162C101.496 36.2028 101.747 35.8675 101.884 35.6104C102.024 35.3499 102.094 35.0814 102.094 34.8047C102.094 34.4336 101.981 34.1292 101.757 33.8916C101.532 33.654 101.233 33.5352 100.858 33.5352C100.409 33.5352 100.059 33.6637 99.8086 33.9209C99.5612 34.1748 99.4375 34.5296 99.4375 34.9854H98.5342C98.5342 34.3311 98.7441 33.8021 99.1641 33.3984C99.5872 32.9948 100.152 32.793 100.858 32.793C101.519 32.793 102.042 32.9671 102.426 33.3154C102.81 33.6605 103.002 34.1211 103.002 34.6973C103.002 35.3971 102.556 36.2305 101.664 37.1973L99.7598 39.2627H103.329V40ZM107.255 40H106.347V33.9795L104.525 34.6484V33.8281L107.113 32.8564H107.255V40ZM110.014 39.5264C110.014 39.3701 110.059 39.2399 110.15 39.1357C110.245 39.0316 110.385 38.9795 110.57 38.9795C110.756 38.9795 110.896 39.0316 110.99 39.1357C111.088 39.2399 111.137 39.3701 111.137 39.5264C111.137 39.6761 111.088 39.8014 110.99 39.9023C110.896 40.0033 110.756 40.0537 110.57 40.0537C110.385 40.0537 110.245 40.0033 110.15 39.9023C110.059 39.8014 110.014 39.6761 110.014 39.5264Z" fill="#575757"/>
<path d="M18.9199 139.831C18.1159 139.6 17.5299 139.317 17.1621 138.981C16.7975 138.643 16.6152 138.226 16.6152 137.731C16.6152 137.172 16.8382 136.709 17.2842 136.345C17.7334 135.977 18.3161 135.793 19.0322 135.793C19.5205 135.793 19.9551 135.887 20.3359 136.076C20.7201 136.265 21.0163 136.525 21.2246 136.857C21.4362 137.189 21.542 137.552 21.542 137.946H20.5996C20.5996 137.517 20.4629 137.18 20.1895 136.936C19.916 136.688 19.5303 136.564 19.0322 136.564C18.57 136.564 18.2087 136.667 17.9482 136.872C17.6911 137.074 17.5625 137.355 17.5625 137.717C17.5625 138.007 17.6846 138.252 17.9287 138.454C18.1761 138.653 18.5944 138.835 19.1836 139.001C19.776 139.167 20.2383 139.351 20.5703 139.553C20.9056 139.751 21.153 139.984 21.3125 140.251C21.4753 140.518 21.5566 140.832 21.5566 141.193C21.5566 141.77 21.332 142.232 20.8828 142.58C20.4336 142.925 19.833 143.098 19.0811 143.098C18.5928 143.098 18.137 143.005 17.7139 142.819C17.2907 142.631 16.9635 142.373 16.7324 142.048C16.5046 141.722 16.3906 141.353 16.3906 140.939H17.333C17.333 141.369 17.4909 141.709 17.8066 141.96C18.1257 142.207 18.5505 142.331 19.0811 142.331C19.5758 142.331 19.9551 142.23 20.2188 142.028C20.4824 141.826 20.6143 141.551 20.6143 141.203C20.6143 140.855 20.4922 140.586 20.248 140.397C20.0039 140.205 19.5612 140.017 18.9199 139.831ZM24.8135 143.098C24.0973 143.098 23.5146 142.863 23.0654 142.395C22.6162 141.923 22.3916 141.293 22.3916 140.505V140.339C22.3916 139.815 22.4909 139.348 22.6895 138.938C22.8913 138.524 23.1712 138.202 23.5293 137.971C23.8906 137.736 24.2812 137.619 24.7012 137.619C25.388 137.619 25.9219 137.845 26.3027 138.298C26.6836 138.75 26.874 139.398 26.874 140.241V140.617H23.2949C23.3079 141.138 23.4593 141.56 23.749 141.882C24.042 142.201 24.4131 142.36 24.8623 142.36C25.1813 142.36 25.4515 142.295 25.6729 142.165C25.8942 142.035 26.0879 141.862 26.2539 141.647L26.8057 142.077C26.363 142.757 25.6989 143.098 24.8135 143.098ZM24.7012 138.361C24.3366 138.361 24.0306 138.495 23.7832 138.762C23.5358 139.025 23.3828 139.396 23.3242 139.875H25.9707V139.807C25.9447 139.348 25.821 138.993 25.5996 138.742C25.3783 138.488 25.0788 138.361 24.7012 138.361ZM30.1162 143.098C29.4001 143.098 28.8174 142.863 28.3682 142.395C27.9189 141.923 27.6943 141.293 27.6943 140.505V140.339C27.6943 139.815 27.7936 139.348 27.9922 138.938C28.194 138.524 28.474 138.202 28.832 137.971C29.1934 137.736 29.584 137.619 30.0039 137.619C30.6908 137.619 31.2246 137.845 31.6055 138.298C31.9863 138.75 32.1768 139.398 32.1768 140.241V140.617H28.5977C28.6107 141.138 28.762 141.56 29.0518 141.882C29.3447 142.201 29.7158 142.36 30.165 142.36C30.484 142.36 30.7542 142.295 30.9756 142.165C31.1969 142.035 31.3906 141.862 31.5566 141.647L32.1084 142.077C31.6657 142.757 31.0016 143.098 30.1162 143.098ZM30.0039 138.361C29.6393 138.361 29.3333 138.495 29.0859 138.762C28.8385 139.025 28.6855 139.396 28.627 139.875H31.2734V139.807C31.2474 139.348 31.1237 138.993 30.9023 138.742C30.681 138.488 30.3815 138.361 30.0039 138.361ZM35.8486 143V135.891H37.8555C38.474 135.891 39.0208 136.027 39.4961 136.301C39.9714 136.574 40.3376 136.963 40.5947 137.468C40.8551 137.972 40.987 138.552 40.9902 139.206V139.66C40.9902 140.331 40.86 140.918 40.5996 141.423C40.3424 141.927 39.973 142.315 39.4912 142.585C39.0127 142.855 38.4544 142.993 37.8164 143H35.8486ZM36.7861 136.662V142.233H37.7725C38.4951 142.233 39.0566 142.009 39.457 141.56C39.8607 141.11 40.0625 140.471 40.0625 139.641V139.226C40.0625 138.418 39.8721 137.792 39.4912 137.346C39.1136 136.896 38.5765 136.669 37.8799 136.662H36.7861ZM44.4619 143.098C43.7458 143.098 43.1631 142.863 42.7139 142.395C42.2646 141.923 42.04 141.293 42.04 140.505V140.339C42.04 139.815 42.1393 139.348 42.3379 138.938C42.5397 138.524 42.8197 138.202 43.1777 137.971C43.5391 137.736 43.9297 137.619 44.3496 137.619C45.0365 137.619 45.5703 137.845 45.9512 138.298C46.332 138.75 46.5225 139.398 46.5225 140.241V140.617H42.9434C42.9564 141.138 43.1077 141.56 43.3975 141.882C43.6904 142.201 44.0615 142.36 44.5107 142.36C44.8298 142.36 45.0999 142.295 45.3213 142.165C45.5426 142.035 45.7363 141.862 45.9023 141.647L46.4541 142.077C46.0114 142.757 45.3473 143.098 44.4619 143.098ZM44.3496 138.361C43.985 138.361 43.679 138.495 43.4316 138.762C43.1842 139.025 43.0312 139.396 42.9727 139.875H45.6191V139.807C45.5931 139.348 45.4694 138.993 45.248 138.742C45.0267 138.488 44.7272 138.361 44.3496 138.361ZM48.7979 136.438V137.717H49.7842V138.415H48.7979V141.691C48.7979 141.903 48.8418 142.062 48.9297 142.17C49.0176 142.274 49.1673 142.326 49.3789 142.326C49.4831 142.326 49.6263 142.307 49.8086 142.268V143C49.571 143.065 49.3398 143.098 49.1152 143.098C48.7116 143.098 48.4072 142.976 48.2021 142.731C47.9971 142.487 47.8945 142.141 47.8945 141.691V138.415H46.9326V137.717H47.8945V136.438H48.7979ZM54.1055 143C54.0534 142.896 54.0111 142.71 53.9785 142.443C53.5586 142.88 53.0573 143.098 52.4746 143.098C51.9538 143.098 51.5257 142.951 51.1904 142.658C50.8584 142.362 50.6924 141.988 50.6924 141.535C50.6924 140.985 50.9007 140.559 51.3174 140.256C51.7373 139.95 52.3265 139.797 53.085 139.797H53.9639V139.382C53.9639 139.066 53.8695 138.815 53.6807 138.63C53.4919 138.441 53.2135 138.347 52.8457 138.347C52.5234 138.347 52.2533 138.428 52.0352 138.591C51.8171 138.754 51.708 138.951 51.708 139.182H50.7998C50.7998 138.918 50.8926 138.664 51.0781 138.42C51.2669 138.173 51.5208 137.977 51.8398 137.834C52.1621 137.691 52.5153 137.619 52.8994 137.619C53.5081 137.619 53.985 137.772 54.3301 138.078C54.6751 138.381 54.8542 138.799 54.8672 139.333V141.765C54.8672 142.25 54.929 142.635 55.0527 142.922V143H54.1055ZM52.6064 142.312C52.8896 142.312 53.1582 142.238 53.4121 142.092C53.666 141.945 53.8499 141.755 53.9639 141.521V140.437H53.2559C52.1491 140.437 51.5957 140.76 51.5957 141.408C51.5957 141.691 51.6901 141.913 51.8789 142.072C52.0677 142.232 52.3102 142.312 52.6064 142.312ZM57.2646 143H56.3613V137.717H57.2646V143ZM56.2881 136.315C56.2881 136.169 56.332 136.045 56.4199 135.944C56.5111 135.843 56.6445 135.793 56.8203 135.793C56.9961 135.793 57.1296 135.843 57.2207 135.944C57.3118 136.045 57.3574 136.169 57.3574 136.315C57.3574 136.462 57.3118 136.584 57.2207 136.682C57.1296 136.779 56.9961 136.828 56.8203 136.828C56.6445 136.828 56.5111 136.779 56.4199 136.682C56.332 136.584 56.2881 136.462 56.2881 136.315ZM59.6963 143H58.793V135.5H59.6963V143ZM64.2227 141.599C64.2227 141.354 64.1299 141.166 63.9443 141.032C63.762 140.896 63.4414 140.778 62.9824 140.681C62.5267 140.583 62.1637 140.466 61.8936 140.329C61.6266 140.192 61.4281 140.03 61.2979 139.841C61.1709 139.652 61.1074 139.427 61.1074 139.167C61.1074 138.734 61.2897 138.368 61.6543 138.068C62.0221 137.769 62.4909 137.619 63.0605 137.619C63.6595 137.619 64.1445 137.774 64.5156 138.083C64.89 138.392 65.0771 138.788 65.0771 139.27H64.1689C64.1689 139.022 64.0632 138.809 63.8516 138.63C63.6432 138.451 63.3796 138.361 63.0605 138.361C62.7318 138.361 62.4746 138.433 62.2891 138.576C62.1035 138.719 62.0107 138.907 62.0107 139.138C62.0107 139.356 62.097 139.52 62.2695 139.631C62.4421 139.742 62.7529 139.847 63.2021 139.948C63.6546 140.049 64.0208 140.17 64.3008 140.31C64.5807 140.45 64.7874 140.619 64.9209 140.817C65.0576 141.013 65.126 141.252 65.126 141.535C65.126 142.007 64.9372 142.386 64.5596 142.673C64.182 142.956 63.6921 143.098 63.0898 143.098C62.6667 143.098 62.2923 143.023 61.9668 142.873C61.6413 142.723 61.3857 142.515 61.2002 142.248C61.0179 141.978 60.9268 141.687 60.9268 141.374H61.8301C61.8464 141.677 61.9668 141.918 62.1914 142.097C62.4193 142.272 62.7188 142.36 63.0898 142.36C63.4316 142.36 63.7051 142.292 63.9102 142.155C64.1185 142.015 64.2227 141.83 64.2227 141.599Z" fill="#19BC81"/>
<path d="M23.1836 15.8926H20.5703V23H18.8125V15.8926H16.2344V14.4688H23.1836V15.8926ZM26.7695 23C26.6914 22.8477 26.6348 22.6582 26.5996 22.4316C26.1895 22.8887 25.6562 23.1172 25 23.1172C24.3789 23.1172 23.8633 22.9375 23.4531 22.5781C23.0469 22.2188 22.8438 21.7656 22.8438 21.2188C22.8438 20.5469 23.0918 20.0312 23.5879 19.6719C24.0879 19.3125 24.8086 19.1309 25.75 19.127H26.5293V18.7637C26.5293 18.4707 26.4531 18.2363 26.3008 18.0605C26.1523 17.8848 25.916 17.7969 25.5918 17.7969C25.3066 17.7969 25.082 17.8652 24.918 18.002C24.7578 18.1387 24.6777 18.3262 24.6777 18.5645H22.9844C22.9844 18.1973 23.0977 17.8574 23.3242 17.5449C23.5508 17.2324 23.8711 16.9883 24.2852 16.8125C24.6992 16.6328 25.1641 16.543 25.6797 16.543C26.4609 16.543 27.0801 16.7402 27.5371 17.1348C27.998 17.5254 28.2285 18.0762 28.2285 18.7871V21.5352C28.2324 22.1367 28.3164 22.5918 28.4805 22.9004V23H26.7695ZM25.3691 21.8223C25.6191 21.8223 25.8496 21.7676 26.0605 21.6582C26.2715 21.5449 26.4277 21.3945 26.5293 21.207V20.1172H25.8965C25.0488 20.1172 24.5977 20.4102 24.543 20.9961L24.5371 21.0957C24.5371 21.3066 24.6113 21.4805 24.7598 21.6172C24.9082 21.7539 25.1113 21.8223 25.3691 21.8223ZM32.9629 21.248C32.9629 21.041 32.8594 20.8789 32.6523 20.7617C32.4492 20.6406 32.1211 20.5332 31.668 20.4395C30.1602 20.123 29.4062 19.4824 29.4062 18.5176C29.4062 17.9551 29.6387 17.4863 30.1035 17.1113C30.5723 16.7324 31.1836 16.543 31.9375 16.543C32.7422 16.543 33.3848 16.7324 33.8652 17.1113C34.3496 17.4902 34.5918 17.9824 34.5918 18.5879H32.8984C32.8984 18.3457 32.8203 18.1465 32.6641 17.9902C32.5078 17.8301 32.2637 17.75 31.9316 17.75C31.6465 17.75 31.4258 17.8145 31.2695 17.9434C31.1133 18.0723 31.0352 18.2363 31.0352 18.4355C31.0352 18.623 31.123 18.7754 31.2988 18.8926C31.4785 19.0059 31.7793 19.1055 32.2012 19.1914C32.623 19.2734 32.9785 19.3672 33.2676 19.4727C34.1621 19.8008 34.6094 20.3691 34.6094 21.1777C34.6094 21.7559 34.3613 22.2246 33.8652 22.584C33.3691 22.9395 32.7285 23.1172 31.9434 23.1172C31.4121 23.1172 30.9395 23.0234 30.5254 22.8359C30.1152 22.6445 29.793 22.3848 29.5586 22.0566C29.3242 21.7246 29.207 21.3672 29.207 20.9844H30.8125C30.8281 21.2852 30.9395 21.5156 31.1465 21.6758C31.3535 21.8359 31.6309 21.916 31.9785 21.916C32.3027 21.916 32.5469 21.8555 32.7109 21.7344C32.8789 21.6094 32.9629 21.4473 32.9629 21.248ZM38.0078 20.457L37.3984 21.0664V23H35.7051V14H37.3984V18.9863L37.7266 18.5645L39.3496 16.6602H41.3828L39.0918 19.3027L41.582 23H39.6367L38.0078 20.457ZM46.9727 19.9941V23H45.2148V14.4688H48.543C49.1836 14.4688 49.7461 14.5859 50.2305 14.8203C50.7188 15.0547 51.0938 15.3887 51.3555 15.8223C51.6172 16.252 51.748 16.7422 51.748 17.293C51.748 18.1289 51.4609 18.7891 50.8867 19.2734C50.3164 19.7539 49.5254 19.9941 48.5137 19.9941H46.9727ZM46.9727 18.5703H48.543C49.0078 18.5703 49.3613 18.4609 49.6035 18.2422C49.8496 18.0234 49.9727 17.7109 49.9727 17.3047C49.9727 16.8867 49.8496 16.5488 49.6035 16.291C49.3574 16.0332 49.0176 15.9004 48.584 15.8926H46.9727V18.5703ZM56.4121 18.248C56.1816 18.2168 55.9785 18.2012 55.8027 18.2012C55.1621 18.2012 54.7422 18.418 54.543 18.8516V23H52.8496V16.6602H54.4492L54.4961 17.416C54.8359 16.834 55.3066 16.543 55.9082 16.543C56.0957 16.543 56.2715 16.5684 56.4355 16.6191L56.4121 18.248ZM56.7578 19.7715C56.7578 19.1426 56.8789 18.582 57.1211 18.0898C57.3633 17.5977 57.7109 17.2168 58.1641 16.9473C58.6211 16.6777 59.1504 16.543 59.752 16.543C60.6074 16.543 61.3047 16.8047 61.8438 17.3281C62.3867 17.8516 62.6895 18.5625 62.752 19.4609L62.7637 19.8945C62.7637 20.8672 62.4922 21.6484 61.9492 22.2383C61.4062 22.8242 60.6777 23.1172 59.7637 23.1172C58.8496 23.1172 58.1191 22.8242 57.5723 22.2383C57.0293 21.6523 56.7578 20.8555 56.7578 19.8477V19.7715ZM58.4512 19.8945C58.4512 20.4961 58.5645 20.957 58.791 21.2773C59.0176 21.5938 59.3418 21.752 59.7637 21.752C60.1738 21.752 60.4941 21.5957 60.7246 21.2832C60.9551 20.9668 61.0703 20.4629 61.0703 19.7715C61.0703 19.1816 60.9551 18.7246 60.7246 18.4004C60.4941 18.0762 60.1699 17.9141 59.752 17.9141C59.3379 17.9141 59.0176 18.0762 58.791 18.4004C58.5645 18.7207 58.4512 19.2188 58.4512 19.8945ZM63.5605 19.7832C63.5605 18.8105 63.791 18.0273 64.252 17.4336C64.7168 16.8398 65.3418 16.543 66.127 16.543C66.8223 16.543 67.3633 16.7812 67.75 17.2578L67.8203 16.6602H69.3555V22.7891C69.3555 23.3438 69.2285 23.8262 68.9746 24.2363C68.7246 24.6465 68.3711 24.959 67.9141 25.1738C67.457 25.3887 66.9219 25.4961 66.3086 25.4961C65.8438 25.4961 65.3906 25.4023 64.9492 25.2148C64.5078 25.0312 64.1738 24.793 63.9473 24.5L64.6973 23.4688C65.1191 23.9414 65.6309 24.1777 66.2324 24.1777C66.6816 24.1777 67.0312 24.0566 67.2812 23.8145C67.5312 23.5762 67.6562 23.2363 67.6562 22.7949V22.4551C67.2656 22.8965 66.752 23.1172 66.1152 23.1172C65.3535 23.1172 64.7363 22.8203 64.2637 22.2266C63.7949 21.6289 63.5605 20.8379 63.5605 19.8535V19.7832ZM65.2539 19.9062C65.2539 20.4805 65.3691 20.9316 65.5996 21.2598C65.8301 21.584 66.1465 21.7461 66.5488 21.7461C67.0645 21.7461 67.4336 21.5527 67.6562 21.166V18.5C67.4297 18.1133 67.0645 17.9199 66.5605 17.9199C66.1543 17.9199 65.834 18.0859 65.5996 18.418C65.3691 18.75 65.2539 19.2461 65.2539 19.9062ZM74.2246 18.248C73.9941 18.2168 73.791 18.2012 73.6152 18.2012C72.9746 18.2012 72.5547 18.418 72.3555 18.8516V23H70.6621V16.6602H72.2617L72.3086 17.416C72.6484 16.834 73.1191 16.543 73.7207 16.543C73.9082 16.543 74.084 16.5684 74.248 16.6191L74.2246 18.248ZM77.8457 23.1172C76.916 23.1172 76.1582 22.832 75.5723 22.2617C74.9902 21.6914 74.6992 20.9316 74.6992 19.9824V19.8184C74.6992 19.1816 74.8223 18.6133 75.0684 18.1133C75.3145 17.6094 75.6621 17.2227 76.1113 16.9531C76.5645 16.6797 77.0801 16.543 77.6582 16.543C78.5254 16.543 79.207 16.8164 79.7031 17.3633C80.2031 17.9102 80.4531 18.6855 80.4531 19.6895V20.3809H76.416C76.4707 20.7949 76.6348 21.127 76.9082 21.377C77.1855 21.627 77.5352 21.752 77.957 21.752C78.6094 21.752 79.1191 21.5156 79.4863 21.043L80.3184 21.9746C80.0645 22.334 79.7207 22.6152 79.2871 22.8184C78.8535 23.0176 78.373 23.1172 77.8457 23.1172ZM77.6523 17.9141C77.3164 17.9141 77.043 18.0273 76.832 18.2539C76.625 18.4805 76.4922 18.8047 76.4336 19.2266H78.7891V19.0918C78.7812 18.7168 78.6797 18.4277 78.4844 18.2246C78.2891 18.0176 78.0117 17.9141 77.6523 17.9141ZM84.8535 21.248C84.8535 21.041 84.75 20.8789 84.543 20.7617C84.3398 20.6406 84.0117 20.5332 83.5586 20.4395C82.0508 20.123 81.2969 19.4824 81.2969 18.5176C81.2969 17.9551 81.5293 17.4863 81.9941 17.1113C82.4629 16.7324 83.0742 16.543 83.8281 16.543C84.6328 16.543 85.2754 16.7324 85.7559 17.1113C86.2402 17.4902 86.4824 17.9824 86.4824 18.5879H84.7891C84.7891 18.3457 84.7109 18.1465 84.5547 17.9902C84.3984 17.8301 84.1543 17.75 83.8223 17.75C83.5371 17.75 83.3164 17.8145 83.1602 17.9434C83.0039 18.0723 82.9258 18.2363 82.9258 18.4355C82.9258 18.623 83.0137 18.7754 83.1895 18.8926C83.3691 19.0059 83.6699 19.1055 84.0918 19.1914C84.5137 19.2734 84.8691 19.3672 85.1582 19.4727C86.0527 19.8008 86.5 20.3691 86.5 21.1777C86.5 21.7559 86.252 22.2246 85.7559 22.584C85.2598 22.9395 84.6191 23.1172 83.834 23.1172C83.3027 23.1172 82.8301 23.0234 82.416 22.8359C82.0059 22.6445 81.6836 22.3848 81.4492 22.0566C81.2148 21.7246 81.0977 21.3672 81.0977 20.9844H82.7031C82.7188 21.2852 82.8301 21.5156 83.0371 21.6758C83.2441 21.8359 83.5215 21.916 83.8691 21.916C84.1934 21.916 84.4375 21.8555 84.6016 21.7344C84.7695 21.6094 84.8535 21.4473 84.8535 21.248ZM91.0293 21.248C91.0293 21.041 90.9258 20.8789 90.7188 20.7617C90.5156 20.6406 90.1875 20.5332 89.7344 20.4395C88.2266 20.123 87.4727 19.4824 87.4727 18.5176C87.4727 17.9551 87.7051 17.4863 88.1699 17.1113C88.6387 16.7324 89.25 16.543 90.0039 16.543C90.8086 16.543 91.4512 16.7324 91.9316 17.1113C92.416 17.4902 92.6582 17.9824 92.6582 18.5879H90.9648C90.9648 18.3457 90.8867 18.1465 90.7305 17.9902C90.5742 17.8301 90.3301 17.75 89.998 17.75C89.7129 17.75 89.4922 17.8145 89.3359 17.9434C89.1797 18.0723 89.1016 18.2363 89.1016 18.4355C89.1016 18.623 89.1895 18.7754 89.3652 18.8926C89.5449 19.0059 89.8457 19.1055 90.2676 19.1914C90.6895 19.2734 91.0449 19.3672 91.334 19.4727C92.2285 19.8008 92.6758 20.3691 92.6758 21.1777C92.6758 21.7559 92.4277 22.2246 91.9316 22.584C91.4355 22.9395 90.7949 23.1172 90.0098 23.1172C89.4785 23.1172 89.0059 23.0234 88.5918 22.8359C88.1816 22.6445 87.8594 22.3848 87.625 22.0566C87.3906 21.7246 87.2734 21.3672 87.2734 20.9844H88.8789C88.8945 21.2852 89.0059 21.5156 89.2129 21.6758C89.4199 21.8359 89.6973 21.916 90.0449 21.916C90.3691 21.916 90.6133 21.8555 90.7773 21.7344C90.9453 21.6094 91.0293 21.4473 91.0293 21.248Z" fill="#575757"/>
</g>
<defs>
<filter id="filter0_d" x="-39" y="-33" width="278" height="226" filterUnits="userSpaceOnUse" color-interpolation-filters="sRGB">
<feFlood flood-opacity="0" result="BackgroundImageFix"/>
<feColorMatrix in="SourceAlpha" type="matrix" values="0 0 0 0 0 0 0 0 0 0 0 0 0 0 0 0 0 0 127 0"/>
<feOffset dy="2"/>
<feGaussianBlur stdDeviation="15"/>
<feColorMatrix type="matrix" values="0 0 0 0 0 0 0 0 0 0 0 0 0 0 0 0 0 0 0.1 0"/>
<feBlend mode="normal" in2="BackgroundImageFix" result="effect1_dropShadow"/>
<feBlend mode="normal" in="SourceGraphic" in2="effect1_dropShadow" result="shape"/>
</filter>
<clipPath id="clip0">
<rect width="1440" height="900" fill="white" transform="translate(-1016 -108)"/>
</clipPath>
</defs>
</svg>
