<svg width="176" height="152" viewBox="0 0 176 152" fill="none" xmlns="http://www.w3.org/2000/svg">
<g clip-path="url(#clip0)">
<rect width="1440" height="900" transform="translate(-1223 -302)" fill="white"/>
<g filter="url(#filter0_d)">
<rect x="-6" y="-5" width="191" height="161" rx="8" fill="white"/>
</g>
<circle cx="16.5" cy="19.5" r="7.5" fill="#FFE176"/>
<path d="M33.217 24V16.176H36.037C36.453 16.176 36.841 16.216 37.201 16.296C37.569 16.376 37.889 16.512 38.161 16.704C38.433 16.888 38.649 17.136 38.809 17.448C38.969 17.76 39.049 18.148 39.049 18.612C39.049 19.188 38.921 19.664 38.665 20.04C38.417 20.408 38.081 20.684 37.657 20.868L39.433 24H37.453L35.953 21.18H34.981V24H33.217ZM34.981 19.776H35.893C36.357 19.776 36.709 19.68 36.949 19.488C37.197 19.288 37.321 18.996 37.321 18.612C37.321 18.228 37.197 17.96 36.949 17.808C36.709 17.656 36.357 17.58 35.893 17.58H34.981V19.776ZM41.8386 24.144C41.5666 24.144 41.3186 24.096 41.0946 24C40.8786 23.912 40.6946 23.788 40.5426 23.628C40.3906 23.46 40.2706 23.268 40.1826 23.052C40.1026 22.836 40.0626 22.6 40.0626 22.344C40.0626 21.72 40.3266 21.232 40.8546 20.88C41.3826 20.528 42.2346 20.292 43.4106 20.172C43.3946 19.908 43.3146 19.7 43.1706 19.548C43.0346 19.388 42.8026 19.308 42.4746 19.308C42.2186 19.308 41.9626 19.356 41.7066 19.452C41.4586 19.548 41.1906 19.68 40.9026 19.848L40.2666 18.684C40.6506 18.452 41.0506 18.264 41.4666 18.12C41.8906 17.976 42.3386 17.904 42.8106 17.904C43.5786 17.904 44.1626 18.124 44.5626 18.564C44.9706 18.996 45.1746 19.672 45.1746 20.592V24H43.7346L43.6146 23.388H43.5666C43.3106 23.612 43.0426 23.796 42.7626 23.94C42.4826 24.076 42.1746 24.144 41.8386 24.144ZM42.4386 22.776C42.6386 22.776 42.8106 22.732 42.9546 22.644C43.0986 22.556 43.2506 22.432 43.4106 22.272V21.228C42.7866 21.316 42.3546 21.444 42.1146 21.612C41.8746 21.78 41.7546 21.98 41.7546 22.212C41.7546 22.404 41.8146 22.548 41.9346 22.644C42.0626 22.732 42.2306 22.776 42.4386 22.776ZM48.7907 24.144C48.4227 24.144 48.0867 24.072 47.7827 23.928C47.4867 23.784 47.2307 23.58 47.0147 23.316C46.8067 23.044 46.6427 22.716 46.5227 22.332C46.4107 21.948 46.3547 21.512 46.3547 21.024C46.3547 20.536 46.4227 20.1 46.5587 19.716C46.7027 19.332 46.8867 19.008 47.1107 18.744C47.3427 18.472 47.6067 18.264 47.9027 18.12C48.2067 17.976 48.5147 17.904 48.8267 17.904C49.1627 17.904 49.4387 17.96 49.6547 18.072C49.8707 18.184 50.0827 18.336 50.2907 18.528L50.2187 17.616V15.588H51.9827V24H50.5427L50.4227 23.412H50.3747C50.1667 23.62 49.9227 23.796 49.6427 23.94C49.3627 24.076 49.0787 24.144 48.7907 24.144ZM49.2467 22.704C49.4387 22.704 49.6107 22.664 49.7627 22.584C49.9227 22.504 50.0747 22.364 50.2187 22.164V19.728C50.0587 19.584 49.8947 19.484 49.7267 19.428C49.5587 19.372 49.3947 19.344 49.2347 19.344C48.9547 19.344 48.7067 19.48 48.4907 19.752C48.2747 20.016 48.1667 20.432 48.1667 21C48.1667 21.592 48.2587 22.024 48.4427 22.296C48.6347 22.568 48.9027 22.704 49.2467 22.704ZM53.5456 24V18.048H55.3096V24H53.5456ZM54.4216 17.172C54.1256 17.172 53.8816 17.088 53.6896 16.92C53.4976 16.744 53.4016 16.52 53.4016 16.248C53.4016 15.976 53.4976 15.756 53.6896 15.588C53.8816 15.42 54.1256 15.336 54.4216 15.336C54.7256 15.336 54.9696 15.42 55.1536 15.588C55.3456 15.756 55.4416 15.976 55.4416 16.248C55.4416 16.52 55.3456 16.744 55.1536 16.92C54.9696 17.088 54.7256 17.172 54.4216 17.172ZM59.418 24.144C59.042 24.144 58.678 24.076 58.326 23.94C57.974 23.796 57.662 23.592 57.39 23.328C57.126 23.064 56.914 22.74 56.754 22.356C56.594 21.964 56.514 21.52 56.514 21.024C56.514 20.528 56.594 20.088 56.754 19.704C56.914 19.312 57.126 18.984 57.39 18.72C57.662 18.456 57.974 18.256 58.326 18.12C58.678 17.976 59.042 17.904 59.418 17.904C59.794 17.904 60.154 17.976 60.498 18.12C60.85 18.256 61.158 18.456 61.422 18.72C61.694 18.984 61.91 19.312 62.07 19.704C62.23 20.088 62.31 20.528 62.31 21.024C62.31 21.52 62.23 21.964 62.07 22.356C61.91 22.74 61.694 23.064 61.422 23.328C61.158 23.592 60.85 23.796 60.498 23.94C60.154 24.076 59.794 24.144 59.418 24.144ZM59.418 22.716C59.778 22.716 60.05 22.564 60.234 22.26C60.418 21.956 60.51 21.544 60.51 21.024C60.51 20.504 60.418 20.092 60.234 19.788C60.05 19.484 59.778 19.332 59.418 19.332C59.05 19.332 58.774 19.484 58.59 19.788C58.414 20.092 58.326 20.504 58.326 21.024C58.326 21.544 58.414 21.956 58.59 22.26C58.774 22.564 59.05 22.716 59.418 22.716ZM66.0646 24V16.176H68.8846C69.3006 16.176 69.6886 16.216 70.0486 16.296C70.4166 16.376 70.7366 16.512 71.0086 16.704C71.2806 16.888 71.4966 17.136 71.6566 17.448C71.8166 17.76 71.8966 18.148 71.8966 18.612C71.8966 19.188 71.7686 19.664 71.5126 20.04C71.2646 20.408 70.9286 20.684 70.5046 20.868L72.2806 24H70.3006L68.8006 21.18H67.8286V24H66.0646ZM67.8286 19.776H68.7406C69.2046 19.776 69.5566 19.68 69.7966 19.488C70.0446 19.288 70.1686 18.996 70.1686 18.612C70.1686 18.228 70.0446 17.96 69.7966 17.808C69.5566 17.656 69.2046 17.58 68.7406 17.58H67.8286V19.776ZM75.8268 24.144C75.4028 24.144 75.0068 24.076 74.6388 23.94C74.2708 23.796 73.9508 23.592 73.6788 23.328C73.4068 23.056 73.1948 22.728 73.0428 22.344C72.8908 21.96 72.8148 21.52 72.8148 21.024C72.8148 20.544 72.8948 20.112 73.0548 19.728C73.2148 19.336 73.4228 19.008 73.6788 18.744C73.9428 18.472 74.2428 18.264 74.5788 18.12C74.9148 17.976 75.2628 17.904 75.6228 17.904C76.0468 17.904 76.4148 17.976 76.7268 18.12C77.0468 18.264 77.3108 18.464 77.5188 18.72C77.7348 18.976 77.8948 19.28 77.9988 19.632C78.1028 19.976 78.1548 20.352 78.1548 20.76C78.1548 20.92 78.1468 21.072 78.1308 21.216C78.1148 21.36 78.0988 21.468 78.0828 21.54H74.5188C74.5988 21.972 74.7748 22.292 75.0468 22.5C75.3268 22.7 75.6668 22.8 76.0668 22.8C76.4908 22.8 76.9188 22.668 77.3508 22.404L77.9388 23.472C77.6348 23.68 77.2948 23.844 76.9188 23.964C76.5508 24.084 76.1868 24.144 75.8268 24.144ZM74.5068 20.376H76.6548C76.6548 20.04 76.5788 19.768 76.4268 19.56C76.2748 19.352 76.0188 19.248 75.6588 19.248C75.3788 19.248 75.1308 19.34 74.9148 19.524C74.7068 19.708 74.5708 19.992 74.5068 20.376ZM79.3738 26.208V18.048H80.8138L80.9338 18.636H80.9818C81.2138 18.428 81.4738 18.256 81.7617 18.12C82.0578 17.976 82.3618 17.904 82.6738 17.904C83.0338 17.904 83.3578 17.976 83.6458 18.12C83.9338 18.264 84.1778 18.468 84.3778 18.732C84.5778 18.996 84.7298 19.316 84.8338 19.692C84.9458 20.06 85.0018 20.472 85.0018 20.928C85.0018 21.44 84.9298 21.896 84.7858 22.296C84.6498 22.688 84.4618 23.024 84.2218 23.304C83.9898 23.576 83.7218 23.784 83.4178 23.928C83.1218 24.072 82.8138 24.144 82.4938 24.144C82.2378 24.144 81.9898 24.092 81.7498 23.988C81.5098 23.876 81.2858 23.72 81.0778 23.52L81.1378 24.468V26.208H79.3738ZM82.0858 22.704C82.3898 22.704 82.6498 22.568 82.8658 22.296C83.0818 22.016 83.1898 21.568 83.1898 20.952C83.1898 19.88 82.8458 19.344 82.1578 19.344C81.8138 19.344 81.4738 19.524 81.1378 19.884V22.32C81.2978 22.464 81.4578 22.564 81.6178 22.62C81.7778 22.676 81.9338 22.704 82.0858 22.704ZM88.8087 24.144C88.4327 24.144 88.0687 24.076 87.7167 23.94C87.3647 23.796 87.0527 23.592 86.7807 23.328C86.5167 23.064 86.3047 22.74 86.1447 22.356C85.9847 21.964 85.9047 21.52 85.9047 21.024C85.9047 20.528 85.9847 20.088 86.1447 19.704C86.3047 19.312 86.5167 18.984 86.7807 18.72C87.0527 18.456 87.3647 18.256 87.7167 18.12C88.0687 17.976 88.4327 17.904 88.8087 17.904C89.1847 17.904 89.5447 17.976 89.8887 18.12C90.2407 18.256 90.5487 18.456 90.8127 18.72C91.0847 18.984 91.3007 19.312 91.4607 19.704C91.6207 20.088 91.7007 20.528 91.7007 21.024C91.7007 21.52 91.6207 21.964 91.4607 22.356C91.3007 22.74 91.0847 23.064 90.8127 23.328C90.5487 23.592 90.2407 23.796 89.8887 23.94C89.5447 24.076 89.1847 24.144 88.8087 24.144ZM88.8087 22.716C89.1687 22.716 89.4407 22.564 89.6247 22.26C89.8087 21.956 89.9007 21.544 89.9007 21.024C89.9007 20.504 89.8087 20.092 89.6247 19.788C89.4407 19.484 89.1687 19.332 88.8087 19.332C88.4407 19.332 88.1647 19.484 87.9807 19.788C87.8047 20.092 87.7167 20.504 87.7167 21.024C87.7167 21.544 87.8047 21.956 87.9807 22.26C88.1647 22.564 88.4407 22.716 88.8087 22.716ZM92.9089 24V18.048H94.3489L94.4689 19.092H94.5169C94.7329 18.684 94.9929 18.384 95.2969 18.192C95.6009 18 95.9049 17.904 96.2089 17.904C96.3769 17.904 96.5129 17.916 96.6169 17.94C96.7289 17.956 96.8289 17.984 96.9169 18.024L96.6289 19.548C96.5169 19.516 96.4129 19.492 96.3169 19.476C96.2209 19.46 96.1089 19.452 95.9809 19.452C95.7569 19.452 95.5209 19.532 95.2729 19.692C95.0329 19.852 94.8329 20.136 94.6729 20.544V24H92.9089ZM99.9822 24.144C99.6142 24.144 99.2982 24.088 99.0342 23.976C98.7782 23.864 98.5662 23.708 98.3982 23.508C98.2382 23.308 98.1182 23.068 98.0382 22.788C97.9662 22.5 97.9302 22.184 97.9302 21.84V19.428H97.1142V18.12L98.0262 18.048L98.2302 16.464H99.6942V18.048H101.122V19.428H99.6942V21.816C99.6942 22.152 99.7622 22.396 99.8982 22.548C100.042 22.692 100.23 22.764 100.462 22.764C100.558 22.764 100.654 22.752 100.75 22.728C100.854 22.704 100.946 22.676 101.026 22.644L101.302 23.928C101.142 23.976 100.954 24.024 100.738 24.072C100.522 24.12 100.27 24.144 99.9822 24.144ZM103.919 24.144C103.527 24.144 103.123 24.068 102.707 23.916C102.299 23.764 101.943 23.564 101.639 23.316L102.431 22.212C102.703 22.42 102.963 22.576 103.211 22.68C103.459 22.784 103.711 22.836 103.967 22.836C104.231 22.836 104.423 22.792 104.543 22.704C104.663 22.616 104.723 22.492 104.723 22.332C104.723 22.236 104.687 22.152 104.615 22.08C104.551 22 104.459 21.928 104.339 21.864C104.227 21.8 104.099 21.744 103.955 21.696C103.811 21.64 103.663 21.58 103.511 21.516C103.327 21.444 103.143 21.36 102.959 21.264C102.775 21.168 102.607 21.052 102.455 20.916C102.303 20.772 102.179 20.608 102.083 20.424C101.987 20.232 101.939 20.012 101.939 19.764C101.939 19.492 101.991 19.24 102.095 19.008C102.207 18.776 102.363 18.58 102.563 18.42C102.763 18.26 103.003 18.136 103.283 18.048C103.563 17.952 103.875 17.904 104.219 17.904C104.675 17.904 105.075 17.984 105.419 18.144C105.763 18.296 106.063 18.468 106.319 18.66L105.527 19.716C105.311 19.556 105.099 19.432 104.891 19.344C104.683 19.256 104.475 19.212 104.267 19.212C103.819 19.212 103.595 19.368 103.595 19.68C103.595 19.776 103.627 19.86 103.691 19.932C103.755 19.996 103.839 20.056 103.943 20.112C104.055 20.168 104.179 20.224 104.315 20.28C104.459 20.328 104.607 20.38 104.759 20.436C104.951 20.508 105.139 20.592 105.323 20.688C105.515 20.776 105.687 20.888 105.839 21.024C105.999 21.16 106.127 21.328 106.223 21.528C106.319 21.72 106.367 21.952 106.367 22.224C106.367 22.496 106.315 22.748 106.211 22.98C106.107 23.212 105.951 23.416 105.743 23.592C105.535 23.76 105.279 23.896 104.975 24C104.671 24.096 104.319 24.144 103.919 24.144Z" fill="#575757"/>
<circle cx="63" cy="68" r="29.04" stroke="#FB7A72" stroke-width="7.92"/>
<path d="M63.6602 94.4V99.68" stroke="black" stroke-width="0.66"/>
<path d="M63.6602 93.74V100.34M88.0802 69.98H95.3402" stroke="#FB7A72" stroke-width="0.66"/>
<path d="M92.04 68C92.04 51.9617 79.0383 38.96 63 38.96C46.9616 38.96 33.96 51.9617 33.96 68C33.96 84.0383 46.9616 97.04 63 97.04" stroke="#19BC81" stroke-width="7.92"/>
<path d="M33.7509 140.144C33.2229 140.144 32.7109 140.044 32.2149 139.844C31.7269 139.644 31.2949 139.36 30.9189 138.992L31.7349 138.044C32.0149 138.308 32.3349 138.524 32.6949 138.692C33.0549 138.852 33.4149 138.932 33.7749 138.932C34.2229 138.932 34.5629 138.84 34.7949 138.656C35.0269 138.472 35.1429 138.228 35.1429 137.924C35.1429 137.764 35.1109 137.628 35.0469 137.516C34.9909 137.404 34.9069 137.308 34.7949 137.228C34.6909 137.14 34.5629 137.06 34.4109 136.988C34.2669 136.916 34.1069 136.844 33.9309 136.772L32.8509 136.304C32.6589 136.224 32.4669 136.124 32.2749 136.004C32.0909 135.884 31.9229 135.74 31.7709 135.572C31.6189 135.404 31.4949 135.208 31.3989 134.984C31.3109 134.76 31.2669 134.504 31.2669 134.216C31.2669 133.904 31.3309 133.616 31.4589 133.352C31.5949 133.08 31.7789 132.844 32.0109 132.644C32.2429 132.444 32.5189 132.288 32.8389 132.176C33.1669 132.064 33.5229 132.008 33.9069 132.008C34.3629 132.008 34.8029 132.1 35.2269 132.284C35.6509 132.46 36.0149 132.7 36.3189 133.004L35.6109 133.892C35.3549 133.684 35.0909 133.52 34.8189 133.4C34.5469 133.28 34.2429 133.22 33.9069 133.22C33.5309 133.22 33.2309 133.304 33.0069 133.472C32.7829 133.632 32.6709 133.856 32.6709 134.144C32.6709 134.296 32.7029 134.428 32.7669 134.54C32.8389 134.644 32.9309 134.74 33.0429 134.828C33.1629 134.908 33.2989 134.984 33.4509 135.056C33.6029 135.12 33.7589 135.184 33.9189 135.248L34.9869 135.692C35.2189 135.788 35.4309 135.9 35.6229 136.028C35.8149 136.156 35.9789 136.304 36.1149 136.472C36.2589 136.64 36.3709 136.836 36.4509 137.06C36.5309 137.276 36.5709 137.528 36.5709 137.816C36.5709 138.136 36.5069 138.436 36.3789 138.716C36.2509 138.996 36.0629 139.244 35.8149 139.46C35.5749 139.668 35.2789 139.836 34.9269 139.964C34.5829 140.084 34.1909 140.144 33.7509 140.144ZM40.398 140.144C39.99 140.144 39.61 140.076 39.258 139.94C38.906 139.796 38.598 139.592 38.334 139.328C38.07 139.064 37.862 138.744 37.71 138.368C37.566 137.984 37.494 137.548 37.494 137.06C37.494 136.58 37.57 136.148 37.722 135.764C37.874 135.38 38.074 135.056 38.322 134.792C38.578 134.528 38.87 134.324 39.198 134.18C39.526 134.036 39.862 133.964 40.206 133.964C40.606 133.964 40.958 134.032 41.262 134.168C41.566 134.304 41.818 134.496 42.018 134.744C42.226 134.992 42.382 135.288 42.486 135.632C42.59 135.976 42.642 136.352 42.642 136.76C42.642 136.896 42.634 137.024 42.618 137.144C42.61 137.264 42.598 137.36 42.582 137.432H38.838C38.902 137.96 39.086 138.368 39.39 138.656C39.702 138.936 40.098 139.076 40.578 139.076C40.834 139.076 41.07 139.04 41.286 138.968C41.51 138.888 41.73 138.78 41.946 138.644L42.414 139.508C42.134 139.692 41.822 139.844 41.478 139.964C41.134 140.084 40.774 140.144 40.398 140.144ZM38.826 136.496H41.442C41.442 136.04 41.342 135.684 41.142 135.428C40.95 135.164 40.65 135.032 40.242 135.032C39.89 135.032 39.582 135.156 39.318 135.404C39.054 135.652 38.89 136.016 38.826 136.496ZM46.48 140.144C46.072 140.144 45.692 140.076 45.34 139.94C44.988 139.796 44.68 139.592 44.416 139.328C44.152 139.064 43.944 138.744 43.792 138.368C43.648 137.984 43.576 137.548 43.576 137.06C43.576 136.58 43.652 136.148 43.804 135.764C43.956 135.38 44.156 135.056 44.404 134.792C44.66 134.528 44.952 134.324 45.28 134.18C45.608 134.036 45.944 133.964 46.288 133.964C46.688 133.964 47.04 134.032 47.344 134.168C47.648 134.304 47.9 134.496 48.1 134.744C48.308 134.992 48.464 135.288 48.568 135.632C48.672 135.976 48.724 136.352 48.724 136.76C48.724 136.896 48.716 137.024 48.7 137.144C48.692 137.264 48.68 137.36 48.664 137.432H44.92C44.984 137.96 45.168 138.368 45.472 138.656C45.784 138.936 46.18 139.076 46.66 139.076C46.916 139.076 47.152 139.04 47.368 138.968C47.592 138.888 47.812 138.78 48.028 138.644L48.496 139.508C48.216 139.692 47.904 139.844 47.56 139.964C47.216 140.084 46.856 140.144 46.48 140.144ZM44.908 136.496H47.524C47.524 136.04 47.424 135.684 47.224 135.428C47.032 135.164 46.732 135.032 46.324 135.032C45.972 135.032 45.664 135.156 45.4 135.404C45.136 135.652 44.972 136.016 44.908 136.496ZM52.5644 140V132.152H54.1364L55.5284 135.992C55.6164 136.24 55.7004 136.496 55.7804 136.76C55.8604 137.016 55.9444 137.272 56.0324 137.528H56.0804C56.1684 137.272 56.2484 137.016 56.3204 136.76C56.4004 136.496 56.4844 136.24 56.5724 135.992L57.9284 132.152H59.5124V140H58.2284V136.412C58.2284 136.228 58.2324 136.028 58.2404 135.812C58.2564 135.596 58.2724 135.38 58.2884 135.164C58.3044 134.94 58.3244 134.724 58.3484 134.516C58.3724 134.3 58.3924 134.1 58.4084 133.916H58.3604L57.7244 135.74L56.4404 139.268H55.6124L54.3164 135.74L53.6924 133.916H53.6444C53.6604 134.1 53.6764 134.3 53.6924 134.516C53.7164 134.724 53.7364 134.94 53.7524 135.164C53.7764 135.38 53.7924 135.596 53.8004 135.812C53.8164 136.028 53.8244 136.228 53.8244 136.412V140H52.5644ZM63.7978 140.144C63.4298 140.144 63.0778 140.076 62.7418 139.94C62.4058 139.804 62.1058 139.604 61.8418 139.34C61.5858 139.076 61.3818 138.752 61.2298 138.368C61.0778 137.984 61.0018 137.548 61.0018 137.06C61.0018 136.572 61.0778 136.136 61.2298 135.752C61.3818 135.368 61.5858 135.044 61.8418 134.78C62.1058 134.516 62.4058 134.316 62.7418 134.18C63.0778 134.036 63.4298 133.964 63.7978 133.964C64.1658 133.964 64.5178 134.036 64.8538 134.18C65.1978 134.316 65.4978 134.516 65.7538 134.78C66.0098 135.044 66.2138 135.368 66.3658 135.752C66.5258 136.136 66.6058 136.572 66.6058 137.06C66.6058 137.548 66.5258 137.984 66.3658 138.368C66.2138 138.752 66.0098 139.076 65.7538 139.34C65.4978 139.604 65.1978 139.804 64.8538 139.94C64.5178 140.076 64.1658 140.144 63.7978 140.144ZM63.7978 139.016C64.2298 139.016 64.5698 138.84 64.8178 138.488C65.0658 138.128 65.1898 137.652 65.1898 137.06C65.1898 136.46 65.0658 135.984 64.8178 135.632C64.5698 135.272 64.2298 135.092 63.7978 135.092C63.3658 135.092 63.0258 135.272 62.7778 135.632C62.5378 135.984 62.4178 136.46 62.4178 137.06C62.4178 137.652 62.5378 138.128 62.7778 138.488C63.0258 138.84 63.3658 139.016 63.7978 139.016ZM67.9717 140V134.108H69.1117L69.2077 135.152H69.2557C69.4637 134.768 69.7157 134.476 70.0117 134.276C70.3077 134.068 70.6117 133.964 70.9237 133.964C71.2037 133.964 71.4277 134.004 71.5957 134.084L71.3557 135.284C71.2517 135.252 71.1557 135.228 71.0677 135.212C70.9797 135.196 70.8717 135.188 70.7437 135.188C70.5117 135.188 70.2677 135.28 70.0117 135.464C69.7557 135.64 69.5357 135.952 69.3517 136.4V140H67.9717ZM74.8511 140.144C74.4431 140.144 74.0631 140.076 73.7111 139.94C73.3591 139.796 73.0511 139.592 72.7871 139.328C72.5231 139.064 72.3151 138.744 72.1631 138.368C72.0191 137.984 71.9471 137.548 71.9471 137.06C71.9471 136.58 72.0231 136.148 72.1751 135.764C72.3271 135.38 72.5271 135.056 72.7751 134.792C73.0311 134.528 73.3231 134.324 73.6511 134.18C73.9791 134.036 74.3151 133.964 74.6591 133.964C75.0591 133.964 75.4111 134.032 75.7151 134.168C76.0191 134.304 76.2711 134.496 76.4711 134.744C76.6791 134.992 76.8351 135.288 76.9391 135.632C77.0431 135.976 77.0951 136.352 77.0951 136.76C77.0951 136.896 77.0871 137.024 77.0711 137.144C77.0631 137.264 77.0511 137.36 77.0351 137.432H73.2911C73.3551 137.96 73.5391 138.368 73.8431 138.656C74.1551 138.936 74.5511 139.076 75.0311 139.076C75.2871 139.076 75.5231 139.04 75.7391 138.968C75.9631 138.888 76.1831 138.78 76.3991 138.644L76.8671 139.508C76.5871 139.692 76.2751 139.844 75.9311 139.964C75.5871 140.084 75.2271 140.144 74.8511 140.144ZM73.2791 136.496H75.8951C75.8951 136.04 75.7951 135.684 75.5951 135.428C75.4031 135.164 75.1031 135.032 74.6951 135.032C74.3431 135.032 74.0351 135.156 73.7711 135.404C73.5071 135.652 73.3431 136.016 73.2791 136.496Z" fill="#19BC81"/>
<path d="M31.776 123L30.216 115.152H31.644L32.328 119.112C32.392 119.536 32.456 119.956 32.52 120.372C32.584 120.788 32.648 121.204 32.712 121.62H32.76C32.848 121.204 32.932 120.788 33.012 120.372C33.1 119.948 33.188 119.528 33.276 119.112L34.236 115.152H35.448L36.408 119.112C36.496 119.52 36.584 119.936 36.672 120.36C36.76 120.776 36.848 121.196 36.936 121.62H36.984C37.048 121.196 37.108 120.776 37.164 120.36C37.228 119.944 37.292 119.528 37.356 119.112L38.04 115.152H39.372L37.872 123H36.144L35.172 118.872C35.108 118.568 35.044 118.268 34.98 117.972C34.924 117.668 34.872 117.364 34.824 117.06H34.776C34.72 117.364 34.66 117.668 34.596 117.972C34.54 118.268 34.48 118.568 34.416 118.872L33.468 123H31.776ZM42.9937 123.144C42.5857 123.144 42.2057 123.076 41.8537 122.94C41.5017 122.796 41.1937 122.592 40.9297 122.328C40.6657 122.064 40.4577 121.744 40.3057 121.368C40.1617 120.984 40.0897 120.548 40.0897 120.06C40.0897 119.58 40.1657 119.148 40.3177 118.764C40.4697 118.38 40.6697 118.056 40.9177 117.792C41.1737 117.528 41.4657 117.324 41.7937 117.18C42.1217 117.036 42.4577 116.964 42.8017 116.964C43.2017 116.964 43.5537 117.032 43.8577 117.168C44.1617 117.304 44.4137 117.496 44.6137 117.744C44.8217 117.992 44.9777 118.288 45.0817 118.632C45.1857 118.976 45.2377 119.352 45.2377 119.76C45.2377 119.896 45.2297 120.024 45.2137 120.144C45.2057 120.264 45.1937 120.36 45.1777 120.432H41.4337C41.4977 120.96 41.6817 121.368 41.9857 121.656C42.2977 121.936 42.6937 122.076 43.1737 122.076C43.4297 122.076 43.6657 122.04 43.8817 121.968C44.1057 121.888 44.3257 121.78 44.5417 121.644L45.0097 122.508C44.7297 122.692 44.4177 122.844 44.0737 122.964C43.7297 123.084 43.3697 123.144 42.9937 123.144ZM41.4217 119.496H44.0377C44.0377 119.04 43.9377 118.684 43.7377 118.428C43.5457 118.164 43.2457 118.032 42.8377 118.032C42.4857 118.032 42.1777 118.156 41.9137 118.404C41.6497 118.652 41.4857 119.016 41.4217 119.496ZM49.0757 123.144C48.6677 123.144 48.2877 123.076 47.9357 122.94C47.5837 122.796 47.2757 122.592 47.0117 122.328C46.7477 122.064 46.5397 121.744 46.3877 121.368C46.2437 120.984 46.1717 120.548 46.1717 120.06C46.1717 119.58 46.2477 119.148 46.3997 118.764C46.5517 118.38 46.7517 118.056 46.9997 117.792C47.2557 117.528 47.5477 117.324 47.8757 117.18C48.2037 117.036 48.5397 116.964 48.8837 116.964C49.2837 116.964 49.6357 117.032 49.9397 117.168C50.2437 117.304 50.4957 117.496 50.6957 117.744C50.9037 117.992 51.0597 118.288 51.1637 118.632C51.2677 118.976 51.3197 119.352 51.3197 119.76C51.3197 119.896 51.3117 120.024 51.2957 120.144C51.2877 120.264 51.2757 120.36 51.2597 120.432H47.5157C47.5797 120.96 47.7637 121.368 48.0677 121.656C48.3797 121.936 48.7757 122.076 49.2557 122.076C49.5117 122.076 49.7477 122.04 49.9637 121.968C50.1877 121.888 50.4077 121.78 50.6237 121.644L51.0917 122.508C50.8117 122.692 50.4997 122.844 50.1557 122.964C49.8117 123.084 49.4517 123.144 49.0757 123.144ZM47.5037 119.496H50.1197C50.1197 119.04 50.0197 118.684 49.8197 118.428C49.6277 118.164 49.3277 118.032 48.9197 118.032C48.5677 118.032 48.2597 118.156 47.9957 118.404C47.7317 118.652 47.5677 119.016 47.5037 119.496ZM52.6377 123V114.528H53.9937V119.82H54.0297L56.2137 117.108H57.7257L55.7097 119.508L57.9297 123H56.4297L54.9177 120.444L53.9937 121.5V123H52.6377ZM60.2513 123.144C59.7553 123.144 59.4073 122.996 59.2073 122.7C59.0073 122.404 58.9073 122 58.9073 121.488V114.528H60.2873V121.56C60.2873 121.728 60.3193 121.848 60.3833 121.92C60.4473 121.984 60.5153 122.016 60.5873 122.016C60.6193 122.016 60.6473 122.016 60.6713 122.016C60.7033 122.016 60.7473 122.008 60.8033 121.992L60.9833 123.024C60.7993 123.104 60.5553 123.144 60.2513 123.144ZM62.5611 125.424C62.4011 125.424 62.2611 125.412 62.1411 125.388C62.0211 125.372 61.9051 125.344 61.7931 125.304L62.0451 124.224C62.1011 124.24 62.1651 124.256 62.2371 124.272C62.3171 124.296 62.3931 124.308 62.4651 124.308C62.7771 124.308 63.0251 124.212 63.2091 124.02C63.4011 123.836 63.5451 123.596 63.6411 123.3L63.7491 122.928L61.4331 117.108H62.8371L63.8571 120C63.9451 120.256 64.0291 120.528 64.1091 120.816C64.1971 121.096 64.2851 121.376 64.3731 121.656H64.4211C64.4931 121.384 64.5651 121.108 64.6371 120.828C64.7171 120.54 64.7931 120.264 64.8651 120L65.7531 117.108H67.0851L64.9491 123.264C64.8291 123.6 64.6971 123.9 64.5531 124.164C64.4091 124.428 64.2411 124.652 64.0491 124.836C63.8651 125.028 63.6491 125.172 63.4011 125.268C63.1611 125.372 62.8811 125.424 62.5611 125.424ZM72.9208 123.144C72.3928 123.144 71.8808 123.044 71.3848 122.844C70.8968 122.644 70.4648 122.36 70.0888 121.992L70.9048 121.044C71.1848 121.308 71.5048 121.524 71.8648 121.692C72.2248 121.852 72.5848 121.932 72.9448 121.932C73.3928 121.932 73.7328 121.84 73.9648 121.656C74.1968 121.472 74.3128 121.228 74.3128 120.924C74.3128 120.764 74.2808 120.628 74.2168 120.516C74.1608 120.404 74.0768 120.308 73.9648 120.228C73.8608 120.14 73.7328 120.06 73.5808 119.988C73.4368 119.916 73.2768 119.844 73.1008 119.772L72.0208 119.304C71.8288 119.224 71.6368 119.124 71.4448 119.004C71.2608 118.884 71.0928 118.74 70.9408 118.572C70.7888 118.404 70.6648 118.208 70.5688 117.984C70.4808 117.76 70.4368 117.504 70.4368 117.216C70.4368 116.904 70.5008 116.616 70.6288 116.352C70.7648 116.08 70.9488 115.844 71.1808 115.644C71.4128 115.444 71.6888 115.288 72.0088 115.176C72.3368 115.064 72.6928 115.008 73.0768 115.008C73.5328 115.008 73.9728 115.1 74.3968 115.284C74.8208 115.46 75.1848 115.7 75.4888 116.004L74.7808 116.892C74.5248 116.684 74.2608 116.52 73.9888 116.4C73.7168 116.28 73.4128 116.22 73.0768 116.22C72.7008 116.22 72.4008 116.304 72.1768 116.472C71.9528 116.632 71.8408 116.856 71.8408 117.144C71.8408 117.296 71.8728 117.428 71.9368 117.54C72.0088 117.644 72.1008 117.74 72.2128 117.828C72.3328 117.908 72.4688 117.984 72.6208 118.056C72.7728 118.12 72.9288 118.184 73.0888 118.248L74.1568 118.692C74.3888 118.788 74.6008 118.9 74.7928 119.028C74.9848 119.156 75.1488 119.304 75.2848 119.472C75.4288 119.64 75.5408 119.836 75.6208 120.06C75.7008 120.276 75.7408 120.528 75.7408 120.816C75.7408 121.136 75.6768 121.436 75.5488 121.716C75.4208 121.996 75.2328 122.244 74.9848 122.46C74.7448 122.668 74.4488 122.836 74.0968 122.964C73.7528 123.084 73.3608 123.144 72.9208 123.144ZM78.7759 118.824L78.4999 119.784H80.5039L80.2279 118.824C80.0999 118.408 79.9759 117.98 79.8559 117.54C79.7439 117.1 79.6319 116.664 79.5199 116.232H79.4719C79.3599 116.672 79.2479 117.112 79.1359 117.552C79.0239 117.984 78.9039 118.408 78.7759 118.824ZM76.1479 123L78.7039 115.152H80.3359L82.8919 123H81.4279L80.8159 120.876H78.1759L77.5639 123H76.1479ZM84.6698 123V116.328H82.4018V115.152H88.3298V116.328H86.0618V123H84.6698ZM92.039 123V115.152H94.691C95.099 115.152 95.479 115.192 95.831 115.272C96.183 115.352 96.487 115.484 96.743 115.668C96.999 115.844 97.199 116.08 97.343 116.376C97.495 116.672 97.571 117.04 97.571 117.48C97.571 118.08 97.427 118.564 97.139 118.932C96.859 119.3 96.483 119.564 96.011 119.724L97.883 123H96.323L94.631 119.928H93.431V123H92.039ZM93.431 118.824H94.547C95.083 118.824 95.491 118.712 95.771 118.488C96.059 118.264 96.203 117.928 96.203 117.48C96.203 117.024 96.059 116.708 95.771 116.532C95.491 116.356 95.083 116.268 94.547 116.268H93.431V118.824ZM100.378 123.144C99.8582 123.144 99.4382 122.988 99.1182 122.676C98.7982 122.356 98.6382 121.936 98.6382 121.416C98.6382 121.104 98.7022 120.828 98.8302 120.588C98.9662 120.34 99.1742 120.128 99.4542 119.952C99.7422 119.776 100.102 119.628 100.534 119.508C100.974 119.388 101.498 119.296 102.106 119.232C102.098 119.08 102.074 118.936 102.034 118.8C102.002 118.656 101.942 118.532 101.854 118.428C101.774 118.316 101.666 118.232 101.53 118.176C101.394 118.112 101.226 118.08 101.026 118.08C100.738 118.08 100.454 118.136 100.174 118.248C99.9022 118.36 99.6342 118.496 99.3702 118.656L98.8662 117.732C99.1942 117.524 99.5622 117.344 99.9702 117.192C100.378 117.04 100.818 116.964 101.29 116.964C102.026 116.964 102.574 117.184 102.934 117.624C103.302 118.056 103.486 118.684 103.486 119.508V123H102.346L102.25 122.352H102.202C101.938 122.576 101.654 122.764 101.35 122.916C101.054 123.068 100.73 123.144 100.378 123.144ZM100.822 122.064C101.062 122.064 101.278 122.008 101.47 121.896C101.67 121.784 101.882 121.624 102.106 121.416V120.096C101.706 120.144 101.37 120.208 101.098 120.288C100.826 120.368 100.606 120.46 100.438 120.564C100.27 120.66 100.15 120.772 100.078 120.9C100.006 121.028 99.9702 121.164 99.9702 121.308C99.9702 121.572 100.05 121.764 100.21 121.884C100.37 122.004 100.574 122.064 100.822 122.064ZM107.202 123.144C106.458 123.144 105.866 122.876 105.426 122.34C104.994 121.796 104.778 121.036 104.778 120.06C104.778 119.58 104.846 119.148 104.982 118.764C105.126 118.38 105.314 118.056 105.546 117.792C105.778 117.528 106.042 117.324 106.338 117.18C106.642 117.036 106.954 116.964 107.274 116.964C107.61 116.964 107.894 117.024 108.126 117.144C108.358 117.256 108.59 117.412 108.822 117.612L108.774 116.664V114.528H110.154V123H109.014L108.918 122.364H108.87C108.654 122.58 108.402 122.764 108.114 122.916C107.826 123.068 107.522 123.144 107.202 123.144ZM107.538 122.004C107.978 122.004 108.39 121.784 108.774 121.344V118.596C108.566 118.412 108.362 118.284 108.162 118.212C107.97 118.14 107.774 118.104 107.574 118.104C107.19 118.104 106.866 118.272 106.602 118.608C106.338 118.944 106.206 119.424 106.206 120.048C106.206 120.688 106.318 121.176 106.542 121.512C106.774 121.84 107.106 122.004 107.538 122.004ZM111.911 123V117.108H113.291V123H111.911ZM112.607 116.076C112.359 116.076 112.155 116.004 111.995 115.86C111.835 115.716 111.755 115.528 111.755 115.296C111.755 115.064 111.835 114.876 111.995 114.732C112.155 114.58 112.359 114.504 112.607 114.504C112.855 114.504 113.059 114.58 113.219 114.732C113.379 114.876 113.459 115.064 113.459 115.296C113.459 115.528 113.379 115.716 113.219 115.86C113.059 116.004 112.855 116.076 112.607 116.076ZM117.464 123.144C117.096 123.144 116.744 123.076 116.408 122.94C116.072 122.804 115.772 122.604 115.508 122.34C115.252 122.076 115.048 121.752 114.896 121.368C114.744 120.984 114.668 120.548 114.668 120.06C114.668 119.572 114.744 119.136 114.896 118.752C115.048 118.368 115.252 118.044 115.508 117.78C115.772 117.516 116.072 117.316 116.408 117.18C116.744 117.036 117.096 116.964 117.464 116.964C117.832 116.964 118.184 117.036 118.52 117.18C118.864 117.316 119.164 117.516 119.42 117.78C119.676 118.044 119.88 118.368 120.032 118.752C120.192 119.136 120.272 119.572 120.272 120.06C120.272 120.548 120.192 120.984 120.032 121.368C119.88 121.752 119.676 122.076 119.42 122.34C119.164 122.604 118.864 122.804 118.52 122.94C118.184 123.076 117.832 123.144 117.464 123.144ZM117.464 122.016C117.896 122.016 118.236 121.84 118.484 121.488C118.732 121.128 118.856 120.652 118.856 120.06C118.856 119.46 118.732 118.984 118.484 118.632C118.236 118.272 117.896 118.092 117.464 118.092C117.032 118.092 116.692 118.272 116.444 118.632C116.204 118.984 116.084 119.46 116.084 120.06C116.084 120.652 116.204 121.128 116.444 121.488C116.692 121.84 117.032 122.016 117.464 122.016ZM124.16 123V115.152H126.812C127.22 115.152 127.6 115.192 127.952 115.272C128.304 115.352 128.608 115.484 128.864 115.668C129.12 115.844 129.32 116.08 129.464 116.376C129.616 116.672 129.692 117.04 129.692 117.48C129.692 118.08 129.548 118.564 129.26 118.932C128.98 119.3 128.604 119.564 128.132 119.724L130.004 123H128.444L126.752 119.928H125.552V123H124.16ZM125.552 118.824H126.668C127.204 118.824 127.612 118.712 127.892 118.488C128.18 118.264 128.324 117.928 128.324 117.48C128.324 117.024 128.18 116.708 127.892 116.532C127.612 116.356 127.204 116.268 126.668 116.268H125.552V118.824ZM133.544 123.144C133.136 123.144 132.756 123.076 132.404 122.94C132.052 122.796 131.744 122.592 131.48 122.328C131.216 122.064 131.008 121.744 130.856 121.368C130.712 120.984 130.64 120.548 130.64 120.06C130.64 119.58 130.716 119.148 130.868 118.764C131.02 118.38 131.22 118.056 131.468 117.792C131.724 117.528 132.016 117.324 132.344 117.18C132.672 117.036 133.008 116.964 133.352 116.964C133.752 116.964 134.104 117.032 134.408 117.168C134.712 117.304 134.964 117.496 135.164 117.744C135.372 117.992 135.528 118.288 135.632 118.632C135.736 118.976 135.788 119.352 135.788 119.76C135.788 119.896 135.78 120.024 135.764 120.144C135.756 120.264 135.744 120.36 135.728 120.432H131.984C132.048 120.96 132.232 121.368 132.536 121.656C132.848 121.936 133.244 122.076 133.724 122.076C133.98 122.076 134.216 122.04 134.432 121.968C134.656 121.888 134.876 121.78 135.092 121.644L135.56 122.508C135.28 122.692 134.968 122.844 134.624 122.964C134.28 123.084 133.92 123.144 133.544 123.144ZM131.972 119.496H134.588C134.588 119.04 134.488 118.684 134.288 118.428C134.096 118.164 133.796 118.032 133.388 118.032C133.036 118.032 132.728 118.156 132.464 118.404C132.2 118.652 132.036 119.016 131.972 119.496ZM137.106 125.328V117.108H138.246L138.342 117.732H138.39C138.638 117.524 138.914 117.344 139.218 117.192C139.522 117.04 139.838 116.964 140.166 116.964C140.534 116.964 140.858 117.036 141.138 117.18C141.426 117.316 141.67 117.516 141.87 117.78C142.07 118.044 142.222 118.36 142.326 118.728C142.43 119.096 142.482 119.508 142.482 119.964C142.482 120.468 142.41 120.92 142.266 121.32C142.13 121.712 141.946 122.044 141.714 122.316C141.482 122.58 141.214 122.784 140.91 122.928C140.606 123.072 140.29 123.144 139.962 123.144C139.706 123.144 139.45 123.088 139.194 122.976C138.938 122.864 138.69 122.704 138.45 122.496L138.486 123.48V125.328H137.106ZM139.674 122.004C140.066 122.004 140.394 121.836 140.658 121.5C140.922 121.156 141.054 120.648 141.054 119.976C141.054 119.384 140.954 118.924 140.754 118.596C140.554 118.268 140.23 118.104 139.782 118.104C139.366 118.104 138.934 118.324 138.486 118.764V121.512C138.702 121.696 138.91 121.824 139.11 121.896C139.31 121.968 139.498 122.004 139.674 122.004ZM146.292 123.144C145.924 123.144 145.572 123.076 145.236 122.94C144.9 122.804 144.6 122.604 144.336 122.34C144.08 122.076 143.876 121.752 143.724 121.368C143.572 120.984 143.496 120.548 143.496 120.06C143.496 119.572 143.572 119.136 143.724 118.752C143.876 118.368 144.08 118.044 144.336 117.78C144.6 117.516 144.9 117.316 145.236 117.18C145.572 117.036 145.924 116.964 146.292 116.964C146.66 116.964 147.012 117.036 147.348 117.18C147.692 117.316 147.992 117.516 148.248 117.78C148.504 118.044 148.708 118.368 148.86 118.752C149.02 119.136 149.1 119.572 149.1 120.06C149.1 120.548 149.02 120.984 148.86 121.368C148.708 121.752 148.504 122.076 148.248 122.34C147.992 122.604 147.692 122.804 147.348 122.94C147.012 123.076 146.66 123.144 146.292 123.144ZM146.292 122.016C146.724 122.016 147.064 121.84 147.312 121.488C147.56 121.128 147.684 120.652 147.684 120.06C147.684 119.46 147.56 118.984 147.312 118.632C147.064 118.272 146.724 118.092 146.292 118.092C145.86 118.092 145.52 118.272 145.272 118.632C145.032 118.984 144.912 119.46 144.912 120.06C144.912 120.652 145.032 121.128 145.272 121.488C145.52 121.84 145.86 122.016 146.292 122.016ZM150.466 123V117.108H151.606L151.702 118.152H151.75C151.958 117.768 152.21 117.476 152.506 117.276C152.802 117.068 153.106 116.964 153.418 116.964C153.698 116.964 153.922 117.004 154.09 117.084L153.85 118.284C153.746 118.252 153.65 118.228 153.562 118.212C153.474 118.196 153.366 118.188 153.238 118.188C153.006 118.188 152.762 118.28 152.506 118.464C152.25 118.64 152.03 118.952 151.846 119.4V123H150.466ZM157.018 123.144C156.674 123.144 156.382 123.092 156.142 122.988C155.91 122.884 155.718 122.74 155.566 122.556C155.422 122.364 155.314 122.14 155.242 121.884C155.178 121.62 155.146 121.328 155.146 121.008V118.2H154.306V117.168L155.218 117.108L155.386 115.5H156.538V117.108H158.038V118.2H156.538V121.008C156.538 121.696 156.814 122.04 157.366 122.04C157.47 122.04 157.574 122.028 157.678 122.004C157.79 121.98 157.89 121.948 157.978 121.908L158.218 122.928C158.058 122.984 157.874 123.032 157.666 123.072C157.466 123.12 157.25 123.144 157.018 123.144Z" fill="#858484"/>
<path d="M109.588 74V72.032H106.216V71.096L109.24 66.368H110.884V70.964H111.844V72.032H110.884V74H109.588ZM107.584 70.964H109.588V69.236C109.588 69.012 109.592 68.748 109.6 68.444C109.616 68.14 109.632 67.876 109.648 67.652H109.6C109.504 67.852 109.404 68.048 109.3 68.24C109.196 68.432 109.088 68.632 108.976 68.84L107.584 70.964ZM115.74 74V72.032H112.368V71.096L115.392 66.368H117.036V70.964H117.996V72.032H117.036V74H115.74ZM113.736 70.964H115.74V69.236C115.74 69.012 115.744 68.748 115.752 68.444C115.768 68.14 115.784 67.876 115.8 67.652H115.752C115.656 67.852 115.556 68.048 115.452 68.24C115.348 68.432 115.24 68.632 115.128 68.84L113.736 70.964ZM119.181 74V65.528H120.537V70.82H120.573L122.757 68.108H124.269L122.253 70.508L124.473 74H122.973L121.461 71.444L120.537 72.5V74H119.181ZM125.57 74V66.152H126.962V69.308H130.142V66.152H131.534V74H130.142V70.52H126.962V74H125.57ZM133.011 74V73.16L136.803 67.328H133.359V66.152H138.531V66.992L134.727 72.824H138.555V74H133.011ZM139.156 75.92L141.952 65.48H142.888L140.092 75.92H139.156ZM144.133 74V66.152H145.705L147.097 69.992C147.185 70.24 147.269 70.496 147.349 70.76C147.429 71.016 147.513 71.272 147.601 71.528H147.649C147.737 71.272 147.817 71.016 147.889 70.76C147.969 70.496 148.053 70.24 148.141 69.992L149.497 66.152H151.081V74H149.797V70.412C149.797 70.228 149.801 70.028 149.809 69.812C149.825 69.596 149.841 69.38 149.857 69.164C149.873 68.94 149.893 68.724 149.917 68.516C149.941 68.3 149.961 68.1 149.977 67.916H149.929L149.293 69.74L148.009 73.268H147.181L145.885 69.74L145.261 67.916H145.213C145.229 68.1 145.245 68.3 145.261 68.516C145.285 68.724 145.305 68.94 145.321 69.164C145.345 69.38 145.361 69.596 145.369 69.812C145.385 70.028 145.393 70.228 145.393 70.412V74H144.133ZM152.558 74V73.16L156.35 67.328H152.906V66.152H158.078V66.992L154.274 72.824H158.102V74H152.558Z" fill="#858484"/>
<g filter="url(#filter1_d)">
<rect x="-6" y="174" width="191" height="320" rx="8" fill="white"/>
</g>
</g>
<defs>
<filter id="filter0_d" x="-36" y="-33" width="251" height="221" filterUnits="userSpaceOnUse" color-interpolation-filters="sRGB">
<feFlood flood-opacity="0" result="BackgroundImageFix"/>
<feColorMatrix in="SourceAlpha" type="matrix" values="0 0 0 0 0 0 0 0 0 0 0 0 0 0 0 0 0 0 127 0"/>
<feOffset dy="2"/>
<feGaussianBlur stdDeviation="15"/>
<feColorMatrix type="matrix" values="0 0 0 0 0 0 0 0 0 0 0 0 0 0 0 0 0 0 0.1 0"/>
<feBlend mode="normal" in2="BackgroundImageFix" result="effect1_dropShadow"/>
<feBlend mode="normal" in="SourceGraphic" in2="effect1_dropShadow" result="shape"/>
</filter>
<filter id="filter1_d" x="-36" y="146" width="251" height="380" filterUnits="userSpaceOnUse" color-interpolation-filters="sRGB">
<feFlood flood-opacity="0" result="BackgroundImageFix"/>
<feColorMatrix in="SourceAlpha" type="matrix" values="0 0 0 0 0 0 0 0 0 0 0 0 0 0 0 0 0 0 127 0"/>
<feOffset dy="2"/>
<feGaussianBlur stdDeviation="15"/>
<feColorMatrix type="matrix" values="0 0 0 0 0 0 0 0 0 0 0 0 0 0 0 0 0 0 0.1 0"/>
<feBlend mode="normal" in2="BackgroundImageFix" result="effect1_dropShadow"/>
<feBlend mode="normal" in="SourceGraphic" in2="effect1_dropShadow" result="shape"/>
</filter>
<clipPath id="clip0">
<rect width="1440" height="900" fill="white" transform="translate(-1223 -302)"/>
</clipPath>
</defs>
</svg>
