<svg width="263" height="263" viewBox="0 0 263 263" fill="none" xmlns="http://www.w3.org/2000/svg">
<path d="M71.7139 18.2353C71.1413 17.6607 70.4608 17.2047 69.7116 16.8936C68.9623 16.5825 68.159 16.4224 67.3477 16.4224C66.5365 16.4224 65.7332 16.5825 64.9839 16.8936C64.2347 17.2047 63.5542 17.6607 62.9815 18.2353L30.2709 50.7559L18.6105 39.3935C18.0379 38.8188 17.3574 38.3629 16.6082 38.0518C15.8589 37.7407 15.0556 37.5805 14.2443 37.5805C13.4331 37.5805 12.6298 37.7407 11.8805 38.0518C11.1313 38.3629 10.4508 38.8188 9.87812 39.3935L1.81347 47.4684C1.23882 48.0411 0.782862 48.7215 0.471749 49.4708C0.160637 50.2201 0.000488281 51.0234 0.000488281 51.8346C0.000488281 52.6459 0.160637 53.4492 0.471749 54.1985C0.782862 54.9477 1.23882 55.6282 1.81347 56.2008L26.2591 80.5489C27.4793 81.7088 29.0985 82.3555 30.782 82.3555C32.4655 82.3555 34.0847 81.7088 35.3049 80.5489L43.313 72.5253L80.4001 35.4434C81.5557 34.2869 82.2086 32.7214 82.2173 31.0866C82.2259 29.4518 81.5896 27.8796 80.4464 26.7109L71.7139 18.2353ZM71.7139 100.007C71.1413 99.4321 70.4608 98.9762 69.7116 98.6651C68.9623 98.3539 68.159 98.1938 67.3477 98.1938C66.5365 98.1938 65.7332 98.3539 64.9839 98.6651C64.2347 98.9762 63.5542 99.4321 62.9815 100.007L30.2709 132.738L18.6105 121.386C18.0379 120.811 17.3574 120.355 16.6082 120.044C15.8589 119.733 15.0556 119.573 14.2443 119.573C13.4331 119.573 12.6298 119.733 11.8805 120.044C11.1313 120.355 10.4508 120.811 9.87812 121.386L1.81347 129.445C1.23882 130.018 0.782862 130.698 0.471749 131.448C0.160637 132.197 0.000488281 133 0.000488281 133.812C0.000488281 134.623 0.160637 135.426 0.471749 136.175C0.782862 136.925 1.23882 137.605 1.81347 138.178L26.1975 162.577C27.4168 163.737 29.0351 164.383 30.7178 164.383C32.4004 164.383 34.0188 163.737 35.2381 162.577L43.3028 154.518L80.3899 117.42C81.541 116.272 82.1917 114.715 82.2004 113.089C82.209 111.463 81.5749 109.9 80.4361 108.739L71.7139 100.007ZM32.8752 189.031C19.268 189.031 7.9159 200.075 7.9159 213.687C7.9159 227.3 19.2783 238.344 32.8752 238.344C39.4145 238.344 45.6859 235.746 50.3098 231.122C54.9338 226.498 57.5315 220.227 57.5315 213.687C57.5315 207.148 54.9338 200.877 50.3098 196.253C45.6859 191.629 39.4145 189.031 32.8752 189.031ZM254.781 197.25H106.844C104.664 197.25 102.574 198.116 101.032 199.657C99.4911 201.199 98.6252 203.289 98.6252 205.469V221.906C98.6252 224.086 99.4911 226.176 101.032 227.718C102.574 229.259 104.664 230.125 106.844 230.125H254.781C256.961 230.125 259.052 229.259 260.593 227.718C262.134 226.176 263 224.086 263 221.906V205.469C263 203.289 262.134 201.199 260.593 199.657C259.052 198.116 256.961 197.25 254.781 197.25ZM254.781 32.875H106.844C104.664 32.875 102.574 33.7409 101.032 35.2822C99.4911 36.8235 98.6252 38.914 98.6252 41.0937V57.5312C98.6252 59.711 99.4911 61.8015 101.032 63.3428C102.574 64.8841 104.664 65.75 106.844 65.75H254.781C256.961 65.75 259.052 64.8841 260.593 63.3428C262.134 61.8015 263 59.711 263 57.5312V41.0937C263 38.914 262.134 36.8235 260.593 35.2822C259.052 33.7409 256.961 32.875 254.781 32.875V32.875ZM254.781 115.062H106.844C104.664 115.062 102.574 115.928 101.032 117.47C99.4911 119.011 98.6252 121.102 98.6252 123.281V139.719C98.6252 141.898 99.4911 143.989 101.032 145.53C102.574 147.072 104.664 147.937 106.844 147.937H254.781C256.961 147.937 259.052 147.072 260.593 145.53C262.134 143.989 263 141.898 263 139.719V123.281C263 121.102 262.134 119.011 260.593 117.47C259.052 115.928 256.961 115.062 254.781 115.062Z" fill="white"/>
</svg>
