<svg width="153" height="119" viewBox="0 0 153 119" fill="none" xmlns="http://www.w3.org/2000/svg">
<path d="M76.5 0C34.2497 0 0 34.2497 0 76.5C0 90.525 3.78516 103.663 10.3753 114.962C11.8655 117.518 14.705 119 17.6641 119H135.336C138.295 119 141.135 117.518 142.625 114.962C149.215 103.663 153 90.525 153 76.5C153 34.2497 118.75 0 76.5 0ZM76.5 17C80.4073 17 83.5603 19.6908 84.5538 23.282C84.2589 23.8823 83.8525 24.4056 83.6373 25.0537L81.1883 32.4036C79.8256 33.3306 78.2744 34 76.5027 34C71.8091 34 68.0027 30.1936 68.0027 25.5C68.0027 20.8064 71.8064 17 76.5 17ZM25.5 93.5C20.8064 93.5 17 89.6936 17 85C17 80.3064 20.8064 76.5 25.5 76.5C30.1936 76.5 34 80.3064 34 85C34 89.6936 30.1936 93.5 25.5 93.5ZM38.25 51C33.5564 51 29.75 47.1936 29.75 42.5C29.75 37.8064 33.5564 34 38.25 34C42.9436 34 46.75 37.8064 46.75 42.5C46.75 47.1936 42.9436 51 38.25 51ZM103.798 31.7661L87.5075 80.6411C91.1439 83.7595 93.5 88.3309 93.5 93.5C93.5 96.6131 92.6022 99.4898 91.1412 102H61.8588C60.3978 99.4898 59.5 96.6131 59.5 93.5C59.5 84.4847 66.5391 77.1827 75.4109 76.6089L91.7044 27.7312C92.812 24.395 96.4139 22.5648 99.7688 23.7017C103.108 24.8147 104.909 28.4272 103.798 31.7661V31.7661ZM107.692 46.9598L111.815 34.595C112.737 34.2523 113.709 34.0027 114.75 34.0027C119.444 34.0027 123.25 37.8091 123.25 42.5027C123.25 47.1962 119.444 51.0027 114.75 51.0027C111.727 51 109.201 49.3345 107.692 46.9598ZM127.5 93.5C122.806 93.5 119 89.6936 119 85C119 80.3064 122.806 76.5 127.5 76.5C132.194 76.5 136 80.3064 136 85C136 89.6936 132.194 93.5 127.5 93.5Z" fill="white"/>
</svg>
