<svg width="476" height="497" viewBox="0 0 476 497" fill="none" xmlns="http://www.w3.org/2000/svg">
<path d="M469.4 307.7L426.8 283.1C431.1 259.9 431.1 236.1 426.8 212.9L469.4 188.3C474.3 185.5 476.5 179.7 474.9 174.3C463.8 138.7 444.9 106.5 420.2 79.7001C416.4 75.6001 410.2 74.6001 405.4 77.4001L362.8 102C344.9 86.6001 324.3 74.7001 302 66.9001V17.8001C302 12.2001 298.1 7.30006 292.6 6.10006C255.9 -2.09994 218.3 -1.69994 183.4 6.10006C177.9 7.30006 174 12.2001 174 17.8001V67.0001C151.8 74.9001 131.2 86.8001 113.2 102.1L70.7002 77.5001C65.8002 74.7001 59.7002 75.6001 55.9002 79.8001C31.2002 106.5 12.3002 138.7 1.20016 174.4C-0.499838 179.8 1.80016 185.6 6.70016 188.4L49.3002 213C45.0002 236.2 45.0002 260 49.3002 283.2L6.70016 307.8C1.80016 310.6 -0.399838 316.4 1.20016 321.8C12.3002 357.4 31.2002 389.6 55.9002 416.4C59.7002 420.5 65.9002 421.5 70.7002 418.7L113.3 394.1C131.2 409.5 151.8 421.4 174.1 429.2V478.4C174.1 484 178 488.9 183.5 490.1C220.2 498.3 257.8 497.9 292.7 490.1C298.2 488.9 302.1 484 302.1 478.4V429.2C324.3 421.3 344.9 409.4 362.9 394.1L405.5 418.7C410.4 421.5 416.5 420.6 420.3 416.4C445 389.7 463.9 357.5 475 321.8C476.5 316.3 474.3 310.5 469.4 307.7V307.7ZM238 328C193.9 328 158 292.1 158 248C158 203.9 193.9 168 238 168C282.1 168 318 203.9 318 248C318 292.1 282.1 328 238 328Z" fill="white"/>
</svg>
