<svg width="280" height="320" viewBox="0 0 280 320" fill="none" xmlns="http://www.w3.org/2000/svg">
<path d="M280 45.7144V74.2856C280 99.4644 217.292 120 140 120C62.7081 120 0 99.4644 0 74.2856V45.7144C0 20.5356 62.7081 0 140 0C217.292 0 280 20.5356 280 45.7144ZM280 110V174.286C280 199.464 217.292 220 140 220C62.7081 220 0 199.464 0 174.286V110C30.0781 130.714 85.13 140.358 140 140.358C194.87 140.358 249.921 130.714 280 110ZM280 210V274.286C280 299.464 217.292 320 140 320C62.7081 320 0 299.464 0 274.286V210C30.0781 230.714 85.13 240.357 140 240.357C194.87 240.357 249.921 230.714 280 210Z" fill="white"/>
</svg>
