<svg width="95" height="46" viewBox="0 0 95 46" fill="none" xmlns="http://www.w3.org/2000/svg">
<path d="M22.8699 7.25374H30.7175L32.9848 0.325928H70.7072L72.9745 7.25374H74.6458H76.2864H94.8047V28.6355L75.348 22.878H73.4525V45.1751H58.4014L61.1533 31.6444C57.242 31.4803 54.3786 30.3505 52.6614 28.257C51.0853 26.3353 50.8972 24.1226 50.9431 22.878H45.7981V38.3731H34.7819L37.933 22.878H22.872V15.1944H0.195312V9.64796H22.8699V7.25374ZM76.2864 21.4451L93.1641 26.4392V8.89437H76.2864V21.4451ZM69.5183 1.96655H34.1748L32.4445 7.25374H71.2486L69.5183 1.96655ZM60.4084 43.5345H71.8119V22.878H64.6106L60.4084 43.5345ZM53.9411 27.2311C55.3892 28.9833 57.9333 29.9119 61.4836 30.0158L62.935 22.8769H59.5192C59.7937 24.0997 59.6406 25.7425 58.0416 27.0845L56.9861 25.8289C58.2669 24.7537 58.0492 23.5091 57.8141 22.8769H52.587C52.5455 23.8426 52.6658 25.6867 53.9411 27.2311ZM36.7889 36.7314H44.1564V22.878H39.6053L36.7889 36.7314ZM24.5105 9.64796V15.1944V21.2373H38.2655H45.797H63.2686H73.4514H74.6458V8.89437H73.5116H30.1805H24.5105V9.64796ZM1.83594 11.2886V13.5537H22.8699V11.2886H1.83594Z" fill="#575757"/>
</svg>
