<svg width="302" height="228" viewBox="0 0 302 228" fill="none" xmlns="http://www.w3.org/2000/svg">
<path d="M273.688 0.75H28.3125C12.6757 0.75 0 13.4257 0 29.0625V198.938C0 214.574 12.6757 227.25 28.3125 227.25H273.688C289.324 227.25 302 214.574 302 198.938V29.0625C302 13.4257 289.324 0.75 273.688 0.75ZM273.688 29.0625V53.1311C260.462 63.901 239.377 80.6479 194.302 115.944C184.369 123.757 164.691 142.529 151 142.31C137.311 142.531 117.627 123.754 107.698 115.944C62.6296 80.6532 41.5397 63.9028 28.3125 53.1311V29.0625H273.688ZM28.3125 198.938V89.4613C41.8282 100.227 60.9952 115.333 90.2095 138.21C103.102 148.358 125.679 170.761 151 170.624C176.196 170.761 198.488 148.683 211.785 138.214C240.999 115.338 260.171 100.228 273.688 89.4619V198.938H28.3125Z" fill="white"/>
</svg>
