<svg width="281" height="322" viewBox="0 0 281 322" fill="none" xmlns="http://www.w3.org/2000/svg">
<path d="M275.599 227.24C263.481 214.219 240.807 194.63 240.807 130.464C240.807 81.7283 206.635 42.7145 160.559 33.1429V20.0714C160.559 8.98824 151.577 0 140.5 0C129.423 0 120.441 8.98824 120.441 20.0714V33.1429C74.3646 42.7145 40.193 81.7283 40.193 130.464C40.193 194.63 17.5185 214.219 5.40041 227.24C1.63702 231.286 -0.0314162 236.122 -5.46203e-05 240.857C0.0689409 251.144 8.14142 260.929 20.1341 260.929H260.866C272.858 260.929 280.937 251.144 281 240.857C281.031 236.122 279.363 231.279 275.599 227.24V227.24ZM42.3569 230.821C55.6668 213.278 70.2186 184.199 70.2876 130.828C70.2876 130.703 70.2499 130.59 70.2499 130.464C70.2499 91.6637 101.699 60.2143 140.5 60.2143C179.301 60.2143 210.75 91.6637 210.75 130.464C210.75 130.59 210.712 130.703 210.712 130.828C210.781 184.206 225.333 213.284 238.643 230.821H42.3569ZM140.5 321.143C162.654 321.143 180.624 303.173 180.624 281H100.376C100.376 303.173 118.346 321.143 140.5 321.143Z" fill="white"/>
</svg>
