<svg width="289" height="331" viewBox="0 0 289 331" fill="none" xmlns="http://www.w3.org/2000/svg">
<path d="M95.4732 185.786H69.6696C65.4121 185.786 61.9286 182.302 61.9286 178.045V152.241C61.9286 147.983 65.4121 144.5 69.6696 144.5H95.4732C99.7308 144.5 103.214 147.983 103.214 152.241V178.045C103.214 182.302 99.7308 185.786 95.4732 185.786ZM165.143 178.045V152.241C165.143 147.983 161.659 144.5 157.402 144.5H131.598C127.341 144.5 123.857 147.983 123.857 152.241V178.045C123.857 182.302 127.341 185.786 131.598 185.786H157.402C161.659 185.786 165.143 182.302 165.143 178.045ZM227.071 178.045V152.241C227.071 147.983 223.588 144.5 219.33 144.5H193.527C189.269 144.5 185.786 147.983 185.786 152.241V178.045C185.786 182.302 189.269 185.786 193.527 185.786H219.33C223.588 185.786 227.071 182.302 227.071 178.045ZM165.143 239.973V214.17C165.143 209.912 161.659 206.429 157.402 206.429H131.598C127.341 206.429 123.857 209.912 123.857 214.17V239.973C123.857 244.231 127.341 247.714 131.598 247.714H157.402C161.659 247.714 165.143 244.231 165.143 239.973ZM103.214 239.973V214.17C103.214 209.912 99.7308 206.429 95.4732 206.429H69.6696C65.4121 206.429 61.9286 209.912 61.9286 214.17V239.973C61.9286 244.231 65.4121 247.714 69.6696 247.714H95.4732C99.7308 247.714 103.214 244.231 103.214 239.973ZM227.071 239.973V214.17C227.071 209.912 223.588 206.429 219.33 206.429H193.527C189.269 206.429 185.786 209.912 185.786 214.17V239.973C185.786 244.231 189.269 247.714 193.527 247.714H219.33C223.588 247.714 227.071 244.231 227.071 239.973ZM289 72.25V299.321C289 316.416 275.131 330.286 258.036 330.286H30.9643C13.8694 330.286 0 316.416 0 299.321V72.25C0 55.1551 13.8694 41.2857 30.9643 41.2857H61.9286V7.74107C61.9286 3.48348 65.4121 0 69.6696 0H95.4732C99.7308 0 103.214 3.48348 103.214 7.74107V41.2857H185.786V7.74107C185.786 3.48348 189.269 0 193.527 0H219.33C223.588 0 227.071 3.48348 227.071 7.74107V41.2857H258.036C275.131 41.2857 289 55.1551 289 72.25ZM258.036 295.451V103.214H30.9643V295.451C30.9643 297.58 32.706 299.321 34.8348 299.321H254.165C256.294 299.321 258.036 297.58 258.036 295.451Z" fill="white"/>
</svg>
